M48
; DRILL file {KiCad 5.1.1-8be2ce7~80~ubuntu18.04.1} date Chủ nhật, 21 Tháng 4 Năm 2019 11:51:39 +07
; FORMAT={-:-/ absolute / metric / decimal}
; #@! TF.CreationDate,2019-04-21T11:51:39+07:00
; #@! TF.GenerationSoftware,Kicad,Pcbnew,5.1.1-8be2ce7~80~ubuntu18.04.1
; #@! TF.FileFunction,Plated,1,2,PTH
FMAT,2
METRIC
T1C0.300
T2C0.400
T3C0.800
T4C1.000
T5C1.500
%
G90
G05
T1
X128.088Y-98.006
T2
X93.358Y-98.184
X93.358Y-99.184
X93.358Y-100.184
X93.358Y-101.184
X93.358Y-102.184
X93.358Y-103.184
X93.358Y-104.184
X93.358Y-105.184
X93.358Y-106.184
X93.358Y-107.184
X93.358Y-108.184
X93.358Y-109.184
X93.358Y-110.184
X93.358Y-111.184
X93.358Y-112.184
X93.358Y-113.184
X93.358Y-114.184
X93.358Y-115.184
X93.358Y-116.184
X93.358Y-117.184
X93.358Y-118.184
X93.358Y-119.184
X93.358Y-120.184
X93.358Y-121.184
X93.358Y-122.184
X93.358Y-123.184
X93.358Y-124.184
X93.358Y-125.184
X93.358Y-126.184
X93.358Y-127.184
X93.358Y-128.184
X93.358Y-129.184
X93.358Y-130.184
X93.358Y-131.184
X93.358Y-132.184
X93.358Y-133.184
X93.358Y-134.184
X93.358Y-135.184
X93.358Y-136.184
X93.358Y-137.184
X93.358Y-138.184
X93.358Y-139.184
X93.358Y-140.184
X93.358Y-141.184
X93.358Y-142.184
X93.358Y-143.184
X93.358Y-144.184
X93.358Y-145.184
X93.358Y-146.184
X94.247Y-146.685
X94.358Y-98.184
X95.247Y-146.685
X95.358Y-98.184
X95.987Y-99.416
X95.987Y-100.416
X95.987Y-101.416
X95.987Y-102.416
X95.987Y-103.416
X95.987Y-104.416
X95.987Y-105.416
X95.987Y-106.416
X95.987Y-107.416
X95.987Y-108.416
X95.987Y-109.416
X95.987Y-110.416
X95.987Y-111.416
X95.987Y-112.416
X95.987Y-113.416
X95.987Y-114.416
X95.987Y-115.416
X95.987Y-116.416
X95.987Y-117.416
X95.987Y-118.416
X96.247Y-146.685
X96.358Y-98.184
X96.777Y-119.144
X97.247Y-146.685
X97.358Y-98.184
X97.831Y-119.243
X97.831Y-120.264
X97.838Y-121.293
X98.232Y-122.283
X98.247Y-146.685
X98.358Y-98.184
X98.478Y-131.492
X98.478Y-132.492
X98.478Y-133.492
X98.478Y-134.492
X98.478Y-135.492
X98.478Y-136.492
X98.478Y-137.492
X98.478Y-138.492
X98.478Y-139.492
X98.478Y-140.492
X98.478Y-141.492
X98.478Y-142.492
X98.478Y-143.492
X98.478Y-144.399
X98.806Y-145.288
X98.979Y-123.071
X99.068Y-130.67
X99.247Y-146.685
X99.358Y-98.184
X99.568Y-145.923
X99.799Y-129.931
X99.842Y-123.66
X100.247Y-146.685
X100.358Y-98.184
X100.543Y-129.174
X100.846Y-123.749
X101.247Y-146.685
X101.29Y-128.448
X101.358Y-98.184
X101.727Y-145.923
X101.841Y-123.472
X102.032Y-127.696
X102.247Y-146.685
X102.334Y-119.86
X102.358Y-98.184
X102.362Y-145.288
X102.568Y-122.761
X102.718Y-134.485
X102.718Y-135.485
X102.718Y-136.485
X102.718Y-137.485
X102.718Y-138.485
X102.718Y-139.485
X102.718Y-140.485
X102.718Y-141.485
X102.718Y-142.485
X102.718Y-143.485
X102.733Y-133.327
X102.743Y-144.399
X102.771Y-126.964
X102.888Y-120.767
X102.921Y-121.806
X103.247Y-146.685
X103.358Y-98.184
X103.464Y-132.575
X103.563Y-126.251
X103.868Y-118.681
X104.036Y-117.688
X104.043Y-116.627
X104.054Y-120.025
X104.092Y-121.061
X104.145Y-99.372
X104.226Y-131.816
X104.247Y-146.685
X104.358Y-98.184
X104.518Y-125.793
X104.64Y-121.938
X104.976Y-131.084
X105.245Y-99.372
X105.247Y-146.685
X105.358Y-98.184
X105.359Y-122.644
X105.557Y-125.745
X105.71Y-130.343
X106.215Y-123.193
X106.22Y-102.448
X106.247Y-146.685
X106.352Y-99.372
X106.358Y-98.184
X106.578Y-119.532
X106.622Y-125.733
X106.665Y-130.874
X106.756Y-117.983
X106.812Y-103.355
X106.812Y-104.355
X106.812Y-105.355
X106.812Y-106.355
X106.812Y-107.355
X106.812Y-108.355
X106.812Y-109.355
X106.812Y-110.355
X106.812Y-111.355
X106.812Y-112.355
X106.812Y-113.355
X107.231Y-123.243
X107.241Y-124.292
X107.247Y-146.685
X107.315Y-116.357
X107.34Y-119.532
X107.358Y-98.184
X107.399Y-131.625
X107.467Y-100.084
X107.686Y-125.727
X107.696Y-118.237
X107.747Y-117.475
X107.823Y-132.588
X108.052Y-116.688
X108.217Y-137.693
X108.247Y-146.685
X108.318Y-136.881
X108.358Y-98.184
X108.547Y-138.455
X108.585Y-133.35
X108.839Y-116.688
X108.875Y-100.642
X109.233Y-138.874
X109.247Y-146.685
X109.334Y-136.258
X109.358Y-98.184
X109.601Y-133.604
X109.652Y-116.688
X109.918Y-100.632
X110.071Y-138.913
X110.16Y-136.258
X110.247Y-146.685
X110.358Y-98.184
X110.439Y-116.891
X110.439Y-117.704
X110.439Y-118.516
X110.592Y-133.96
X110.67Y-123.261
X110.678Y-122.232
X110.884Y-138.9
X110.973Y-100.635
X110.985Y-136.258
X111.247Y-146.685
X111.358Y-98.184
X111.366Y-123.99
X111.455Y-99.593
X111.608Y-133.706
X111.697Y-138.874
X111.798Y-136.258
X112.103Y-124.701
X112.247Y-146.685
X112.358Y-98.184
X112.471Y-99.619
X112.497Y-138.633
X112.573Y-133.35
X112.585Y-136.5
X112.824Y-125.438
X113.005Y-137.986
X113.03Y-137.173
X113.195Y-103.149
X113.195Y-104.149
X113.195Y-105.149
X113.195Y-106.149
X113.195Y-107.149
X113.195Y-108.149
X113.195Y-109.149
X113.195Y-110.149
X113.195Y-111.149
X113.195Y-112.149
X113.195Y-113.149
X113.195Y-114.149
X113.247Y-146.685
X113.335Y-115.468
X113.358Y-98.184
X113.36Y-99.593
X113.419Y-129.883
X113.528Y-126.195
X113.538Y-131.572
X113.538Y-132.588
X114.247Y-146.685
X114.358Y-98.184
X114.409Y-129.896
X114.579Y-126.205
X115.087Y-123.673
X115.247Y-146.685
X115.358Y-98.184
X115.466Y-126.997
X115.496Y-129.883
X115.519Y-100.482
X115.875Y-123.622
X116.247Y-146.685
X116.253Y-103.152
X116.256Y-104.181
X116.281Y-125.273
X116.358Y-98.184
X116.365Y-114.328
X116.505Y-126.997
X116.55Y-129.896
X116.586Y-117.17
X117.221Y-111.938
X117.247Y-146.685
X117.297Y-104.176
X117.358Y-98.184
X117.376Y-114.313
X117.45Y-116.891
X117.531Y-126.997
X117.66Y-129.906
X118.128Y-130.838
X118.128Y-131.831
X118.212Y-117.246
X118.247Y-146.685
X118.358Y-98.184
X118.361Y-104.176
X118.417Y-114.315
X118.511Y-127.467
X118.626Y-122.486
X118.948Y-116.865
X119.2Y-104.805
X119.23Y-128.204
X119.238Y-132.177
X119.247Y-146.685
X119.358Y-98.184
X119.433Y-114.315
X119.637Y-122.471
X119.736Y-117.069
X119.931Y-105.55
X119.939Y-119.532
X119.939Y-120.345
X119.939Y-121.158
X120.247Y-146.685
X120.358Y-98.184
X120.61Y-131.521
X120.653Y-122.474
X120.662Y-114.224
X120.675Y-111.938
X120.726Y-106.515
X120.752Y-119.532
X120.752Y-120.345
X120.752Y-121.158
X121.247Y-146.685
X121.335Y-129.972
X121.358Y-98.184
X121.686Y-122.476
X121.793Y-136.931
X121.804Y-134.698
X122.247Y-146.685
X122.358Y-98.184
X122.723Y-122.479
X123.247Y-146.685
X123.247Y-131.521
X123.292Y-129.997
X123.358Y-98.184
X123.431Y-139.167
X123.718Y-118.565
X123.728Y-117.554
X123.734Y-116.553
X124.079Y-119.581
X124.206Y-123.266
X124.247Y-146.685
X124.358Y-98.184
X124.511Y-134.214
X124.511Y-135.014
X124.511Y-135.814
X124.511Y-136.614
X124.714Y-105.474
X125.005Y-138.947
X125.031Y-104.521
X125.077Y-119.916
X125.247Y-146.685
X125.311Y-134.214
X125.311Y-135.014
X125.311Y-135.814
X125.311Y-136.614
X125.358Y-98.184
X125.92Y-103.632
X126.091Y-119.891
X126.111Y-134.214
X126.111Y-135.014
X126.111Y-135.814
X126.111Y-136.614
X126.247Y-146.685
X126.358Y-98.184
X126.695Y-141.554
X126.708Y-106.642
X126.835Y-99.022
X126.835Y-100.025
X126.835Y-101.079
X126.835Y-102.121
X126.86Y-103.162
X126.873Y-138.887
X126.911Y-134.214
X126.911Y-135.014
X126.911Y-135.814
X126.911Y-136.614
X127.247Y-146.685
X127.317Y-121.158
X127.686Y-117.45
X127.864Y-139.141
X128.247Y-146.685
X128.283Y-116.929
X128.549Y-124.104
X128.651Y-117.856
X129.247Y-146.685
X129.286Y-138.862
X129.362Y-98.146
X129.388Y-115.875
X129.413Y-100.622
X129.426Y-101.638
X129.426Y-102.667
X129.731Y-106.261
X129.756Y-105.245
X129.921Y-119.444
X130.073Y-107.747
X130.175Y-139.319
X130.247Y-146.685
X130.429Y-100.597
X130.442Y-102.667
X130.797Y-105.245
X130.95Y-106.236
X131.013Y-132.74
X131.089Y-139.217
X131.216Y-103.302
X131.216Y-104.318
X131.247Y-146.685
X131.331Y-128.676
X131.343Y-127.635
X131.356Y-126.581
X131.358Y-98.184
X131.369Y-99.212
X131.369Y-125.539
X131.394Y-100.241
X131.534Y-110.82
X131.737Y-109.22
X131.826Y-121.094
X131.826Y-132.639
X132.08Y-139.294
X132.247Y-146.685
X132.358Y-98.184
X132.537Y-136.627
X132.563Y-138.405
X132.664Y-119.913
X132.728Y-106.489
X132.828Y-131.42
X133.045Y-135.661
X133.247Y-146.685
X133.312Y-137.655
X133.358Y-98.184
X133.565Y-129.896
X133.591Y-114.783
X133.629Y-136.639
X133.655Y-107.48
X133.782Y-115.875
X133.782Y-116.942
X133.782Y-117.996
X133.782Y-119.037
X133.832Y-120.269
X134.247Y-146.685
X134.358Y-98.184
X134.556Y-114.402
X134.62Y-108.013
X135.247Y-146.685
X135.28Y-109.728
X135.358Y-98.184
X135.458Y-111.976
X135.509Y-108.941
X135.509Y-110.528
X135.674Y-139.141
X136.195Y-129.896
X136.195Y-131.42
X136.246Y-114.376
X136.246Y-120.587
X136.246Y-121.641
X136.246Y-125.019
X136.246Y-126.06
X136.246Y-127.114
X136.246Y-128.156
X136.247Y-146.685
X136.258Y-115.545
X136.258Y-123.99
X136.358Y-98.184
X136.436Y-111.061
X136.741Y-118.593
X136.754Y-117.513
X136.754Y-134.264
X136.754Y-135.064
X136.754Y-135.864
X136.754Y-136.664
X137.247Y-146.685
X137.258Y-138.913
X137.358Y-98.184
X137.541Y-108.204
X137.541Y-122.745
X137.554Y-134.264
X137.554Y-135.064
X137.554Y-135.864
X137.554Y-136.664
X138.247Y-146.685
X138.354Y-134.264
X138.354Y-135.064
X138.354Y-135.864
X138.354Y-136.664
X138.358Y-98.184
X138.671Y-122.517
X138.708Y-139.21
X138.722Y-112.459
X138.938Y-141.58
X139.154Y-134.264
X139.154Y-135.064
X139.154Y-135.864
X139.154Y-136.664
X139.247Y-146.685
X139.358Y-98.184
X139.573Y-111.417
X139.586Y-121.577
X139.725Y-139.192
X140.247Y-146.685
X140.358Y-98.184
X140.36Y-114.402
X140.373Y-124.422
X141.247Y-146.685
X141.358Y-98.184
X141.503Y-123.355
X141.554Y-113.221
X141.605Y-139.116
X142.247Y-146.685
X142.358Y-98.184
X142.443Y-139.484
X142.684Y-124.549
X142.71Y-114.884
X143.18Y-139.192
X143.247Y-146.685
X143.358Y-98.184
X143.485Y-132.563
X143.916Y-139.573
X144.247Y-146.685
X144.358Y-98.184
X144.551Y-132.613
X144.716Y-139.205
X144.805Y-136.665
X145.247Y-146.685
X145.358Y-98.184
X145.656Y-99.771
X145.656Y-100.771
X145.656Y-101.771
X145.656Y-102.771
X145.656Y-103.771
X145.656Y-104.771
X145.656Y-105.771
X145.656Y-106.771
X145.656Y-107.771
X145.656Y-108.771
X145.656Y-109.771
X145.656Y-110.771
X145.656Y-111.771
X145.656Y-112.771
X145.656Y-113.771
X145.656Y-114.771
X145.656Y-115.771
X145.656Y-116.771
X145.656Y-117.771
X145.656Y-118.771
X145.656Y-119.771
X145.656Y-120.771
X145.656Y-121.771
X145.656Y-122.771
X145.656Y-123.771
X145.656Y-124.771
X145.656Y-125.771
X145.656Y-126.771
X145.656Y-127.771
X145.656Y-128.771
X145.656Y-129.771
X145.656Y-130.771
X145.656Y-131.771
X145.656Y-132.771
X145.656Y-133.771
X145.656Y-134.771
X145.656Y-135.771
X145.656Y-137.771
X145.656Y-138.771
X145.656Y-139.771
X145.656Y-140.771
X145.656Y-141.771
X145.656Y-142.771
X145.656Y-143.771
X145.656Y-144.771
X145.656Y-145.771
X124.062Y-109.882
X124.062Y-112.27
X124.062Y-113.473
X124.071Y-111.073
X125.262Y-109.882
X125.262Y-112.27
X125.262Y-113.473
X125.271Y-111.073
X126.462Y-109.882
X126.462Y-112.27
X126.462Y-113.473
X126.471Y-111.073
X127.662Y-109.882
X127.662Y-112.27
X127.662Y-113.473
X127.671Y-111.073
T4
X102.54Y-100.0
X102.54Y-102.54
X102.54Y-105.08
X102.54Y-107.62
X102.54Y-110.16
X102.54Y-112.7
X102.54Y-115.24
X102.54Y-117.78
X100.0Y-100.0
X100.0Y-102.54
X100.0Y-105.08
X100.0Y-107.62
X100.0Y-110.16
X100.0Y-112.7
X100.0Y-115.24
X100.0Y-117.78
X97.46Y-100.0
X97.46Y-102.54
X97.46Y-105.08
X97.46Y-107.62
X97.46Y-110.16
X97.46Y-112.7
X97.46Y-115.24
X97.46Y-117.78
T5
X100.609Y-121.488
X100.609Y-144.088
T3
G00X109.342Y-131.775
M15
G01X111.942Y-131.775
M16
G05
G00X109.542Y-137.575
M15
G01X111.742Y-137.575
M16
G05
G00X115.442Y-135.875
M15
G01X115.442Y-133.675
M16
G05
T0
M30
