G04 #@! TF.GenerationSoftware,KiCad,Pcbnew,5.1.1-8be2ce7~80~ubuntu18.04.1*
G04 #@! TF.CreationDate,2019-04-21T11:51:28+07:00*
G04 #@! TF.ProjectId,driver-servo-esp32,64726976-6572-42d7-9365-72766f2d6573,rev?*
G04 #@! TF.SameCoordinates,Original*
G04 #@! TF.FileFunction,Soldermask,Top*
G04 #@! TF.FilePolarity,Negative*
%FSLAX46Y46*%
G04 Gerber Fmt 4.6, Leading zero omitted, Abs format (unit mm)*
G04 Created by KiCad (PCBNEW 5.1.1-8be2ce7~80~ubuntu18.04.1) date 2019-04-21 11:51:28*
%MOMM*%
%LPD*%
G04 APERTURE LIST*
%ADD10C,0.100000*%
G04 APERTURE END LIST*
D10*
G36*
X100911985Y-142567002D02*
G01*
X101061810Y-142596804D01*
X101344074Y-142713721D01*
X101598105Y-142883459D01*
X101814141Y-143099495D01*
X101983879Y-143353526D01*
X102100796Y-143635790D01*
X102160400Y-143935440D01*
X102160400Y-144240960D01*
X102100796Y-144540610D01*
X101983879Y-144822874D01*
X101814141Y-145076905D01*
X101598105Y-145292941D01*
X101344074Y-145462679D01*
X101061810Y-145579596D01*
X100911985Y-145609398D01*
X100762161Y-145639200D01*
X100456639Y-145639200D01*
X100306815Y-145609398D01*
X100156990Y-145579596D01*
X99874726Y-145462679D01*
X99620695Y-145292941D01*
X99404659Y-145076905D01*
X99234921Y-144822874D01*
X99118004Y-144540610D01*
X99058400Y-144240960D01*
X99058400Y-143935440D01*
X99118004Y-143635790D01*
X99234921Y-143353526D01*
X99404659Y-143099495D01*
X99620695Y-142883459D01*
X99874726Y-142713721D01*
X100156990Y-142596804D01*
X100306815Y-142567002D01*
X100456639Y-142537200D01*
X100762161Y-142537200D01*
X100911985Y-142567002D01*
X100911985Y-142567002D01*
G37*
G36*
X141234200Y-142033801D02*
G01*
X141236602Y-142058187D01*
X141243715Y-142081636D01*
X141255266Y-142103247D01*
X141270811Y-142122189D01*
X141289753Y-142137734D01*
X141311364Y-142149285D01*
X141334813Y-142156398D01*
X141359199Y-142158800D01*
X142131700Y-142158800D01*
X142131700Y-144160800D01*
X138184700Y-144160800D01*
X138184700Y-142158800D01*
X139532201Y-142158800D01*
X139556587Y-142156398D01*
X139580036Y-142149285D01*
X139601647Y-142137734D01*
X139620589Y-142122189D01*
X139636134Y-142103247D01*
X139647685Y-142081636D01*
X139654798Y-142058187D01*
X139657200Y-142033801D01*
X139657200Y-141365799D01*
X139654798Y-141341413D01*
X139647685Y-141317964D01*
X139636134Y-141296353D01*
X139620589Y-141277411D01*
X139601647Y-141261866D01*
X139580036Y-141250315D01*
X139556587Y-141243202D01*
X139532201Y-141240800D01*
X136434199Y-141240800D01*
X136409813Y-141243202D01*
X136386364Y-141250315D01*
X136364753Y-141261866D01*
X136345811Y-141277411D01*
X136330266Y-141296353D01*
X136318715Y-141317964D01*
X136311602Y-141341413D01*
X136309200Y-141365799D01*
X136309200Y-142033801D01*
X136311602Y-142058187D01*
X136318715Y-142081636D01*
X136330266Y-142103247D01*
X136345811Y-142122189D01*
X136364753Y-142137734D01*
X136386364Y-142149285D01*
X136409813Y-142156398D01*
X136434199Y-142158800D01*
X137781700Y-142158800D01*
X137781700Y-144160800D01*
X133834700Y-144160800D01*
X133834700Y-142158800D01*
X134607201Y-142158800D01*
X134631587Y-142156398D01*
X134655036Y-142149285D01*
X134676647Y-142137734D01*
X134695589Y-142122189D01*
X134711134Y-142103247D01*
X134722685Y-142081636D01*
X134729798Y-142058187D01*
X134732200Y-142033801D01*
X134732200Y-139758800D01*
X141234200Y-139758800D01*
X141234200Y-142033801D01*
X141234200Y-142033801D01*
G37*
G36*
X128980800Y-142002401D02*
G01*
X128983202Y-142026787D01*
X128990315Y-142050236D01*
X129001866Y-142071847D01*
X129017411Y-142090789D01*
X129036353Y-142106334D01*
X129057964Y-142117885D01*
X129081413Y-142124998D01*
X129105799Y-142127400D01*
X129878300Y-142127400D01*
X129878300Y-144129400D01*
X125931300Y-144129400D01*
X125931300Y-142127400D01*
X127278801Y-142127400D01*
X127303187Y-142124998D01*
X127326636Y-142117885D01*
X127348247Y-142106334D01*
X127367189Y-142090789D01*
X127382734Y-142071847D01*
X127394285Y-142050236D01*
X127401398Y-142026787D01*
X127403800Y-142002401D01*
X127403800Y-141334399D01*
X127401398Y-141310013D01*
X127394285Y-141286564D01*
X127382734Y-141264953D01*
X127367189Y-141246011D01*
X127348247Y-141230466D01*
X127326636Y-141218915D01*
X127303187Y-141211802D01*
X127278801Y-141209400D01*
X124180799Y-141209400D01*
X124156413Y-141211802D01*
X124132964Y-141218915D01*
X124111353Y-141230466D01*
X124092411Y-141246011D01*
X124076866Y-141264953D01*
X124065315Y-141286564D01*
X124058202Y-141310013D01*
X124055800Y-141334399D01*
X124055800Y-142002401D01*
X124058202Y-142026787D01*
X124065315Y-142050236D01*
X124076866Y-142071847D01*
X124092411Y-142090789D01*
X124111353Y-142106334D01*
X124132964Y-142117885D01*
X124156413Y-142124998D01*
X124180799Y-142127400D01*
X125528300Y-142127400D01*
X125528300Y-144129400D01*
X121581300Y-144129400D01*
X121581300Y-142127400D01*
X122353801Y-142127400D01*
X122378187Y-142124998D01*
X122401636Y-142117885D01*
X122423247Y-142106334D01*
X122442189Y-142090789D01*
X122457734Y-142071847D01*
X122469285Y-142050236D01*
X122476398Y-142026787D01*
X122478800Y-142002401D01*
X122478800Y-139727400D01*
X128980800Y-139727400D01*
X128980800Y-142002401D01*
X128980800Y-142002401D01*
G37*
G36*
X144306299Y-137857145D02*
G01*
X144343795Y-137868520D01*
X144378354Y-137886992D01*
X144408647Y-137911853D01*
X144433508Y-137942146D01*
X144451980Y-137976705D01*
X144463355Y-138014201D01*
X144467800Y-138059338D01*
X144467800Y-138798062D01*
X144463355Y-138843199D01*
X144451980Y-138880695D01*
X144433508Y-138915254D01*
X144408647Y-138945547D01*
X144378354Y-138970408D01*
X144343795Y-138988880D01*
X144306299Y-139000255D01*
X144261162Y-139004700D01*
X143622438Y-139004700D01*
X143577301Y-139000255D01*
X143539805Y-138988880D01*
X143505246Y-138970408D01*
X143474953Y-138945547D01*
X143450092Y-138915254D01*
X143431620Y-138880695D01*
X143420245Y-138843199D01*
X143415800Y-138798062D01*
X143415800Y-138059338D01*
X143420245Y-138014201D01*
X143431620Y-137976705D01*
X143450092Y-137942146D01*
X143474953Y-137911853D01*
X143505246Y-137886992D01*
X143539805Y-137868520D01*
X143577301Y-137857145D01*
X143622438Y-137852700D01*
X144261162Y-137852700D01*
X144306299Y-137857145D01*
X144306299Y-137857145D01*
G37*
G36*
X142807699Y-137857145D02*
G01*
X142845195Y-137868520D01*
X142879754Y-137886992D01*
X142910047Y-137911853D01*
X142934908Y-137942146D01*
X142953380Y-137976705D01*
X142964755Y-138014201D01*
X142969200Y-138059338D01*
X142969200Y-138798062D01*
X142964755Y-138843199D01*
X142953380Y-138880695D01*
X142934908Y-138915254D01*
X142910047Y-138945547D01*
X142879754Y-138970408D01*
X142845195Y-138988880D01*
X142807699Y-139000255D01*
X142762562Y-139004700D01*
X142123838Y-139004700D01*
X142078701Y-139000255D01*
X142041205Y-138988880D01*
X142006646Y-138970408D01*
X141976353Y-138945547D01*
X141951492Y-138915254D01*
X141933020Y-138880695D01*
X141921645Y-138843199D01*
X141917200Y-138798062D01*
X141917200Y-138059338D01*
X141921645Y-138014201D01*
X141933020Y-137976705D01*
X141951492Y-137942146D01*
X141976353Y-137911853D01*
X142006646Y-137886992D01*
X142041205Y-137868520D01*
X142078701Y-137857145D01*
X142123838Y-137852700D01*
X142762562Y-137852700D01*
X142807699Y-137857145D01*
X142807699Y-137857145D01*
G37*
G36*
X130514099Y-137819045D02*
G01*
X130551595Y-137830420D01*
X130586154Y-137848892D01*
X130616447Y-137873753D01*
X130641308Y-137904046D01*
X130659780Y-137938605D01*
X130671155Y-137976101D01*
X130675600Y-138021238D01*
X130675600Y-138759962D01*
X130671155Y-138805099D01*
X130659780Y-138842595D01*
X130641308Y-138877154D01*
X130616447Y-138907447D01*
X130586154Y-138932308D01*
X130551595Y-138950780D01*
X130514099Y-138962155D01*
X130468962Y-138966600D01*
X129830238Y-138966600D01*
X129785101Y-138962155D01*
X129747605Y-138950780D01*
X129713046Y-138932308D01*
X129682753Y-138907447D01*
X129657892Y-138877154D01*
X129639420Y-138842595D01*
X129628045Y-138805099D01*
X129623600Y-138759962D01*
X129623600Y-138021238D01*
X129628045Y-137976101D01*
X129639420Y-137938605D01*
X129657892Y-137904046D01*
X129682753Y-137873753D01*
X129713046Y-137848892D01*
X129747605Y-137830420D01*
X129785101Y-137819045D01*
X129830238Y-137814600D01*
X130468962Y-137814600D01*
X130514099Y-137819045D01*
X130514099Y-137819045D01*
G37*
G36*
X132038099Y-137819045D02*
G01*
X132075595Y-137830420D01*
X132110154Y-137848892D01*
X132140447Y-137873753D01*
X132165308Y-137904046D01*
X132183780Y-137938605D01*
X132195155Y-137976101D01*
X132199600Y-138021238D01*
X132199600Y-138759962D01*
X132195155Y-138805099D01*
X132183780Y-138842595D01*
X132165308Y-138877154D01*
X132140447Y-138907447D01*
X132110154Y-138932308D01*
X132075595Y-138950780D01*
X132038099Y-138962155D01*
X131992962Y-138966600D01*
X131354238Y-138966600D01*
X131309101Y-138962155D01*
X131271605Y-138950780D01*
X131237046Y-138932308D01*
X131206753Y-138907447D01*
X131181892Y-138877154D01*
X131163420Y-138842595D01*
X131152045Y-138805099D01*
X131147600Y-138759962D01*
X131147600Y-138021238D01*
X131152045Y-137976101D01*
X131163420Y-137938605D01*
X131181892Y-137904046D01*
X131206753Y-137873753D01*
X131237046Y-137848892D01*
X131271605Y-137830420D01*
X131309101Y-137819045D01*
X131354238Y-137814600D01*
X131992962Y-137814600D01*
X132038099Y-137819045D01*
X132038099Y-137819045D01*
G37*
G36*
X111928825Y-136637960D02*
G01*
X111928828Y-136637961D01*
X111928829Y-136637961D01*
X112108093Y-136692340D01*
X112108096Y-136692342D01*
X112108097Y-136692342D01*
X112273303Y-136780646D01*
X112418112Y-136899488D01*
X112536954Y-137044297D01*
X112620595Y-137200780D01*
X112625260Y-137209507D01*
X112679639Y-137388771D01*
X112679640Y-137388775D01*
X112698001Y-137575200D01*
X112679640Y-137761625D01*
X112679639Y-137761628D01*
X112679639Y-137761629D01*
X112625260Y-137940893D01*
X112625258Y-137940896D01*
X112625258Y-137940897D01*
X112536954Y-138106103D01*
X112418112Y-138250912D01*
X112273303Y-138369754D01*
X112108097Y-138458058D01*
X112108093Y-138458060D01*
X111928829Y-138512439D01*
X111928828Y-138512439D01*
X111928825Y-138512440D01*
X111789118Y-138526200D01*
X109495682Y-138526200D01*
X109355975Y-138512440D01*
X109355972Y-138512439D01*
X109355971Y-138512439D01*
X109176707Y-138458060D01*
X109176703Y-138458058D01*
X109011497Y-138369754D01*
X108866688Y-138250912D01*
X108747846Y-138106103D01*
X108659542Y-137940897D01*
X108659542Y-137940896D01*
X108659540Y-137940893D01*
X108605161Y-137761629D01*
X108605161Y-137761628D01*
X108605160Y-137761625D01*
X108586799Y-137575200D01*
X108605160Y-137388775D01*
X108605161Y-137388771D01*
X108659540Y-137209507D01*
X108664205Y-137200780D01*
X108747846Y-137044297D01*
X108866688Y-136899488D01*
X109011497Y-136780646D01*
X109176703Y-136692342D01*
X109176704Y-136692342D01*
X109176707Y-136692340D01*
X109355971Y-136637961D01*
X109355972Y-136637961D01*
X109355975Y-136637960D01*
X109495682Y-136624200D01*
X111789118Y-136624200D01*
X111928825Y-136637960D01*
X111928825Y-136637960D01*
G37*
G36*
X136638555Y-137459883D02*
G01*
X136643229Y-137461301D01*
X136647530Y-137463600D01*
X136653902Y-137468829D01*
X136674276Y-137482443D01*
X136696915Y-137491820D01*
X136720949Y-137496600D01*
X136745453Y-137496600D01*
X136769486Y-137491819D01*
X136792125Y-137482442D01*
X136812498Y-137468829D01*
X136818870Y-137463600D01*
X136823171Y-137461301D01*
X136827845Y-137459883D01*
X136838841Y-137458800D01*
X137127559Y-137458800D01*
X137138555Y-137459883D01*
X137143229Y-137461301D01*
X137147530Y-137463600D01*
X137153902Y-137468829D01*
X137174276Y-137482443D01*
X137196915Y-137491820D01*
X137220949Y-137496600D01*
X137245453Y-137496600D01*
X137269486Y-137491819D01*
X137292125Y-137482442D01*
X137312498Y-137468829D01*
X137318870Y-137463600D01*
X137323171Y-137461301D01*
X137327845Y-137459883D01*
X137338841Y-137458800D01*
X137627559Y-137458800D01*
X137638555Y-137459883D01*
X137643229Y-137461301D01*
X137647530Y-137463600D01*
X137653902Y-137468829D01*
X137674276Y-137482443D01*
X137696915Y-137491820D01*
X137720949Y-137496600D01*
X137745453Y-137496600D01*
X137769486Y-137491819D01*
X137792125Y-137482442D01*
X137812498Y-137468829D01*
X137818870Y-137463600D01*
X137823171Y-137461301D01*
X137827845Y-137459883D01*
X137838841Y-137458800D01*
X138127559Y-137458800D01*
X138138555Y-137459883D01*
X138143229Y-137461301D01*
X138147530Y-137463600D01*
X138153902Y-137468829D01*
X138174276Y-137482443D01*
X138196915Y-137491820D01*
X138220949Y-137496600D01*
X138245453Y-137496600D01*
X138269486Y-137491819D01*
X138292125Y-137482442D01*
X138312498Y-137468829D01*
X138318870Y-137463600D01*
X138323171Y-137461301D01*
X138327845Y-137459883D01*
X138338841Y-137458800D01*
X138627559Y-137458800D01*
X138638555Y-137459883D01*
X138643229Y-137461301D01*
X138647530Y-137463600D01*
X138653902Y-137468829D01*
X138674276Y-137482443D01*
X138696915Y-137491820D01*
X138720949Y-137496600D01*
X138745453Y-137496600D01*
X138769486Y-137491819D01*
X138792125Y-137482442D01*
X138812498Y-137468829D01*
X138818870Y-137463600D01*
X138823171Y-137461301D01*
X138827845Y-137459883D01*
X138838841Y-137458800D01*
X139127559Y-137458800D01*
X139138555Y-137459883D01*
X139143229Y-137461301D01*
X139147530Y-137463600D01*
X139153902Y-137468829D01*
X139174276Y-137482443D01*
X139196915Y-137491820D01*
X139220949Y-137496600D01*
X139245453Y-137496600D01*
X139269486Y-137491819D01*
X139292125Y-137482442D01*
X139312498Y-137468829D01*
X139318870Y-137463600D01*
X139323171Y-137461301D01*
X139327845Y-137459883D01*
X139338841Y-137458800D01*
X139627559Y-137458800D01*
X139638555Y-137459883D01*
X139643229Y-137461301D01*
X139647531Y-137463600D01*
X139651304Y-137466696D01*
X139654400Y-137470469D01*
X139656699Y-137474771D01*
X139658117Y-137479445D01*
X139659200Y-137490441D01*
X139659200Y-138329159D01*
X139658117Y-138340155D01*
X139656699Y-138344829D01*
X139654400Y-138349131D01*
X139651304Y-138352904D01*
X139647531Y-138356000D01*
X139643229Y-138358299D01*
X139638555Y-138359717D01*
X139627559Y-138360800D01*
X139338841Y-138360800D01*
X139327845Y-138359717D01*
X139323171Y-138358299D01*
X139318870Y-138356000D01*
X139312498Y-138350771D01*
X139292124Y-138337157D01*
X139269485Y-138327780D01*
X139245451Y-138323000D01*
X139220947Y-138323000D01*
X139196914Y-138327781D01*
X139174275Y-138337158D01*
X139153902Y-138350771D01*
X139147530Y-138356000D01*
X139143229Y-138358299D01*
X139138555Y-138359717D01*
X139127559Y-138360800D01*
X138838841Y-138360800D01*
X138827845Y-138359717D01*
X138823171Y-138358299D01*
X138818870Y-138356000D01*
X138812498Y-138350771D01*
X138792124Y-138337157D01*
X138769485Y-138327780D01*
X138745451Y-138323000D01*
X138720947Y-138323000D01*
X138696914Y-138327781D01*
X138674275Y-138337158D01*
X138653902Y-138350771D01*
X138647530Y-138356000D01*
X138643229Y-138358299D01*
X138638555Y-138359717D01*
X138627559Y-138360800D01*
X138338841Y-138360800D01*
X138327845Y-138359717D01*
X138323171Y-138358299D01*
X138318870Y-138356000D01*
X138312498Y-138350771D01*
X138292124Y-138337157D01*
X138269485Y-138327780D01*
X138245451Y-138323000D01*
X138220947Y-138323000D01*
X138196914Y-138327781D01*
X138174275Y-138337158D01*
X138153902Y-138350771D01*
X138147530Y-138356000D01*
X138143229Y-138358299D01*
X138138555Y-138359717D01*
X138127559Y-138360800D01*
X137838841Y-138360800D01*
X137827845Y-138359717D01*
X137823171Y-138358299D01*
X137818870Y-138356000D01*
X137812498Y-138350771D01*
X137792124Y-138337157D01*
X137769485Y-138327780D01*
X137745451Y-138323000D01*
X137720947Y-138323000D01*
X137696914Y-138327781D01*
X137674275Y-138337158D01*
X137653902Y-138350771D01*
X137647530Y-138356000D01*
X137643229Y-138358299D01*
X137638555Y-138359717D01*
X137627559Y-138360800D01*
X137338841Y-138360800D01*
X137327845Y-138359717D01*
X137323171Y-138358299D01*
X137318870Y-138356000D01*
X137312498Y-138350771D01*
X137292124Y-138337157D01*
X137269485Y-138327780D01*
X137245451Y-138323000D01*
X137220947Y-138323000D01*
X137196914Y-138327781D01*
X137174275Y-138337158D01*
X137153902Y-138350771D01*
X137147530Y-138356000D01*
X137143229Y-138358299D01*
X137138555Y-138359717D01*
X137127559Y-138360800D01*
X136838841Y-138360800D01*
X136827845Y-138359717D01*
X136823171Y-138358299D01*
X136818870Y-138356000D01*
X136812498Y-138350771D01*
X136792124Y-138337157D01*
X136769485Y-138327780D01*
X136745451Y-138323000D01*
X136720947Y-138323000D01*
X136696914Y-138327781D01*
X136674275Y-138337158D01*
X136653902Y-138350771D01*
X136647530Y-138356000D01*
X136643229Y-138358299D01*
X136638555Y-138359717D01*
X136627559Y-138360800D01*
X136338841Y-138360800D01*
X136327845Y-138359717D01*
X136323171Y-138358299D01*
X136318869Y-138356000D01*
X136315096Y-138352904D01*
X136312000Y-138349131D01*
X136309701Y-138344829D01*
X136308283Y-138340155D01*
X136307200Y-138329159D01*
X136307200Y-137490441D01*
X136308283Y-137479445D01*
X136309701Y-137474771D01*
X136312000Y-137470469D01*
X136315096Y-137466696D01*
X136318869Y-137463600D01*
X136323171Y-137461301D01*
X136327845Y-137459883D01*
X136338841Y-137458800D01*
X136627559Y-137458800D01*
X136638555Y-137459883D01*
X136638555Y-137459883D01*
G37*
G36*
X124385155Y-137428483D02*
G01*
X124389829Y-137429901D01*
X124394130Y-137432200D01*
X124400502Y-137437429D01*
X124420876Y-137451043D01*
X124443515Y-137460420D01*
X124467549Y-137465200D01*
X124492053Y-137465200D01*
X124516086Y-137460419D01*
X124538725Y-137451042D01*
X124559098Y-137437429D01*
X124565470Y-137432200D01*
X124569771Y-137429901D01*
X124574445Y-137428483D01*
X124585441Y-137427400D01*
X124874159Y-137427400D01*
X124885155Y-137428483D01*
X124889829Y-137429901D01*
X124894130Y-137432200D01*
X124900502Y-137437429D01*
X124920876Y-137451043D01*
X124943515Y-137460420D01*
X124967549Y-137465200D01*
X124992053Y-137465200D01*
X125016086Y-137460419D01*
X125038725Y-137451042D01*
X125059098Y-137437429D01*
X125065470Y-137432200D01*
X125069771Y-137429901D01*
X125074445Y-137428483D01*
X125085441Y-137427400D01*
X125374159Y-137427400D01*
X125385155Y-137428483D01*
X125389829Y-137429901D01*
X125394130Y-137432200D01*
X125400502Y-137437429D01*
X125420876Y-137451043D01*
X125443515Y-137460420D01*
X125467549Y-137465200D01*
X125492053Y-137465200D01*
X125516086Y-137460419D01*
X125538725Y-137451042D01*
X125559098Y-137437429D01*
X125565470Y-137432200D01*
X125569771Y-137429901D01*
X125574445Y-137428483D01*
X125585441Y-137427400D01*
X125874159Y-137427400D01*
X125885155Y-137428483D01*
X125889829Y-137429901D01*
X125894130Y-137432200D01*
X125900502Y-137437429D01*
X125920876Y-137451043D01*
X125943515Y-137460420D01*
X125967549Y-137465200D01*
X125992053Y-137465200D01*
X126016086Y-137460419D01*
X126038725Y-137451042D01*
X126059098Y-137437429D01*
X126065470Y-137432200D01*
X126069771Y-137429901D01*
X126074445Y-137428483D01*
X126085441Y-137427400D01*
X126374159Y-137427400D01*
X126385155Y-137428483D01*
X126389829Y-137429901D01*
X126394130Y-137432200D01*
X126400502Y-137437429D01*
X126420876Y-137451043D01*
X126443515Y-137460420D01*
X126467549Y-137465200D01*
X126492053Y-137465200D01*
X126516086Y-137460419D01*
X126538725Y-137451042D01*
X126559098Y-137437429D01*
X126565470Y-137432200D01*
X126569771Y-137429901D01*
X126574445Y-137428483D01*
X126585441Y-137427400D01*
X126874159Y-137427400D01*
X126885155Y-137428483D01*
X126889829Y-137429901D01*
X126894130Y-137432200D01*
X126900502Y-137437429D01*
X126920876Y-137451043D01*
X126943515Y-137460420D01*
X126967549Y-137465200D01*
X126992053Y-137465200D01*
X127016086Y-137460419D01*
X127038725Y-137451042D01*
X127059098Y-137437429D01*
X127065470Y-137432200D01*
X127069771Y-137429901D01*
X127074445Y-137428483D01*
X127085441Y-137427400D01*
X127374159Y-137427400D01*
X127385155Y-137428483D01*
X127389829Y-137429901D01*
X127394131Y-137432200D01*
X127397904Y-137435296D01*
X127401000Y-137439069D01*
X127403299Y-137443371D01*
X127404717Y-137448045D01*
X127405800Y-137459041D01*
X127405800Y-138297759D01*
X127404717Y-138308755D01*
X127403299Y-138313429D01*
X127401000Y-138317731D01*
X127397904Y-138321504D01*
X127394131Y-138324600D01*
X127389829Y-138326899D01*
X127385155Y-138328317D01*
X127374159Y-138329400D01*
X127085441Y-138329400D01*
X127074445Y-138328317D01*
X127069771Y-138326899D01*
X127065470Y-138324600D01*
X127059098Y-138319371D01*
X127038724Y-138305757D01*
X127016085Y-138296380D01*
X126992051Y-138291600D01*
X126967547Y-138291600D01*
X126943514Y-138296381D01*
X126920875Y-138305758D01*
X126900502Y-138319371D01*
X126894130Y-138324600D01*
X126889829Y-138326899D01*
X126885155Y-138328317D01*
X126874159Y-138329400D01*
X126585441Y-138329400D01*
X126574445Y-138328317D01*
X126569771Y-138326899D01*
X126565470Y-138324600D01*
X126559098Y-138319371D01*
X126538724Y-138305757D01*
X126516085Y-138296380D01*
X126492051Y-138291600D01*
X126467547Y-138291600D01*
X126443514Y-138296381D01*
X126420875Y-138305758D01*
X126400502Y-138319371D01*
X126394130Y-138324600D01*
X126389829Y-138326899D01*
X126385155Y-138328317D01*
X126374159Y-138329400D01*
X126085441Y-138329400D01*
X126074445Y-138328317D01*
X126069771Y-138326899D01*
X126065470Y-138324600D01*
X126059098Y-138319371D01*
X126038724Y-138305757D01*
X126016085Y-138296380D01*
X125992051Y-138291600D01*
X125967547Y-138291600D01*
X125943514Y-138296381D01*
X125920875Y-138305758D01*
X125900502Y-138319371D01*
X125894130Y-138324600D01*
X125889829Y-138326899D01*
X125885155Y-138328317D01*
X125874159Y-138329400D01*
X125585441Y-138329400D01*
X125574445Y-138328317D01*
X125569771Y-138326899D01*
X125565470Y-138324600D01*
X125559098Y-138319371D01*
X125538724Y-138305757D01*
X125516085Y-138296380D01*
X125492051Y-138291600D01*
X125467547Y-138291600D01*
X125443514Y-138296381D01*
X125420875Y-138305758D01*
X125400502Y-138319371D01*
X125394130Y-138324600D01*
X125389829Y-138326899D01*
X125385155Y-138328317D01*
X125374159Y-138329400D01*
X125085441Y-138329400D01*
X125074445Y-138328317D01*
X125069771Y-138326899D01*
X125065470Y-138324600D01*
X125059098Y-138319371D01*
X125038724Y-138305757D01*
X125016085Y-138296380D01*
X124992051Y-138291600D01*
X124967547Y-138291600D01*
X124943514Y-138296381D01*
X124920875Y-138305758D01*
X124900502Y-138319371D01*
X124894130Y-138324600D01*
X124889829Y-138326899D01*
X124885155Y-138328317D01*
X124874159Y-138329400D01*
X124585441Y-138329400D01*
X124574445Y-138328317D01*
X124569771Y-138326899D01*
X124565470Y-138324600D01*
X124559098Y-138319371D01*
X124538724Y-138305757D01*
X124516085Y-138296380D01*
X124492051Y-138291600D01*
X124467547Y-138291600D01*
X124443514Y-138296381D01*
X124420875Y-138305758D01*
X124400502Y-138319371D01*
X124394130Y-138324600D01*
X124389829Y-138326899D01*
X124385155Y-138328317D01*
X124374159Y-138329400D01*
X124085441Y-138329400D01*
X124074445Y-138328317D01*
X124069771Y-138326899D01*
X124065469Y-138324600D01*
X124061696Y-138321504D01*
X124058600Y-138317731D01*
X124056301Y-138313429D01*
X124054883Y-138308755D01*
X124053800Y-138297759D01*
X124053800Y-137459041D01*
X124054883Y-137448045D01*
X124056301Y-137443371D01*
X124058600Y-137439069D01*
X124061696Y-137435296D01*
X124065469Y-137432200D01*
X124069771Y-137429901D01*
X124074445Y-137428483D01*
X124085441Y-137427400D01*
X124374159Y-137427400D01*
X124385155Y-137428483D01*
X124385155Y-137428483D01*
G37*
G36*
X119991000Y-138328600D02*
G01*
X118769000Y-138328600D01*
X118769000Y-136066600D01*
X119991000Y-136066600D01*
X119991000Y-138328600D01*
X119991000Y-138328600D01*
G37*
G36*
X142807699Y-136107145D02*
G01*
X142845195Y-136118520D01*
X142879754Y-136136992D01*
X142910047Y-136161853D01*
X142934908Y-136192146D01*
X142953380Y-136226705D01*
X142964755Y-136264201D01*
X142969200Y-136309338D01*
X142969200Y-137048062D01*
X142964755Y-137093199D01*
X142953380Y-137130695D01*
X142934908Y-137165254D01*
X142910047Y-137195547D01*
X142879754Y-137220408D01*
X142845195Y-137238880D01*
X142807699Y-137250255D01*
X142762562Y-137254700D01*
X142123838Y-137254700D01*
X142078701Y-137250255D01*
X142041205Y-137238880D01*
X142006646Y-137220408D01*
X141976353Y-137195547D01*
X141951492Y-137165254D01*
X141933020Y-137130695D01*
X141921645Y-137093199D01*
X141917200Y-137048062D01*
X141917200Y-136309338D01*
X141921645Y-136264201D01*
X141933020Y-136226705D01*
X141951492Y-136192146D01*
X141976353Y-136161853D01*
X142006646Y-136136992D01*
X142041205Y-136118520D01*
X142078701Y-136107145D01*
X142123838Y-136102700D01*
X142762562Y-136102700D01*
X142807699Y-136107145D01*
X142807699Y-136107145D01*
G37*
G36*
X144306299Y-136107145D02*
G01*
X144343795Y-136118520D01*
X144378354Y-136136992D01*
X144408647Y-136161853D01*
X144433508Y-136192146D01*
X144451980Y-136226705D01*
X144463355Y-136264201D01*
X144467800Y-136309338D01*
X144467800Y-137048062D01*
X144463355Y-137093199D01*
X144451980Y-137130695D01*
X144433508Y-137165254D01*
X144408647Y-137195547D01*
X144378354Y-137220408D01*
X144343795Y-137238880D01*
X144306299Y-137250255D01*
X144261162Y-137254700D01*
X143622438Y-137254700D01*
X143577301Y-137250255D01*
X143539805Y-137238880D01*
X143505246Y-137220408D01*
X143474953Y-137195547D01*
X143450092Y-137165254D01*
X143431620Y-137130695D01*
X143420245Y-137093199D01*
X143415800Y-137048062D01*
X143415800Y-136309338D01*
X143420245Y-136264201D01*
X143431620Y-136226705D01*
X143450092Y-136192146D01*
X143474953Y-136161853D01*
X143505246Y-136136992D01*
X143539805Y-136118520D01*
X143577301Y-136107145D01*
X143622438Y-136102700D01*
X144261162Y-136102700D01*
X144306299Y-136107145D01*
X144306299Y-136107145D01*
G37*
G36*
X132038099Y-136069045D02*
G01*
X132075595Y-136080420D01*
X132110154Y-136098892D01*
X132140447Y-136123753D01*
X132165308Y-136154046D01*
X132183780Y-136188605D01*
X132195155Y-136226101D01*
X132199600Y-136271238D01*
X132199600Y-137009962D01*
X132195155Y-137055099D01*
X132183780Y-137092595D01*
X132165308Y-137127154D01*
X132140447Y-137157447D01*
X132110154Y-137182308D01*
X132075595Y-137200780D01*
X132038099Y-137212155D01*
X131992962Y-137216600D01*
X131354238Y-137216600D01*
X131309101Y-137212155D01*
X131271605Y-137200780D01*
X131237046Y-137182308D01*
X131206753Y-137157447D01*
X131181892Y-137127154D01*
X131163420Y-137092595D01*
X131152045Y-137055099D01*
X131147600Y-137009962D01*
X131147600Y-136271238D01*
X131152045Y-136226101D01*
X131163420Y-136188605D01*
X131181892Y-136154046D01*
X131206753Y-136123753D01*
X131237046Y-136098892D01*
X131271605Y-136080420D01*
X131309101Y-136069045D01*
X131354238Y-136064600D01*
X131992962Y-136064600D01*
X132038099Y-136069045D01*
X132038099Y-136069045D01*
G37*
G36*
X130514099Y-136069045D02*
G01*
X130551595Y-136080420D01*
X130586154Y-136098892D01*
X130616447Y-136123753D01*
X130641308Y-136154046D01*
X130659780Y-136188605D01*
X130671155Y-136226101D01*
X130675600Y-136271238D01*
X130675600Y-137009962D01*
X130671155Y-137055099D01*
X130659780Y-137092595D01*
X130641308Y-137127154D01*
X130616447Y-137157447D01*
X130586154Y-137182308D01*
X130551595Y-137200780D01*
X130514099Y-137212155D01*
X130468962Y-137216600D01*
X129830238Y-137216600D01*
X129785101Y-137212155D01*
X129747605Y-137200780D01*
X129713046Y-137182308D01*
X129682753Y-137157447D01*
X129657892Y-137127154D01*
X129639420Y-137092595D01*
X129628045Y-137055099D01*
X129623600Y-137009962D01*
X129623600Y-136271238D01*
X129628045Y-136226101D01*
X129639420Y-136188605D01*
X129657892Y-136154046D01*
X129682753Y-136123753D01*
X129713046Y-136098892D01*
X129747605Y-136080420D01*
X129785101Y-136069045D01*
X129830238Y-136064600D01*
X130468962Y-136064600D01*
X130514099Y-136069045D01*
X130514099Y-136069045D01*
G37*
G36*
X139587324Y-133737299D02*
G01*
X139615587Y-133745873D01*
X139641634Y-133759796D01*
X139664467Y-133778533D01*
X139683204Y-133801366D01*
X139697127Y-133827413D01*
X139705701Y-133855676D01*
X139709200Y-133891208D01*
X139709200Y-137028392D01*
X139705701Y-137063924D01*
X139697127Y-137092187D01*
X139683204Y-137118234D01*
X139664467Y-137141067D01*
X139641634Y-137159804D01*
X139615587Y-137173727D01*
X139587324Y-137182301D01*
X139551792Y-137185800D01*
X136414608Y-137185800D01*
X136379076Y-137182301D01*
X136350813Y-137173727D01*
X136324766Y-137159804D01*
X136301933Y-137141067D01*
X136283196Y-137118234D01*
X136269273Y-137092187D01*
X136260699Y-137063924D01*
X136257200Y-137028392D01*
X136257200Y-133891208D01*
X136260699Y-133855676D01*
X136269273Y-133827413D01*
X136283196Y-133801366D01*
X136301933Y-133778533D01*
X136324766Y-133759796D01*
X136350813Y-133745873D01*
X136379076Y-133737299D01*
X136414608Y-133733800D01*
X139551792Y-133733800D01*
X139587324Y-133737299D01*
X139587324Y-133737299D01*
G37*
G36*
X127333924Y-133705899D02*
G01*
X127362187Y-133714473D01*
X127388234Y-133728396D01*
X127411067Y-133747133D01*
X127429804Y-133769966D01*
X127443727Y-133796013D01*
X127452301Y-133824276D01*
X127455800Y-133859808D01*
X127455800Y-136996992D01*
X127452301Y-137032524D01*
X127443727Y-137060787D01*
X127429804Y-137086834D01*
X127411067Y-137109667D01*
X127388234Y-137128404D01*
X127362187Y-137142327D01*
X127333924Y-137150901D01*
X127298392Y-137154400D01*
X124161208Y-137154400D01*
X124125676Y-137150901D01*
X124097413Y-137142327D01*
X124071366Y-137128404D01*
X124048533Y-137109667D01*
X124029796Y-137086834D01*
X124015873Y-137060787D01*
X124007299Y-137032524D01*
X124003800Y-136996992D01*
X124003800Y-133859808D01*
X124007299Y-133824276D01*
X124015873Y-133796013D01*
X124029796Y-133769966D01*
X124048533Y-133747133D01*
X124071366Y-133728396D01*
X124097413Y-133714473D01*
X124125676Y-133705899D01*
X124161208Y-133702400D01*
X127298392Y-133702400D01*
X127333924Y-133705899D01*
X127333924Y-133705899D01*
G37*
G36*
X140863555Y-133784883D02*
G01*
X140868229Y-133786301D01*
X140872531Y-133788600D01*
X140876304Y-133791696D01*
X140879400Y-133795469D01*
X140881699Y-133799771D01*
X140883117Y-133804445D01*
X140884200Y-133815441D01*
X140884200Y-134104159D01*
X140883117Y-134115155D01*
X140881699Y-134119829D01*
X140879400Y-134124130D01*
X140874171Y-134130502D01*
X140860557Y-134150876D01*
X140851180Y-134173515D01*
X140846400Y-134197549D01*
X140846400Y-134222053D01*
X140851181Y-134246086D01*
X140860558Y-134268725D01*
X140874171Y-134289098D01*
X140879400Y-134295470D01*
X140881699Y-134299771D01*
X140883117Y-134304445D01*
X140884200Y-134315441D01*
X140884200Y-134604159D01*
X140883117Y-134615155D01*
X140881699Y-134619829D01*
X140879400Y-134624130D01*
X140874171Y-134630502D01*
X140860557Y-134650876D01*
X140851180Y-134673515D01*
X140846400Y-134697549D01*
X140846400Y-134722053D01*
X140851181Y-134746086D01*
X140860558Y-134768725D01*
X140874171Y-134789098D01*
X140879400Y-134795470D01*
X140881699Y-134799771D01*
X140883117Y-134804445D01*
X140884200Y-134815441D01*
X140884200Y-135104159D01*
X140883117Y-135115155D01*
X140881699Y-135119829D01*
X140879400Y-135124130D01*
X140874171Y-135130502D01*
X140860557Y-135150876D01*
X140851180Y-135173515D01*
X140846400Y-135197549D01*
X140846400Y-135222053D01*
X140851181Y-135246086D01*
X140860558Y-135268725D01*
X140874171Y-135289098D01*
X140879400Y-135295470D01*
X140881699Y-135299771D01*
X140883117Y-135304445D01*
X140884200Y-135315441D01*
X140884200Y-135604159D01*
X140883117Y-135615155D01*
X140881699Y-135619829D01*
X140879400Y-135624130D01*
X140874171Y-135630502D01*
X140860557Y-135650876D01*
X140851180Y-135673515D01*
X140846400Y-135697549D01*
X140846400Y-135722053D01*
X140851181Y-135746086D01*
X140860558Y-135768725D01*
X140874171Y-135789098D01*
X140879400Y-135795470D01*
X140881699Y-135799771D01*
X140883117Y-135804445D01*
X140884200Y-135815441D01*
X140884200Y-136104159D01*
X140883117Y-136115155D01*
X140881699Y-136119829D01*
X140879400Y-136124130D01*
X140874171Y-136130502D01*
X140860557Y-136150876D01*
X140851180Y-136173515D01*
X140846400Y-136197549D01*
X140846400Y-136222053D01*
X140851181Y-136246086D01*
X140860558Y-136268725D01*
X140874171Y-136289098D01*
X140879400Y-136295470D01*
X140881699Y-136299771D01*
X140883117Y-136304445D01*
X140884200Y-136315441D01*
X140884200Y-136604159D01*
X140883117Y-136615155D01*
X140881699Y-136619829D01*
X140879400Y-136624130D01*
X140874171Y-136630502D01*
X140860557Y-136650876D01*
X140851180Y-136673515D01*
X140846400Y-136697549D01*
X140846400Y-136722053D01*
X140851181Y-136746086D01*
X140860558Y-136768725D01*
X140874171Y-136789098D01*
X140879400Y-136795470D01*
X140881699Y-136799771D01*
X140883117Y-136804445D01*
X140884200Y-136815441D01*
X140884200Y-137104159D01*
X140883117Y-137115155D01*
X140881699Y-137119829D01*
X140879400Y-137124131D01*
X140876304Y-137127904D01*
X140872531Y-137131000D01*
X140868229Y-137133299D01*
X140863555Y-137134717D01*
X140852559Y-137135800D01*
X140013841Y-137135800D01*
X140002845Y-137134717D01*
X139998171Y-137133299D01*
X139993869Y-137131000D01*
X139990096Y-137127904D01*
X139987000Y-137124131D01*
X139984701Y-137119829D01*
X139983283Y-137115155D01*
X139982200Y-137104159D01*
X139982200Y-136815441D01*
X139983283Y-136804445D01*
X139984701Y-136799771D01*
X139987000Y-136795470D01*
X139992229Y-136789098D01*
X140005843Y-136768724D01*
X140015220Y-136746085D01*
X140020000Y-136722051D01*
X140020000Y-136697547D01*
X140015219Y-136673514D01*
X140005842Y-136650875D01*
X139992229Y-136630502D01*
X139987000Y-136624130D01*
X139984701Y-136619829D01*
X139983283Y-136615155D01*
X139982200Y-136604159D01*
X139982200Y-136315441D01*
X139983283Y-136304445D01*
X139984701Y-136299771D01*
X139987000Y-136295470D01*
X139992229Y-136289098D01*
X140005843Y-136268724D01*
X140015220Y-136246085D01*
X140020000Y-136222051D01*
X140020000Y-136197547D01*
X140015219Y-136173514D01*
X140005842Y-136150875D01*
X139992229Y-136130502D01*
X139987000Y-136124130D01*
X139984701Y-136119829D01*
X139983283Y-136115155D01*
X139982200Y-136104159D01*
X139982200Y-135815441D01*
X139983283Y-135804445D01*
X139984701Y-135799771D01*
X139987000Y-135795470D01*
X139992229Y-135789098D01*
X140005843Y-135768724D01*
X140015220Y-135746085D01*
X140020000Y-135722051D01*
X140020000Y-135697547D01*
X140015219Y-135673514D01*
X140005842Y-135650875D01*
X139992229Y-135630502D01*
X139987000Y-135624130D01*
X139984701Y-135619829D01*
X139983283Y-135615155D01*
X139982200Y-135604159D01*
X139982200Y-135315441D01*
X139983283Y-135304445D01*
X139984701Y-135299771D01*
X139987000Y-135295470D01*
X139992229Y-135289098D01*
X140005843Y-135268724D01*
X140015220Y-135246085D01*
X140020000Y-135222051D01*
X140020000Y-135197547D01*
X140015219Y-135173514D01*
X140005842Y-135150875D01*
X139992229Y-135130502D01*
X139987000Y-135124130D01*
X139984701Y-135119829D01*
X139983283Y-135115155D01*
X139982200Y-135104159D01*
X139982200Y-134815441D01*
X139983283Y-134804445D01*
X139984701Y-134799771D01*
X139987000Y-134795470D01*
X139992229Y-134789098D01*
X140005843Y-134768724D01*
X140015220Y-134746085D01*
X140020000Y-134722051D01*
X140020000Y-134697547D01*
X140015219Y-134673514D01*
X140005842Y-134650875D01*
X139992229Y-134630502D01*
X139987000Y-134624130D01*
X139984701Y-134619829D01*
X139983283Y-134615155D01*
X139982200Y-134604159D01*
X139982200Y-134315441D01*
X139983283Y-134304445D01*
X139984701Y-134299771D01*
X139987000Y-134295470D01*
X139992229Y-134289098D01*
X140005843Y-134268724D01*
X140015220Y-134246085D01*
X140020000Y-134222051D01*
X140020000Y-134197547D01*
X140015219Y-134173514D01*
X140005842Y-134150875D01*
X139992229Y-134130502D01*
X139987000Y-134124130D01*
X139984701Y-134119829D01*
X139983283Y-134115155D01*
X139982200Y-134104159D01*
X139982200Y-133815441D01*
X139983283Y-133804445D01*
X139984701Y-133799771D01*
X139987000Y-133795469D01*
X139990096Y-133791696D01*
X139993869Y-133788600D01*
X139998171Y-133786301D01*
X140002845Y-133784883D01*
X140013841Y-133783800D01*
X140852559Y-133783800D01*
X140863555Y-133784883D01*
X140863555Y-133784883D01*
G37*
G36*
X135963555Y-133784883D02*
G01*
X135968229Y-133786301D01*
X135972531Y-133788600D01*
X135976304Y-133791696D01*
X135979400Y-133795469D01*
X135981699Y-133799771D01*
X135983117Y-133804445D01*
X135984200Y-133815441D01*
X135984200Y-134104159D01*
X135983117Y-134115155D01*
X135981699Y-134119829D01*
X135979400Y-134124130D01*
X135974171Y-134130502D01*
X135960557Y-134150876D01*
X135951180Y-134173515D01*
X135946400Y-134197549D01*
X135946400Y-134222053D01*
X135951181Y-134246086D01*
X135960558Y-134268725D01*
X135974171Y-134289098D01*
X135979400Y-134295470D01*
X135981699Y-134299771D01*
X135983117Y-134304445D01*
X135984200Y-134315441D01*
X135984200Y-134604159D01*
X135983117Y-134615155D01*
X135981699Y-134619829D01*
X135979400Y-134624130D01*
X135974171Y-134630502D01*
X135960557Y-134650876D01*
X135951180Y-134673515D01*
X135946400Y-134697549D01*
X135946400Y-134722053D01*
X135951181Y-134746086D01*
X135960558Y-134768725D01*
X135974171Y-134789098D01*
X135979400Y-134795470D01*
X135981699Y-134799771D01*
X135983117Y-134804445D01*
X135984200Y-134815441D01*
X135984200Y-135104159D01*
X135983117Y-135115155D01*
X135981699Y-135119829D01*
X135979400Y-135124130D01*
X135974171Y-135130502D01*
X135960557Y-135150876D01*
X135951180Y-135173515D01*
X135946400Y-135197549D01*
X135946400Y-135222053D01*
X135951181Y-135246086D01*
X135960558Y-135268725D01*
X135974171Y-135289098D01*
X135979400Y-135295470D01*
X135981699Y-135299771D01*
X135983117Y-135304445D01*
X135984200Y-135315441D01*
X135984200Y-135604159D01*
X135983117Y-135615155D01*
X135981699Y-135619829D01*
X135979400Y-135624130D01*
X135974171Y-135630502D01*
X135960557Y-135650876D01*
X135951180Y-135673515D01*
X135946400Y-135697549D01*
X135946400Y-135722053D01*
X135951181Y-135746086D01*
X135960558Y-135768725D01*
X135974171Y-135789098D01*
X135979400Y-135795470D01*
X135981699Y-135799771D01*
X135983117Y-135804445D01*
X135984200Y-135815441D01*
X135984200Y-136104159D01*
X135983117Y-136115155D01*
X135981699Y-136119829D01*
X135979400Y-136124130D01*
X135974171Y-136130502D01*
X135960557Y-136150876D01*
X135951180Y-136173515D01*
X135946400Y-136197549D01*
X135946400Y-136222053D01*
X135951181Y-136246086D01*
X135960558Y-136268725D01*
X135974171Y-136289098D01*
X135979400Y-136295470D01*
X135981699Y-136299771D01*
X135983117Y-136304445D01*
X135984200Y-136315441D01*
X135984200Y-136604159D01*
X135983117Y-136615155D01*
X135981699Y-136619829D01*
X135979400Y-136624130D01*
X135974171Y-136630502D01*
X135960557Y-136650876D01*
X135951180Y-136673515D01*
X135946400Y-136697549D01*
X135946400Y-136722053D01*
X135951181Y-136746086D01*
X135960558Y-136768725D01*
X135974171Y-136789098D01*
X135979400Y-136795470D01*
X135981699Y-136799771D01*
X135983117Y-136804445D01*
X135984200Y-136815441D01*
X135984200Y-137104159D01*
X135983117Y-137115155D01*
X135981699Y-137119829D01*
X135979400Y-137124131D01*
X135976304Y-137127904D01*
X135972531Y-137131000D01*
X135968229Y-137133299D01*
X135963555Y-137134717D01*
X135952559Y-137135800D01*
X135113841Y-137135800D01*
X135102845Y-137134717D01*
X135098171Y-137133299D01*
X135093869Y-137131000D01*
X135090096Y-137127904D01*
X135087000Y-137124131D01*
X135084701Y-137119829D01*
X135083283Y-137115155D01*
X135082200Y-137104159D01*
X135082200Y-136815441D01*
X135083283Y-136804445D01*
X135084701Y-136799771D01*
X135087000Y-136795470D01*
X135092229Y-136789098D01*
X135105843Y-136768724D01*
X135115220Y-136746085D01*
X135120000Y-136722051D01*
X135120000Y-136697547D01*
X135115219Y-136673514D01*
X135105842Y-136650875D01*
X135092229Y-136630502D01*
X135087000Y-136624130D01*
X135084701Y-136619829D01*
X135083283Y-136615155D01*
X135082200Y-136604159D01*
X135082200Y-136315441D01*
X135083283Y-136304445D01*
X135084701Y-136299771D01*
X135087000Y-136295470D01*
X135092229Y-136289098D01*
X135105843Y-136268724D01*
X135115220Y-136246085D01*
X135120000Y-136222051D01*
X135120000Y-136197547D01*
X135115219Y-136173514D01*
X135105842Y-136150875D01*
X135092229Y-136130502D01*
X135087000Y-136124130D01*
X135084701Y-136119829D01*
X135083283Y-136115155D01*
X135082200Y-136104159D01*
X135082200Y-135815441D01*
X135083283Y-135804445D01*
X135084701Y-135799771D01*
X135087000Y-135795470D01*
X135092229Y-135789098D01*
X135105843Y-135768724D01*
X135115220Y-135746085D01*
X135120000Y-135722051D01*
X135120000Y-135697547D01*
X135115219Y-135673514D01*
X135105842Y-135650875D01*
X135092229Y-135630502D01*
X135087000Y-135624130D01*
X135084701Y-135619829D01*
X135083283Y-135615155D01*
X135082200Y-135604159D01*
X135082200Y-135315441D01*
X135083283Y-135304445D01*
X135084701Y-135299771D01*
X135087000Y-135295470D01*
X135092229Y-135289098D01*
X135105843Y-135268724D01*
X135115220Y-135246085D01*
X135120000Y-135222051D01*
X135120000Y-135197547D01*
X135115219Y-135173514D01*
X135105842Y-135150875D01*
X135092229Y-135130502D01*
X135087000Y-135124130D01*
X135084701Y-135119829D01*
X135083283Y-135115155D01*
X135082200Y-135104159D01*
X135082200Y-134815441D01*
X135083283Y-134804445D01*
X135084701Y-134799771D01*
X135087000Y-134795470D01*
X135092229Y-134789098D01*
X135105843Y-134768724D01*
X135115220Y-134746085D01*
X135120000Y-134722051D01*
X135120000Y-134697547D01*
X135115219Y-134673514D01*
X135105842Y-134650875D01*
X135092229Y-134630502D01*
X135087000Y-134624130D01*
X135084701Y-134619829D01*
X135083283Y-134615155D01*
X135082200Y-134604159D01*
X135082200Y-134315441D01*
X135083283Y-134304445D01*
X135084701Y-134299771D01*
X135087000Y-134295470D01*
X135092229Y-134289098D01*
X135105843Y-134268724D01*
X135115220Y-134246085D01*
X135120000Y-134222051D01*
X135120000Y-134197547D01*
X135115219Y-134173514D01*
X135105842Y-134150875D01*
X135092229Y-134130502D01*
X135087000Y-134124130D01*
X135084701Y-134119829D01*
X135083283Y-134115155D01*
X135082200Y-134104159D01*
X135082200Y-133815441D01*
X135083283Y-133804445D01*
X135084701Y-133799771D01*
X135087000Y-133795469D01*
X135090096Y-133791696D01*
X135093869Y-133788600D01*
X135098171Y-133786301D01*
X135102845Y-133784883D01*
X135113841Y-133783800D01*
X135952559Y-133783800D01*
X135963555Y-133784883D01*
X135963555Y-133784883D01*
G37*
G36*
X123710155Y-133753483D02*
G01*
X123714829Y-133754901D01*
X123719131Y-133757200D01*
X123722904Y-133760296D01*
X123726000Y-133764069D01*
X123728299Y-133768371D01*
X123729717Y-133773045D01*
X123730800Y-133784041D01*
X123730800Y-134072759D01*
X123729717Y-134083755D01*
X123728299Y-134088429D01*
X123726000Y-134092730D01*
X123720771Y-134099102D01*
X123707157Y-134119476D01*
X123697780Y-134142115D01*
X123693000Y-134166149D01*
X123693000Y-134190653D01*
X123697781Y-134214686D01*
X123707158Y-134237325D01*
X123720771Y-134257698D01*
X123726000Y-134264070D01*
X123728299Y-134268371D01*
X123729717Y-134273045D01*
X123730800Y-134284041D01*
X123730800Y-134572759D01*
X123729717Y-134583755D01*
X123728299Y-134588429D01*
X123726000Y-134592730D01*
X123720771Y-134599102D01*
X123707157Y-134619476D01*
X123697780Y-134642115D01*
X123693000Y-134666149D01*
X123693000Y-134690653D01*
X123697781Y-134714686D01*
X123707158Y-134737325D01*
X123720771Y-134757698D01*
X123726000Y-134764070D01*
X123728299Y-134768371D01*
X123729717Y-134773045D01*
X123730800Y-134784041D01*
X123730800Y-135072759D01*
X123729717Y-135083755D01*
X123728299Y-135088429D01*
X123726000Y-135092730D01*
X123720771Y-135099102D01*
X123707157Y-135119476D01*
X123697780Y-135142115D01*
X123693000Y-135166149D01*
X123693000Y-135190653D01*
X123697781Y-135214686D01*
X123707158Y-135237325D01*
X123720771Y-135257698D01*
X123726000Y-135264070D01*
X123728299Y-135268371D01*
X123729717Y-135273045D01*
X123730800Y-135284041D01*
X123730800Y-135572759D01*
X123729717Y-135583755D01*
X123728299Y-135588429D01*
X123726000Y-135592730D01*
X123720771Y-135599102D01*
X123707157Y-135619476D01*
X123697780Y-135642115D01*
X123693000Y-135666149D01*
X123693000Y-135690653D01*
X123697781Y-135714686D01*
X123707158Y-135737325D01*
X123720771Y-135757698D01*
X123726000Y-135764070D01*
X123728299Y-135768371D01*
X123729717Y-135773045D01*
X123730800Y-135784041D01*
X123730800Y-136072759D01*
X123729717Y-136083755D01*
X123728299Y-136088429D01*
X123726000Y-136092730D01*
X123720771Y-136099102D01*
X123707157Y-136119476D01*
X123697780Y-136142115D01*
X123693000Y-136166149D01*
X123693000Y-136190653D01*
X123697781Y-136214686D01*
X123707158Y-136237325D01*
X123720771Y-136257698D01*
X123726000Y-136264070D01*
X123728299Y-136268371D01*
X123729717Y-136273045D01*
X123730800Y-136284041D01*
X123730800Y-136572759D01*
X123729717Y-136583755D01*
X123728299Y-136588429D01*
X123726000Y-136592730D01*
X123720771Y-136599102D01*
X123707157Y-136619476D01*
X123697780Y-136642115D01*
X123693000Y-136666149D01*
X123693000Y-136690653D01*
X123697781Y-136714686D01*
X123707158Y-136737325D01*
X123720771Y-136757698D01*
X123726000Y-136764070D01*
X123728299Y-136768371D01*
X123729717Y-136773045D01*
X123730800Y-136784041D01*
X123730800Y-137072759D01*
X123729717Y-137083755D01*
X123728300Y-137088427D01*
X123726000Y-137092731D01*
X123722904Y-137096504D01*
X123719131Y-137099600D01*
X123714829Y-137101899D01*
X123710155Y-137103317D01*
X123699159Y-137104400D01*
X122860441Y-137104400D01*
X122849445Y-137103317D01*
X122844771Y-137101899D01*
X122840469Y-137099600D01*
X122836696Y-137096504D01*
X122833600Y-137092731D01*
X122831300Y-137088427D01*
X122829883Y-137083755D01*
X122828800Y-137072759D01*
X122828800Y-136784041D01*
X122829883Y-136773045D01*
X122831301Y-136768371D01*
X122833600Y-136764070D01*
X122838829Y-136757698D01*
X122852443Y-136737324D01*
X122861820Y-136714685D01*
X122866600Y-136690651D01*
X122866600Y-136666147D01*
X122861819Y-136642114D01*
X122852442Y-136619475D01*
X122838829Y-136599102D01*
X122833600Y-136592730D01*
X122831301Y-136588429D01*
X122829883Y-136583755D01*
X122828800Y-136572759D01*
X122828800Y-136284041D01*
X122829883Y-136273045D01*
X122831301Y-136268371D01*
X122833600Y-136264070D01*
X122838829Y-136257698D01*
X122852443Y-136237324D01*
X122861820Y-136214685D01*
X122866600Y-136190651D01*
X122866600Y-136166147D01*
X122861819Y-136142114D01*
X122852442Y-136119475D01*
X122838829Y-136099102D01*
X122833600Y-136092730D01*
X122831301Y-136088429D01*
X122829883Y-136083755D01*
X122828800Y-136072759D01*
X122828800Y-135784041D01*
X122829883Y-135773045D01*
X122831301Y-135768371D01*
X122833600Y-135764070D01*
X122838829Y-135757698D01*
X122852443Y-135737324D01*
X122861820Y-135714685D01*
X122866600Y-135690651D01*
X122866600Y-135666147D01*
X122861819Y-135642114D01*
X122852442Y-135619475D01*
X122838829Y-135599102D01*
X122833600Y-135592730D01*
X122831301Y-135588429D01*
X122829883Y-135583755D01*
X122828800Y-135572759D01*
X122828800Y-135284041D01*
X122829883Y-135273045D01*
X122831301Y-135268371D01*
X122833600Y-135264070D01*
X122838829Y-135257698D01*
X122852443Y-135237324D01*
X122861820Y-135214685D01*
X122866600Y-135190651D01*
X122866600Y-135166147D01*
X122861819Y-135142114D01*
X122852442Y-135119475D01*
X122838829Y-135099102D01*
X122833600Y-135092730D01*
X122831301Y-135088429D01*
X122829883Y-135083755D01*
X122828800Y-135072759D01*
X122828800Y-134784041D01*
X122829883Y-134773045D01*
X122831301Y-134768371D01*
X122833600Y-134764070D01*
X122838829Y-134757698D01*
X122852443Y-134737324D01*
X122861820Y-134714685D01*
X122866600Y-134690651D01*
X122866600Y-134666147D01*
X122861819Y-134642114D01*
X122852442Y-134619475D01*
X122838829Y-134599102D01*
X122833600Y-134592730D01*
X122831301Y-134588429D01*
X122829883Y-134583755D01*
X122828800Y-134572759D01*
X122828800Y-134284041D01*
X122829883Y-134273045D01*
X122831301Y-134268371D01*
X122833600Y-134264070D01*
X122838829Y-134257698D01*
X122852443Y-134237324D01*
X122861820Y-134214685D01*
X122866600Y-134190651D01*
X122866600Y-134166147D01*
X122861819Y-134142114D01*
X122852442Y-134119475D01*
X122838829Y-134099102D01*
X122833600Y-134092730D01*
X122831301Y-134088429D01*
X122829883Y-134083755D01*
X122828800Y-134072759D01*
X122828800Y-133784041D01*
X122829883Y-133773045D01*
X122831301Y-133768371D01*
X122833600Y-133764069D01*
X122836696Y-133760296D01*
X122840469Y-133757200D01*
X122844771Y-133754901D01*
X122849445Y-133753483D01*
X122860441Y-133752400D01*
X123699159Y-133752400D01*
X123710155Y-133753483D01*
X123710155Y-133753483D01*
G37*
G36*
X128610155Y-133753483D02*
G01*
X128614829Y-133754901D01*
X128619131Y-133757200D01*
X128622904Y-133760296D01*
X128626000Y-133764069D01*
X128628299Y-133768371D01*
X128629717Y-133773045D01*
X128630800Y-133784041D01*
X128630800Y-134072759D01*
X128629717Y-134083755D01*
X128628299Y-134088429D01*
X128626000Y-134092730D01*
X128620771Y-134099102D01*
X128607157Y-134119476D01*
X128597780Y-134142115D01*
X128593000Y-134166149D01*
X128593000Y-134190653D01*
X128597781Y-134214686D01*
X128607158Y-134237325D01*
X128620771Y-134257698D01*
X128626000Y-134264070D01*
X128628299Y-134268371D01*
X128629717Y-134273045D01*
X128630800Y-134284041D01*
X128630800Y-134572759D01*
X128629717Y-134583755D01*
X128628299Y-134588429D01*
X128626000Y-134592730D01*
X128620771Y-134599102D01*
X128607157Y-134619476D01*
X128597780Y-134642115D01*
X128593000Y-134666149D01*
X128593000Y-134690653D01*
X128597781Y-134714686D01*
X128607158Y-134737325D01*
X128620771Y-134757698D01*
X128626000Y-134764070D01*
X128628299Y-134768371D01*
X128629717Y-134773045D01*
X128630800Y-134784041D01*
X128630800Y-135072759D01*
X128629717Y-135083755D01*
X128628299Y-135088429D01*
X128626000Y-135092730D01*
X128620771Y-135099102D01*
X128607157Y-135119476D01*
X128597780Y-135142115D01*
X128593000Y-135166149D01*
X128593000Y-135190653D01*
X128597781Y-135214686D01*
X128607158Y-135237325D01*
X128620771Y-135257698D01*
X128626000Y-135264070D01*
X128628299Y-135268371D01*
X128629717Y-135273045D01*
X128630800Y-135284041D01*
X128630800Y-135572759D01*
X128629717Y-135583755D01*
X128628299Y-135588429D01*
X128626000Y-135592730D01*
X128620771Y-135599102D01*
X128607157Y-135619476D01*
X128597780Y-135642115D01*
X128593000Y-135666149D01*
X128593000Y-135690653D01*
X128597781Y-135714686D01*
X128607158Y-135737325D01*
X128620771Y-135757698D01*
X128626000Y-135764070D01*
X128628299Y-135768371D01*
X128629717Y-135773045D01*
X128630800Y-135784041D01*
X128630800Y-136072759D01*
X128629717Y-136083755D01*
X128628299Y-136088429D01*
X128626000Y-136092730D01*
X128620771Y-136099102D01*
X128607157Y-136119476D01*
X128597780Y-136142115D01*
X128593000Y-136166149D01*
X128593000Y-136190653D01*
X128597781Y-136214686D01*
X128607158Y-136237325D01*
X128620771Y-136257698D01*
X128626000Y-136264070D01*
X128628299Y-136268371D01*
X128629717Y-136273045D01*
X128630800Y-136284041D01*
X128630800Y-136572759D01*
X128629717Y-136583755D01*
X128628299Y-136588429D01*
X128626000Y-136592730D01*
X128620771Y-136599102D01*
X128607157Y-136619476D01*
X128597780Y-136642115D01*
X128593000Y-136666149D01*
X128593000Y-136690653D01*
X128597781Y-136714686D01*
X128607158Y-136737325D01*
X128620771Y-136757698D01*
X128626000Y-136764070D01*
X128628299Y-136768371D01*
X128629717Y-136773045D01*
X128630800Y-136784041D01*
X128630800Y-137072759D01*
X128629717Y-137083755D01*
X128628300Y-137088427D01*
X128626000Y-137092731D01*
X128622904Y-137096504D01*
X128619131Y-137099600D01*
X128614829Y-137101899D01*
X128610155Y-137103317D01*
X128599159Y-137104400D01*
X127760441Y-137104400D01*
X127749445Y-137103317D01*
X127744771Y-137101899D01*
X127740469Y-137099600D01*
X127736696Y-137096504D01*
X127733600Y-137092731D01*
X127731300Y-137088427D01*
X127729883Y-137083755D01*
X127728800Y-137072759D01*
X127728800Y-136784041D01*
X127729883Y-136773045D01*
X127731301Y-136768371D01*
X127733600Y-136764070D01*
X127738829Y-136757698D01*
X127752443Y-136737324D01*
X127761820Y-136714685D01*
X127766600Y-136690651D01*
X127766600Y-136666147D01*
X127761819Y-136642114D01*
X127752442Y-136619475D01*
X127738829Y-136599102D01*
X127733600Y-136592730D01*
X127731301Y-136588429D01*
X127729883Y-136583755D01*
X127728800Y-136572759D01*
X127728800Y-136284041D01*
X127729883Y-136273045D01*
X127731301Y-136268371D01*
X127733600Y-136264070D01*
X127738829Y-136257698D01*
X127752443Y-136237324D01*
X127761820Y-136214685D01*
X127766600Y-136190651D01*
X127766600Y-136166147D01*
X127761819Y-136142114D01*
X127752442Y-136119475D01*
X127738829Y-136099102D01*
X127733600Y-136092730D01*
X127731301Y-136088429D01*
X127729883Y-136083755D01*
X127728800Y-136072759D01*
X127728800Y-135784041D01*
X127729883Y-135773045D01*
X127731301Y-135768371D01*
X127733600Y-135764070D01*
X127738829Y-135757698D01*
X127752443Y-135737324D01*
X127761820Y-135714685D01*
X127766600Y-135690651D01*
X127766600Y-135666147D01*
X127761819Y-135642114D01*
X127752442Y-135619475D01*
X127738829Y-135599102D01*
X127733600Y-135592730D01*
X127731301Y-135588429D01*
X127729883Y-135583755D01*
X127728800Y-135572759D01*
X127728800Y-135284041D01*
X127729883Y-135273045D01*
X127731301Y-135268371D01*
X127733600Y-135264070D01*
X127738829Y-135257698D01*
X127752443Y-135237324D01*
X127761820Y-135214685D01*
X127766600Y-135190651D01*
X127766600Y-135166147D01*
X127761819Y-135142114D01*
X127752442Y-135119475D01*
X127738829Y-135099102D01*
X127733600Y-135092730D01*
X127731301Y-135088429D01*
X127729883Y-135083755D01*
X127728800Y-135072759D01*
X127728800Y-134784041D01*
X127729883Y-134773045D01*
X127731301Y-134768371D01*
X127733600Y-134764070D01*
X127738829Y-134757698D01*
X127752443Y-134737324D01*
X127761820Y-134714685D01*
X127766600Y-134690651D01*
X127766600Y-134666147D01*
X127761819Y-134642114D01*
X127752442Y-134619475D01*
X127738829Y-134599102D01*
X127733600Y-134592730D01*
X127731301Y-134588429D01*
X127729883Y-134583755D01*
X127728800Y-134572759D01*
X127728800Y-134284041D01*
X127729883Y-134273045D01*
X127731301Y-134268371D01*
X127733600Y-134264070D01*
X127738829Y-134257698D01*
X127752443Y-134237324D01*
X127761820Y-134214685D01*
X127766600Y-134190651D01*
X127766600Y-134166147D01*
X127761819Y-134142114D01*
X127752442Y-134119475D01*
X127738829Y-134099102D01*
X127733600Y-134092730D01*
X127731301Y-134088429D01*
X127729883Y-134083755D01*
X127728800Y-134072759D01*
X127728800Y-133784041D01*
X127729883Y-133773045D01*
X127731301Y-133768371D01*
X127733600Y-133764069D01*
X127736696Y-133760296D01*
X127740469Y-133757200D01*
X127744771Y-133754901D01*
X127749445Y-133753483D01*
X127760441Y-133752400D01*
X128599159Y-133752400D01*
X128610155Y-133753483D01*
X128610155Y-133753483D01*
G37*
G36*
X115628824Y-132737960D02*
G01*
X115628827Y-132737961D01*
X115628828Y-132737961D01*
X115808092Y-132792340D01*
X115808095Y-132792342D01*
X115808096Y-132792342D01*
X115973303Y-132880646D01*
X116118112Y-132999488D01*
X116236954Y-133144297D01*
X116325258Y-133309503D01*
X116325260Y-133309507D01*
X116371154Y-133460800D01*
X116379640Y-133488775D01*
X116393400Y-133628482D01*
X116393400Y-135921918D01*
X116379640Y-136061625D01*
X116379639Y-136061628D01*
X116379639Y-136061629D01*
X116325260Y-136240893D01*
X116325258Y-136240896D01*
X116325258Y-136240897D01*
X116236954Y-136406103D01*
X116118112Y-136550912D01*
X115973303Y-136669754D01*
X115808097Y-136758058D01*
X115808093Y-136758060D01*
X115628829Y-136812439D01*
X115628828Y-136812439D01*
X115628825Y-136812440D01*
X115442400Y-136830801D01*
X115255976Y-136812440D01*
X115255973Y-136812439D01*
X115255972Y-136812439D01*
X115076708Y-136758060D01*
X115076704Y-136758058D01*
X114911498Y-136669754D01*
X114766689Y-136550912D01*
X114647847Y-136406103D01*
X114559543Y-136240897D01*
X114559543Y-136240896D01*
X114559541Y-136240893D01*
X114505162Y-136061629D01*
X114505162Y-136061628D01*
X114505161Y-136061625D01*
X114491401Y-135921918D01*
X114491400Y-133628483D01*
X114505160Y-133488776D01*
X114505161Y-133488772D01*
X114559540Y-133309508D01*
X114620351Y-133195738D01*
X114647846Y-133144297D01*
X114766688Y-132999488D01*
X114911497Y-132880646D01*
X115076703Y-132792342D01*
X115076704Y-132792342D01*
X115076707Y-132792340D01*
X115255971Y-132737961D01*
X115255972Y-132737961D01*
X115255975Y-132737960D01*
X115442400Y-132719599D01*
X115628824Y-132737960D01*
X115628824Y-132737960D01*
G37*
G36*
X130298699Y-134517545D02*
G01*
X130336195Y-134528920D01*
X130370754Y-134547392D01*
X130401047Y-134572253D01*
X130425908Y-134602546D01*
X130444380Y-134637105D01*
X130455755Y-134674601D01*
X130460200Y-134719738D01*
X130460200Y-135358462D01*
X130455755Y-135403599D01*
X130444380Y-135441095D01*
X130425908Y-135475654D01*
X130401047Y-135505947D01*
X130370754Y-135530808D01*
X130336195Y-135549280D01*
X130298699Y-135560655D01*
X130253562Y-135565100D01*
X129514838Y-135565100D01*
X129469701Y-135560655D01*
X129432205Y-135549280D01*
X129397646Y-135530808D01*
X129367353Y-135505947D01*
X129342492Y-135475654D01*
X129324020Y-135441095D01*
X129312645Y-135403599D01*
X129308200Y-135358462D01*
X129308200Y-134719738D01*
X129312645Y-134674601D01*
X129324020Y-134637105D01*
X129342492Y-134602546D01*
X129367353Y-134572253D01*
X129397646Y-134547392D01*
X129432205Y-134528920D01*
X129469701Y-134517545D01*
X129514838Y-134513100D01*
X130253562Y-134513100D01*
X130298699Y-134517545D01*
X130298699Y-134517545D01*
G37*
G36*
X132048699Y-134517545D02*
G01*
X132086195Y-134528920D01*
X132120754Y-134547392D01*
X132151047Y-134572253D01*
X132175908Y-134602546D01*
X132194380Y-134637105D01*
X132205755Y-134674601D01*
X132210200Y-134719738D01*
X132210200Y-135358462D01*
X132205755Y-135403599D01*
X132194380Y-135441095D01*
X132175908Y-135475654D01*
X132151047Y-135505947D01*
X132120754Y-135530808D01*
X132086195Y-135549280D01*
X132048699Y-135560655D01*
X132003562Y-135565100D01*
X131264838Y-135565100D01*
X131219701Y-135560655D01*
X131182205Y-135549280D01*
X131147646Y-135530808D01*
X131117353Y-135505947D01*
X131092492Y-135475654D01*
X131074020Y-135441095D01*
X131062645Y-135403599D01*
X131058200Y-135358462D01*
X131058200Y-134719738D01*
X131062645Y-134674601D01*
X131074020Y-134637105D01*
X131092492Y-134602546D01*
X131117353Y-134572253D01*
X131147646Y-134547392D01*
X131182205Y-134528920D01*
X131219701Y-134517545D01*
X131264838Y-134513100D01*
X132003562Y-134513100D01*
X132048699Y-134517545D01*
X132048699Y-134517545D01*
G37*
G36*
X142617699Y-134403245D02*
G01*
X142655195Y-134414620D01*
X142689754Y-134433092D01*
X142720047Y-134457953D01*
X142744908Y-134488246D01*
X142763380Y-134522805D01*
X142774755Y-134560301D01*
X142779200Y-134605438D01*
X142779200Y-135244162D01*
X142774755Y-135289299D01*
X142763380Y-135326795D01*
X142744908Y-135361354D01*
X142720047Y-135391647D01*
X142689754Y-135416508D01*
X142655195Y-135434980D01*
X142617699Y-135446355D01*
X142572562Y-135450800D01*
X141833838Y-135450800D01*
X141788701Y-135446355D01*
X141751205Y-135434980D01*
X141716646Y-135416508D01*
X141686353Y-135391647D01*
X141661492Y-135361354D01*
X141643020Y-135326795D01*
X141631645Y-135289299D01*
X141627200Y-135244162D01*
X141627200Y-134605438D01*
X141631645Y-134560301D01*
X141643020Y-134522805D01*
X141661492Y-134488246D01*
X141686353Y-134457953D01*
X141716646Y-134433092D01*
X141751205Y-134414620D01*
X141788701Y-134403245D01*
X141833838Y-134398800D01*
X142572562Y-134398800D01*
X142617699Y-134403245D01*
X142617699Y-134403245D01*
G37*
G36*
X144367699Y-134403245D02*
G01*
X144405195Y-134414620D01*
X144439754Y-134433092D01*
X144470047Y-134457953D01*
X144494908Y-134488246D01*
X144513380Y-134522805D01*
X144524755Y-134560301D01*
X144529200Y-134605438D01*
X144529200Y-135244162D01*
X144524755Y-135289299D01*
X144513380Y-135326795D01*
X144494908Y-135361354D01*
X144470047Y-135391647D01*
X144439754Y-135416508D01*
X144405195Y-135434980D01*
X144367699Y-135446355D01*
X144322562Y-135450800D01*
X143583838Y-135450800D01*
X143538701Y-135446355D01*
X143501205Y-135434980D01*
X143466646Y-135416508D01*
X143436353Y-135391647D01*
X143411492Y-135361354D01*
X143393020Y-135326795D01*
X143381645Y-135289299D01*
X143377200Y-135244162D01*
X143377200Y-134605438D01*
X143381645Y-134560301D01*
X143393020Y-134522805D01*
X143411492Y-134488246D01*
X143436353Y-134457953D01*
X143466646Y-134433092D01*
X143501205Y-134414620D01*
X143538701Y-134403245D01*
X143583838Y-134398800D01*
X144322562Y-134398800D01*
X144367699Y-134403245D01*
X144367699Y-134403245D01*
G37*
G36*
X132048699Y-132993545D02*
G01*
X132086195Y-133004920D01*
X132120754Y-133023392D01*
X132151047Y-133048253D01*
X132175908Y-133078546D01*
X132194380Y-133113105D01*
X132205755Y-133150601D01*
X132210200Y-133195738D01*
X132210200Y-133834462D01*
X132205755Y-133879599D01*
X132194380Y-133917095D01*
X132175908Y-133951654D01*
X132151047Y-133981947D01*
X132120754Y-134006808D01*
X132086195Y-134025280D01*
X132048699Y-134036655D01*
X132003562Y-134041100D01*
X131264838Y-134041100D01*
X131219701Y-134036655D01*
X131182205Y-134025280D01*
X131147646Y-134006808D01*
X131117353Y-133981947D01*
X131092492Y-133951654D01*
X131074020Y-133917095D01*
X131062645Y-133879599D01*
X131058200Y-133834462D01*
X131058200Y-133195738D01*
X131062645Y-133150601D01*
X131074020Y-133113105D01*
X131092492Y-133078546D01*
X131117353Y-133048253D01*
X131147646Y-133023392D01*
X131182205Y-133004920D01*
X131219701Y-132993545D01*
X131264838Y-132989100D01*
X132003562Y-132989100D01*
X132048699Y-132993545D01*
X132048699Y-132993545D01*
G37*
G36*
X130298699Y-132993545D02*
G01*
X130336195Y-133004920D01*
X130370754Y-133023392D01*
X130401047Y-133048253D01*
X130425908Y-133078546D01*
X130444380Y-133113105D01*
X130455755Y-133150601D01*
X130460200Y-133195738D01*
X130460200Y-133834462D01*
X130455755Y-133879599D01*
X130444380Y-133917095D01*
X130425908Y-133951654D01*
X130401047Y-133981947D01*
X130370754Y-134006808D01*
X130336195Y-134025280D01*
X130298699Y-134036655D01*
X130253562Y-134041100D01*
X129514838Y-134041100D01*
X129469701Y-134036655D01*
X129432205Y-134025280D01*
X129397646Y-134006808D01*
X129367353Y-133981947D01*
X129342492Y-133951654D01*
X129324020Y-133917095D01*
X129312645Y-133879599D01*
X129308200Y-133834462D01*
X129308200Y-133195738D01*
X129312645Y-133150601D01*
X129324020Y-133113105D01*
X129342492Y-133078546D01*
X129367353Y-133048253D01*
X129397646Y-133023392D01*
X129432205Y-133004920D01*
X129469701Y-132993545D01*
X129514838Y-132989100D01*
X130253562Y-132989100D01*
X130298699Y-132993545D01*
X130298699Y-132993545D01*
G37*
G36*
X144367699Y-132879245D02*
G01*
X144405195Y-132890620D01*
X144439754Y-132909092D01*
X144470047Y-132933953D01*
X144494908Y-132964246D01*
X144513380Y-132998805D01*
X144524755Y-133036301D01*
X144529200Y-133081438D01*
X144529200Y-133720162D01*
X144524755Y-133765299D01*
X144513380Y-133802795D01*
X144494908Y-133837354D01*
X144470047Y-133867647D01*
X144439754Y-133892508D01*
X144405195Y-133910980D01*
X144367699Y-133922355D01*
X144322562Y-133926800D01*
X143583838Y-133926800D01*
X143538701Y-133922355D01*
X143501205Y-133910980D01*
X143466646Y-133892508D01*
X143436353Y-133867647D01*
X143411492Y-133837354D01*
X143393020Y-133802795D01*
X143381645Y-133765299D01*
X143377200Y-133720162D01*
X143377200Y-133081438D01*
X143381645Y-133036301D01*
X143393020Y-132998805D01*
X143411492Y-132964246D01*
X143436353Y-132933953D01*
X143466646Y-132909092D01*
X143501205Y-132890620D01*
X143538701Y-132879245D01*
X143583838Y-132874800D01*
X144322562Y-132874800D01*
X144367699Y-132879245D01*
X144367699Y-132879245D01*
G37*
G36*
X142617699Y-132879245D02*
G01*
X142655195Y-132890620D01*
X142689754Y-132909092D01*
X142720047Y-132933953D01*
X142744908Y-132964246D01*
X142763380Y-132998805D01*
X142774755Y-133036301D01*
X142779200Y-133081438D01*
X142779200Y-133720162D01*
X142774755Y-133765299D01*
X142763380Y-133802795D01*
X142744908Y-133837354D01*
X142720047Y-133867647D01*
X142689754Y-133892508D01*
X142655195Y-133910980D01*
X142617699Y-133922355D01*
X142572562Y-133926800D01*
X141833838Y-133926800D01*
X141788701Y-133922355D01*
X141751205Y-133910980D01*
X141716646Y-133892508D01*
X141686353Y-133867647D01*
X141661492Y-133837354D01*
X141643020Y-133802795D01*
X141631645Y-133765299D01*
X141627200Y-133720162D01*
X141627200Y-133081438D01*
X141631645Y-133036301D01*
X141643020Y-132998805D01*
X141661492Y-132964246D01*
X141686353Y-132933953D01*
X141716646Y-132909092D01*
X141751205Y-132890620D01*
X141788701Y-132879245D01*
X141833838Y-132874800D01*
X142572562Y-132874800D01*
X142617699Y-132879245D01*
X142617699Y-132879245D01*
G37*
G36*
X136638555Y-132559883D02*
G01*
X136643229Y-132561301D01*
X136647530Y-132563600D01*
X136653902Y-132568829D01*
X136674276Y-132582443D01*
X136696915Y-132591820D01*
X136720949Y-132596600D01*
X136745453Y-132596600D01*
X136769486Y-132591819D01*
X136792125Y-132582442D01*
X136812498Y-132568829D01*
X136818870Y-132563600D01*
X136823171Y-132561301D01*
X136827845Y-132559883D01*
X136838841Y-132558800D01*
X137127559Y-132558800D01*
X137138555Y-132559883D01*
X137143229Y-132561301D01*
X137147530Y-132563600D01*
X137153902Y-132568829D01*
X137174276Y-132582443D01*
X137196915Y-132591820D01*
X137220949Y-132596600D01*
X137245453Y-132596600D01*
X137269486Y-132591819D01*
X137292125Y-132582442D01*
X137312498Y-132568829D01*
X137318870Y-132563600D01*
X137323171Y-132561301D01*
X137327845Y-132559883D01*
X137338841Y-132558800D01*
X137627559Y-132558800D01*
X137638555Y-132559883D01*
X137643229Y-132561301D01*
X137647530Y-132563600D01*
X137653902Y-132568829D01*
X137674276Y-132582443D01*
X137696915Y-132591820D01*
X137720949Y-132596600D01*
X137745453Y-132596600D01*
X137769486Y-132591819D01*
X137792125Y-132582442D01*
X137812498Y-132568829D01*
X137818870Y-132563600D01*
X137823171Y-132561301D01*
X137827845Y-132559883D01*
X137838841Y-132558800D01*
X138127559Y-132558800D01*
X138138555Y-132559883D01*
X138143229Y-132561301D01*
X138147530Y-132563600D01*
X138153902Y-132568829D01*
X138174276Y-132582443D01*
X138196915Y-132591820D01*
X138220949Y-132596600D01*
X138245453Y-132596600D01*
X138269486Y-132591819D01*
X138292125Y-132582442D01*
X138312498Y-132568829D01*
X138318870Y-132563600D01*
X138323171Y-132561301D01*
X138327845Y-132559883D01*
X138338841Y-132558800D01*
X138627559Y-132558800D01*
X138638555Y-132559883D01*
X138643229Y-132561301D01*
X138647530Y-132563600D01*
X138653902Y-132568829D01*
X138674276Y-132582443D01*
X138696915Y-132591820D01*
X138720949Y-132596600D01*
X138745453Y-132596600D01*
X138769486Y-132591819D01*
X138792125Y-132582442D01*
X138812498Y-132568829D01*
X138818870Y-132563600D01*
X138823171Y-132561301D01*
X138827845Y-132559883D01*
X138838841Y-132558800D01*
X139127559Y-132558800D01*
X139138555Y-132559883D01*
X139143229Y-132561301D01*
X139147530Y-132563600D01*
X139153902Y-132568829D01*
X139174276Y-132582443D01*
X139196915Y-132591820D01*
X139220949Y-132596600D01*
X139245453Y-132596600D01*
X139269486Y-132591819D01*
X139292125Y-132582442D01*
X139312498Y-132568829D01*
X139318870Y-132563600D01*
X139323171Y-132561301D01*
X139327845Y-132559883D01*
X139338841Y-132558800D01*
X139627559Y-132558800D01*
X139638555Y-132559883D01*
X139643229Y-132561301D01*
X139647531Y-132563600D01*
X139651304Y-132566696D01*
X139654400Y-132570469D01*
X139656699Y-132574771D01*
X139658117Y-132579445D01*
X139659200Y-132590441D01*
X139659200Y-133429159D01*
X139658117Y-133440155D01*
X139656699Y-133444829D01*
X139654400Y-133449131D01*
X139651304Y-133452904D01*
X139647531Y-133456000D01*
X139643229Y-133458299D01*
X139638555Y-133459717D01*
X139627559Y-133460800D01*
X139338841Y-133460800D01*
X139327845Y-133459717D01*
X139323171Y-133458299D01*
X139318870Y-133456000D01*
X139312498Y-133450771D01*
X139292124Y-133437157D01*
X139269485Y-133427780D01*
X139245451Y-133423000D01*
X139220947Y-133423000D01*
X139196914Y-133427781D01*
X139174275Y-133437158D01*
X139153902Y-133450771D01*
X139147530Y-133456000D01*
X139143229Y-133458299D01*
X139138555Y-133459717D01*
X139127559Y-133460800D01*
X138838841Y-133460800D01*
X138827845Y-133459717D01*
X138823171Y-133458299D01*
X138818870Y-133456000D01*
X138812498Y-133450771D01*
X138792124Y-133437157D01*
X138769485Y-133427780D01*
X138745451Y-133423000D01*
X138720947Y-133423000D01*
X138696914Y-133427781D01*
X138674275Y-133437158D01*
X138653902Y-133450771D01*
X138647530Y-133456000D01*
X138643229Y-133458299D01*
X138638555Y-133459717D01*
X138627559Y-133460800D01*
X138338841Y-133460800D01*
X138327845Y-133459717D01*
X138323171Y-133458299D01*
X138318870Y-133456000D01*
X138312498Y-133450771D01*
X138292124Y-133437157D01*
X138269485Y-133427780D01*
X138245451Y-133423000D01*
X138220947Y-133423000D01*
X138196914Y-133427781D01*
X138174275Y-133437158D01*
X138153902Y-133450771D01*
X138147530Y-133456000D01*
X138143229Y-133458299D01*
X138138555Y-133459717D01*
X138127559Y-133460800D01*
X137838841Y-133460800D01*
X137827845Y-133459717D01*
X137823171Y-133458299D01*
X137818870Y-133456000D01*
X137812498Y-133450771D01*
X137792124Y-133437157D01*
X137769485Y-133427780D01*
X137745451Y-133423000D01*
X137720947Y-133423000D01*
X137696914Y-133427781D01*
X137674275Y-133437158D01*
X137653902Y-133450771D01*
X137647530Y-133456000D01*
X137643229Y-133458299D01*
X137638555Y-133459717D01*
X137627559Y-133460800D01*
X137338841Y-133460800D01*
X137327845Y-133459717D01*
X137323171Y-133458299D01*
X137318870Y-133456000D01*
X137312498Y-133450771D01*
X137292124Y-133437157D01*
X137269485Y-133427780D01*
X137245451Y-133423000D01*
X137220947Y-133423000D01*
X137196914Y-133427781D01*
X137174275Y-133437158D01*
X137153902Y-133450771D01*
X137147530Y-133456000D01*
X137143229Y-133458299D01*
X137138555Y-133459717D01*
X137127559Y-133460800D01*
X136838841Y-133460800D01*
X136827845Y-133459717D01*
X136823171Y-133458299D01*
X136818870Y-133456000D01*
X136812498Y-133450771D01*
X136792124Y-133437157D01*
X136769485Y-133427780D01*
X136745451Y-133423000D01*
X136720947Y-133423000D01*
X136696914Y-133427781D01*
X136674275Y-133437158D01*
X136653902Y-133450771D01*
X136647530Y-133456000D01*
X136643229Y-133458299D01*
X136638555Y-133459717D01*
X136627559Y-133460800D01*
X136338841Y-133460800D01*
X136327845Y-133459717D01*
X136323171Y-133458299D01*
X136318869Y-133456000D01*
X136315096Y-133452904D01*
X136312000Y-133449131D01*
X136309701Y-133444829D01*
X136308283Y-133440155D01*
X136307200Y-133429159D01*
X136307200Y-132590441D01*
X136308283Y-132579445D01*
X136309701Y-132574771D01*
X136312000Y-132570469D01*
X136315096Y-132566696D01*
X136318869Y-132563600D01*
X136323171Y-132561301D01*
X136327845Y-132559883D01*
X136338841Y-132558800D01*
X136627559Y-132558800D01*
X136638555Y-132559883D01*
X136638555Y-132559883D01*
G37*
G36*
X124385155Y-132528483D02*
G01*
X124389829Y-132529901D01*
X124394130Y-132532200D01*
X124400502Y-132537429D01*
X124420876Y-132551043D01*
X124443515Y-132560420D01*
X124467549Y-132565200D01*
X124492053Y-132565200D01*
X124516086Y-132560419D01*
X124538725Y-132551042D01*
X124559098Y-132537429D01*
X124565470Y-132532200D01*
X124569771Y-132529901D01*
X124574445Y-132528483D01*
X124585441Y-132527400D01*
X124874159Y-132527400D01*
X124885155Y-132528483D01*
X124889829Y-132529901D01*
X124894130Y-132532200D01*
X124900502Y-132537429D01*
X124920876Y-132551043D01*
X124943515Y-132560420D01*
X124967549Y-132565200D01*
X124992053Y-132565200D01*
X125016086Y-132560419D01*
X125038725Y-132551042D01*
X125059098Y-132537429D01*
X125065470Y-132532200D01*
X125069771Y-132529901D01*
X125074445Y-132528483D01*
X125085441Y-132527400D01*
X125374159Y-132527400D01*
X125385155Y-132528483D01*
X125389829Y-132529901D01*
X125394130Y-132532200D01*
X125400502Y-132537429D01*
X125420876Y-132551043D01*
X125443515Y-132560420D01*
X125467549Y-132565200D01*
X125492053Y-132565200D01*
X125516086Y-132560419D01*
X125538725Y-132551042D01*
X125559098Y-132537429D01*
X125565470Y-132532200D01*
X125569771Y-132529901D01*
X125574445Y-132528483D01*
X125585441Y-132527400D01*
X125874159Y-132527400D01*
X125885155Y-132528483D01*
X125889829Y-132529901D01*
X125894130Y-132532200D01*
X125900502Y-132537429D01*
X125920876Y-132551043D01*
X125943515Y-132560420D01*
X125967549Y-132565200D01*
X125992053Y-132565200D01*
X126016086Y-132560419D01*
X126038725Y-132551042D01*
X126059098Y-132537429D01*
X126065470Y-132532200D01*
X126069771Y-132529901D01*
X126074445Y-132528483D01*
X126085441Y-132527400D01*
X126374159Y-132527400D01*
X126385155Y-132528483D01*
X126389829Y-132529901D01*
X126394130Y-132532200D01*
X126400502Y-132537429D01*
X126420876Y-132551043D01*
X126443515Y-132560420D01*
X126467549Y-132565200D01*
X126492053Y-132565200D01*
X126516086Y-132560419D01*
X126538725Y-132551042D01*
X126559098Y-132537429D01*
X126565470Y-132532200D01*
X126569771Y-132529901D01*
X126574445Y-132528483D01*
X126585441Y-132527400D01*
X126874159Y-132527400D01*
X126885155Y-132528483D01*
X126889829Y-132529901D01*
X126894130Y-132532200D01*
X126900502Y-132537429D01*
X126920876Y-132551043D01*
X126943515Y-132560420D01*
X126967549Y-132565200D01*
X126992053Y-132565200D01*
X127016086Y-132560419D01*
X127038725Y-132551042D01*
X127059098Y-132537429D01*
X127065470Y-132532200D01*
X127069771Y-132529901D01*
X127074445Y-132528483D01*
X127085441Y-132527400D01*
X127374159Y-132527400D01*
X127385155Y-132528483D01*
X127389829Y-132529901D01*
X127394131Y-132532200D01*
X127397904Y-132535296D01*
X127401000Y-132539069D01*
X127403299Y-132543371D01*
X127404717Y-132548045D01*
X127405800Y-132559041D01*
X127405800Y-133397759D01*
X127404717Y-133408755D01*
X127403299Y-133413429D01*
X127401000Y-133417731D01*
X127397904Y-133421504D01*
X127394131Y-133424600D01*
X127389829Y-133426899D01*
X127385155Y-133428317D01*
X127374159Y-133429400D01*
X127085441Y-133429400D01*
X127074445Y-133428317D01*
X127069771Y-133426899D01*
X127065470Y-133424600D01*
X127059098Y-133419371D01*
X127038724Y-133405757D01*
X127016085Y-133396380D01*
X126992051Y-133391600D01*
X126967547Y-133391600D01*
X126943514Y-133396381D01*
X126920875Y-133405758D01*
X126900502Y-133419371D01*
X126894130Y-133424600D01*
X126889829Y-133426899D01*
X126885155Y-133428317D01*
X126874159Y-133429400D01*
X126585441Y-133429400D01*
X126574445Y-133428317D01*
X126569771Y-133426899D01*
X126565470Y-133424600D01*
X126559098Y-133419371D01*
X126538724Y-133405757D01*
X126516085Y-133396380D01*
X126492051Y-133391600D01*
X126467547Y-133391600D01*
X126443514Y-133396381D01*
X126420875Y-133405758D01*
X126400502Y-133419371D01*
X126394130Y-133424600D01*
X126389829Y-133426899D01*
X126385155Y-133428317D01*
X126374159Y-133429400D01*
X126085441Y-133429400D01*
X126074445Y-133428317D01*
X126069771Y-133426899D01*
X126065470Y-133424600D01*
X126059098Y-133419371D01*
X126038724Y-133405757D01*
X126016085Y-133396380D01*
X125992051Y-133391600D01*
X125967547Y-133391600D01*
X125943514Y-133396381D01*
X125920875Y-133405758D01*
X125900502Y-133419371D01*
X125894130Y-133424600D01*
X125889829Y-133426899D01*
X125885155Y-133428317D01*
X125874159Y-133429400D01*
X125585441Y-133429400D01*
X125574445Y-133428317D01*
X125569771Y-133426899D01*
X125565470Y-133424600D01*
X125559098Y-133419371D01*
X125538724Y-133405757D01*
X125516085Y-133396380D01*
X125492051Y-133391600D01*
X125467547Y-133391600D01*
X125443514Y-133396381D01*
X125420875Y-133405758D01*
X125400502Y-133419371D01*
X125394130Y-133424600D01*
X125389829Y-133426899D01*
X125385155Y-133428317D01*
X125374159Y-133429400D01*
X125085441Y-133429400D01*
X125074445Y-133428317D01*
X125069771Y-133426899D01*
X125065470Y-133424600D01*
X125059098Y-133419371D01*
X125038724Y-133405757D01*
X125016085Y-133396380D01*
X124992051Y-133391600D01*
X124967547Y-133391600D01*
X124943514Y-133396381D01*
X124920875Y-133405758D01*
X124900502Y-133419371D01*
X124894130Y-133424600D01*
X124889829Y-133426899D01*
X124885155Y-133428317D01*
X124874159Y-133429400D01*
X124585441Y-133429400D01*
X124574445Y-133428317D01*
X124569771Y-133426899D01*
X124565470Y-133424600D01*
X124559098Y-133419371D01*
X124538724Y-133405757D01*
X124516085Y-133396380D01*
X124492051Y-133391600D01*
X124467547Y-133391600D01*
X124443514Y-133396381D01*
X124420875Y-133405758D01*
X124400502Y-133419371D01*
X124394130Y-133424600D01*
X124389829Y-133426899D01*
X124385155Y-133428317D01*
X124374159Y-133429400D01*
X124085441Y-133429400D01*
X124074445Y-133428317D01*
X124069771Y-133426899D01*
X124065469Y-133424600D01*
X124061696Y-133421504D01*
X124058600Y-133417731D01*
X124056301Y-133413429D01*
X124054883Y-133408755D01*
X124053800Y-133397759D01*
X124053800Y-132559041D01*
X124054883Y-132548045D01*
X124056301Y-132543371D01*
X124058600Y-132539069D01*
X124061696Y-132535296D01*
X124065469Y-132532200D01*
X124069771Y-132529901D01*
X124074445Y-132528483D01*
X124085441Y-132527400D01*
X124374159Y-132527400D01*
X124385155Y-132528483D01*
X124385155Y-132528483D01*
G37*
G36*
X112893400Y-132726200D02*
G01*
X108391400Y-132726200D01*
X108391400Y-130824200D01*
X112893400Y-130824200D01*
X112893400Y-132726200D01*
X112893400Y-132726200D01*
G37*
G36*
X124647199Y-130999645D02*
G01*
X124684695Y-131011020D01*
X124719254Y-131029492D01*
X124749547Y-131054353D01*
X124774408Y-131084646D01*
X124792880Y-131119205D01*
X124804255Y-131156701D01*
X124808700Y-131201838D01*
X124808700Y-131840562D01*
X124804255Y-131885699D01*
X124792880Y-131923195D01*
X124774408Y-131957754D01*
X124749547Y-131988047D01*
X124719254Y-132012908D01*
X124684695Y-132031380D01*
X124647199Y-132042755D01*
X124602062Y-132047200D01*
X123863338Y-132047200D01*
X123818201Y-132042755D01*
X123780705Y-132031380D01*
X123746146Y-132012908D01*
X123715853Y-131988047D01*
X123690992Y-131957754D01*
X123672520Y-131923195D01*
X123661145Y-131885699D01*
X123656700Y-131840562D01*
X123656700Y-131201838D01*
X123661145Y-131156701D01*
X123672520Y-131119205D01*
X123690992Y-131084646D01*
X123715853Y-131054353D01*
X123746146Y-131029492D01*
X123780705Y-131011020D01*
X123818201Y-130999645D01*
X123863338Y-130995200D01*
X124602062Y-130995200D01*
X124647199Y-130999645D01*
X124647199Y-130999645D01*
G37*
G36*
X128012699Y-130999645D02*
G01*
X128050195Y-131011020D01*
X128084754Y-131029492D01*
X128115047Y-131054353D01*
X128139908Y-131084646D01*
X128158380Y-131119205D01*
X128169755Y-131156701D01*
X128174200Y-131201838D01*
X128174200Y-131840562D01*
X128169755Y-131885699D01*
X128158380Y-131923195D01*
X128139908Y-131957754D01*
X128115047Y-131988047D01*
X128084754Y-132012908D01*
X128050195Y-132031380D01*
X128012699Y-132042755D01*
X127967562Y-132047200D01*
X127228838Y-132047200D01*
X127183701Y-132042755D01*
X127146205Y-132031380D01*
X127111646Y-132012908D01*
X127081353Y-131988047D01*
X127056492Y-131957754D01*
X127038020Y-131923195D01*
X127026645Y-131885699D01*
X127022200Y-131840562D01*
X127022200Y-131201838D01*
X127026645Y-131156701D01*
X127038020Y-131119205D01*
X127056492Y-131084646D01*
X127081353Y-131054353D01*
X127111646Y-131029492D01*
X127146205Y-131011020D01*
X127183701Y-130999645D01*
X127228838Y-130995200D01*
X127967562Y-130995200D01*
X128012699Y-130999645D01*
X128012699Y-130999645D01*
G37*
G36*
X126397199Y-130999645D02*
G01*
X126434695Y-131011020D01*
X126469254Y-131029492D01*
X126499547Y-131054353D01*
X126524408Y-131084646D01*
X126542880Y-131119205D01*
X126554255Y-131156701D01*
X126558700Y-131201838D01*
X126558700Y-131840562D01*
X126554255Y-131885699D01*
X126542880Y-131923195D01*
X126524408Y-131957754D01*
X126499547Y-131988047D01*
X126469254Y-132012908D01*
X126434695Y-132031380D01*
X126397199Y-132042755D01*
X126352062Y-132047200D01*
X125613338Y-132047200D01*
X125568201Y-132042755D01*
X125530705Y-132031380D01*
X125496146Y-132012908D01*
X125465853Y-131988047D01*
X125440992Y-131957754D01*
X125422520Y-131923195D01*
X125411145Y-131885699D01*
X125406700Y-131840562D01*
X125406700Y-131201838D01*
X125411145Y-131156701D01*
X125422520Y-131119205D01*
X125440992Y-131084646D01*
X125465853Y-131054353D01*
X125496146Y-131029492D01*
X125530705Y-131011020D01*
X125568201Y-130999645D01*
X125613338Y-130995200D01*
X126352062Y-130995200D01*
X126397199Y-130999645D01*
X126397199Y-130999645D01*
G37*
G36*
X129762699Y-130999645D02*
G01*
X129800195Y-131011020D01*
X129834754Y-131029492D01*
X129865047Y-131054353D01*
X129889908Y-131084646D01*
X129908380Y-131119205D01*
X129919755Y-131156701D01*
X129924200Y-131201838D01*
X129924200Y-131840562D01*
X129919755Y-131885699D01*
X129908380Y-131923195D01*
X129889908Y-131957754D01*
X129865047Y-131988047D01*
X129834754Y-132012908D01*
X129800195Y-132031380D01*
X129762699Y-132042755D01*
X129717562Y-132047200D01*
X128978838Y-132047200D01*
X128933701Y-132042755D01*
X128896205Y-132031380D01*
X128861646Y-132012908D01*
X128831353Y-131988047D01*
X128806492Y-131957754D01*
X128788020Y-131923195D01*
X128776645Y-131885699D01*
X128772200Y-131840562D01*
X128772200Y-131201838D01*
X128776645Y-131156701D01*
X128788020Y-131119205D01*
X128806492Y-131084646D01*
X128831353Y-131054353D01*
X128861646Y-131029492D01*
X128896205Y-131011020D01*
X128933701Y-130999645D01*
X128978838Y-130995200D01*
X129717562Y-130995200D01*
X129762699Y-130999645D01*
X129762699Y-130999645D01*
G37*
G36*
X140966699Y-130898045D02*
G01*
X141004195Y-130909420D01*
X141038754Y-130927892D01*
X141069047Y-130952753D01*
X141093908Y-130983046D01*
X141112380Y-131017605D01*
X141123755Y-131055101D01*
X141128200Y-131100238D01*
X141128200Y-131738962D01*
X141123755Y-131784099D01*
X141112380Y-131821595D01*
X141093908Y-131856154D01*
X141069047Y-131886447D01*
X141038754Y-131911308D01*
X141004195Y-131929780D01*
X140966699Y-131941155D01*
X140921562Y-131945600D01*
X140182838Y-131945600D01*
X140137701Y-131941155D01*
X140100205Y-131929780D01*
X140065646Y-131911308D01*
X140035353Y-131886447D01*
X140010492Y-131856154D01*
X139992020Y-131821595D01*
X139980645Y-131784099D01*
X139976200Y-131738962D01*
X139976200Y-131100238D01*
X139980645Y-131055101D01*
X139992020Y-131017605D01*
X140010492Y-130983046D01*
X140035353Y-130952753D01*
X140065646Y-130927892D01*
X140100205Y-130909420D01*
X140137701Y-130898045D01*
X140182838Y-130893600D01*
X140921562Y-130893600D01*
X140966699Y-130898045D01*
X140966699Y-130898045D01*
G37*
G36*
X142716699Y-130898045D02*
G01*
X142754195Y-130909420D01*
X142788754Y-130927892D01*
X142819047Y-130952753D01*
X142843908Y-130983046D01*
X142862380Y-131017605D01*
X142873755Y-131055101D01*
X142878200Y-131100238D01*
X142878200Y-131738962D01*
X142873755Y-131784099D01*
X142862380Y-131821595D01*
X142843908Y-131856154D01*
X142819047Y-131886447D01*
X142788754Y-131911308D01*
X142754195Y-131929780D01*
X142716699Y-131941155D01*
X142671562Y-131945600D01*
X141932838Y-131945600D01*
X141887701Y-131941155D01*
X141850205Y-131929780D01*
X141815646Y-131911308D01*
X141785353Y-131886447D01*
X141760492Y-131856154D01*
X141742020Y-131821595D01*
X141730645Y-131784099D01*
X141726200Y-131738962D01*
X141726200Y-131100238D01*
X141730645Y-131055101D01*
X141742020Y-131017605D01*
X141760492Y-130983046D01*
X141785353Y-130952753D01*
X141815646Y-130927892D01*
X141850205Y-130909420D01*
X141887701Y-130898045D01*
X141932838Y-130893600D01*
X142671562Y-130893600D01*
X142716699Y-130898045D01*
X142716699Y-130898045D01*
G37*
G36*
X137537699Y-130898045D02*
G01*
X137575195Y-130909420D01*
X137609754Y-130927892D01*
X137640047Y-130952753D01*
X137664908Y-130983046D01*
X137683380Y-131017605D01*
X137694755Y-131055101D01*
X137699200Y-131100238D01*
X137699200Y-131738962D01*
X137694755Y-131784099D01*
X137683380Y-131821595D01*
X137664908Y-131856154D01*
X137640047Y-131886447D01*
X137609754Y-131911308D01*
X137575195Y-131929780D01*
X137537699Y-131941155D01*
X137492562Y-131945600D01*
X136753838Y-131945600D01*
X136708701Y-131941155D01*
X136671205Y-131929780D01*
X136636646Y-131911308D01*
X136606353Y-131886447D01*
X136581492Y-131856154D01*
X136563020Y-131821595D01*
X136551645Y-131784099D01*
X136547200Y-131738962D01*
X136547200Y-131100238D01*
X136551645Y-131055101D01*
X136563020Y-131017605D01*
X136581492Y-130983046D01*
X136606353Y-130952753D01*
X136636646Y-130927892D01*
X136671205Y-130909420D01*
X136708701Y-130898045D01*
X136753838Y-130893600D01*
X137492562Y-130893600D01*
X137537699Y-130898045D01*
X137537699Y-130898045D01*
G37*
G36*
X139287699Y-130898045D02*
G01*
X139325195Y-130909420D01*
X139359754Y-130927892D01*
X139390047Y-130952753D01*
X139414908Y-130983046D01*
X139433380Y-131017605D01*
X139444755Y-131055101D01*
X139449200Y-131100238D01*
X139449200Y-131738962D01*
X139444755Y-131784099D01*
X139433380Y-131821595D01*
X139414908Y-131856154D01*
X139390047Y-131886447D01*
X139359754Y-131911308D01*
X139325195Y-131929780D01*
X139287699Y-131941155D01*
X139242562Y-131945600D01*
X138503838Y-131945600D01*
X138458701Y-131941155D01*
X138421205Y-131929780D01*
X138386646Y-131911308D01*
X138356353Y-131886447D01*
X138331492Y-131856154D01*
X138313020Y-131821595D01*
X138301645Y-131784099D01*
X138297200Y-131738962D01*
X138297200Y-131100238D01*
X138301645Y-131055101D01*
X138313020Y-131017605D01*
X138331492Y-130983046D01*
X138356353Y-130952753D01*
X138386646Y-130927892D01*
X138421205Y-130909420D01*
X138458701Y-130898045D01*
X138503838Y-130893600D01*
X139242562Y-130893600D01*
X139287699Y-130898045D01*
X139287699Y-130898045D01*
G37*
G36*
X119991000Y-131598600D02*
G01*
X118769000Y-131598600D01*
X118769000Y-129336600D01*
X119991000Y-129336600D01*
X119991000Y-131598600D01*
X119991000Y-131598600D01*
G37*
G36*
X124647199Y-129475645D02*
G01*
X124684695Y-129487020D01*
X124719254Y-129505492D01*
X124749547Y-129530353D01*
X124774408Y-129560646D01*
X124792880Y-129595205D01*
X124804255Y-129632701D01*
X124808700Y-129677838D01*
X124808700Y-130316562D01*
X124804255Y-130361699D01*
X124792880Y-130399195D01*
X124774408Y-130433754D01*
X124749547Y-130464047D01*
X124719254Y-130488908D01*
X124684695Y-130507380D01*
X124647199Y-130518755D01*
X124602062Y-130523200D01*
X123863338Y-130523200D01*
X123818201Y-130518755D01*
X123780705Y-130507380D01*
X123746146Y-130488908D01*
X123715853Y-130464047D01*
X123690992Y-130433754D01*
X123672520Y-130399195D01*
X123661145Y-130361699D01*
X123656700Y-130316562D01*
X123656700Y-129677838D01*
X123661145Y-129632701D01*
X123672520Y-129595205D01*
X123690992Y-129560646D01*
X123715853Y-129530353D01*
X123746146Y-129505492D01*
X123780705Y-129487020D01*
X123818201Y-129475645D01*
X123863338Y-129471200D01*
X124602062Y-129471200D01*
X124647199Y-129475645D01*
X124647199Y-129475645D01*
G37*
G36*
X129762699Y-129475645D02*
G01*
X129800195Y-129487020D01*
X129834754Y-129505492D01*
X129865047Y-129530353D01*
X129889908Y-129560646D01*
X129908380Y-129595205D01*
X129919755Y-129632701D01*
X129924200Y-129677838D01*
X129924200Y-130316562D01*
X129919755Y-130361699D01*
X129908380Y-130399195D01*
X129889908Y-130433754D01*
X129865047Y-130464047D01*
X129834754Y-130488908D01*
X129800195Y-130507380D01*
X129762699Y-130518755D01*
X129717562Y-130523200D01*
X128978838Y-130523200D01*
X128933701Y-130518755D01*
X128896205Y-130507380D01*
X128861646Y-130488908D01*
X128831353Y-130464047D01*
X128806492Y-130433754D01*
X128788020Y-130399195D01*
X128776645Y-130361699D01*
X128772200Y-130316562D01*
X128772200Y-129677838D01*
X128776645Y-129632701D01*
X128788020Y-129595205D01*
X128806492Y-129560646D01*
X128831353Y-129530353D01*
X128861646Y-129505492D01*
X128896205Y-129487020D01*
X128933701Y-129475645D01*
X128978838Y-129471200D01*
X129717562Y-129471200D01*
X129762699Y-129475645D01*
X129762699Y-129475645D01*
G37*
G36*
X128012699Y-129475645D02*
G01*
X128050195Y-129487020D01*
X128084754Y-129505492D01*
X128115047Y-129530353D01*
X128139908Y-129560646D01*
X128158380Y-129595205D01*
X128169755Y-129632701D01*
X128174200Y-129677838D01*
X128174200Y-130316562D01*
X128169755Y-130361699D01*
X128158380Y-130399195D01*
X128139908Y-130433754D01*
X128115047Y-130464047D01*
X128084754Y-130488908D01*
X128050195Y-130507380D01*
X128012699Y-130518755D01*
X127967562Y-130523200D01*
X127228838Y-130523200D01*
X127183701Y-130518755D01*
X127146205Y-130507380D01*
X127111646Y-130488908D01*
X127081353Y-130464047D01*
X127056492Y-130433754D01*
X127038020Y-130399195D01*
X127026645Y-130361699D01*
X127022200Y-130316562D01*
X127022200Y-129677838D01*
X127026645Y-129632701D01*
X127038020Y-129595205D01*
X127056492Y-129560646D01*
X127081353Y-129530353D01*
X127111646Y-129505492D01*
X127146205Y-129487020D01*
X127183701Y-129475645D01*
X127228838Y-129471200D01*
X127967562Y-129471200D01*
X128012699Y-129475645D01*
X128012699Y-129475645D01*
G37*
G36*
X126397199Y-129475645D02*
G01*
X126434695Y-129487020D01*
X126469254Y-129505492D01*
X126499547Y-129530353D01*
X126524408Y-129560646D01*
X126542880Y-129595205D01*
X126554255Y-129632701D01*
X126558700Y-129677838D01*
X126558700Y-130316562D01*
X126554255Y-130361699D01*
X126542880Y-130399195D01*
X126524408Y-130433754D01*
X126499547Y-130464047D01*
X126469254Y-130488908D01*
X126434695Y-130507380D01*
X126397199Y-130518755D01*
X126352062Y-130523200D01*
X125613338Y-130523200D01*
X125568201Y-130518755D01*
X125530705Y-130507380D01*
X125496146Y-130488908D01*
X125465853Y-130464047D01*
X125440992Y-130433754D01*
X125422520Y-130399195D01*
X125411145Y-130361699D01*
X125406700Y-130316562D01*
X125406700Y-129677838D01*
X125411145Y-129632701D01*
X125422520Y-129595205D01*
X125440992Y-129560646D01*
X125465853Y-129530353D01*
X125496146Y-129505492D01*
X125530705Y-129487020D01*
X125568201Y-129475645D01*
X125613338Y-129471200D01*
X126352062Y-129471200D01*
X126397199Y-129475645D01*
X126397199Y-129475645D01*
G37*
G36*
X140966699Y-129374045D02*
G01*
X141004195Y-129385420D01*
X141038754Y-129403892D01*
X141069047Y-129428753D01*
X141093908Y-129459046D01*
X141112380Y-129493605D01*
X141123755Y-129531101D01*
X141128200Y-129576238D01*
X141128200Y-130214962D01*
X141123755Y-130260099D01*
X141112380Y-130297595D01*
X141093908Y-130332154D01*
X141069047Y-130362447D01*
X141038754Y-130387308D01*
X141004195Y-130405780D01*
X140966699Y-130417155D01*
X140921562Y-130421600D01*
X140182838Y-130421600D01*
X140137701Y-130417155D01*
X140100205Y-130405780D01*
X140065646Y-130387308D01*
X140035353Y-130362447D01*
X140010492Y-130332154D01*
X139992020Y-130297595D01*
X139980645Y-130260099D01*
X139976200Y-130214962D01*
X139976200Y-129576238D01*
X139980645Y-129531101D01*
X139992020Y-129493605D01*
X140010492Y-129459046D01*
X140035353Y-129428753D01*
X140065646Y-129403892D01*
X140100205Y-129385420D01*
X140137701Y-129374045D01*
X140182838Y-129369600D01*
X140921562Y-129369600D01*
X140966699Y-129374045D01*
X140966699Y-129374045D01*
G37*
G36*
X137537699Y-129374045D02*
G01*
X137575195Y-129385420D01*
X137609754Y-129403892D01*
X137640047Y-129428753D01*
X137664908Y-129459046D01*
X137683380Y-129493605D01*
X137694755Y-129531101D01*
X137699200Y-129576238D01*
X137699200Y-130214962D01*
X137694755Y-130260099D01*
X137683380Y-130297595D01*
X137664908Y-130332154D01*
X137640047Y-130362447D01*
X137609754Y-130387308D01*
X137575195Y-130405780D01*
X137537699Y-130417155D01*
X137492562Y-130421600D01*
X136753838Y-130421600D01*
X136708701Y-130417155D01*
X136671205Y-130405780D01*
X136636646Y-130387308D01*
X136606353Y-130362447D01*
X136581492Y-130332154D01*
X136563020Y-130297595D01*
X136551645Y-130260099D01*
X136547200Y-130214962D01*
X136547200Y-129576238D01*
X136551645Y-129531101D01*
X136563020Y-129493605D01*
X136581492Y-129459046D01*
X136606353Y-129428753D01*
X136636646Y-129403892D01*
X136671205Y-129385420D01*
X136708701Y-129374045D01*
X136753838Y-129369600D01*
X137492562Y-129369600D01*
X137537699Y-129374045D01*
X137537699Y-129374045D01*
G37*
G36*
X142716699Y-129374045D02*
G01*
X142754195Y-129385420D01*
X142788754Y-129403892D01*
X142819047Y-129428753D01*
X142843908Y-129459046D01*
X142862380Y-129493605D01*
X142873755Y-129531101D01*
X142878200Y-129576238D01*
X142878200Y-130214962D01*
X142873755Y-130260099D01*
X142862380Y-130297595D01*
X142843908Y-130332154D01*
X142819047Y-130362447D01*
X142788754Y-130387308D01*
X142754195Y-130405780D01*
X142716699Y-130417155D01*
X142671562Y-130421600D01*
X141932838Y-130421600D01*
X141887701Y-130417155D01*
X141850205Y-130405780D01*
X141815646Y-130387308D01*
X141785353Y-130362447D01*
X141760492Y-130332154D01*
X141742020Y-130297595D01*
X141730645Y-130260099D01*
X141726200Y-130214962D01*
X141726200Y-129576238D01*
X141730645Y-129531101D01*
X141742020Y-129493605D01*
X141760492Y-129459046D01*
X141785353Y-129428753D01*
X141815646Y-129403892D01*
X141850205Y-129385420D01*
X141887701Y-129374045D01*
X141932838Y-129369600D01*
X142671562Y-129369600D01*
X142716699Y-129374045D01*
X142716699Y-129374045D01*
G37*
G36*
X139287699Y-129374045D02*
G01*
X139325195Y-129385420D01*
X139359754Y-129403892D01*
X139390047Y-129428753D01*
X139414908Y-129459046D01*
X139433380Y-129493605D01*
X139444755Y-129531101D01*
X139449200Y-129576238D01*
X139449200Y-130214962D01*
X139444755Y-130260099D01*
X139433380Y-130297595D01*
X139414908Y-130332154D01*
X139390047Y-130362447D01*
X139359754Y-130387308D01*
X139325195Y-130405780D01*
X139287699Y-130417155D01*
X139242562Y-130421600D01*
X138503838Y-130421600D01*
X138458701Y-130417155D01*
X138421205Y-130405780D01*
X138386646Y-130387308D01*
X138356353Y-130362447D01*
X138331492Y-130332154D01*
X138313020Y-130297595D01*
X138301645Y-130260099D01*
X138297200Y-130214962D01*
X138297200Y-129576238D01*
X138301645Y-129531101D01*
X138313020Y-129493605D01*
X138331492Y-129459046D01*
X138356353Y-129428753D01*
X138386646Y-129403892D01*
X138421205Y-129385420D01*
X138458701Y-129374045D01*
X138503838Y-129369600D01*
X139242562Y-129369600D01*
X139287699Y-129374045D01*
X139287699Y-129374045D01*
G37*
G36*
X109438600Y-129267800D02*
G01*
X105836600Y-129267800D01*
X105836600Y-126865800D01*
X109438600Y-126865800D01*
X109438600Y-129267800D01*
X109438600Y-129267800D01*
G37*
G36*
X114838600Y-129267800D02*
G01*
X111236600Y-129267800D01*
X111236600Y-126865800D01*
X114838600Y-126865800D01*
X114838600Y-129267800D01*
X114838600Y-129267800D01*
G37*
G36*
X127211299Y-127088045D02*
G01*
X127248795Y-127099420D01*
X127283354Y-127117892D01*
X127313647Y-127142753D01*
X127338508Y-127173046D01*
X127356980Y-127207605D01*
X127368355Y-127245101D01*
X127372800Y-127290238D01*
X127372800Y-127928962D01*
X127368355Y-127974099D01*
X127356980Y-128011595D01*
X127338508Y-128046154D01*
X127313647Y-128076447D01*
X127283354Y-128101308D01*
X127248795Y-128119780D01*
X127211299Y-128131155D01*
X127166162Y-128135600D01*
X126427438Y-128135600D01*
X126382301Y-128131155D01*
X126344805Y-128119780D01*
X126310246Y-128101308D01*
X126279953Y-128076447D01*
X126255092Y-128046154D01*
X126236620Y-128011595D01*
X126225245Y-127974099D01*
X126220800Y-127928962D01*
X126220800Y-127290238D01*
X126225245Y-127245101D01*
X126236620Y-127207605D01*
X126255092Y-127173046D01*
X126279953Y-127142753D01*
X126310246Y-127117892D01*
X126344805Y-127099420D01*
X126382301Y-127088045D01*
X126427438Y-127083600D01*
X127166162Y-127083600D01*
X127211299Y-127088045D01*
X127211299Y-127088045D01*
G37*
G36*
X128961299Y-127088045D02*
G01*
X128998795Y-127099420D01*
X129033354Y-127117892D01*
X129063647Y-127142753D01*
X129088508Y-127173046D01*
X129106980Y-127207605D01*
X129118355Y-127245101D01*
X129122800Y-127290238D01*
X129122800Y-127928962D01*
X129118355Y-127974099D01*
X129106980Y-128011595D01*
X129088508Y-128046154D01*
X129063647Y-128076447D01*
X129033354Y-128101308D01*
X128998795Y-128119780D01*
X128961299Y-128131155D01*
X128916162Y-128135600D01*
X128177438Y-128135600D01*
X128132301Y-128131155D01*
X128094805Y-128119780D01*
X128060246Y-128101308D01*
X128029953Y-128076447D01*
X128005092Y-128046154D01*
X127986620Y-128011595D01*
X127975245Y-127974099D01*
X127970800Y-127928962D01*
X127970800Y-127290238D01*
X127975245Y-127245101D01*
X127986620Y-127207605D01*
X128005092Y-127173046D01*
X128029953Y-127142753D01*
X128060246Y-127117892D01*
X128094805Y-127099420D01*
X128132301Y-127088045D01*
X128177438Y-127083600D01*
X128916162Y-127083600D01*
X128961299Y-127088045D01*
X128961299Y-127088045D01*
G37*
G36*
X125534899Y-127088045D02*
G01*
X125572395Y-127099420D01*
X125606954Y-127117892D01*
X125637247Y-127142753D01*
X125662108Y-127173046D01*
X125680580Y-127207605D01*
X125691955Y-127245101D01*
X125696400Y-127290238D01*
X125696400Y-127928962D01*
X125691955Y-127974099D01*
X125680580Y-128011595D01*
X125662108Y-128046154D01*
X125637247Y-128076447D01*
X125606954Y-128101308D01*
X125572395Y-128119780D01*
X125534899Y-128131155D01*
X125489762Y-128135600D01*
X124751038Y-128135600D01*
X124705901Y-128131155D01*
X124668405Y-128119780D01*
X124633846Y-128101308D01*
X124603553Y-128076447D01*
X124578692Y-128046154D01*
X124560220Y-128011595D01*
X124548845Y-127974099D01*
X124544400Y-127928962D01*
X124544400Y-127290238D01*
X124548845Y-127245101D01*
X124560220Y-127207605D01*
X124578692Y-127173046D01*
X124603553Y-127142753D01*
X124633846Y-127117892D01*
X124668405Y-127099420D01*
X124705901Y-127088045D01*
X124751038Y-127083600D01*
X125489762Y-127083600D01*
X125534899Y-127088045D01*
X125534899Y-127088045D01*
G37*
G36*
X123784899Y-127088045D02*
G01*
X123822395Y-127099420D01*
X123856954Y-127117892D01*
X123887247Y-127142753D01*
X123912108Y-127173046D01*
X123930580Y-127207605D01*
X123941955Y-127245101D01*
X123946400Y-127290238D01*
X123946400Y-127928962D01*
X123941955Y-127974099D01*
X123930580Y-128011595D01*
X123912108Y-128046154D01*
X123887247Y-128076447D01*
X123856954Y-128101308D01*
X123822395Y-128119780D01*
X123784899Y-128131155D01*
X123739762Y-128135600D01*
X123001038Y-128135600D01*
X122955901Y-128131155D01*
X122918405Y-128119780D01*
X122883846Y-128101308D01*
X122853553Y-128076447D01*
X122828692Y-128046154D01*
X122810220Y-128011595D01*
X122798845Y-127974099D01*
X122794400Y-127928962D01*
X122794400Y-127290238D01*
X122798845Y-127245101D01*
X122810220Y-127207605D01*
X122828692Y-127173046D01*
X122853553Y-127142753D01*
X122883846Y-127117892D01*
X122918405Y-127099420D01*
X122955901Y-127088045D01*
X123001038Y-127083600D01*
X123739762Y-127083600D01*
X123784899Y-127088045D01*
X123784899Y-127088045D01*
G37*
G36*
X123694300Y-126608700D02*
G01*
X122792300Y-126608700D01*
X122792300Y-125606700D01*
X123694300Y-125606700D01*
X123694300Y-126608700D01*
X123694300Y-126608700D01*
G37*
G36*
X129150300Y-126608700D02*
G01*
X128248300Y-126608700D01*
X128248300Y-125606700D01*
X129150300Y-125606700D01*
X129150300Y-126608700D01*
X129150300Y-126608700D01*
G37*
G36*
X127250300Y-126608700D02*
G01*
X126348300Y-126608700D01*
X126348300Y-125606700D01*
X127250300Y-125606700D01*
X127250300Y-126608700D01*
X127250300Y-126608700D01*
G37*
G36*
X125594300Y-126608700D02*
G01*
X124692300Y-126608700D01*
X124692300Y-125606700D01*
X125594300Y-125606700D01*
X125594300Y-126608700D01*
X125594300Y-126608700D01*
G37*
G36*
X142329800Y-125325600D02*
G01*
X140727800Y-125325600D01*
X140727800Y-123723600D01*
X142329800Y-123723600D01*
X142329800Y-125325600D01*
X142329800Y-125325600D01*
G37*
G36*
X117762499Y-123989245D02*
G01*
X117799995Y-124000620D01*
X117834554Y-124019092D01*
X117864847Y-124043953D01*
X117889708Y-124074246D01*
X117908180Y-124108805D01*
X117919555Y-124146301D01*
X117924000Y-124191438D01*
X117924000Y-124830162D01*
X117919555Y-124875299D01*
X117908180Y-124912795D01*
X117889708Y-124947354D01*
X117864847Y-124977647D01*
X117834554Y-125002508D01*
X117799995Y-125020980D01*
X117762499Y-125032355D01*
X117717362Y-125036800D01*
X116978638Y-125036800D01*
X116933501Y-125032355D01*
X116896005Y-125020980D01*
X116861446Y-125002508D01*
X116831153Y-124977647D01*
X116806292Y-124947354D01*
X116787820Y-124912795D01*
X116776445Y-124875299D01*
X116772000Y-124830162D01*
X116772000Y-124191438D01*
X116776445Y-124146301D01*
X116787820Y-124108805D01*
X116806292Y-124074246D01*
X116831153Y-124043953D01*
X116861446Y-124019092D01*
X116896005Y-124000620D01*
X116933501Y-123989245D01*
X116978638Y-123984800D01*
X117717362Y-123984800D01*
X117762499Y-123989245D01*
X117762499Y-123989245D01*
G37*
G36*
X116012499Y-123989245D02*
G01*
X116049995Y-124000620D01*
X116084554Y-124019092D01*
X116114847Y-124043953D01*
X116139708Y-124074246D01*
X116158180Y-124108805D01*
X116169555Y-124146301D01*
X116174000Y-124191438D01*
X116174000Y-124830162D01*
X116169555Y-124875299D01*
X116158180Y-124912795D01*
X116139708Y-124947354D01*
X116114847Y-124977647D01*
X116084554Y-125002508D01*
X116049995Y-125020980D01*
X116012499Y-125032355D01*
X115967362Y-125036800D01*
X115228638Y-125036800D01*
X115183501Y-125032355D01*
X115146005Y-125020980D01*
X115111446Y-125002508D01*
X115081153Y-124977647D01*
X115056292Y-124947354D01*
X115037820Y-124912795D01*
X115026445Y-124875299D01*
X115022000Y-124830162D01*
X115022000Y-124191438D01*
X115026445Y-124146301D01*
X115037820Y-124108805D01*
X115056292Y-124074246D01*
X115081153Y-124043953D01*
X115111446Y-124019092D01*
X115146005Y-124000620D01*
X115183501Y-123989245D01*
X115228638Y-123984800D01*
X115967362Y-123984800D01*
X116012499Y-123989245D01*
X116012499Y-123989245D01*
G37*
G36*
X124644300Y-124608700D02*
G01*
X123742300Y-124608700D01*
X123742300Y-123606700D01*
X124644300Y-123606700D01*
X124644300Y-124608700D01*
X124644300Y-124608700D01*
G37*
G36*
X128200300Y-124608700D02*
G01*
X127298300Y-124608700D01*
X127298300Y-123606700D01*
X128200300Y-123606700D01*
X128200300Y-124608700D01*
X128200300Y-124608700D01*
G37*
G36*
X117737899Y-122375845D02*
G01*
X117775395Y-122387220D01*
X117809954Y-122405692D01*
X117840247Y-122430553D01*
X117865108Y-122460846D01*
X117883580Y-122495405D01*
X117894955Y-122532901D01*
X117899400Y-122578038D01*
X117899400Y-123316762D01*
X117894955Y-123361899D01*
X117883580Y-123399395D01*
X117865108Y-123433954D01*
X117840247Y-123464247D01*
X117809954Y-123489108D01*
X117775395Y-123507580D01*
X117737899Y-123518955D01*
X117692762Y-123523400D01*
X117054038Y-123523400D01*
X117008901Y-123518955D01*
X116971405Y-123507580D01*
X116936846Y-123489108D01*
X116906553Y-123464247D01*
X116881692Y-123433954D01*
X116863220Y-123399395D01*
X116851845Y-123361899D01*
X116847400Y-123316762D01*
X116847400Y-122578038D01*
X116851845Y-122532901D01*
X116863220Y-122495405D01*
X116881692Y-122460846D01*
X116906553Y-122430553D01*
X116936846Y-122405692D01*
X116971405Y-122387220D01*
X117008901Y-122375845D01*
X117054038Y-122371400D01*
X117692762Y-122371400D01*
X117737899Y-122375845D01*
X117737899Y-122375845D01*
G37*
G36*
X110092800Y-123243000D02*
G01*
X107990800Y-123243000D01*
X107990800Y-121641000D01*
X110092800Y-121641000D01*
X110092800Y-123243000D01*
X110092800Y-123243000D01*
G37*
G36*
X100863944Y-119957446D02*
G01*
X101061810Y-119996804D01*
X101344074Y-120113721D01*
X101598105Y-120283459D01*
X101814141Y-120499495D01*
X101983879Y-120753526D01*
X102100796Y-121035790D01*
X102111429Y-121089246D01*
X102160400Y-121335439D01*
X102160400Y-121640961D01*
X102140877Y-121739108D01*
X102100796Y-121940610D01*
X101983879Y-122222874D01*
X101814141Y-122476905D01*
X101598105Y-122692941D01*
X101344074Y-122862679D01*
X101061810Y-122979596D01*
X100911985Y-123009398D01*
X100762161Y-123039200D01*
X100456639Y-123039200D01*
X100306815Y-123009398D01*
X100156990Y-122979596D01*
X99874726Y-122862679D01*
X99620695Y-122692941D01*
X99404659Y-122476905D01*
X99234921Y-122222874D01*
X99118004Y-121940610D01*
X99077923Y-121739108D01*
X99058400Y-121640961D01*
X99058400Y-121335439D01*
X99107371Y-121089246D01*
X99118004Y-121035790D01*
X99234921Y-120753526D01*
X99404659Y-120499495D01*
X99620695Y-120283459D01*
X99874726Y-120113721D01*
X100156990Y-119996804D01*
X100354856Y-119957446D01*
X100456639Y-119937200D01*
X100762161Y-119937200D01*
X100863944Y-119957446D01*
X100863944Y-119957446D01*
G37*
G36*
X107349299Y-121537645D02*
G01*
X107386795Y-121549020D01*
X107421354Y-121567492D01*
X107451647Y-121592353D01*
X107476508Y-121622646D01*
X107494980Y-121657205D01*
X107506355Y-121694701D01*
X107510800Y-121739838D01*
X107510800Y-122478562D01*
X107506355Y-122523699D01*
X107494980Y-122561195D01*
X107476508Y-122595754D01*
X107451647Y-122626047D01*
X107421354Y-122650908D01*
X107386795Y-122669380D01*
X107349299Y-122680755D01*
X107304162Y-122685200D01*
X106665438Y-122685200D01*
X106620301Y-122680755D01*
X106582805Y-122669380D01*
X106548246Y-122650908D01*
X106517953Y-122626047D01*
X106493092Y-122595754D01*
X106474620Y-122561195D01*
X106463245Y-122523699D01*
X106458800Y-122478562D01*
X106458800Y-121739838D01*
X106463245Y-121694701D01*
X106474620Y-121657205D01*
X106493092Y-121622646D01*
X106517953Y-121592353D01*
X106548246Y-121567492D01*
X106582805Y-121549020D01*
X106620301Y-121537645D01*
X106665438Y-121533200D01*
X107304162Y-121533200D01*
X107349299Y-121537645D01*
X107349299Y-121537645D01*
G37*
G36*
X139048499Y-121004245D02*
G01*
X139085995Y-121015620D01*
X139120554Y-121034092D01*
X139150847Y-121058953D01*
X139175708Y-121089246D01*
X139194180Y-121123805D01*
X139205555Y-121161301D01*
X139210000Y-121206438D01*
X139210000Y-121945162D01*
X139205555Y-121990299D01*
X139194180Y-122027795D01*
X139175708Y-122062354D01*
X139150847Y-122092647D01*
X139120554Y-122117508D01*
X139085995Y-122135980D01*
X139048499Y-122147355D01*
X139003362Y-122151800D01*
X138364638Y-122151800D01*
X138319501Y-122147355D01*
X138282005Y-122135980D01*
X138247446Y-122117508D01*
X138217153Y-122092647D01*
X138192292Y-122062354D01*
X138173820Y-122027795D01*
X138162445Y-121990299D01*
X138158000Y-121945162D01*
X138158000Y-121206438D01*
X138162445Y-121161301D01*
X138173820Y-121123805D01*
X138192292Y-121089246D01*
X138217153Y-121058953D01*
X138247446Y-121034092D01*
X138282005Y-121015620D01*
X138319501Y-121004245D01*
X138364638Y-120999800D01*
X139003362Y-120999800D01*
X139048499Y-121004245D01*
X139048499Y-121004245D01*
G37*
G36*
X116392800Y-122093000D02*
G01*
X114290800Y-122093000D01*
X114290800Y-118191000D01*
X116392800Y-118191000D01*
X116392800Y-122093000D01*
X116392800Y-122093000D01*
G37*
G36*
X117737899Y-120625845D02*
G01*
X117775395Y-120637220D01*
X117809954Y-120655692D01*
X117840247Y-120680553D01*
X117865108Y-120710846D01*
X117883580Y-120745405D01*
X117894955Y-120782901D01*
X117899400Y-120828038D01*
X117899400Y-121566762D01*
X117894955Y-121611899D01*
X117883580Y-121649395D01*
X117865108Y-121683954D01*
X117840247Y-121714247D01*
X117809954Y-121739108D01*
X117775395Y-121757580D01*
X117737899Y-121768955D01*
X117692762Y-121773400D01*
X117054038Y-121773400D01*
X117008901Y-121768955D01*
X116971405Y-121757580D01*
X116936846Y-121739108D01*
X116906553Y-121714247D01*
X116881692Y-121683954D01*
X116863220Y-121649395D01*
X116851845Y-121611899D01*
X116847400Y-121566762D01*
X116847400Y-120828038D01*
X116851845Y-120782901D01*
X116863220Y-120745405D01*
X116881692Y-120710846D01*
X116906553Y-120680553D01*
X116936846Y-120655692D01*
X116971405Y-120637220D01*
X117008901Y-120625845D01*
X117054038Y-120621400D01*
X117692762Y-120621400D01*
X117737899Y-120625845D01*
X117737899Y-120625845D01*
G37*
G36*
X110092800Y-120943000D02*
G01*
X107990800Y-120943000D01*
X107990800Y-119341000D01*
X110092800Y-119341000D01*
X110092800Y-120943000D01*
X110092800Y-120943000D01*
G37*
G36*
X107349299Y-119787645D02*
G01*
X107386795Y-119799020D01*
X107421354Y-119817492D01*
X107451647Y-119842353D01*
X107476508Y-119872646D01*
X107494980Y-119907205D01*
X107506355Y-119944701D01*
X107510800Y-119989838D01*
X107510800Y-120728562D01*
X107506355Y-120773699D01*
X107494980Y-120811195D01*
X107476508Y-120845754D01*
X107451647Y-120876047D01*
X107421354Y-120900908D01*
X107386795Y-120919380D01*
X107349299Y-120930755D01*
X107304162Y-120935200D01*
X106665438Y-120935200D01*
X106620301Y-120930755D01*
X106582805Y-120919380D01*
X106548246Y-120900908D01*
X106517953Y-120876047D01*
X106493092Y-120845754D01*
X106474620Y-120811195D01*
X106463245Y-120773699D01*
X106458800Y-120728562D01*
X106458800Y-119989838D01*
X106463245Y-119944701D01*
X106474620Y-119907205D01*
X106493092Y-119872646D01*
X106517953Y-119842353D01*
X106548246Y-119817492D01*
X106582805Y-119799020D01*
X106620301Y-119787645D01*
X106665438Y-119783200D01*
X107304162Y-119783200D01*
X107349299Y-119787645D01*
X107349299Y-119787645D01*
G37*
G36*
X139048499Y-119254245D02*
G01*
X139085995Y-119265620D01*
X139120554Y-119284092D01*
X139150847Y-119308953D01*
X139175708Y-119339246D01*
X139194180Y-119373805D01*
X139205555Y-119411301D01*
X139210000Y-119456438D01*
X139210000Y-120195162D01*
X139205555Y-120240299D01*
X139194180Y-120277795D01*
X139175708Y-120312354D01*
X139150847Y-120342647D01*
X139120554Y-120367508D01*
X139085995Y-120385980D01*
X139048499Y-120397355D01*
X139003362Y-120401800D01*
X138364638Y-120401800D01*
X138319501Y-120397355D01*
X138282005Y-120385980D01*
X138247446Y-120367508D01*
X138217153Y-120342647D01*
X138192292Y-120312354D01*
X138173820Y-120277795D01*
X138162445Y-120240299D01*
X138158000Y-120195162D01*
X138158000Y-119456438D01*
X138162445Y-119411301D01*
X138173820Y-119373805D01*
X138192292Y-119339246D01*
X138217153Y-119308953D01*
X138247446Y-119284092D01*
X138282005Y-119265620D01*
X138319501Y-119254245D01*
X138364638Y-119249800D01*
X139003362Y-119249800D01*
X139048499Y-119254245D01*
X139048499Y-119254245D01*
G37*
G36*
X117737899Y-118997645D02*
G01*
X117775395Y-119009020D01*
X117809954Y-119027492D01*
X117840247Y-119052353D01*
X117865108Y-119082646D01*
X117883580Y-119117205D01*
X117894955Y-119154701D01*
X117899400Y-119199838D01*
X117899400Y-119938562D01*
X117894955Y-119983699D01*
X117883580Y-120021195D01*
X117865108Y-120055754D01*
X117840247Y-120086047D01*
X117809954Y-120110908D01*
X117775395Y-120129380D01*
X117737899Y-120140755D01*
X117692762Y-120145200D01*
X117054038Y-120145200D01*
X117008901Y-120140755D01*
X116971405Y-120129380D01*
X116936846Y-120110908D01*
X116906553Y-120086047D01*
X116881692Y-120055754D01*
X116863220Y-120021195D01*
X116851845Y-119983699D01*
X116847400Y-119938562D01*
X116847400Y-119199838D01*
X116851845Y-119154701D01*
X116863220Y-119117205D01*
X116881692Y-119082646D01*
X116906553Y-119052353D01*
X116936846Y-119027492D01*
X116971405Y-119009020D01*
X117008901Y-118997645D01*
X117054038Y-118993200D01*
X117692762Y-118993200D01*
X117737899Y-118997645D01*
X117737899Y-118997645D01*
G37*
G36*
X119414299Y-118972245D02*
G01*
X119451795Y-118983620D01*
X119486354Y-119002092D01*
X119516647Y-119026953D01*
X119541508Y-119057246D01*
X119559980Y-119091805D01*
X119571355Y-119129301D01*
X119575800Y-119174438D01*
X119575800Y-119913162D01*
X119571355Y-119958299D01*
X119559980Y-119995795D01*
X119541508Y-120030354D01*
X119516647Y-120060647D01*
X119486354Y-120085508D01*
X119451795Y-120103980D01*
X119414299Y-120115355D01*
X119369162Y-120119800D01*
X118730438Y-120119800D01*
X118685301Y-120115355D01*
X118647805Y-120103980D01*
X118613246Y-120085508D01*
X118582953Y-120060647D01*
X118558092Y-120030354D01*
X118539620Y-119995795D01*
X118528245Y-119958299D01*
X118523800Y-119913162D01*
X118523800Y-119174438D01*
X118528245Y-119129301D01*
X118539620Y-119091805D01*
X118558092Y-119057246D01*
X118582953Y-119026953D01*
X118613246Y-119002092D01*
X118647805Y-118983620D01*
X118685301Y-118972245D01*
X118730438Y-118967800D01*
X119369162Y-118967800D01*
X119414299Y-118972245D01*
X119414299Y-118972245D01*
G37*
G36*
X105609899Y-118248845D02*
G01*
X105647395Y-118260220D01*
X105681954Y-118278692D01*
X105712247Y-118303553D01*
X105737108Y-118333846D01*
X105755580Y-118368405D01*
X105766955Y-118405901D01*
X105771400Y-118451038D01*
X105771400Y-119089762D01*
X105766955Y-119134899D01*
X105755580Y-119172395D01*
X105737108Y-119206954D01*
X105712247Y-119237247D01*
X105681954Y-119262108D01*
X105647395Y-119280580D01*
X105609899Y-119291955D01*
X105564762Y-119296400D01*
X104826038Y-119296400D01*
X104780901Y-119291955D01*
X104743405Y-119280580D01*
X104708846Y-119262108D01*
X104678553Y-119237247D01*
X104653692Y-119206954D01*
X104635220Y-119172395D01*
X104623845Y-119134899D01*
X104619400Y-119089762D01*
X104619400Y-118451038D01*
X104623845Y-118405901D01*
X104635220Y-118368405D01*
X104653692Y-118333846D01*
X104678553Y-118303553D01*
X104708846Y-118278692D01*
X104743405Y-118260220D01*
X104780901Y-118248845D01*
X104826038Y-118244400D01*
X105564762Y-118244400D01*
X105609899Y-118248845D01*
X105609899Y-118248845D01*
G37*
G36*
X107359899Y-118248845D02*
G01*
X107397395Y-118260220D01*
X107431954Y-118278692D01*
X107462247Y-118303553D01*
X107487108Y-118333846D01*
X107505580Y-118368405D01*
X107516955Y-118405901D01*
X107521400Y-118451038D01*
X107521400Y-119089762D01*
X107516955Y-119134899D01*
X107505580Y-119172395D01*
X107487108Y-119206954D01*
X107462247Y-119237247D01*
X107431954Y-119262108D01*
X107397395Y-119280580D01*
X107359899Y-119291955D01*
X107314762Y-119296400D01*
X106576038Y-119296400D01*
X106530901Y-119291955D01*
X106493405Y-119280580D01*
X106458846Y-119262108D01*
X106428553Y-119237247D01*
X106403692Y-119206954D01*
X106385220Y-119172395D01*
X106373845Y-119134899D01*
X106369400Y-119089762D01*
X106369400Y-118451038D01*
X106373845Y-118405901D01*
X106385220Y-118368405D01*
X106403692Y-118333846D01*
X106428553Y-118303553D01*
X106458846Y-118278692D01*
X106493405Y-118260220D01*
X106530901Y-118248845D01*
X106576038Y-118244400D01*
X107314762Y-118244400D01*
X107359899Y-118248845D01*
X107359899Y-118248845D01*
G37*
G36*
X131276099Y-118007045D02*
G01*
X131313595Y-118018420D01*
X131348154Y-118036892D01*
X131378447Y-118061753D01*
X131403308Y-118092046D01*
X131421780Y-118126605D01*
X131433155Y-118164101D01*
X131437600Y-118209238D01*
X131437600Y-118947962D01*
X131433155Y-118993099D01*
X131421780Y-119030595D01*
X131403308Y-119065154D01*
X131378447Y-119095447D01*
X131348154Y-119120308D01*
X131313595Y-119138780D01*
X131276099Y-119150155D01*
X131230962Y-119154600D01*
X130592238Y-119154600D01*
X130547101Y-119150155D01*
X130509605Y-119138780D01*
X130475046Y-119120308D01*
X130444753Y-119095447D01*
X130419892Y-119065154D01*
X130401420Y-119030595D01*
X130390045Y-118993099D01*
X130385600Y-118947962D01*
X130385600Y-118209238D01*
X130390045Y-118164101D01*
X130401420Y-118126605D01*
X130419892Y-118092046D01*
X130444753Y-118061753D01*
X130475046Y-118036892D01*
X130509605Y-118018420D01*
X130547101Y-118007045D01*
X130592238Y-118002600D01*
X131230962Y-118002600D01*
X131276099Y-118007045D01*
X131276099Y-118007045D01*
G37*
G36*
X129752099Y-118007045D02*
G01*
X129789595Y-118018420D01*
X129824154Y-118036892D01*
X129854447Y-118061753D01*
X129879308Y-118092046D01*
X129897780Y-118126605D01*
X129909155Y-118164101D01*
X129913600Y-118209238D01*
X129913600Y-118947962D01*
X129909155Y-118993099D01*
X129897780Y-119030595D01*
X129879308Y-119065154D01*
X129854447Y-119095447D01*
X129824154Y-119120308D01*
X129789595Y-119138780D01*
X129752099Y-119150155D01*
X129706962Y-119154600D01*
X129068238Y-119154600D01*
X129023101Y-119150155D01*
X128985605Y-119138780D01*
X128951046Y-119120308D01*
X128920753Y-119095447D01*
X128895892Y-119065154D01*
X128877420Y-119030595D01*
X128866045Y-118993099D01*
X128861600Y-118947962D01*
X128861600Y-118209238D01*
X128866045Y-118164101D01*
X128877420Y-118126605D01*
X128895892Y-118092046D01*
X128920753Y-118061753D01*
X128951046Y-118036892D01*
X128985605Y-118018420D01*
X129023101Y-118007045D01*
X129068238Y-118002600D01*
X129706962Y-118002600D01*
X129752099Y-118007045D01*
X129752099Y-118007045D01*
G37*
G36*
X132799298Y-118002046D02*
G01*
X132836794Y-118013421D01*
X132871353Y-118031893D01*
X132901646Y-118056754D01*
X132926507Y-118087047D01*
X132944979Y-118121606D01*
X132956354Y-118159102D01*
X132960799Y-118204239D01*
X132960799Y-118942963D01*
X132956354Y-118988100D01*
X132944979Y-119025596D01*
X132926507Y-119060155D01*
X132901646Y-119090448D01*
X132871353Y-119115309D01*
X132836794Y-119133781D01*
X132799298Y-119145156D01*
X132754161Y-119149601D01*
X132115437Y-119149601D01*
X132070300Y-119145156D01*
X132032804Y-119133781D01*
X131998245Y-119115309D01*
X131967952Y-119090448D01*
X131943091Y-119060155D01*
X131924619Y-119025596D01*
X131913244Y-118988100D01*
X131908799Y-118942963D01*
X131908799Y-118204239D01*
X131913244Y-118159102D01*
X131924619Y-118121606D01*
X131943091Y-118087047D01*
X131967952Y-118056754D01*
X131998245Y-118031893D01*
X132032804Y-118013421D01*
X132070300Y-118002046D01*
X132115437Y-117997601D01*
X132754161Y-117997601D01*
X132799298Y-118002046D01*
X132799298Y-118002046D01*
G37*
G36*
X139048499Y-117676845D02*
G01*
X139085995Y-117688220D01*
X139120554Y-117706692D01*
X139150847Y-117731553D01*
X139175708Y-117761846D01*
X139194180Y-117796405D01*
X139205555Y-117833901D01*
X139210000Y-117879038D01*
X139210000Y-118617762D01*
X139205555Y-118662899D01*
X139194180Y-118700395D01*
X139175708Y-118734954D01*
X139150847Y-118765247D01*
X139120554Y-118790108D01*
X139085995Y-118808580D01*
X139048499Y-118819955D01*
X139003362Y-118824400D01*
X138364638Y-118824400D01*
X138319501Y-118819955D01*
X138282005Y-118808580D01*
X138247446Y-118790108D01*
X138217153Y-118765247D01*
X138192292Y-118734954D01*
X138173820Y-118700395D01*
X138162445Y-118662899D01*
X138158000Y-118617762D01*
X138158000Y-117879038D01*
X138162445Y-117833901D01*
X138173820Y-117796405D01*
X138192292Y-117761846D01*
X138217153Y-117731553D01*
X138247446Y-117706692D01*
X138282005Y-117688220D01*
X138319501Y-117676845D01*
X138364638Y-117672400D01*
X139003362Y-117672400D01*
X139048499Y-117676845D01*
X139048499Y-117676845D01*
G37*
G36*
X97542374Y-116882754D02*
G01*
X97636627Y-116892037D01*
X97806466Y-116943557D01*
X97962991Y-117027222D01*
X97979779Y-117041000D01*
X98100186Y-117139814D01*
X98167834Y-117222245D01*
X98212778Y-117277009D01*
X98296443Y-117433534D01*
X98347963Y-117603373D01*
X98365359Y-117780000D01*
X98347963Y-117956627D01*
X98296443Y-118126466D01*
X98212778Y-118282991D01*
X98204753Y-118292769D01*
X98100186Y-118420186D01*
X97998729Y-118503448D01*
X97962991Y-118532778D01*
X97806466Y-118616443D01*
X97636627Y-118667963D01*
X97570442Y-118674482D01*
X97504260Y-118681000D01*
X97415740Y-118681000D01*
X97349558Y-118674482D01*
X97283373Y-118667963D01*
X97113534Y-118616443D01*
X96957009Y-118532778D01*
X96921271Y-118503448D01*
X96819814Y-118420186D01*
X96715247Y-118292769D01*
X96707222Y-118282991D01*
X96623557Y-118126466D01*
X96572037Y-117956627D01*
X96554641Y-117780000D01*
X96572037Y-117603373D01*
X96623557Y-117433534D01*
X96707222Y-117277009D01*
X96752166Y-117222245D01*
X96819814Y-117139814D01*
X96940221Y-117041000D01*
X96957009Y-117027222D01*
X97113534Y-116943557D01*
X97283373Y-116892037D01*
X97377626Y-116882754D01*
X97415740Y-116879000D01*
X97504260Y-116879000D01*
X97542374Y-116882754D01*
X97542374Y-116882754D01*
G37*
G36*
X102622374Y-116882754D02*
G01*
X102716627Y-116892037D01*
X102886466Y-116943557D01*
X103042991Y-117027222D01*
X103059779Y-117041000D01*
X103180186Y-117139814D01*
X103247834Y-117222245D01*
X103292778Y-117277009D01*
X103376443Y-117433534D01*
X103427963Y-117603373D01*
X103445359Y-117780000D01*
X103427963Y-117956627D01*
X103376443Y-118126466D01*
X103292778Y-118282991D01*
X103284753Y-118292769D01*
X103180186Y-118420186D01*
X103078729Y-118503448D01*
X103042991Y-118532778D01*
X102886466Y-118616443D01*
X102716627Y-118667963D01*
X102650442Y-118674482D01*
X102584260Y-118681000D01*
X102495740Y-118681000D01*
X102429558Y-118674482D01*
X102363373Y-118667963D01*
X102193534Y-118616443D01*
X102037009Y-118532778D01*
X102001271Y-118503448D01*
X101899814Y-118420186D01*
X101795247Y-118292769D01*
X101787222Y-118282991D01*
X101703557Y-118126466D01*
X101652037Y-117956627D01*
X101634641Y-117780000D01*
X101652037Y-117603373D01*
X101703557Y-117433534D01*
X101787222Y-117277009D01*
X101832166Y-117222245D01*
X101899814Y-117139814D01*
X102020221Y-117041000D01*
X102037009Y-117027222D01*
X102193534Y-116943557D01*
X102363373Y-116892037D01*
X102457626Y-116882754D01*
X102495740Y-116879000D01*
X102584260Y-116879000D01*
X102622374Y-116882754D01*
X102622374Y-116882754D01*
G37*
G36*
X100082374Y-116882754D02*
G01*
X100176627Y-116892037D01*
X100346466Y-116943557D01*
X100502991Y-117027222D01*
X100519779Y-117041000D01*
X100640186Y-117139814D01*
X100707834Y-117222245D01*
X100752778Y-117277009D01*
X100836443Y-117433534D01*
X100887963Y-117603373D01*
X100905359Y-117780000D01*
X100887963Y-117956627D01*
X100836443Y-118126466D01*
X100752778Y-118282991D01*
X100744753Y-118292769D01*
X100640186Y-118420186D01*
X100538729Y-118503448D01*
X100502991Y-118532778D01*
X100346466Y-118616443D01*
X100176627Y-118667963D01*
X100110442Y-118674482D01*
X100044260Y-118681000D01*
X99955740Y-118681000D01*
X99889558Y-118674482D01*
X99823373Y-118667963D01*
X99653534Y-118616443D01*
X99497009Y-118532778D01*
X99461271Y-118503448D01*
X99359814Y-118420186D01*
X99255247Y-118292769D01*
X99247222Y-118282991D01*
X99163557Y-118126466D01*
X99112037Y-117956627D01*
X99094641Y-117780000D01*
X99112037Y-117603373D01*
X99163557Y-117433534D01*
X99247222Y-117277009D01*
X99292166Y-117222245D01*
X99359814Y-117139814D01*
X99480221Y-117041000D01*
X99497009Y-117027222D01*
X99653534Y-116943557D01*
X99823373Y-116892037D01*
X99917626Y-116882754D01*
X99955740Y-116879000D01*
X100044260Y-116879000D01*
X100082374Y-116882754D01*
X100082374Y-116882754D01*
G37*
G36*
X110092800Y-118643000D02*
G01*
X107990800Y-118643000D01*
X107990800Y-117041000D01*
X110092800Y-117041000D01*
X110092800Y-118643000D01*
X110092800Y-118643000D01*
G37*
G36*
X117737899Y-117247645D02*
G01*
X117775395Y-117259020D01*
X117809954Y-117277492D01*
X117840247Y-117302353D01*
X117865108Y-117332646D01*
X117883580Y-117367205D01*
X117894955Y-117404701D01*
X117899400Y-117449838D01*
X117899400Y-118188562D01*
X117894955Y-118233699D01*
X117883580Y-118271195D01*
X117865108Y-118305754D01*
X117840247Y-118336047D01*
X117809954Y-118360908D01*
X117775395Y-118379380D01*
X117737899Y-118390755D01*
X117692762Y-118395200D01*
X117054038Y-118395200D01*
X117008901Y-118390755D01*
X116971405Y-118379380D01*
X116936846Y-118360908D01*
X116906553Y-118336047D01*
X116881692Y-118305754D01*
X116863220Y-118271195D01*
X116851845Y-118233699D01*
X116847400Y-118188562D01*
X116847400Y-117449838D01*
X116851845Y-117404701D01*
X116863220Y-117367205D01*
X116881692Y-117332646D01*
X116906553Y-117302353D01*
X116936846Y-117277492D01*
X116971405Y-117259020D01*
X117008901Y-117247645D01*
X117054038Y-117243200D01*
X117692762Y-117243200D01*
X117737899Y-117247645D01*
X117737899Y-117247645D01*
G37*
G36*
X119414299Y-117222245D02*
G01*
X119451795Y-117233620D01*
X119486354Y-117252092D01*
X119516647Y-117276953D01*
X119541508Y-117307246D01*
X119559980Y-117341805D01*
X119571355Y-117379301D01*
X119575800Y-117424438D01*
X119575800Y-118163162D01*
X119571355Y-118208299D01*
X119559980Y-118245795D01*
X119541508Y-118280354D01*
X119516647Y-118310647D01*
X119486354Y-118335508D01*
X119451795Y-118353980D01*
X119414299Y-118365355D01*
X119369162Y-118369800D01*
X118730438Y-118369800D01*
X118685301Y-118365355D01*
X118647805Y-118353980D01*
X118613246Y-118335508D01*
X118582953Y-118310647D01*
X118558092Y-118280354D01*
X118539620Y-118245795D01*
X118528245Y-118208299D01*
X118523800Y-118163162D01*
X118523800Y-117424438D01*
X118528245Y-117379301D01*
X118539620Y-117341805D01*
X118558092Y-117307246D01*
X118582953Y-117276953D01*
X118613246Y-117252092D01*
X118647805Y-117233620D01*
X118685301Y-117222245D01*
X118730438Y-117217800D01*
X119369162Y-117217800D01*
X119414299Y-117222245D01*
X119414299Y-117222245D01*
G37*
G36*
X105609899Y-116724845D02*
G01*
X105647395Y-116736220D01*
X105681954Y-116754692D01*
X105712247Y-116779553D01*
X105737108Y-116809846D01*
X105755580Y-116844405D01*
X105766955Y-116881901D01*
X105771400Y-116927038D01*
X105771400Y-117565762D01*
X105766955Y-117610899D01*
X105755580Y-117648395D01*
X105737108Y-117682954D01*
X105712247Y-117713247D01*
X105681954Y-117738108D01*
X105647395Y-117756580D01*
X105609899Y-117767955D01*
X105564762Y-117772400D01*
X104826038Y-117772400D01*
X104780901Y-117767955D01*
X104743405Y-117756580D01*
X104708846Y-117738108D01*
X104678553Y-117713247D01*
X104653692Y-117682954D01*
X104635220Y-117648395D01*
X104623845Y-117610899D01*
X104619400Y-117565762D01*
X104619400Y-116927038D01*
X104623845Y-116881901D01*
X104635220Y-116844405D01*
X104653692Y-116809846D01*
X104678553Y-116779553D01*
X104708846Y-116754692D01*
X104743405Y-116736220D01*
X104780901Y-116724845D01*
X104826038Y-116720400D01*
X105564762Y-116720400D01*
X105609899Y-116724845D01*
X105609899Y-116724845D01*
G37*
G36*
X107359899Y-116724845D02*
G01*
X107397395Y-116736220D01*
X107431954Y-116754692D01*
X107462247Y-116779553D01*
X107487108Y-116809846D01*
X107505580Y-116844405D01*
X107516955Y-116881901D01*
X107521400Y-116927038D01*
X107521400Y-117565762D01*
X107516955Y-117610899D01*
X107505580Y-117648395D01*
X107487108Y-117682954D01*
X107462247Y-117713247D01*
X107431954Y-117738108D01*
X107397395Y-117756580D01*
X107359899Y-117767955D01*
X107314762Y-117772400D01*
X106576038Y-117772400D01*
X106530901Y-117767955D01*
X106493405Y-117756580D01*
X106458846Y-117738108D01*
X106428553Y-117713247D01*
X106403692Y-117682954D01*
X106385220Y-117648395D01*
X106373845Y-117610899D01*
X106369400Y-117565762D01*
X106369400Y-116927038D01*
X106373845Y-116881901D01*
X106385220Y-116844405D01*
X106403692Y-116809846D01*
X106428553Y-116779553D01*
X106458846Y-116754692D01*
X106493405Y-116736220D01*
X106530901Y-116724845D01*
X106576038Y-116720400D01*
X107314762Y-116720400D01*
X107359899Y-116724845D01*
X107359899Y-116724845D01*
G37*
G36*
X142329800Y-117525600D02*
G01*
X140727800Y-117525600D01*
X140727800Y-115923600D01*
X142329800Y-115923600D01*
X142329800Y-117525600D01*
X142329800Y-117525600D01*
G37*
G36*
X129752099Y-116257045D02*
G01*
X129789595Y-116268420D01*
X129824154Y-116286892D01*
X129854447Y-116311753D01*
X129879308Y-116342046D01*
X129897780Y-116376605D01*
X129909155Y-116414101D01*
X129913600Y-116459238D01*
X129913600Y-117197962D01*
X129909155Y-117243099D01*
X129897780Y-117280595D01*
X129879308Y-117315154D01*
X129854447Y-117345447D01*
X129824154Y-117370308D01*
X129789595Y-117388780D01*
X129752099Y-117400155D01*
X129706962Y-117404600D01*
X129068238Y-117404600D01*
X129023101Y-117400155D01*
X128985605Y-117388780D01*
X128951046Y-117370308D01*
X128920753Y-117345447D01*
X128895892Y-117315154D01*
X128877420Y-117280595D01*
X128866045Y-117243099D01*
X128861600Y-117197962D01*
X128861600Y-116459238D01*
X128866045Y-116414101D01*
X128877420Y-116376605D01*
X128895892Y-116342046D01*
X128920753Y-116311753D01*
X128951046Y-116286892D01*
X128985605Y-116268420D01*
X129023101Y-116257045D01*
X129068238Y-116252600D01*
X129706962Y-116252600D01*
X129752099Y-116257045D01*
X129752099Y-116257045D01*
G37*
G36*
X131276099Y-116257045D02*
G01*
X131313595Y-116268420D01*
X131348154Y-116286892D01*
X131378447Y-116311753D01*
X131403308Y-116342046D01*
X131421780Y-116376605D01*
X131433155Y-116414101D01*
X131437600Y-116459238D01*
X131437600Y-117197962D01*
X131433155Y-117243099D01*
X131421780Y-117280595D01*
X131403308Y-117315154D01*
X131378447Y-117345447D01*
X131348154Y-117370308D01*
X131313595Y-117388780D01*
X131276099Y-117400155D01*
X131230962Y-117404600D01*
X130592238Y-117404600D01*
X130547101Y-117400155D01*
X130509605Y-117388780D01*
X130475046Y-117370308D01*
X130444753Y-117345447D01*
X130419892Y-117315154D01*
X130401420Y-117280595D01*
X130390045Y-117243099D01*
X130385600Y-117197962D01*
X130385600Y-116459238D01*
X130390045Y-116414101D01*
X130401420Y-116376605D01*
X130419892Y-116342046D01*
X130444753Y-116311753D01*
X130475046Y-116286892D01*
X130509605Y-116268420D01*
X130547101Y-116257045D01*
X130592238Y-116252600D01*
X131230962Y-116252600D01*
X131276099Y-116257045D01*
X131276099Y-116257045D01*
G37*
G36*
X132799298Y-116252046D02*
G01*
X132836794Y-116263421D01*
X132871353Y-116281893D01*
X132901646Y-116306754D01*
X132926507Y-116337047D01*
X132944979Y-116371606D01*
X132956354Y-116409102D01*
X132960799Y-116454239D01*
X132960799Y-117192963D01*
X132956354Y-117238100D01*
X132944979Y-117275596D01*
X132926507Y-117310155D01*
X132901646Y-117340448D01*
X132871353Y-117365309D01*
X132836794Y-117383781D01*
X132799298Y-117395156D01*
X132754161Y-117399601D01*
X132115437Y-117399601D01*
X132070300Y-117395156D01*
X132032804Y-117383781D01*
X131998245Y-117365309D01*
X131967952Y-117340448D01*
X131943091Y-117310155D01*
X131924619Y-117275596D01*
X131913244Y-117238100D01*
X131908799Y-117192963D01*
X131908799Y-116454239D01*
X131913244Y-116409102D01*
X131924619Y-116371606D01*
X131943091Y-116337047D01*
X131967952Y-116306754D01*
X131998245Y-116281893D01*
X132032804Y-116263421D01*
X132070300Y-116252046D01*
X132115437Y-116247601D01*
X132754161Y-116247601D01*
X132799298Y-116252046D01*
X132799298Y-116252046D01*
G37*
G36*
X139048499Y-115926845D02*
G01*
X139085995Y-115938220D01*
X139120554Y-115956692D01*
X139150847Y-115981553D01*
X139175708Y-116011846D01*
X139194180Y-116046405D01*
X139205555Y-116083901D01*
X139210000Y-116129038D01*
X139210000Y-116867762D01*
X139205555Y-116912899D01*
X139194180Y-116950395D01*
X139175708Y-116984954D01*
X139150847Y-117015247D01*
X139120554Y-117040108D01*
X139085995Y-117058580D01*
X139048499Y-117069955D01*
X139003362Y-117074400D01*
X138364638Y-117074400D01*
X138319501Y-117069955D01*
X138282005Y-117058580D01*
X138247446Y-117040108D01*
X138217153Y-117015247D01*
X138192292Y-116984954D01*
X138173820Y-116950395D01*
X138162445Y-116912899D01*
X138158000Y-116867762D01*
X138158000Y-116129038D01*
X138162445Y-116083901D01*
X138173820Y-116046405D01*
X138192292Y-116011846D01*
X138217153Y-115981553D01*
X138247446Y-115956692D01*
X138282005Y-115938220D01*
X138319501Y-115926845D01*
X138364638Y-115922400D01*
X139003362Y-115922400D01*
X139048499Y-115926845D01*
X139048499Y-115926845D01*
G37*
G36*
X97570443Y-114345519D02*
G01*
X97636627Y-114352037D01*
X97806466Y-114403557D01*
X97962991Y-114487222D01*
X97998729Y-114516552D01*
X98100186Y-114599814D01*
X98181924Y-114699413D01*
X98212778Y-114737009D01*
X98296443Y-114893534D01*
X98347963Y-115063373D01*
X98365359Y-115240000D01*
X98347963Y-115416627D01*
X98296443Y-115586466D01*
X98212778Y-115742991D01*
X98183448Y-115778729D01*
X98100186Y-115880186D01*
X98006962Y-115956692D01*
X97962991Y-115992778D01*
X97806466Y-116076443D01*
X97636627Y-116127963D01*
X97574407Y-116134091D01*
X97504260Y-116141000D01*
X97415740Y-116141000D01*
X97345593Y-116134091D01*
X97283373Y-116127963D01*
X97113534Y-116076443D01*
X96957009Y-115992778D01*
X96913038Y-115956692D01*
X96819814Y-115880186D01*
X96736552Y-115778729D01*
X96707222Y-115742991D01*
X96623557Y-115586466D01*
X96572037Y-115416627D01*
X96554641Y-115240000D01*
X96572037Y-115063373D01*
X96623557Y-114893534D01*
X96707222Y-114737009D01*
X96738076Y-114699413D01*
X96819814Y-114599814D01*
X96921271Y-114516552D01*
X96957009Y-114487222D01*
X97113534Y-114403557D01*
X97283373Y-114352037D01*
X97349557Y-114345519D01*
X97415740Y-114339000D01*
X97504260Y-114339000D01*
X97570443Y-114345519D01*
X97570443Y-114345519D01*
G37*
G36*
X102650443Y-114345519D02*
G01*
X102716627Y-114352037D01*
X102886466Y-114403557D01*
X103042991Y-114487222D01*
X103078729Y-114516552D01*
X103180186Y-114599814D01*
X103261924Y-114699413D01*
X103292778Y-114737009D01*
X103376443Y-114893534D01*
X103427963Y-115063373D01*
X103445359Y-115240000D01*
X103427963Y-115416627D01*
X103376443Y-115586466D01*
X103292778Y-115742991D01*
X103263448Y-115778729D01*
X103180186Y-115880186D01*
X103086962Y-115956692D01*
X103042991Y-115992778D01*
X102886466Y-116076443D01*
X102716627Y-116127963D01*
X102654407Y-116134091D01*
X102584260Y-116141000D01*
X102495740Y-116141000D01*
X102425593Y-116134091D01*
X102363373Y-116127963D01*
X102193534Y-116076443D01*
X102037009Y-115992778D01*
X101993038Y-115956692D01*
X101899814Y-115880186D01*
X101816552Y-115778729D01*
X101787222Y-115742991D01*
X101703557Y-115586466D01*
X101652037Y-115416627D01*
X101634641Y-115240000D01*
X101652037Y-115063373D01*
X101703557Y-114893534D01*
X101787222Y-114737009D01*
X101818076Y-114699413D01*
X101899814Y-114599814D01*
X102001271Y-114516552D01*
X102037009Y-114487222D01*
X102193534Y-114403557D01*
X102363373Y-114352037D01*
X102429557Y-114345519D01*
X102495740Y-114339000D01*
X102584260Y-114339000D01*
X102650443Y-114345519D01*
X102650443Y-114345519D01*
G37*
G36*
X100110443Y-114345519D02*
G01*
X100176627Y-114352037D01*
X100346466Y-114403557D01*
X100502991Y-114487222D01*
X100538729Y-114516552D01*
X100640186Y-114599814D01*
X100721924Y-114699413D01*
X100752778Y-114737009D01*
X100836443Y-114893534D01*
X100887963Y-115063373D01*
X100905359Y-115240000D01*
X100887963Y-115416627D01*
X100836443Y-115586466D01*
X100752778Y-115742991D01*
X100723448Y-115778729D01*
X100640186Y-115880186D01*
X100546962Y-115956692D01*
X100502991Y-115992778D01*
X100346466Y-116076443D01*
X100176627Y-116127963D01*
X100114407Y-116134091D01*
X100044260Y-116141000D01*
X99955740Y-116141000D01*
X99885593Y-116134091D01*
X99823373Y-116127963D01*
X99653534Y-116076443D01*
X99497009Y-115992778D01*
X99453038Y-115956692D01*
X99359814Y-115880186D01*
X99276552Y-115778729D01*
X99247222Y-115742991D01*
X99163557Y-115586466D01*
X99112037Y-115416627D01*
X99094641Y-115240000D01*
X99112037Y-115063373D01*
X99163557Y-114893534D01*
X99247222Y-114737009D01*
X99278076Y-114699413D01*
X99359814Y-114599814D01*
X99461271Y-114516552D01*
X99497009Y-114487222D01*
X99653534Y-114403557D01*
X99823373Y-114352037D01*
X99889557Y-114345519D01*
X99955740Y-114339000D01*
X100044260Y-114339000D01*
X100110443Y-114345519D01*
X100110443Y-114345519D01*
G37*
G36*
X115660000Y-115819400D02*
G01*
X114058000Y-115819400D01*
X114058000Y-115117400D01*
X115660000Y-115117400D01*
X115660000Y-115819400D01*
X115660000Y-115819400D01*
G37*
G36*
X106160000Y-115819400D02*
G01*
X104558000Y-115819400D01*
X104558000Y-115117400D01*
X106160000Y-115117400D01*
X106160000Y-115819400D01*
X106160000Y-115819400D01*
G37*
G36*
X128797400Y-108621801D02*
G01*
X128799802Y-108646187D01*
X128806915Y-108669636D01*
X128818466Y-108691247D01*
X128834011Y-108710189D01*
X128852953Y-108725734D01*
X128874564Y-108737285D01*
X128898013Y-108744398D01*
X128922399Y-108746800D01*
X129922400Y-108746800D01*
X129922400Y-114598800D01*
X128922399Y-114598800D01*
X128898013Y-114601202D01*
X128874564Y-114608315D01*
X128852953Y-114619866D01*
X128834011Y-114635411D01*
X128818466Y-114654353D01*
X128806915Y-114675964D01*
X128799802Y-114699413D01*
X128797400Y-114723799D01*
X128797400Y-115723800D01*
X122945400Y-115723800D01*
X122945400Y-114723799D01*
X122942998Y-114699413D01*
X122935885Y-114675964D01*
X122924334Y-114654353D01*
X122908789Y-114635411D01*
X122889847Y-114619866D01*
X122868236Y-114608315D01*
X122844787Y-114601202D01*
X122820401Y-114598800D01*
X121820400Y-114598800D01*
X121820400Y-108848799D01*
X122922400Y-108848799D01*
X122922400Y-114496801D01*
X122924802Y-114521187D01*
X122931915Y-114544636D01*
X122943466Y-114566247D01*
X122959011Y-114585189D01*
X122977953Y-114600734D01*
X122999564Y-114612285D01*
X123023013Y-114619398D01*
X123047399Y-114621800D01*
X128695401Y-114621800D01*
X128719787Y-114619398D01*
X128743236Y-114612285D01*
X128764847Y-114600734D01*
X128783789Y-114585189D01*
X128799334Y-114566247D01*
X128810885Y-114544636D01*
X128817998Y-114521187D01*
X128820400Y-114496801D01*
X128820400Y-108848799D01*
X128817998Y-108824413D01*
X128810885Y-108800964D01*
X128799334Y-108779353D01*
X128783789Y-108760411D01*
X128764847Y-108744866D01*
X128743236Y-108733315D01*
X128719787Y-108726202D01*
X128695401Y-108723800D01*
X123047399Y-108723800D01*
X123023013Y-108726202D01*
X122999564Y-108733315D01*
X122977953Y-108744866D01*
X122959011Y-108760411D01*
X122943466Y-108779353D01*
X122931915Y-108800964D01*
X122924802Y-108824413D01*
X122922400Y-108848799D01*
X121820400Y-108848799D01*
X121820400Y-108746800D01*
X122820401Y-108746800D01*
X122844787Y-108744398D01*
X122868236Y-108737285D01*
X122889847Y-108725734D01*
X122908789Y-108710189D01*
X122924334Y-108691247D01*
X122935885Y-108669636D01*
X122942998Y-108646187D01*
X122945400Y-108621801D01*
X122945400Y-107621800D01*
X128797400Y-107621800D01*
X128797400Y-108621801D01*
X128797400Y-108621801D01*
G37*
G36*
X128313100Y-114114500D02*
G01*
X123429700Y-114114500D01*
X123429700Y-109231100D01*
X128313100Y-109231100D01*
X128313100Y-114114500D01*
X128313100Y-114114500D01*
G37*
G36*
X142329800Y-115216400D02*
G01*
X140727800Y-115216400D01*
X140727800Y-113614400D01*
X142329800Y-113614400D01*
X142329800Y-115216400D01*
X142329800Y-115216400D01*
G37*
G36*
X115660000Y-114549400D02*
G01*
X114058000Y-114549400D01*
X114058000Y-113847400D01*
X115660000Y-113847400D01*
X115660000Y-114549400D01*
X115660000Y-114549400D01*
G37*
G36*
X106160000Y-114549400D02*
G01*
X104558000Y-114549400D01*
X104558000Y-113847400D01*
X106160000Y-113847400D01*
X106160000Y-114549400D01*
X106160000Y-114549400D01*
G37*
G36*
X133232399Y-112927545D02*
G01*
X133269895Y-112938920D01*
X133304454Y-112957392D01*
X133334747Y-112982253D01*
X133359608Y-113012546D01*
X133378080Y-113047105D01*
X133389455Y-113084601D01*
X133393900Y-113129738D01*
X133393900Y-113768462D01*
X133389455Y-113813599D01*
X133378080Y-113851095D01*
X133359608Y-113885654D01*
X133334747Y-113915947D01*
X133304454Y-113940808D01*
X133269895Y-113959280D01*
X133232399Y-113970655D01*
X133187262Y-113975100D01*
X132448538Y-113975100D01*
X132403401Y-113970655D01*
X132365905Y-113959280D01*
X132331346Y-113940808D01*
X132301053Y-113915947D01*
X132276192Y-113885654D01*
X132257720Y-113851095D01*
X132246345Y-113813599D01*
X132241900Y-113768462D01*
X132241900Y-113129738D01*
X132246345Y-113084601D01*
X132257720Y-113047105D01*
X132276192Y-113012546D01*
X132301053Y-112982253D01*
X132331346Y-112957392D01*
X132365905Y-112938920D01*
X132403401Y-112927545D01*
X132448538Y-112923100D01*
X133187262Y-112923100D01*
X133232399Y-112927545D01*
X133232399Y-112927545D01*
G37*
G36*
X134982399Y-112927545D02*
G01*
X135019895Y-112938920D01*
X135054454Y-112957392D01*
X135084747Y-112982253D01*
X135109608Y-113012546D01*
X135128080Y-113047105D01*
X135139455Y-113084601D01*
X135143900Y-113129738D01*
X135143900Y-113768462D01*
X135139455Y-113813599D01*
X135128080Y-113851095D01*
X135109608Y-113885654D01*
X135084747Y-113915947D01*
X135054454Y-113940808D01*
X135019895Y-113959280D01*
X134982399Y-113970655D01*
X134937262Y-113975100D01*
X134198538Y-113975100D01*
X134153401Y-113970655D01*
X134115905Y-113959280D01*
X134081346Y-113940808D01*
X134051053Y-113915947D01*
X134026192Y-113885654D01*
X134007720Y-113851095D01*
X133996345Y-113813599D01*
X133991900Y-113768462D01*
X133991900Y-113129738D01*
X133996345Y-113084601D01*
X134007720Y-113047105D01*
X134026192Y-113012546D01*
X134051053Y-112982253D01*
X134081346Y-112957392D01*
X134115905Y-112938920D01*
X134153401Y-112927545D01*
X134198538Y-112923100D01*
X134937262Y-112923100D01*
X134982399Y-112927545D01*
X134982399Y-112927545D01*
G37*
G36*
X100110442Y-111805518D02*
G01*
X100176627Y-111812037D01*
X100346466Y-111863557D01*
X100502991Y-111947222D01*
X100538684Y-111976515D01*
X100640186Y-112059814D01*
X100723448Y-112161271D01*
X100752778Y-112197009D01*
X100836443Y-112353534D01*
X100887963Y-112523373D01*
X100905359Y-112700000D01*
X100887963Y-112876627D01*
X100838409Y-113039985D01*
X100836442Y-113046468D01*
X100816059Y-113084601D01*
X100752778Y-113202991D01*
X100723448Y-113238729D01*
X100640186Y-113340186D01*
X100538729Y-113423448D01*
X100502991Y-113452778D01*
X100346466Y-113536443D01*
X100176627Y-113587963D01*
X100110443Y-113594481D01*
X100044260Y-113601000D01*
X99955740Y-113601000D01*
X99889557Y-113594481D01*
X99823373Y-113587963D01*
X99653534Y-113536443D01*
X99497009Y-113452778D01*
X99461271Y-113423448D01*
X99359814Y-113340186D01*
X99276552Y-113238729D01*
X99247222Y-113202991D01*
X99183941Y-113084601D01*
X99163558Y-113046468D01*
X99161591Y-113039985D01*
X99112037Y-112876627D01*
X99094641Y-112700000D01*
X99112037Y-112523373D01*
X99163557Y-112353534D01*
X99247222Y-112197009D01*
X99276552Y-112161271D01*
X99359814Y-112059814D01*
X99461316Y-111976515D01*
X99497009Y-111947222D01*
X99653534Y-111863557D01*
X99823373Y-111812037D01*
X99889558Y-111805518D01*
X99955740Y-111799000D01*
X100044260Y-111799000D01*
X100110442Y-111805518D01*
X100110442Y-111805518D01*
G37*
G36*
X102650442Y-111805518D02*
G01*
X102716627Y-111812037D01*
X102886466Y-111863557D01*
X103042991Y-111947222D01*
X103078684Y-111976515D01*
X103180186Y-112059814D01*
X103263448Y-112161271D01*
X103292778Y-112197009D01*
X103376443Y-112353534D01*
X103427963Y-112523373D01*
X103445359Y-112700000D01*
X103427963Y-112876627D01*
X103378409Y-113039985D01*
X103376442Y-113046468D01*
X103356059Y-113084601D01*
X103292778Y-113202991D01*
X103263448Y-113238729D01*
X103180186Y-113340186D01*
X103078729Y-113423448D01*
X103042991Y-113452778D01*
X102886466Y-113536443D01*
X102716627Y-113587963D01*
X102650443Y-113594481D01*
X102584260Y-113601000D01*
X102495740Y-113601000D01*
X102429557Y-113594481D01*
X102363373Y-113587963D01*
X102193534Y-113536443D01*
X102037009Y-113452778D01*
X102001271Y-113423448D01*
X101899814Y-113340186D01*
X101816552Y-113238729D01*
X101787222Y-113202991D01*
X101723941Y-113084601D01*
X101703558Y-113046468D01*
X101701591Y-113039985D01*
X101652037Y-112876627D01*
X101634641Y-112700000D01*
X101652037Y-112523373D01*
X101703557Y-112353534D01*
X101787222Y-112197009D01*
X101816552Y-112161271D01*
X101899814Y-112059814D01*
X102001316Y-111976515D01*
X102037009Y-111947222D01*
X102193534Y-111863557D01*
X102363373Y-111812037D01*
X102429558Y-111805518D01*
X102495740Y-111799000D01*
X102584260Y-111799000D01*
X102650442Y-111805518D01*
X102650442Y-111805518D01*
G37*
G36*
X97570442Y-111805518D02*
G01*
X97636627Y-111812037D01*
X97806466Y-111863557D01*
X97962991Y-111947222D01*
X97998684Y-111976515D01*
X98100186Y-112059814D01*
X98183448Y-112161271D01*
X98212778Y-112197009D01*
X98296443Y-112353534D01*
X98347963Y-112523373D01*
X98365359Y-112700000D01*
X98347963Y-112876627D01*
X98298409Y-113039985D01*
X98296442Y-113046468D01*
X98276059Y-113084601D01*
X98212778Y-113202991D01*
X98183448Y-113238729D01*
X98100186Y-113340186D01*
X97998729Y-113423448D01*
X97962991Y-113452778D01*
X97806466Y-113536443D01*
X97636627Y-113587963D01*
X97570443Y-113594481D01*
X97504260Y-113601000D01*
X97415740Y-113601000D01*
X97349557Y-113594481D01*
X97283373Y-113587963D01*
X97113534Y-113536443D01*
X96957009Y-113452778D01*
X96921271Y-113423448D01*
X96819814Y-113340186D01*
X96736552Y-113238729D01*
X96707222Y-113202991D01*
X96643941Y-113084601D01*
X96623558Y-113046468D01*
X96621591Y-113039985D01*
X96572037Y-112876627D01*
X96554641Y-112700000D01*
X96572037Y-112523373D01*
X96623557Y-112353534D01*
X96707222Y-112197009D01*
X96736552Y-112161271D01*
X96819814Y-112059814D01*
X96921316Y-111976515D01*
X96957009Y-111947222D01*
X97113534Y-111863557D01*
X97283373Y-111812037D01*
X97349558Y-111805518D01*
X97415740Y-111799000D01*
X97504260Y-111799000D01*
X97570442Y-111805518D01*
X97570442Y-111805518D01*
G37*
G36*
X115660000Y-113279400D02*
G01*
X114058000Y-113279400D01*
X114058000Y-112577400D01*
X115660000Y-112577400D01*
X115660000Y-113279400D01*
X115660000Y-113279400D01*
G37*
G36*
X106160000Y-113279400D02*
G01*
X104558000Y-113279400D01*
X104558000Y-112577400D01*
X106160000Y-112577400D01*
X106160000Y-113279400D01*
X106160000Y-113279400D01*
G37*
G36*
X118563899Y-111416245D02*
G01*
X118601395Y-111427620D01*
X118635954Y-111446092D01*
X118666247Y-111470953D01*
X118691108Y-111501246D01*
X118709580Y-111535805D01*
X118720955Y-111573301D01*
X118725400Y-111618438D01*
X118725400Y-112257162D01*
X118720955Y-112302299D01*
X118709580Y-112339795D01*
X118691108Y-112374354D01*
X118666247Y-112404647D01*
X118635954Y-112429508D01*
X118601395Y-112447980D01*
X118563899Y-112459355D01*
X118518762Y-112463800D01*
X117780038Y-112463800D01*
X117734901Y-112459355D01*
X117697405Y-112447980D01*
X117662846Y-112429508D01*
X117632553Y-112404647D01*
X117607692Y-112374354D01*
X117589220Y-112339795D01*
X117577845Y-112302299D01*
X117573400Y-112257162D01*
X117573400Y-111618438D01*
X117577845Y-111573301D01*
X117589220Y-111535805D01*
X117607692Y-111501246D01*
X117632553Y-111470953D01*
X117662846Y-111446092D01*
X117697405Y-111427620D01*
X117734901Y-111416245D01*
X117780038Y-111411800D01*
X118518762Y-111411800D01*
X118563899Y-111416245D01*
X118563899Y-111416245D01*
G37*
G36*
X120313899Y-111416245D02*
G01*
X120351395Y-111427620D01*
X120385954Y-111446092D01*
X120416247Y-111470953D01*
X120441108Y-111501246D01*
X120459580Y-111535805D01*
X120470955Y-111573301D01*
X120475400Y-111618438D01*
X120475400Y-112257162D01*
X120470955Y-112302299D01*
X120459580Y-112339795D01*
X120441108Y-112374354D01*
X120416247Y-112404647D01*
X120385954Y-112429508D01*
X120351395Y-112447980D01*
X120313899Y-112459355D01*
X120268762Y-112463800D01*
X119530038Y-112463800D01*
X119484901Y-112459355D01*
X119447405Y-112447980D01*
X119412846Y-112429508D01*
X119382553Y-112404647D01*
X119357692Y-112374354D01*
X119339220Y-112339795D01*
X119327845Y-112302299D01*
X119323400Y-112257162D01*
X119323400Y-111618438D01*
X119327845Y-111573301D01*
X119339220Y-111535805D01*
X119357692Y-111501246D01*
X119382553Y-111470953D01*
X119412846Y-111446092D01*
X119447405Y-111427620D01*
X119484901Y-111416245D01*
X119530038Y-111411800D01*
X120268762Y-111411800D01*
X120313899Y-111416245D01*
X120313899Y-111416245D01*
G37*
G36*
X134982399Y-111403545D02*
G01*
X135019895Y-111414920D01*
X135054454Y-111433392D01*
X135084747Y-111458253D01*
X135109608Y-111488546D01*
X135128080Y-111523105D01*
X135139455Y-111560601D01*
X135143900Y-111605738D01*
X135143900Y-112244462D01*
X135139455Y-112289599D01*
X135128080Y-112327095D01*
X135109608Y-112361654D01*
X135084747Y-112391947D01*
X135054454Y-112416808D01*
X135019895Y-112435280D01*
X134982399Y-112446655D01*
X134937262Y-112451100D01*
X134198538Y-112451100D01*
X134153401Y-112446655D01*
X134115905Y-112435280D01*
X134081346Y-112416808D01*
X134051053Y-112391947D01*
X134026192Y-112361654D01*
X134007720Y-112327095D01*
X133996345Y-112289599D01*
X133991900Y-112244462D01*
X133991900Y-111605738D01*
X133996345Y-111560601D01*
X134007720Y-111523105D01*
X134026192Y-111488546D01*
X134051053Y-111458253D01*
X134081346Y-111433392D01*
X134115905Y-111414920D01*
X134153401Y-111403545D01*
X134198538Y-111399100D01*
X134937262Y-111399100D01*
X134982399Y-111403545D01*
X134982399Y-111403545D01*
G37*
G36*
X133232399Y-111403545D02*
G01*
X133269895Y-111414920D01*
X133304454Y-111433392D01*
X133334747Y-111458253D01*
X133359608Y-111488546D01*
X133378080Y-111523105D01*
X133389455Y-111560601D01*
X133393900Y-111605738D01*
X133393900Y-112244462D01*
X133389455Y-112289599D01*
X133378080Y-112327095D01*
X133359608Y-112361654D01*
X133334747Y-112391947D01*
X133304454Y-112416808D01*
X133269895Y-112435280D01*
X133232399Y-112446655D01*
X133187262Y-112451100D01*
X132448538Y-112451100D01*
X132403401Y-112446655D01*
X132365905Y-112435280D01*
X132331346Y-112416808D01*
X132301053Y-112391947D01*
X132276192Y-112361654D01*
X132257720Y-112327095D01*
X132246345Y-112289599D01*
X132241900Y-112244462D01*
X132241900Y-111605738D01*
X132246345Y-111560601D01*
X132257720Y-111523105D01*
X132276192Y-111488546D01*
X132301053Y-111458253D01*
X132331346Y-111433392D01*
X132365905Y-111414920D01*
X132403401Y-111403545D01*
X132448538Y-111399100D01*
X133187262Y-111399100D01*
X133232399Y-111403545D01*
X133232399Y-111403545D01*
G37*
G36*
X139048499Y-110945845D02*
G01*
X139085995Y-110957220D01*
X139120554Y-110975692D01*
X139150847Y-111000553D01*
X139175708Y-111030846D01*
X139194180Y-111065405D01*
X139205555Y-111102901D01*
X139210000Y-111148038D01*
X139210000Y-111886762D01*
X139205555Y-111931899D01*
X139194180Y-111969395D01*
X139175708Y-112003954D01*
X139150847Y-112034247D01*
X139120554Y-112059108D01*
X139085995Y-112077580D01*
X139048499Y-112088955D01*
X139003362Y-112093400D01*
X138364638Y-112093400D01*
X138319501Y-112088955D01*
X138282005Y-112077580D01*
X138247446Y-112059108D01*
X138217153Y-112034247D01*
X138192292Y-112003954D01*
X138173820Y-111969395D01*
X138162445Y-111931899D01*
X138158000Y-111886762D01*
X138158000Y-111148038D01*
X138162445Y-111102901D01*
X138173820Y-111065405D01*
X138192292Y-111030846D01*
X138217153Y-111000553D01*
X138247446Y-110975692D01*
X138282005Y-110957220D01*
X138319501Y-110945845D01*
X138364638Y-110941400D01*
X139003362Y-110941400D01*
X139048499Y-110945845D01*
X139048499Y-110945845D01*
G37*
G36*
X115660000Y-112009400D02*
G01*
X114058000Y-112009400D01*
X114058000Y-111307400D01*
X115660000Y-111307400D01*
X115660000Y-112009400D01*
X115660000Y-112009400D01*
G37*
G36*
X106160000Y-112009400D02*
G01*
X104558000Y-112009400D01*
X104558000Y-111307400D01*
X106160000Y-111307400D01*
X106160000Y-112009400D01*
X106160000Y-112009400D01*
G37*
G36*
X97570442Y-109265518D02*
G01*
X97636627Y-109272037D01*
X97806466Y-109323557D01*
X97806468Y-109323558D01*
X97861364Y-109352901D01*
X97962991Y-109407222D01*
X97973443Y-109415800D01*
X98100186Y-109519814D01*
X98165007Y-109598800D01*
X98212778Y-109657009D01*
X98296443Y-109813534D01*
X98347963Y-109983373D01*
X98365359Y-110160000D01*
X98347963Y-110336627D01*
X98296443Y-110506466D01*
X98212778Y-110662991D01*
X98201445Y-110676800D01*
X98100186Y-110800186D01*
X97998729Y-110883448D01*
X97962991Y-110912778D01*
X97806466Y-110996443D01*
X97636627Y-111047963D01*
X97570442Y-111054482D01*
X97504260Y-111061000D01*
X97415740Y-111061000D01*
X97349558Y-111054482D01*
X97283373Y-111047963D01*
X97113534Y-110996443D01*
X96957009Y-110912778D01*
X96921271Y-110883448D01*
X96819814Y-110800186D01*
X96718555Y-110676800D01*
X96707222Y-110662991D01*
X96623557Y-110506466D01*
X96572037Y-110336627D01*
X96554641Y-110160000D01*
X96572037Y-109983373D01*
X96623557Y-109813534D01*
X96707222Y-109657009D01*
X96754993Y-109598800D01*
X96819814Y-109519814D01*
X96946557Y-109415800D01*
X96957009Y-109407222D01*
X97058636Y-109352901D01*
X97113532Y-109323558D01*
X97113534Y-109323557D01*
X97283373Y-109272037D01*
X97349558Y-109265518D01*
X97415740Y-109259000D01*
X97504260Y-109259000D01*
X97570442Y-109265518D01*
X97570442Y-109265518D01*
G37*
G36*
X100110442Y-109265518D02*
G01*
X100176627Y-109272037D01*
X100346466Y-109323557D01*
X100346468Y-109323558D01*
X100401364Y-109352901D01*
X100502991Y-109407222D01*
X100513443Y-109415800D01*
X100640186Y-109519814D01*
X100705007Y-109598800D01*
X100752778Y-109657009D01*
X100836443Y-109813534D01*
X100887963Y-109983373D01*
X100905359Y-110160000D01*
X100887963Y-110336627D01*
X100836443Y-110506466D01*
X100752778Y-110662991D01*
X100741445Y-110676800D01*
X100640186Y-110800186D01*
X100538729Y-110883448D01*
X100502991Y-110912778D01*
X100346466Y-110996443D01*
X100176627Y-111047963D01*
X100110442Y-111054482D01*
X100044260Y-111061000D01*
X99955740Y-111061000D01*
X99889558Y-111054482D01*
X99823373Y-111047963D01*
X99653534Y-110996443D01*
X99497009Y-110912778D01*
X99461271Y-110883448D01*
X99359814Y-110800186D01*
X99258555Y-110676800D01*
X99247222Y-110662991D01*
X99163557Y-110506466D01*
X99112037Y-110336627D01*
X99094641Y-110160000D01*
X99112037Y-109983373D01*
X99163557Y-109813534D01*
X99247222Y-109657009D01*
X99294993Y-109598800D01*
X99359814Y-109519814D01*
X99486557Y-109415800D01*
X99497009Y-109407222D01*
X99598636Y-109352901D01*
X99653532Y-109323558D01*
X99653534Y-109323557D01*
X99823373Y-109272037D01*
X99889558Y-109265518D01*
X99955740Y-109259000D01*
X100044260Y-109259000D01*
X100110442Y-109265518D01*
X100110442Y-109265518D01*
G37*
G36*
X102650442Y-109265518D02*
G01*
X102716627Y-109272037D01*
X102886466Y-109323557D01*
X102886468Y-109323558D01*
X102941364Y-109352901D01*
X103042991Y-109407222D01*
X103053443Y-109415800D01*
X103180186Y-109519814D01*
X103245007Y-109598800D01*
X103292778Y-109657009D01*
X103376443Y-109813534D01*
X103427963Y-109983373D01*
X103445359Y-110160000D01*
X103427963Y-110336627D01*
X103376443Y-110506466D01*
X103292778Y-110662991D01*
X103281445Y-110676800D01*
X103180186Y-110800186D01*
X103078729Y-110883448D01*
X103042991Y-110912778D01*
X102886466Y-110996443D01*
X102716627Y-111047963D01*
X102650442Y-111054482D01*
X102584260Y-111061000D01*
X102495740Y-111061000D01*
X102429558Y-111054482D01*
X102363373Y-111047963D01*
X102193534Y-110996443D01*
X102037009Y-110912778D01*
X102001271Y-110883448D01*
X101899814Y-110800186D01*
X101798555Y-110676800D01*
X101787222Y-110662991D01*
X101703557Y-110506466D01*
X101652037Y-110336627D01*
X101634641Y-110160000D01*
X101652037Y-109983373D01*
X101703557Y-109813534D01*
X101787222Y-109657009D01*
X101834993Y-109598800D01*
X101899814Y-109519814D01*
X102026557Y-109415800D01*
X102037009Y-109407222D01*
X102138636Y-109352901D01*
X102193532Y-109323558D01*
X102193534Y-109323557D01*
X102363373Y-109272037D01*
X102429558Y-109265518D01*
X102495740Y-109259000D01*
X102584260Y-109259000D01*
X102650442Y-109265518D01*
X102650442Y-109265518D01*
G37*
G36*
X134983699Y-109892245D02*
G01*
X135021195Y-109903620D01*
X135055754Y-109922092D01*
X135086047Y-109946953D01*
X135110908Y-109977246D01*
X135129380Y-110011805D01*
X135140755Y-110049301D01*
X135145200Y-110094438D01*
X135145200Y-110733162D01*
X135140755Y-110778299D01*
X135129380Y-110815795D01*
X135110908Y-110850354D01*
X135086047Y-110880647D01*
X135055754Y-110905508D01*
X135021195Y-110923980D01*
X134983699Y-110935355D01*
X134938562Y-110939800D01*
X134199838Y-110939800D01*
X134154701Y-110935355D01*
X134117205Y-110923980D01*
X134082646Y-110905508D01*
X134052353Y-110880647D01*
X134027492Y-110850354D01*
X134009020Y-110815795D01*
X133997645Y-110778299D01*
X133993200Y-110733162D01*
X133993200Y-110094438D01*
X133997645Y-110049301D01*
X134009020Y-110011805D01*
X134027492Y-109977246D01*
X134052353Y-109946953D01*
X134082646Y-109922092D01*
X134117205Y-109903620D01*
X134154701Y-109892245D01*
X134199838Y-109887800D01*
X134938562Y-109887800D01*
X134983699Y-109892245D01*
X134983699Y-109892245D01*
G37*
G36*
X133233699Y-109892245D02*
G01*
X133271195Y-109903620D01*
X133305754Y-109922092D01*
X133336047Y-109946953D01*
X133360908Y-109977246D01*
X133379380Y-110011805D01*
X133390755Y-110049301D01*
X133395200Y-110094438D01*
X133395200Y-110733162D01*
X133390755Y-110778299D01*
X133379380Y-110815795D01*
X133360908Y-110850354D01*
X133336047Y-110880647D01*
X133305754Y-110905508D01*
X133271195Y-110923980D01*
X133233699Y-110935355D01*
X133188562Y-110939800D01*
X132449838Y-110939800D01*
X132404701Y-110935355D01*
X132367205Y-110923980D01*
X132332646Y-110905508D01*
X132302353Y-110880647D01*
X132277492Y-110850354D01*
X132259020Y-110815795D01*
X132247645Y-110778299D01*
X132243200Y-110733162D01*
X132243200Y-110094438D01*
X132247645Y-110049301D01*
X132259020Y-110011805D01*
X132277492Y-109977246D01*
X132302353Y-109946953D01*
X132332646Y-109922092D01*
X132367205Y-109903620D01*
X132404701Y-109892245D01*
X132449838Y-109887800D01*
X133188562Y-109887800D01*
X133233699Y-109892245D01*
X133233699Y-109892245D01*
G37*
G36*
X106160000Y-110739400D02*
G01*
X104558000Y-110739400D01*
X104558000Y-110037400D01*
X106160000Y-110037400D01*
X106160000Y-110739400D01*
X106160000Y-110739400D01*
G37*
G36*
X115660000Y-110739400D02*
G01*
X114058000Y-110739400D01*
X114058000Y-110037400D01*
X115660000Y-110037400D01*
X115660000Y-110739400D01*
X115660000Y-110739400D01*
G37*
G36*
X139048499Y-109195845D02*
G01*
X139085995Y-109207220D01*
X139120554Y-109225692D01*
X139150847Y-109250553D01*
X139175708Y-109280846D01*
X139194180Y-109315405D01*
X139205555Y-109352901D01*
X139210000Y-109398038D01*
X139210000Y-110136762D01*
X139205555Y-110181899D01*
X139194180Y-110219395D01*
X139175708Y-110253954D01*
X139150847Y-110284247D01*
X139120554Y-110309108D01*
X139085995Y-110327580D01*
X139048499Y-110338955D01*
X139003362Y-110343400D01*
X138364638Y-110343400D01*
X138319501Y-110338955D01*
X138282005Y-110327580D01*
X138247446Y-110309108D01*
X138217153Y-110284247D01*
X138192292Y-110253954D01*
X138173820Y-110219395D01*
X138162445Y-110181899D01*
X138158000Y-110136762D01*
X138158000Y-109398038D01*
X138162445Y-109352901D01*
X138173820Y-109315405D01*
X138192292Y-109280846D01*
X138217153Y-109250553D01*
X138247446Y-109225692D01*
X138282005Y-109207220D01*
X138319501Y-109195845D01*
X138364638Y-109191400D01*
X139003362Y-109191400D01*
X139048499Y-109195845D01*
X139048499Y-109195845D01*
G37*
G36*
X106160000Y-109469400D02*
G01*
X104558000Y-109469400D01*
X104558000Y-108767400D01*
X106160000Y-108767400D01*
X106160000Y-109469400D01*
X106160000Y-109469400D01*
G37*
G36*
X115660000Y-109469400D02*
G01*
X114058000Y-109469400D01*
X114058000Y-108767400D01*
X115660000Y-108767400D01*
X115660000Y-109469400D01*
X115660000Y-109469400D01*
G37*
G36*
X133245099Y-108368245D02*
G01*
X133282595Y-108379620D01*
X133317154Y-108398092D01*
X133347447Y-108422953D01*
X133372308Y-108453246D01*
X133390780Y-108487805D01*
X133402155Y-108525301D01*
X133406600Y-108570438D01*
X133406600Y-109209162D01*
X133402155Y-109254299D01*
X133390780Y-109291795D01*
X133372308Y-109326354D01*
X133347447Y-109356647D01*
X133317154Y-109381508D01*
X133282595Y-109399980D01*
X133245099Y-109411355D01*
X133199962Y-109415800D01*
X132461238Y-109415800D01*
X132416101Y-109411355D01*
X132378605Y-109399980D01*
X132344046Y-109381508D01*
X132313753Y-109356647D01*
X132288892Y-109326354D01*
X132270420Y-109291795D01*
X132259045Y-109254299D01*
X132254600Y-109209162D01*
X132254600Y-108570438D01*
X132259045Y-108525301D01*
X132270420Y-108487805D01*
X132288892Y-108453246D01*
X132313753Y-108422953D01*
X132344046Y-108398092D01*
X132378605Y-108379620D01*
X132416101Y-108368245D01*
X132461238Y-108363800D01*
X133199962Y-108363800D01*
X133245099Y-108368245D01*
X133245099Y-108368245D01*
G37*
G36*
X134995099Y-108368245D02*
G01*
X135032595Y-108379620D01*
X135067154Y-108398092D01*
X135097447Y-108422953D01*
X135122308Y-108453246D01*
X135140780Y-108487805D01*
X135152155Y-108525301D01*
X135156600Y-108570438D01*
X135156600Y-109209162D01*
X135152155Y-109254299D01*
X135140780Y-109291795D01*
X135122308Y-109326354D01*
X135097447Y-109356647D01*
X135067154Y-109381508D01*
X135032595Y-109399980D01*
X134995099Y-109411355D01*
X134949962Y-109415800D01*
X134211238Y-109415800D01*
X134166101Y-109411355D01*
X134128605Y-109399980D01*
X134094046Y-109381508D01*
X134063753Y-109356647D01*
X134038892Y-109326354D01*
X134020420Y-109291795D01*
X134009045Y-109254299D01*
X134004600Y-109209162D01*
X134004600Y-108570438D01*
X134009045Y-108525301D01*
X134020420Y-108487805D01*
X134038892Y-108453246D01*
X134063753Y-108422953D01*
X134094046Y-108398092D01*
X134128605Y-108379620D01*
X134166101Y-108368245D01*
X134211238Y-108363800D01*
X134949962Y-108363800D01*
X134995099Y-108368245D01*
X134995099Y-108368245D01*
G37*
G36*
X139048499Y-107593045D02*
G01*
X139085995Y-107604420D01*
X139120554Y-107622892D01*
X139150847Y-107647753D01*
X139175708Y-107678046D01*
X139194180Y-107712605D01*
X139205555Y-107750101D01*
X139210000Y-107795238D01*
X139210000Y-108533962D01*
X139205555Y-108579099D01*
X139194180Y-108616595D01*
X139175708Y-108651154D01*
X139150847Y-108681447D01*
X139120554Y-108706308D01*
X139085995Y-108724780D01*
X139048499Y-108736155D01*
X139003362Y-108740600D01*
X138364638Y-108740600D01*
X138319501Y-108736155D01*
X138282005Y-108724780D01*
X138247446Y-108706308D01*
X138217153Y-108681447D01*
X138192292Y-108651154D01*
X138173820Y-108616595D01*
X138162445Y-108579099D01*
X138158000Y-108533962D01*
X138158000Y-107795238D01*
X138162445Y-107750101D01*
X138173820Y-107712605D01*
X138192292Y-107678046D01*
X138217153Y-107647753D01*
X138247446Y-107622892D01*
X138282005Y-107604420D01*
X138319501Y-107593045D01*
X138364638Y-107588600D01*
X139003362Y-107588600D01*
X139048499Y-107593045D01*
X139048499Y-107593045D01*
G37*
G36*
X97570443Y-106725519D02*
G01*
X97636627Y-106732037D01*
X97806466Y-106783557D01*
X97962991Y-106867222D01*
X97998729Y-106896552D01*
X98100186Y-106979814D01*
X98183448Y-107081271D01*
X98212778Y-107117009D01*
X98296443Y-107273534D01*
X98347963Y-107443373D01*
X98365359Y-107620000D01*
X98347963Y-107796627D01*
X98296443Y-107966466D01*
X98212778Y-108122991D01*
X98183448Y-108158729D01*
X98100186Y-108260186D01*
X97998729Y-108343448D01*
X97962991Y-108372778D01*
X97806466Y-108456443D01*
X97636627Y-108507963D01*
X97570442Y-108514482D01*
X97504260Y-108521000D01*
X97415740Y-108521000D01*
X97349558Y-108514482D01*
X97283373Y-108507963D01*
X97113534Y-108456443D01*
X96957009Y-108372778D01*
X96921271Y-108343448D01*
X96819814Y-108260186D01*
X96736552Y-108158729D01*
X96707222Y-108122991D01*
X96623557Y-107966466D01*
X96572037Y-107796627D01*
X96554641Y-107620000D01*
X96572037Y-107443373D01*
X96623557Y-107273534D01*
X96707222Y-107117009D01*
X96736552Y-107081271D01*
X96819814Y-106979814D01*
X96921271Y-106896552D01*
X96957009Y-106867222D01*
X97113534Y-106783557D01*
X97283373Y-106732037D01*
X97349557Y-106725519D01*
X97415740Y-106719000D01*
X97504260Y-106719000D01*
X97570443Y-106725519D01*
X97570443Y-106725519D01*
G37*
G36*
X102650443Y-106725519D02*
G01*
X102716627Y-106732037D01*
X102886466Y-106783557D01*
X103042991Y-106867222D01*
X103078729Y-106896552D01*
X103180186Y-106979814D01*
X103263448Y-107081271D01*
X103292778Y-107117009D01*
X103376443Y-107273534D01*
X103427963Y-107443373D01*
X103445359Y-107620000D01*
X103427963Y-107796627D01*
X103376443Y-107966466D01*
X103292778Y-108122991D01*
X103263448Y-108158729D01*
X103180186Y-108260186D01*
X103078729Y-108343448D01*
X103042991Y-108372778D01*
X102886466Y-108456443D01*
X102716627Y-108507963D01*
X102650442Y-108514482D01*
X102584260Y-108521000D01*
X102495740Y-108521000D01*
X102429558Y-108514482D01*
X102363373Y-108507963D01*
X102193534Y-108456443D01*
X102037009Y-108372778D01*
X102001271Y-108343448D01*
X101899814Y-108260186D01*
X101816552Y-108158729D01*
X101787222Y-108122991D01*
X101703557Y-107966466D01*
X101652037Y-107796627D01*
X101634641Y-107620000D01*
X101652037Y-107443373D01*
X101703557Y-107273534D01*
X101787222Y-107117009D01*
X101816552Y-107081271D01*
X101899814Y-106979814D01*
X102001271Y-106896552D01*
X102037009Y-106867222D01*
X102193534Y-106783557D01*
X102363373Y-106732037D01*
X102429557Y-106725519D01*
X102495740Y-106719000D01*
X102584260Y-106719000D01*
X102650443Y-106725519D01*
X102650443Y-106725519D01*
G37*
G36*
X100110443Y-106725519D02*
G01*
X100176627Y-106732037D01*
X100346466Y-106783557D01*
X100502991Y-106867222D01*
X100538729Y-106896552D01*
X100640186Y-106979814D01*
X100723448Y-107081271D01*
X100752778Y-107117009D01*
X100836443Y-107273534D01*
X100887963Y-107443373D01*
X100905359Y-107620000D01*
X100887963Y-107796627D01*
X100836443Y-107966466D01*
X100752778Y-108122991D01*
X100723448Y-108158729D01*
X100640186Y-108260186D01*
X100538729Y-108343448D01*
X100502991Y-108372778D01*
X100346466Y-108456443D01*
X100176627Y-108507963D01*
X100110442Y-108514482D01*
X100044260Y-108521000D01*
X99955740Y-108521000D01*
X99889558Y-108514482D01*
X99823373Y-108507963D01*
X99653534Y-108456443D01*
X99497009Y-108372778D01*
X99461271Y-108343448D01*
X99359814Y-108260186D01*
X99276552Y-108158729D01*
X99247222Y-108122991D01*
X99163557Y-107966466D01*
X99112037Y-107796627D01*
X99094641Y-107620000D01*
X99112037Y-107443373D01*
X99163557Y-107273534D01*
X99247222Y-107117009D01*
X99276552Y-107081271D01*
X99359814Y-106979814D01*
X99461271Y-106896552D01*
X99497009Y-106867222D01*
X99653534Y-106783557D01*
X99823373Y-106732037D01*
X99889557Y-106725519D01*
X99955740Y-106719000D01*
X100044260Y-106719000D01*
X100110443Y-106725519D01*
X100110443Y-106725519D01*
G37*
G36*
X115660000Y-108199400D02*
G01*
X114058000Y-108199400D01*
X114058000Y-107497400D01*
X115660000Y-107497400D01*
X115660000Y-108199400D01*
X115660000Y-108199400D01*
G37*
G36*
X106160000Y-108199400D02*
G01*
X104558000Y-108199400D01*
X104558000Y-107497400D01*
X106160000Y-107497400D01*
X106160000Y-108199400D01*
X106160000Y-108199400D01*
G37*
G36*
X131390899Y-106844245D02*
G01*
X131428395Y-106855620D01*
X131462954Y-106874092D01*
X131493247Y-106898953D01*
X131518108Y-106929246D01*
X131536580Y-106963805D01*
X131547955Y-107001301D01*
X131552400Y-107046438D01*
X131552400Y-107685162D01*
X131547955Y-107730299D01*
X131536580Y-107767795D01*
X131518108Y-107802354D01*
X131493247Y-107832647D01*
X131462954Y-107857508D01*
X131428395Y-107875980D01*
X131390899Y-107887355D01*
X131345762Y-107891800D01*
X130607038Y-107891800D01*
X130561901Y-107887355D01*
X130524405Y-107875980D01*
X130489846Y-107857508D01*
X130459553Y-107832647D01*
X130434692Y-107802354D01*
X130416220Y-107767795D01*
X130404845Y-107730299D01*
X130400400Y-107685162D01*
X130400400Y-107046438D01*
X130404845Y-107001301D01*
X130416220Y-106963805D01*
X130434692Y-106929246D01*
X130459553Y-106898953D01*
X130489846Y-106874092D01*
X130524405Y-106855620D01*
X130561901Y-106844245D01*
X130607038Y-106839800D01*
X131345762Y-106839800D01*
X131390899Y-106844245D01*
X131390899Y-106844245D01*
G37*
G36*
X133140899Y-106844245D02*
G01*
X133178395Y-106855620D01*
X133212954Y-106874092D01*
X133243247Y-106898953D01*
X133268108Y-106929246D01*
X133286580Y-106963805D01*
X133297955Y-107001301D01*
X133302400Y-107046438D01*
X133302400Y-107685162D01*
X133297955Y-107730299D01*
X133286580Y-107767795D01*
X133268108Y-107802354D01*
X133243247Y-107832647D01*
X133212954Y-107857508D01*
X133178395Y-107875980D01*
X133140899Y-107887355D01*
X133095762Y-107891800D01*
X132357038Y-107891800D01*
X132311901Y-107887355D01*
X132274405Y-107875980D01*
X132239846Y-107857508D01*
X132209553Y-107832647D01*
X132184692Y-107802354D01*
X132166220Y-107767795D01*
X132154845Y-107730299D01*
X132150400Y-107685162D01*
X132150400Y-107046438D01*
X132154845Y-107001301D01*
X132166220Y-106963805D01*
X132184692Y-106929246D01*
X132209553Y-106898953D01*
X132239846Y-106874092D01*
X132274405Y-106855620D01*
X132311901Y-106844245D01*
X132357038Y-106839800D01*
X133095762Y-106839800D01*
X133140899Y-106844245D01*
X133140899Y-106844245D01*
G37*
G36*
X142329800Y-107416400D02*
G01*
X140727800Y-107416400D01*
X140727800Y-105814400D01*
X142329800Y-105814400D01*
X142329800Y-107416400D01*
X142329800Y-107416400D01*
G37*
G36*
X139048499Y-105843045D02*
G01*
X139085995Y-105854420D01*
X139120554Y-105872892D01*
X139150847Y-105897753D01*
X139175708Y-105928046D01*
X139194180Y-105962605D01*
X139205555Y-106000101D01*
X139210000Y-106045238D01*
X139210000Y-106783962D01*
X139205555Y-106829099D01*
X139194180Y-106866595D01*
X139175708Y-106901154D01*
X139150847Y-106931447D01*
X139120554Y-106956308D01*
X139085995Y-106974780D01*
X139048499Y-106986155D01*
X139003362Y-106990600D01*
X138364638Y-106990600D01*
X138319501Y-106986155D01*
X138282005Y-106974780D01*
X138247446Y-106956308D01*
X138217153Y-106931447D01*
X138192292Y-106901154D01*
X138173820Y-106866595D01*
X138162445Y-106829099D01*
X138158000Y-106783962D01*
X138158000Y-106045238D01*
X138162445Y-106000101D01*
X138173820Y-105962605D01*
X138192292Y-105928046D01*
X138217153Y-105897753D01*
X138247446Y-105872892D01*
X138282005Y-105854420D01*
X138319501Y-105843045D01*
X138364638Y-105838600D01*
X139003362Y-105838600D01*
X139048499Y-105843045D01*
X139048499Y-105843045D01*
G37*
G36*
X106160000Y-106929400D02*
G01*
X104558000Y-106929400D01*
X104558000Y-106227400D01*
X106160000Y-106227400D01*
X106160000Y-106929400D01*
X106160000Y-106929400D01*
G37*
G36*
X115660000Y-106929400D02*
G01*
X114058000Y-106929400D01*
X114058000Y-106227400D01*
X115660000Y-106227400D01*
X115660000Y-106929400D01*
X115660000Y-106929400D01*
G37*
G36*
X126284999Y-105713445D02*
G01*
X126322495Y-105724820D01*
X126357054Y-105743292D01*
X126387347Y-105768153D01*
X126412208Y-105798446D01*
X126430680Y-105833005D01*
X126442055Y-105870501D01*
X126446500Y-105915638D01*
X126446500Y-106654362D01*
X126442055Y-106699499D01*
X126430680Y-106736995D01*
X126412208Y-106771554D01*
X126387347Y-106801847D01*
X126357054Y-106826708D01*
X126322495Y-106845180D01*
X126284999Y-106856555D01*
X126239862Y-106861000D01*
X125601138Y-106861000D01*
X125556001Y-106856555D01*
X125518505Y-106845180D01*
X125483946Y-106826708D01*
X125453653Y-106801847D01*
X125428792Y-106771554D01*
X125410320Y-106736995D01*
X125398945Y-106699499D01*
X125394500Y-106654362D01*
X125394500Y-105915638D01*
X125398945Y-105870501D01*
X125410320Y-105833005D01*
X125428792Y-105798446D01*
X125453653Y-105768153D01*
X125483946Y-105743292D01*
X125518505Y-105724820D01*
X125556001Y-105713445D01*
X125601138Y-105709000D01*
X126239862Y-105709000D01*
X126284999Y-105713445D01*
X126284999Y-105713445D01*
G37*
G36*
X100110443Y-104185519D02*
G01*
X100176627Y-104192037D01*
X100346466Y-104243557D01*
X100502991Y-104327222D01*
X100538729Y-104356552D01*
X100640186Y-104439814D01*
X100702993Y-104516346D01*
X100752778Y-104577009D01*
X100752779Y-104577011D01*
X100804433Y-104673647D01*
X100836443Y-104733534D01*
X100887963Y-104903373D01*
X100905359Y-105080000D01*
X100887963Y-105256627D01*
X100836443Y-105426466D01*
X100752778Y-105582991D01*
X100723448Y-105618729D01*
X100640186Y-105720186D01*
X100538729Y-105803448D01*
X100502991Y-105832778D01*
X100346466Y-105916443D01*
X100176627Y-105967963D01*
X100110443Y-105974481D01*
X100044260Y-105981000D01*
X99955740Y-105981000D01*
X99889557Y-105974481D01*
X99823373Y-105967963D01*
X99653534Y-105916443D01*
X99497009Y-105832778D01*
X99461271Y-105803448D01*
X99359814Y-105720186D01*
X99276552Y-105618729D01*
X99247222Y-105582991D01*
X99163557Y-105426466D01*
X99112037Y-105256627D01*
X99094641Y-105080000D01*
X99112037Y-104903373D01*
X99163557Y-104733534D01*
X99195568Y-104673647D01*
X99247221Y-104577011D01*
X99247222Y-104577009D01*
X99297007Y-104516346D01*
X99359814Y-104439814D01*
X99461271Y-104356552D01*
X99497009Y-104327222D01*
X99653534Y-104243557D01*
X99823373Y-104192037D01*
X99889557Y-104185519D01*
X99955740Y-104179000D01*
X100044260Y-104179000D01*
X100110443Y-104185519D01*
X100110443Y-104185519D01*
G37*
G36*
X97570443Y-104185519D02*
G01*
X97636627Y-104192037D01*
X97806466Y-104243557D01*
X97962991Y-104327222D01*
X97998729Y-104356552D01*
X98100186Y-104439814D01*
X98162993Y-104516346D01*
X98212778Y-104577009D01*
X98212779Y-104577011D01*
X98264433Y-104673647D01*
X98296443Y-104733534D01*
X98347963Y-104903373D01*
X98365359Y-105080000D01*
X98347963Y-105256627D01*
X98296443Y-105426466D01*
X98212778Y-105582991D01*
X98183448Y-105618729D01*
X98100186Y-105720186D01*
X97998729Y-105803448D01*
X97962991Y-105832778D01*
X97806466Y-105916443D01*
X97636627Y-105967963D01*
X97570443Y-105974481D01*
X97504260Y-105981000D01*
X97415740Y-105981000D01*
X97349557Y-105974481D01*
X97283373Y-105967963D01*
X97113534Y-105916443D01*
X96957009Y-105832778D01*
X96921271Y-105803448D01*
X96819814Y-105720186D01*
X96736552Y-105618729D01*
X96707222Y-105582991D01*
X96623557Y-105426466D01*
X96572037Y-105256627D01*
X96554641Y-105080000D01*
X96572037Y-104903373D01*
X96623557Y-104733534D01*
X96655568Y-104673647D01*
X96707221Y-104577011D01*
X96707222Y-104577009D01*
X96757007Y-104516346D01*
X96819814Y-104439814D01*
X96921271Y-104356552D01*
X96957009Y-104327222D01*
X97113534Y-104243557D01*
X97283373Y-104192037D01*
X97349557Y-104185519D01*
X97415740Y-104179000D01*
X97504260Y-104179000D01*
X97570443Y-104185519D01*
X97570443Y-104185519D01*
G37*
G36*
X102650443Y-104185519D02*
G01*
X102716627Y-104192037D01*
X102886466Y-104243557D01*
X103042991Y-104327222D01*
X103078729Y-104356552D01*
X103180186Y-104439814D01*
X103242993Y-104516346D01*
X103292778Y-104577009D01*
X103292779Y-104577011D01*
X103344433Y-104673647D01*
X103376443Y-104733534D01*
X103427963Y-104903373D01*
X103445359Y-105080000D01*
X103427963Y-105256627D01*
X103376443Y-105426466D01*
X103292778Y-105582991D01*
X103263448Y-105618729D01*
X103180186Y-105720186D01*
X103078729Y-105803448D01*
X103042991Y-105832778D01*
X102886466Y-105916443D01*
X102716627Y-105967963D01*
X102650443Y-105974481D01*
X102584260Y-105981000D01*
X102495740Y-105981000D01*
X102429557Y-105974481D01*
X102363373Y-105967963D01*
X102193534Y-105916443D01*
X102037009Y-105832778D01*
X102001271Y-105803448D01*
X101899814Y-105720186D01*
X101816552Y-105618729D01*
X101787222Y-105582991D01*
X101703557Y-105426466D01*
X101652037Y-105256627D01*
X101634641Y-105080000D01*
X101652037Y-104903373D01*
X101703557Y-104733534D01*
X101735568Y-104673647D01*
X101787221Y-104577011D01*
X101787222Y-104577009D01*
X101837007Y-104516346D01*
X101899814Y-104439814D01*
X102001271Y-104356552D01*
X102037009Y-104327222D01*
X102193534Y-104243557D01*
X102363373Y-104192037D01*
X102429557Y-104185519D01*
X102495740Y-104179000D01*
X102584260Y-104179000D01*
X102650443Y-104185519D01*
X102650443Y-104185519D01*
G37*
G36*
X106160000Y-105659400D02*
G01*
X104558000Y-105659400D01*
X104558000Y-104957400D01*
X106160000Y-104957400D01*
X106160000Y-105659400D01*
X106160000Y-105659400D01*
G37*
G36*
X115660000Y-105659400D02*
G01*
X114058000Y-105659400D01*
X114058000Y-104957400D01*
X115660000Y-104957400D01*
X115660000Y-105659400D01*
X115660000Y-105659400D01*
G37*
G36*
X126284999Y-103963445D02*
G01*
X126322495Y-103974820D01*
X126357054Y-103993292D01*
X126387347Y-104018153D01*
X126412208Y-104048446D01*
X126430680Y-104083005D01*
X126442055Y-104120501D01*
X126446500Y-104165638D01*
X126446500Y-104904362D01*
X126442055Y-104949499D01*
X126430680Y-104986995D01*
X126412208Y-105021554D01*
X126387347Y-105051847D01*
X126357054Y-105076708D01*
X126322495Y-105095180D01*
X126284999Y-105106555D01*
X126239862Y-105111000D01*
X125601138Y-105111000D01*
X125556001Y-105106555D01*
X125518505Y-105095180D01*
X125483946Y-105076708D01*
X125453653Y-105051847D01*
X125428792Y-105021554D01*
X125410320Y-104986995D01*
X125398945Y-104949499D01*
X125394500Y-104904362D01*
X125394500Y-104165638D01*
X125398945Y-104120501D01*
X125410320Y-104083005D01*
X125428792Y-104048446D01*
X125453653Y-104018153D01*
X125483946Y-103993292D01*
X125518505Y-103974820D01*
X125556001Y-103963445D01*
X125601138Y-103959000D01*
X126239862Y-103959000D01*
X126284999Y-103963445D01*
X126284999Y-103963445D01*
G37*
G36*
X130270699Y-103631145D02*
G01*
X130308195Y-103642520D01*
X130342754Y-103660992D01*
X130373047Y-103685853D01*
X130397908Y-103716146D01*
X130416380Y-103750705D01*
X130427755Y-103788201D01*
X130432200Y-103833338D01*
X130432200Y-104472062D01*
X130427755Y-104517199D01*
X130416380Y-104554695D01*
X130397908Y-104589254D01*
X130373047Y-104619547D01*
X130342754Y-104644408D01*
X130308195Y-104662880D01*
X130270699Y-104674255D01*
X130225562Y-104678700D01*
X129486838Y-104678700D01*
X129441701Y-104674255D01*
X129404205Y-104662880D01*
X129369646Y-104644408D01*
X129339353Y-104619547D01*
X129314492Y-104589254D01*
X129296020Y-104554695D01*
X129284645Y-104517199D01*
X129280200Y-104472062D01*
X129280200Y-103833338D01*
X129284645Y-103788201D01*
X129296020Y-103750705D01*
X129314492Y-103716146D01*
X129339353Y-103685853D01*
X129369646Y-103660992D01*
X129404205Y-103642520D01*
X129441701Y-103631145D01*
X129486838Y-103626700D01*
X130225562Y-103626700D01*
X130270699Y-103631145D01*
X130270699Y-103631145D01*
G37*
G36*
X128520699Y-103631145D02*
G01*
X128558195Y-103642520D01*
X128592754Y-103660992D01*
X128623047Y-103685853D01*
X128647908Y-103716146D01*
X128666380Y-103750705D01*
X128677755Y-103788201D01*
X128682200Y-103833338D01*
X128682200Y-104472062D01*
X128677755Y-104517199D01*
X128666380Y-104554695D01*
X128647908Y-104589254D01*
X128623047Y-104619547D01*
X128592754Y-104644408D01*
X128558195Y-104662880D01*
X128520699Y-104674255D01*
X128475562Y-104678700D01*
X127736838Y-104678700D01*
X127691701Y-104674255D01*
X127654205Y-104662880D01*
X127619646Y-104644408D01*
X127589353Y-104619547D01*
X127564492Y-104589254D01*
X127546020Y-104554695D01*
X127534645Y-104517199D01*
X127530200Y-104472062D01*
X127530200Y-103833338D01*
X127534645Y-103788201D01*
X127546020Y-103750705D01*
X127564492Y-103716146D01*
X127589353Y-103685853D01*
X127619646Y-103660992D01*
X127654205Y-103642520D01*
X127691701Y-103631145D01*
X127736838Y-103626700D01*
X128475562Y-103626700D01*
X128520699Y-103631145D01*
X128520699Y-103631145D01*
G37*
G36*
X106160000Y-104389400D02*
G01*
X104558000Y-104389400D01*
X104558000Y-103687400D01*
X106160000Y-103687400D01*
X106160000Y-104389400D01*
X106160000Y-104389400D01*
G37*
G36*
X115660000Y-104389400D02*
G01*
X114058000Y-104389400D01*
X114058000Y-103687400D01*
X115660000Y-103687400D01*
X115660000Y-104389400D01*
X115660000Y-104389400D01*
G37*
G36*
X102650442Y-101645518D02*
G01*
X102716627Y-101652037D01*
X102886466Y-101703557D01*
X102886468Y-101703558D01*
X102961390Y-101743605D01*
X103042991Y-101787222D01*
X103078729Y-101816552D01*
X103180186Y-101899814D01*
X103263448Y-102001271D01*
X103292778Y-102037009D01*
X103376443Y-102193534D01*
X103427963Y-102363373D01*
X103445359Y-102540000D01*
X103427963Y-102716627D01*
X103411287Y-102771600D01*
X103376442Y-102886468D01*
X103340554Y-102953609D01*
X103292778Y-103042991D01*
X103265808Y-103075854D01*
X103180186Y-103180186D01*
X103078729Y-103263448D01*
X103042991Y-103292778D01*
X102886466Y-103376443D01*
X102716627Y-103427963D01*
X102650442Y-103434482D01*
X102584260Y-103441000D01*
X102495740Y-103441000D01*
X102429558Y-103434482D01*
X102363373Y-103427963D01*
X102193534Y-103376443D01*
X102037009Y-103292778D01*
X102001271Y-103263448D01*
X101899814Y-103180186D01*
X101814192Y-103075854D01*
X101787222Y-103042991D01*
X101739446Y-102953609D01*
X101703558Y-102886468D01*
X101668713Y-102771600D01*
X101652037Y-102716627D01*
X101634641Y-102540000D01*
X101652037Y-102363373D01*
X101703557Y-102193534D01*
X101787222Y-102037009D01*
X101816552Y-102001271D01*
X101899814Y-101899814D01*
X102001271Y-101816552D01*
X102037009Y-101787222D01*
X102118610Y-101743605D01*
X102193532Y-101703558D01*
X102193534Y-101703557D01*
X102363373Y-101652037D01*
X102429557Y-101645519D01*
X102495740Y-101639000D01*
X102584260Y-101639000D01*
X102650442Y-101645518D01*
X102650442Y-101645518D01*
G37*
G36*
X100110442Y-101645518D02*
G01*
X100176627Y-101652037D01*
X100346466Y-101703557D01*
X100346468Y-101703558D01*
X100421390Y-101743605D01*
X100502991Y-101787222D01*
X100538729Y-101816552D01*
X100640186Y-101899814D01*
X100723448Y-102001271D01*
X100752778Y-102037009D01*
X100836443Y-102193534D01*
X100887963Y-102363373D01*
X100905359Y-102540000D01*
X100887963Y-102716627D01*
X100871287Y-102771600D01*
X100836442Y-102886468D01*
X100800554Y-102953609D01*
X100752778Y-103042991D01*
X100725808Y-103075854D01*
X100640186Y-103180186D01*
X100538729Y-103263448D01*
X100502991Y-103292778D01*
X100346466Y-103376443D01*
X100176627Y-103427963D01*
X100110442Y-103434482D01*
X100044260Y-103441000D01*
X99955740Y-103441000D01*
X99889558Y-103434482D01*
X99823373Y-103427963D01*
X99653534Y-103376443D01*
X99497009Y-103292778D01*
X99461271Y-103263448D01*
X99359814Y-103180186D01*
X99274192Y-103075854D01*
X99247222Y-103042991D01*
X99199446Y-102953609D01*
X99163558Y-102886468D01*
X99128713Y-102771600D01*
X99112037Y-102716627D01*
X99094641Y-102540000D01*
X99112037Y-102363373D01*
X99163557Y-102193534D01*
X99247222Y-102037009D01*
X99276552Y-102001271D01*
X99359814Y-101899814D01*
X99461271Y-101816552D01*
X99497009Y-101787222D01*
X99578610Y-101743605D01*
X99653532Y-101703558D01*
X99653534Y-101703557D01*
X99823373Y-101652037D01*
X99889557Y-101645519D01*
X99955740Y-101639000D01*
X100044260Y-101639000D01*
X100110442Y-101645518D01*
X100110442Y-101645518D01*
G37*
G36*
X97570442Y-101645518D02*
G01*
X97636627Y-101652037D01*
X97806466Y-101703557D01*
X97806468Y-101703558D01*
X97881390Y-101743605D01*
X97962991Y-101787222D01*
X97998729Y-101816552D01*
X98100186Y-101899814D01*
X98183448Y-102001271D01*
X98212778Y-102037009D01*
X98296443Y-102193534D01*
X98347963Y-102363373D01*
X98365359Y-102540000D01*
X98347963Y-102716627D01*
X98331287Y-102771600D01*
X98296442Y-102886468D01*
X98260554Y-102953609D01*
X98212778Y-103042991D01*
X98185808Y-103075854D01*
X98100186Y-103180186D01*
X97998729Y-103263448D01*
X97962991Y-103292778D01*
X97806466Y-103376443D01*
X97636627Y-103427963D01*
X97570442Y-103434482D01*
X97504260Y-103441000D01*
X97415740Y-103441000D01*
X97349558Y-103434482D01*
X97283373Y-103427963D01*
X97113534Y-103376443D01*
X96957009Y-103292778D01*
X96921271Y-103263448D01*
X96819814Y-103180186D01*
X96734192Y-103075854D01*
X96707222Y-103042991D01*
X96659446Y-102953609D01*
X96623558Y-102886468D01*
X96588713Y-102771600D01*
X96572037Y-102716627D01*
X96554641Y-102540000D01*
X96572037Y-102363373D01*
X96623557Y-102193534D01*
X96707222Y-102037009D01*
X96736552Y-102001271D01*
X96819814Y-101899814D01*
X96921271Y-101816552D01*
X96957009Y-101787222D01*
X97038610Y-101743605D01*
X97113532Y-101703558D01*
X97113534Y-101703557D01*
X97283373Y-101652037D01*
X97349557Y-101645519D01*
X97415740Y-101639000D01*
X97504260Y-101639000D01*
X97570442Y-101645518D01*
X97570442Y-101645518D01*
G37*
G36*
X128482099Y-102017745D02*
G01*
X128519595Y-102029120D01*
X128554154Y-102047592D01*
X128584447Y-102072453D01*
X128609308Y-102102746D01*
X128627780Y-102137305D01*
X128639155Y-102174801D01*
X128643600Y-102219938D01*
X128643600Y-102958662D01*
X128639155Y-103003799D01*
X128627780Y-103041295D01*
X128609308Y-103075854D01*
X128584447Y-103106147D01*
X128554154Y-103131008D01*
X128519595Y-103149480D01*
X128482099Y-103160855D01*
X128436962Y-103165300D01*
X127798238Y-103165300D01*
X127753101Y-103160855D01*
X127715605Y-103149480D01*
X127681046Y-103131008D01*
X127650753Y-103106147D01*
X127625892Y-103075854D01*
X127607420Y-103041295D01*
X127596045Y-103003799D01*
X127591600Y-102958662D01*
X127591600Y-102219938D01*
X127596045Y-102174801D01*
X127607420Y-102137305D01*
X127625892Y-102102746D01*
X127650753Y-102072453D01*
X127681046Y-102047592D01*
X127715605Y-102029120D01*
X127753101Y-102017745D01*
X127798238Y-102013300D01*
X128436962Y-102013300D01*
X128482099Y-102017745D01*
X128482099Y-102017745D01*
G37*
G36*
X114994699Y-101624045D02*
G01*
X115032195Y-101635420D01*
X115066754Y-101653892D01*
X115097047Y-101678753D01*
X115121908Y-101709046D01*
X115140380Y-101743605D01*
X115151755Y-101781101D01*
X115156200Y-101826238D01*
X115156200Y-102564962D01*
X115151755Y-102610099D01*
X115140380Y-102647595D01*
X115121908Y-102682154D01*
X115097047Y-102712447D01*
X115066754Y-102737308D01*
X115032195Y-102755780D01*
X114994699Y-102767155D01*
X114949562Y-102771600D01*
X114310838Y-102771600D01*
X114265701Y-102767155D01*
X114228205Y-102755780D01*
X114193646Y-102737308D01*
X114163353Y-102712447D01*
X114138492Y-102682154D01*
X114120020Y-102647595D01*
X114108645Y-102610099D01*
X114104200Y-102564962D01*
X114104200Y-101826238D01*
X114108645Y-101781101D01*
X114120020Y-101743605D01*
X114138492Y-101709046D01*
X114163353Y-101678753D01*
X114193646Y-101653892D01*
X114228205Y-101635420D01*
X114265701Y-101624045D01*
X114310838Y-101619600D01*
X114949562Y-101619600D01*
X114994699Y-101624045D01*
X114994699Y-101624045D01*
G37*
G36*
X128482099Y-100267745D02*
G01*
X128519595Y-100279120D01*
X128554154Y-100297592D01*
X128584447Y-100322453D01*
X128609308Y-100352746D01*
X128627780Y-100387305D01*
X128639155Y-100424801D01*
X128643600Y-100469938D01*
X128643600Y-101208662D01*
X128639155Y-101253799D01*
X128627780Y-101291295D01*
X128609308Y-101325854D01*
X128584447Y-101356147D01*
X128554154Y-101381008D01*
X128519595Y-101399480D01*
X128482099Y-101410855D01*
X128436962Y-101415300D01*
X127798238Y-101415300D01*
X127753101Y-101410855D01*
X127715605Y-101399480D01*
X127681046Y-101381008D01*
X127650753Y-101356147D01*
X127625892Y-101325854D01*
X127607420Y-101291295D01*
X127596045Y-101253799D01*
X127591600Y-101208662D01*
X127591600Y-100469938D01*
X127596045Y-100424801D01*
X127607420Y-100387305D01*
X127625892Y-100352746D01*
X127650753Y-100322453D01*
X127681046Y-100297592D01*
X127715605Y-100279120D01*
X127753101Y-100267745D01*
X127798238Y-100263300D01*
X128436962Y-100263300D01*
X128482099Y-100267745D01*
X128482099Y-100267745D01*
G37*
G36*
X113614400Y-101195000D02*
G01*
X111352400Y-101195000D01*
X111352400Y-99973000D01*
X113614400Y-99973000D01*
X113614400Y-101195000D01*
X113614400Y-101195000D01*
G37*
G36*
X106884400Y-101195000D02*
G01*
X104622400Y-101195000D01*
X104622400Y-99973000D01*
X106884400Y-99973000D01*
X106884400Y-101195000D01*
X106884400Y-101195000D01*
G37*
G36*
X114994699Y-99874045D02*
G01*
X115032195Y-99885420D01*
X115066754Y-99903892D01*
X115097047Y-99928753D01*
X115121908Y-99959046D01*
X115140380Y-99993605D01*
X115151755Y-100031101D01*
X115156200Y-100076238D01*
X115156200Y-100814962D01*
X115151755Y-100860099D01*
X115140380Y-100897595D01*
X115121908Y-100932154D01*
X115097047Y-100962447D01*
X115066754Y-100987308D01*
X115032195Y-101005780D01*
X114994699Y-101017155D01*
X114949562Y-101021600D01*
X114310838Y-101021600D01*
X114265701Y-101017155D01*
X114228205Y-101005780D01*
X114193646Y-100987308D01*
X114163353Y-100962447D01*
X114138492Y-100932154D01*
X114120020Y-100897595D01*
X114108645Y-100860099D01*
X114104200Y-100814962D01*
X114104200Y-100076238D01*
X114108645Y-100031101D01*
X114120020Y-99993605D01*
X114138492Y-99959046D01*
X114163353Y-99928753D01*
X114193646Y-99903892D01*
X114228205Y-99885420D01*
X114265701Y-99874045D01*
X114310838Y-99869600D01*
X114949562Y-99869600D01*
X114994699Y-99874045D01*
X114994699Y-99874045D01*
G37*
G36*
X103441000Y-100901000D02*
G01*
X101639000Y-100901000D01*
X101639000Y-99099000D01*
X103441000Y-99099000D01*
X103441000Y-100901000D01*
X103441000Y-100901000D01*
G37*
G36*
X100901000Y-100901000D02*
G01*
X99099000Y-100901000D01*
X99099000Y-99099000D01*
X100901000Y-99099000D01*
X100901000Y-100901000D01*
X100901000Y-100901000D01*
G37*
G36*
X98361000Y-100901000D02*
G01*
X96559000Y-100901000D01*
X96559000Y-99099000D01*
X98361000Y-99099000D01*
X98361000Y-100901000D01*
X98361000Y-100901000D01*
G37*
G36*
X128520699Y-98754345D02*
G01*
X128558195Y-98765720D01*
X128592754Y-98784192D01*
X128623047Y-98809053D01*
X128647908Y-98839346D01*
X128666380Y-98873905D01*
X128677755Y-98911401D01*
X128682200Y-98956538D01*
X128682200Y-99595262D01*
X128677755Y-99640399D01*
X128666380Y-99677895D01*
X128647908Y-99712454D01*
X128623047Y-99742747D01*
X128592754Y-99767608D01*
X128558195Y-99786080D01*
X128520699Y-99797455D01*
X128475562Y-99801900D01*
X127736838Y-99801900D01*
X127691701Y-99797455D01*
X127654205Y-99786080D01*
X127619646Y-99767608D01*
X127589353Y-99742747D01*
X127564492Y-99712454D01*
X127546020Y-99677895D01*
X127534645Y-99640399D01*
X127530200Y-99595262D01*
X127530200Y-98956538D01*
X127534645Y-98911401D01*
X127546020Y-98873905D01*
X127564492Y-98839346D01*
X127589353Y-98809053D01*
X127619646Y-98784192D01*
X127654205Y-98765720D01*
X127691701Y-98754345D01*
X127736838Y-98749900D01*
X128475562Y-98749900D01*
X128520699Y-98754345D01*
X128520699Y-98754345D01*
G37*
G36*
X130270699Y-98754345D02*
G01*
X130308195Y-98765720D01*
X130342754Y-98784192D01*
X130373047Y-98809053D01*
X130397908Y-98839346D01*
X130416380Y-98873905D01*
X130427755Y-98911401D01*
X130432200Y-98956538D01*
X130432200Y-99595262D01*
X130427755Y-99640399D01*
X130416380Y-99677895D01*
X130397908Y-99712454D01*
X130373047Y-99742747D01*
X130342754Y-99767608D01*
X130308195Y-99786080D01*
X130270699Y-99797455D01*
X130225562Y-99801900D01*
X129486838Y-99801900D01*
X129441701Y-99797455D01*
X129404205Y-99786080D01*
X129369646Y-99767608D01*
X129339353Y-99742747D01*
X129314492Y-99712454D01*
X129296020Y-99677895D01*
X129284645Y-99640399D01*
X129280200Y-99595262D01*
X129280200Y-98956538D01*
X129284645Y-98911401D01*
X129296020Y-98873905D01*
X129314492Y-98839346D01*
X129339353Y-98809053D01*
X129369646Y-98784192D01*
X129404205Y-98765720D01*
X129441701Y-98754345D01*
X129486838Y-98749900D01*
X130225562Y-98749900D01*
X130270699Y-98754345D01*
X130270699Y-98754345D01*
G37*
M02*
