G04 #@! TF.GenerationSoftware,KiCad,Pcbnew,5.1.1-8be2ce7~80~ubuntu18.04.1*
G04 #@! TF.CreationDate,2019-05-08T10:27:23+07:00*
G04 #@! TF.ProjectId,driver-servo-esp32,64726976-6572-42d7-9365-72766f2d6573,rev?*
G04 #@! TF.SameCoordinates,Original*
G04 #@! TF.FileFunction,Paste,Top*
G04 #@! TF.FilePolarity,Positive*
%FSLAX46Y46*%
G04 Gerber Fmt 4.6, Leading zero omitted, Abs format (unit mm)*
G04 Created by KiCad (PCBNEW 5.1.1-8be2ce7~80~ubuntu18.04.1) date 2019-05-08 10:27:23*
%MOMM*%
%LPD*%
G04 APERTURE LIST*
%ADD10C,0.100000*%
%ADD11C,1.150000*%
%ADD12C,0.950000*%
%ADD13R,3.500000X2.300000*%
%ADD14R,1.175000X1.900000*%
%ADD15R,2.375000X1.900000*%
%ADD16R,1.475000X2.100000*%
%ADD17R,0.450000X1.380000*%
%ADD18R,1.500000X1.500000*%
%ADD19R,2.160000X1.120000*%
%ADD20R,1.440000X1.440000*%
%ADD21R,1.000000X0.250000*%
%ADD22R,0.250000X1.000000*%
%ADD23C,0.250000*%
%ADD24C,0.900000*%
%ADD25R,2.000000X1.500000*%
%ADD26R,2.000000X3.800000*%
%ADD27R,1.500000X0.600000*%
G04 APERTURE END LIST*
D10*
G36*
X118374505Y-137751204D02*
G01*
X118398773Y-137754804D01*
X118422572Y-137760765D01*
X118445671Y-137769030D01*
X118467850Y-137779520D01*
X118488893Y-137792132D01*
X118508599Y-137806747D01*
X118526777Y-137823223D01*
X118543253Y-137841401D01*
X118557868Y-137861107D01*
X118570480Y-137882150D01*
X118580970Y-137904329D01*
X118589235Y-137927428D01*
X118595196Y-137951227D01*
X118598796Y-137975495D01*
X118600000Y-137999999D01*
X118600000Y-138650001D01*
X118598796Y-138674505D01*
X118595196Y-138698773D01*
X118589235Y-138722572D01*
X118580970Y-138745671D01*
X118570480Y-138767850D01*
X118557868Y-138788893D01*
X118543253Y-138808599D01*
X118526777Y-138826777D01*
X118508599Y-138843253D01*
X118488893Y-138857868D01*
X118467850Y-138870480D01*
X118445671Y-138880970D01*
X118422572Y-138889235D01*
X118398773Y-138895196D01*
X118374505Y-138898796D01*
X118350001Y-138900000D01*
X117449999Y-138900000D01*
X117425495Y-138898796D01*
X117401227Y-138895196D01*
X117377428Y-138889235D01*
X117354329Y-138880970D01*
X117332150Y-138870480D01*
X117311107Y-138857868D01*
X117291401Y-138843253D01*
X117273223Y-138826777D01*
X117256747Y-138808599D01*
X117242132Y-138788893D01*
X117229520Y-138767850D01*
X117219030Y-138745671D01*
X117210765Y-138722572D01*
X117204804Y-138698773D01*
X117201204Y-138674505D01*
X117200000Y-138650001D01*
X117200000Y-137999999D01*
X117201204Y-137975495D01*
X117204804Y-137951227D01*
X117210765Y-137927428D01*
X117219030Y-137904329D01*
X117229520Y-137882150D01*
X117242132Y-137861107D01*
X117256747Y-137841401D01*
X117273223Y-137823223D01*
X117291401Y-137806747D01*
X117311107Y-137792132D01*
X117332150Y-137779520D01*
X117354329Y-137769030D01*
X117377428Y-137760765D01*
X117401227Y-137754804D01*
X117425495Y-137751204D01*
X117449999Y-137750000D01*
X118350001Y-137750000D01*
X118374505Y-137751204D01*
X118374505Y-137751204D01*
G37*
D11*
X117900000Y-138325000D03*
D10*
G36*
X118374505Y-135701204D02*
G01*
X118398773Y-135704804D01*
X118422572Y-135710765D01*
X118445671Y-135719030D01*
X118467850Y-135729520D01*
X118488893Y-135742132D01*
X118508599Y-135756747D01*
X118526777Y-135773223D01*
X118543253Y-135791401D01*
X118557868Y-135811107D01*
X118570480Y-135832150D01*
X118580970Y-135854329D01*
X118589235Y-135877428D01*
X118595196Y-135901227D01*
X118598796Y-135925495D01*
X118600000Y-135949999D01*
X118600000Y-136600001D01*
X118598796Y-136624505D01*
X118595196Y-136648773D01*
X118589235Y-136672572D01*
X118580970Y-136695671D01*
X118570480Y-136717850D01*
X118557868Y-136738893D01*
X118543253Y-136758599D01*
X118526777Y-136776777D01*
X118508599Y-136793253D01*
X118488893Y-136807868D01*
X118467850Y-136820480D01*
X118445671Y-136830970D01*
X118422572Y-136839235D01*
X118398773Y-136845196D01*
X118374505Y-136848796D01*
X118350001Y-136850000D01*
X117449999Y-136850000D01*
X117425495Y-136848796D01*
X117401227Y-136845196D01*
X117377428Y-136839235D01*
X117354329Y-136830970D01*
X117332150Y-136820480D01*
X117311107Y-136807868D01*
X117291401Y-136793253D01*
X117273223Y-136776777D01*
X117256747Y-136758599D01*
X117242132Y-136738893D01*
X117229520Y-136717850D01*
X117219030Y-136695671D01*
X117210765Y-136672572D01*
X117204804Y-136648773D01*
X117201204Y-136624505D01*
X117200000Y-136600001D01*
X117200000Y-135949999D01*
X117201204Y-135925495D01*
X117204804Y-135901227D01*
X117210765Y-135877428D01*
X117219030Y-135854329D01*
X117229520Y-135832150D01*
X117242132Y-135811107D01*
X117256747Y-135791401D01*
X117273223Y-135773223D01*
X117291401Y-135756747D01*
X117311107Y-135742132D01*
X117332150Y-135729520D01*
X117354329Y-135719030D01*
X117377428Y-135710765D01*
X117401227Y-135704804D01*
X117425495Y-135701204D01*
X117449999Y-135700000D01*
X118350001Y-135700000D01*
X118374505Y-135701204D01*
X118374505Y-135701204D01*
G37*
D11*
X117900000Y-136275000D03*
D10*
G36*
X134891379Y-108415944D02*
G01*
X134914434Y-108419363D01*
X134937043Y-108425027D01*
X134958987Y-108432879D01*
X134980057Y-108442844D01*
X135000048Y-108454826D01*
X135018768Y-108468710D01*
X135036038Y-108484362D01*
X135051690Y-108501632D01*
X135065574Y-108520352D01*
X135077556Y-108540343D01*
X135087521Y-108561413D01*
X135095373Y-108583357D01*
X135101037Y-108605966D01*
X135104456Y-108629021D01*
X135105600Y-108652300D01*
X135105600Y-109127300D01*
X135104456Y-109150579D01*
X135101037Y-109173634D01*
X135095373Y-109196243D01*
X135087521Y-109218187D01*
X135077556Y-109239257D01*
X135065574Y-109259248D01*
X135051690Y-109277968D01*
X135036038Y-109295238D01*
X135018768Y-109310890D01*
X135000048Y-109324774D01*
X134980057Y-109336756D01*
X134958987Y-109346721D01*
X134937043Y-109354573D01*
X134914434Y-109360237D01*
X134891379Y-109363656D01*
X134868100Y-109364800D01*
X134293100Y-109364800D01*
X134269821Y-109363656D01*
X134246766Y-109360237D01*
X134224157Y-109354573D01*
X134202213Y-109346721D01*
X134181143Y-109336756D01*
X134161152Y-109324774D01*
X134142432Y-109310890D01*
X134125162Y-109295238D01*
X134109510Y-109277968D01*
X134095626Y-109259248D01*
X134083644Y-109239257D01*
X134073679Y-109218187D01*
X134065827Y-109196243D01*
X134060163Y-109173634D01*
X134056744Y-109150579D01*
X134055600Y-109127300D01*
X134055600Y-108652300D01*
X134056744Y-108629021D01*
X134060163Y-108605966D01*
X134065827Y-108583357D01*
X134073679Y-108561413D01*
X134083644Y-108540343D01*
X134095626Y-108520352D01*
X134109510Y-108501632D01*
X134125162Y-108484362D01*
X134142432Y-108468710D01*
X134161152Y-108454826D01*
X134181143Y-108442844D01*
X134202213Y-108432879D01*
X134224157Y-108425027D01*
X134246766Y-108419363D01*
X134269821Y-108415944D01*
X134293100Y-108414800D01*
X134868100Y-108414800D01*
X134891379Y-108415944D01*
X134891379Y-108415944D01*
G37*
D12*
X134580600Y-108889800D03*
D10*
G36*
X133141379Y-108415944D02*
G01*
X133164434Y-108419363D01*
X133187043Y-108425027D01*
X133208987Y-108432879D01*
X133230057Y-108442844D01*
X133250048Y-108454826D01*
X133268768Y-108468710D01*
X133286038Y-108484362D01*
X133301690Y-108501632D01*
X133315574Y-108520352D01*
X133327556Y-108540343D01*
X133337521Y-108561413D01*
X133345373Y-108583357D01*
X133351037Y-108605966D01*
X133354456Y-108629021D01*
X133355600Y-108652300D01*
X133355600Y-109127300D01*
X133354456Y-109150579D01*
X133351037Y-109173634D01*
X133345373Y-109196243D01*
X133337521Y-109218187D01*
X133327556Y-109239257D01*
X133315574Y-109259248D01*
X133301690Y-109277968D01*
X133286038Y-109295238D01*
X133268768Y-109310890D01*
X133250048Y-109324774D01*
X133230057Y-109336756D01*
X133208987Y-109346721D01*
X133187043Y-109354573D01*
X133164434Y-109360237D01*
X133141379Y-109363656D01*
X133118100Y-109364800D01*
X132543100Y-109364800D01*
X132519821Y-109363656D01*
X132496766Y-109360237D01*
X132474157Y-109354573D01*
X132452213Y-109346721D01*
X132431143Y-109336756D01*
X132411152Y-109324774D01*
X132392432Y-109310890D01*
X132375162Y-109295238D01*
X132359510Y-109277968D01*
X132345626Y-109259248D01*
X132333644Y-109239257D01*
X132323679Y-109218187D01*
X132315827Y-109196243D01*
X132310163Y-109173634D01*
X132306744Y-109150579D01*
X132305600Y-109127300D01*
X132305600Y-108652300D01*
X132306744Y-108629021D01*
X132310163Y-108605966D01*
X132315827Y-108583357D01*
X132323679Y-108561413D01*
X132333644Y-108540343D01*
X132345626Y-108520352D01*
X132359510Y-108501632D01*
X132375162Y-108484362D01*
X132392432Y-108468710D01*
X132411152Y-108454826D01*
X132431143Y-108442844D01*
X132452213Y-108432879D01*
X132474157Y-108425027D01*
X132496766Y-108419363D01*
X132519821Y-108415944D01*
X132543100Y-108414800D01*
X133118100Y-108414800D01*
X133141379Y-108415944D01*
X133141379Y-108415944D01*
G37*
D12*
X132830600Y-108889800D03*
D10*
G36*
X119310579Y-117269944D02*
G01*
X119333634Y-117273363D01*
X119356243Y-117279027D01*
X119378187Y-117286879D01*
X119399257Y-117296844D01*
X119419248Y-117308826D01*
X119437968Y-117322710D01*
X119455238Y-117338362D01*
X119470890Y-117355632D01*
X119484774Y-117374352D01*
X119496756Y-117394343D01*
X119506721Y-117415413D01*
X119514573Y-117437357D01*
X119520237Y-117459966D01*
X119523656Y-117483021D01*
X119524800Y-117506300D01*
X119524800Y-118081300D01*
X119523656Y-118104579D01*
X119520237Y-118127634D01*
X119514573Y-118150243D01*
X119506721Y-118172187D01*
X119496756Y-118193257D01*
X119484774Y-118213248D01*
X119470890Y-118231968D01*
X119455238Y-118249238D01*
X119437968Y-118264890D01*
X119419248Y-118278774D01*
X119399257Y-118290756D01*
X119378187Y-118300721D01*
X119356243Y-118308573D01*
X119333634Y-118314237D01*
X119310579Y-118317656D01*
X119287300Y-118318800D01*
X118812300Y-118318800D01*
X118789021Y-118317656D01*
X118765966Y-118314237D01*
X118743357Y-118308573D01*
X118721413Y-118300721D01*
X118700343Y-118290756D01*
X118680352Y-118278774D01*
X118661632Y-118264890D01*
X118644362Y-118249238D01*
X118628710Y-118231968D01*
X118614826Y-118213248D01*
X118602844Y-118193257D01*
X118592879Y-118172187D01*
X118585027Y-118150243D01*
X118579363Y-118127634D01*
X118575944Y-118104579D01*
X118574800Y-118081300D01*
X118574800Y-117506300D01*
X118575944Y-117483021D01*
X118579363Y-117459966D01*
X118585027Y-117437357D01*
X118592879Y-117415413D01*
X118602844Y-117394343D01*
X118614826Y-117374352D01*
X118628710Y-117355632D01*
X118644362Y-117338362D01*
X118661632Y-117322710D01*
X118680352Y-117308826D01*
X118700343Y-117296844D01*
X118721413Y-117286879D01*
X118743357Y-117279027D01*
X118765966Y-117273363D01*
X118789021Y-117269944D01*
X118812300Y-117268800D01*
X119287300Y-117268800D01*
X119310579Y-117269944D01*
X119310579Y-117269944D01*
G37*
D12*
X119049800Y-117793800D03*
D10*
G36*
X119310579Y-119019944D02*
G01*
X119333634Y-119023363D01*
X119356243Y-119029027D01*
X119378187Y-119036879D01*
X119399257Y-119046844D01*
X119419248Y-119058826D01*
X119437968Y-119072710D01*
X119455238Y-119088362D01*
X119470890Y-119105632D01*
X119484774Y-119124352D01*
X119496756Y-119144343D01*
X119506721Y-119165413D01*
X119514573Y-119187357D01*
X119520237Y-119209966D01*
X119523656Y-119233021D01*
X119524800Y-119256300D01*
X119524800Y-119831300D01*
X119523656Y-119854579D01*
X119520237Y-119877634D01*
X119514573Y-119900243D01*
X119506721Y-119922187D01*
X119496756Y-119943257D01*
X119484774Y-119963248D01*
X119470890Y-119981968D01*
X119455238Y-119999238D01*
X119437968Y-120014890D01*
X119419248Y-120028774D01*
X119399257Y-120040756D01*
X119378187Y-120050721D01*
X119356243Y-120058573D01*
X119333634Y-120064237D01*
X119310579Y-120067656D01*
X119287300Y-120068800D01*
X118812300Y-120068800D01*
X118789021Y-120067656D01*
X118765966Y-120064237D01*
X118743357Y-120058573D01*
X118721413Y-120050721D01*
X118700343Y-120040756D01*
X118680352Y-120028774D01*
X118661632Y-120014890D01*
X118644362Y-119999238D01*
X118628710Y-119981968D01*
X118614826Y-119963248D01*
X118602844Y-119943257D01*
X118592879Y-119922187D01*
X118585027Y-119900243D01*
X118579363Y-119877634D01*
X118575944Y-119854579D01*
X118574800Y-119831300D01*
X118574800Y-119256300D01*
X118575944Y-119233021D01*
X118579363Y-119209966D01*
X118585027Y-119187357D01*
X118592879Y-119165413D01*
X118602844Y-119144343D01*
X118614826Y-119124352D01*
X118628710Y-119105632D01*
X118644362Y-119088362D01*
X118661632Y-119072710D01*
X118680352Y-119058826D01*
X118700343Y-119046844D01*
X118721413Y-119036879D01*
X118743357Y-119029027D01*
X118765966Y-119023363D01*
X118789021Y-119019944D01*
X118812300Y-119018800D01*
X119287300Y-119018800D01*
X119310579Y-119019944D01*
X119310579Y-119019944D01*
G37*
D12*
X119049800Y-119543800D03*
D10*
G36*
X139244779Y-132301944D02*
G01*
X139267834Y-132305363D01*
X139290443Y-132311027D01*
X139312387Y-132318879D01*
X139333457Y-132328844D01*
X139353448Y-132340826D01*
X139372168Y-132354710D01*
X139389438Y-132370362D01*
X139405090Y-132387632D01*
X139418974Y-132406352D01*
X139430956Y-132426343D01*
X139440921Y-132447413D01*
X139448773Y-132469357D01*
X139454437Y-132491966D01*
X139457856Y-132515021D01*
X139459000Y-132538300D01*
X139459000Y-133113300D01*
X139457856Y-133136579D01*
X139454437Y-133159634D01*
X139448773Y-133182243D01*
X139440921Y-133204187D01*
X139430956Y-133225257D01*
X139418974Y-133245248D01*
X139405090Y-133263968D01*
X139389438Y-133281238D01*
X139372168Y-133296890D01*
X139353448Y-133310774D01*
X139333457Y-133322756D01*
X139312387Y-133332721D01*
X139290443Y-133340573D01*
X139267834Y-133346237D01*
X139244779Y-133349656D01*
X139221500Y-133350800D01*
X138746500Y-133350800D01*
X138723221Y-133349656D01*
X138700166Y-133346237D01*
X138677557Y-133340573D01*
X138655613Y-133332721D01*
X138634543Y-133322756D01*
X138614552Y-133310774D01*
X138595832Y-133296890D01*
X138578562Y-133281238D01*
X138562910Y-133263968D01*
X138549026Y-133245248D01*
X138537044Y-133225257D01*
X138527079Y-133204187D01*
X138519227Y-133182243D01*
X138513563Y-133159634D01*
X138510144Y-133136579D01*
X138509000Y-133113300D01*
X138509000Y-132538300D01*
X138510144Y-132515021D01*
X138513563Y-132491966D01*
X138519227Y-132469357D01*
X138527079Y-132447413D01*
X138537044Y-132426343D01*
X138549026Y-132406352D01*
X138562910Y-132387632D01*
X138578562Y-132370362D01*
X138595832Y-132354710D01*
X138614552Y-132340826D01*
X138634543Y-132328844D01*
X138655613Y-132318879D01*
X138677557Y-132311027D01*
X138700166Y-132305363D01*
X138723221Y-132301944D01*
X138746500Y-132300800D01*
X139221500Y-132300800D01*
X139244779Y-132301944D01*
X139244779Y-132301944D01*
G37*
D12*
X138984000Y-132825800D03*
D10*
G36*
X139244779Y-130551944D02*
G01*
X139267834Y-130555363D01*
X139290443Y-130561027D01*
X139312387Y-130568879D01*
X139333457Y-130578844D01*
X139353448Y-130590826D01*
X139372168Y-130604710D01*
X139389438Y-130620362D01*
X139405090Y-130637632D01*
X139418974Y-130656352D01*
X139430956Y-130676343D01*
X139440921Y-130697413D01*
X139448773Y-130719357D01*
X139454437Y-130741966D01*
X139457856Y-130765021D01*
X139459000Y-130788300D01*
X139459000Y-131363300D01*
X139457856Y-131386579D01*
X139454437Y-131409634D01*
X139448773Y-131432243D01*
X139440921Y-131454187D01*
X139430956Y-131475257D01*
X139418974Y-131495248D01*
X139405090Y-131513968D01*
X139389438Y-131531238D01*
X139372168Y-131546890D01*
X139353448Y-131560774D01*
X139333457Y-131572756D01*
X139312387Y-131582721D01*
X139290443Y-131590573D01*
X139267834Y-131596237D01*
X139244779Y-131599656D01*
X139221500Y-131600800D01*
X138746500Y-131600800D01*
X138723221Y-131599656D01*
X138700166Y-131596237D01*
X138677557Y-131590573D01*
X138655613Y-131582721D01*
X138634543Y-131572756D01*
X138614552Y-131560774D01*
X138595832Y-131546890D01*
X138578562Y-131531238D01*
X138562910Y-131513968D01*
X138549026Y-131495248D01*
X138537044Y-131475257D01*
X138527079Y-131454187D01*
X138519227Y-131432243D01*
X138513563Y-131409634D01*
X138510144Y-131386579D01*
X138509000Y-131363300D01*
X138509000Y-130788300D01*
X138510144Y-130765021D01*
X138513563Y-130741966D01*
X138519227Y-130719357D01*
X138527079Y-130697413D01*
X138537044Y-130676343D01*
X138549026Y-130656352D01*
X138562910Y-130637632D01*
X138578562Y-130620362D01*
X138595832Y-130604710D01*
X138614552Y-130590826D01*
X138634543Y-130578844D01*
X138655613Y-130568879D01*
X138677557Y-130561027D01*
X138700166Y-130555363D01*
X138723221Y-130551944D01*
X138746500Y-130550800D01*
X139221500Y-130550800D01*
X139244779Y-130551944D01*
X139244779Y-130551944D01*
G37*
D12*
X138984000Y-131075800D03*
D10*
G36*
X130166979Y-98802044D02*
G01*
X130190034Y-98805463D01*
X130212643Y-98811127D01*
X130234587Y-98818979D01*
X130255657Y-98828944D01*
X130275648Y-98840926D01*
X130294368Y-98854810D01*
X130311638Y-98870462D01*
X130327290Y-98887732D01*
X130341174Y-98906452D01*
X130353156Y-98926443D01*
X130363121Y-98947513D01*
X130370973Y-98969457D01*
X130376637Y-98992066D01*
X130380056Y-99015121D01*
X130381200Y-99038400D01*
X130381200Y-99513400D01*
X130380056Y-99536679D01*
X130376637Y-99559734D01*
X130370973Y-99582343D01*
X130363121Y-99604287D01*
X130353156Y-99625357D01*
X130341174Y-99645348D01*
X130327290Y-99664068D01*
X130311638Y-99681338D01*
X130294368Y-99696990D01*
X130275648Y-99710874D01*
X130255657Y-99722856D01*
X130234587Y-99732821D01*
X130212643Y-99740673D01*
X130190034Y-99746337D01*
X130166979Y-99749756D01*
X130143700Y-99750900D01*
X129568700Y-99750900D01*
X129545421Y-99749756D01*
X129522366Y-99746337D01*
X129499757Y-99740673D01*
X129477813Y-99732821D01*
X129456743Y-99722856D01*
X129436752Y-99710874D01*
X129418032Y-99696990D01*
X129400762Y-99681338D01*
X129385110Y-99664068D01*
X129371226Y-99645348D01*
X129359244Y-99625357D01*
X129349279Y-99604287D01*
X129341427Y-99582343D01*
X129335763Y-99559734D01*
X129332344Y-99536679D01*
X129331200Y-99513400D01*
X129331200Y-99038400D01*
X129332344Y-99015121D01*
X129335763Y-98992066D01*
X129341427Y-98969457D01*
X129349279Y-98947513D01*
X129359244Y-98926443D01*
X129371226Y-98906452D01*
X129385110Y-98887732D01*
X129400762Y-98870462D01*
X129418032Y-98854810D01*
X129436752Y-98840926D01*
X129456743Y-98828944D01*
X129477813Y-98818979D01*
X129499757Y-98811127D01*
X129522366Y-98805463D01*
X129545421Y-98802044D01*
X129568700Y-98800900D01*
X130143700Y-98800900D01*
X130166979Y-98802044D01*
X130166979Y-98802044D01*
G37*
D12*
X129856200Y-99275900D03*
D10*
G36*
X128416979Y-98802044D02*
G01*
X128440034Y-98805463D01*
X128462643Y-98811127D01*
X128484587Y-98818979D01*
X128505657Y-98828944D01*
X128525648Y-98840926D01*
X128544368Y-98854810D01*
X128561638Y-98870462D01*
X128577290Y-98887732D01*
X128591174Y-98906452D01*
X128603156Y-98926443D01*
X128613121Y-98947513D01*
X128620973Y-98969457D01*
X128626637Y-98992066D01*
X128630056Y-99015121D01*
X128631200Y-99038400D01*
X128631200Y-99513400D01*
X128630056Y-99536679D01*
X128626637Y-99559734D01*
X128620973Y-99582343D01*
X128613121Y-99604287D01*
X128603156Y-99625357D01*
X128591174Y-99645348D01*
X128577290Y-99664068D01*
X128561638Y-99681338D01*
X128544368Y-99696990D01*
X128525648Y-99710874D01*
X128505657Y-99722856D01*
X128484587Y-99732821D01*
X128462643Y-99740673D01*
X128440034Y-99746337D01*
X128416979Y-99749756D01*
X128393700Y-99750900D01*
X127818700Y-99750900D01*
X127795421Y-99749756D01*
X127772366Y-99746337D01*
X127749757Y-99740673D01*
X127727813Y-99732821D01*
X127706743Y-99722856D01*
X127686752Y-99710874D01*
X127668032Y-99696990D01*
X127650762Y-99681338D01*
X127635110Y-99664068D01*
X127621226Y-99645348D01*
X127609244Y-99625357D01*
X127599279Y-99604287D01*
X127591427Y-99582343D01*
X127585763Y-99559734D01*
X127582344Y-99536679D01*
X127581200Y-99513400D01*
X127581200Y-99038400D01*
X127582344Y-99015121D01*
X127585763Y-98992066D01*
X127591427Y-98969457D01*
X127599279Y-98947513D01*
X127609244Y-98926443D01*
X127621226Y-98906452D01*
X127635110Y-98887732D01*
X127650762Y-98870462D01*
X127668032Y-98854810D01*
X127686752Y-98840926D01*
X127706743Y-98828944D01*
X127727813Y-98818979D01*
X127749757Y-98811127D01*
X127772366Y-98805463D01*
X127795421Y-98802044D01*
X127818700Y-98800900D01*
X128393700Y-98800900D01*
X128416979Y-98802044D01*
X128416979Y-98802044D01*
G37*
D12*
X128106200Y-99275900D03*
D10*
G36*
X126181279Y-104011144D02*
G01*
X126204334Y-104014563D01*
X126226943Y-104020227D01*
X126248887Y-104028079D01*
X126269957Y-104038044D01*
X126289948Y-104050026D01*
X126308668Y-104063910D01*
X126325938Y-104079562D01*
X126341590Y-104096832D01*
X126355474Y-104115552D01*
X126367456Y-104135543D01*
X126377421Y-104156613D01*
X126385273Y-104178557D01*
X126390937Y-104201166D01*
X126394356Y-104224221D01*
X126395500Y-104247500D01*
X126395500Y-104822500D01*
X126394356Y-104845779D01*
X126390937Y-104868834D01*
X126385273Y-104891443D01*
X126377421Y-104913387D01*
X126367456Y-104934457D01*
X126355474Y-104954448D01*
X126341590Y-104973168D01*
X126325938Y-104990438D01*
X126308668Y-105006090D01*
X126289948Y-105019974D01*
X126269957Y-105031956D01*
X126248887Y-105041921D01*
X126226943Y-105049773D01*
X126204334Y-105055437D01*
X126181279Y-105058856D01*
X126158000Y-105060000D01*
X125683000Y-105060000D01*
X125659721Y-105058856D01*
X125636666Y-105055437D01*
X125614057Y-105049773D01*
X125592113Y-105041921D01*
X125571043Y-105031956D01*
X125551052Y-105019974D01*
X125532332Y-105006090D01*
X125515062Y-104990438D01*
X125499410Y-104973168D01*
X125485526Y-104954448D01*
X125473544Y-104934457D01*
X125463579Y-104913387D01*
X125455727Y-104891443D01*
X125450063Y-104868834D01*
X125446644Y-104845779D01*
X125445500Y-104822500D01*
X125445500Y-104247500D01*
X125446644Y-104224221D01*
X125450063Y-104201166D01*
X125455727Y-104178557D01*
X125463579Y-104156613D01*
X125473544Y-104135543D01*
X125485526Y-104115552D01*
X125499410Y-104096832D01*
X125515062Y-104079562D01*
X125532332Y-104063910D01*
X125551052Y-104050026D01*
X125571043Y-104038044D01*
X125592113Y-104028079D01*
X125614057Y-104020227D01*
X125636666Y-104014563D01*
X125659721Y-104011144D01*
X125683000Y-104010000D01*
X126158000Y-104010000D01*
X126181279Y-104011144D01*
X126181279Y-104011144D01*
G37*
D12*
X125920500Y-104535000D03*
D10*
G36*
X126181279Y-105761144D02*
G01*
X126204334Y-105764563D01*
X126226943Y-105770227D01*
X126248887Y-105778079D01*
X126269957Y-105788044D01*
X126289948Y-105800026D01*
X126308668Y-105813910D01*
X126325938Y-105829562D01*
X126341590Y-105846832D01*
X126355474Y-105865552D01*
X126367456Y-105885543D01*
X126377421Y-105906613D01*
X126385273Y-105928557D01*
X126390937Y-105951166D01*
X126394356Y-105974221D01*
X126395500Y-105997500D01*
X126395500Y-106572500D01*
X126394356Y-106595779D01*
X126390937Y-106618834D01*
X126385273Y-106641443D01*
X126377421Y-106663387D01*
X126367456Y-106684457D01*
X126355474Y-106704448D01*
X126341590Y-106723168D01*
X126325938Y-106740438D01*
X126308668Y-106756090D01*
X126289948Y-106769974D01*
X126269957Y-106781956D01*
X126248887Y-106791921D01*
X126226943Y-106799773D01*
X126204334Y-106805437D01*
X126181279Y-106808856D01*
X126158000Y-106810000D01*
X125683000Y-106810000D01*
X125659721Y-106808856D01*
X125636666Y-106805437D01*
X125614057Y-106799773D01*
X125592113Y-106791921D01*
X125571043Y-106781956D01*
X125551052Y-106769974D01*
X125532332Y-106756090D01*
X125515062Y-106740438D01*
X125499410Y-106723168D01*
X125485526Y-106704448D01*
X125473544Y-106684457D01*
X125463579Y-106663387D01*
X125455727Y-106641443D01*
X125450063Y-106618834D01*
X125446644Y-106595779D01*
X125445500Y-106572500D01*
X125445500Y-105997500D01*
X125446644Y-105974221D01*
X125450063Y-105951166D01*
X125455727Y-105928557D01*
X125463579Y-105906613D01*
X125473544Y-105885543D01*
X125485526Y-105865552D01*
X125499410Y-105846832D01*
X125515062Y-105829562D01*
X125532332Y-105813910D01*
X125551052Y-105800026D01*
X125571043Y-105788044D01*
X125592113Y-105778079D01*
X125614057Y-105770227D01*
X125636666Y-105764563D01*
X125659721Y-105761144D01*
X125683000Y-105760000D01*
X126158000Y-105760000D01*
X126181279Y-105761144D01*
X126181279Y-105761144D01*
G37*
D12*
X125920500Y-106285000D03*
D10*
G36*
X130166979Y-103678844D02*
G01*
X130190034Y-103682263D01*
X130212643Y-103687927D01*
X130234587Y-103695779D01*
X130255657Y-103705744D01*
X130275648Y-103717726D01*
X130294368Y-103731610D01*
X130311638Y-103747262D01*
X130327290Y-103764532D01*
X130341174Y-103783252D01*
X130353156Y-103803243D01*
X130363121Y-103824313D01*
X130370973Y-103846257D01*
X130376637Y-103868866D01*
X130380056Y-103891921D01*
X130381200Y-103915200D01*
X130381200Y-104390200D01*
X130380056Y-104413479D01*
X130376637Y-104436534D01*
X130370973Y-104459143D01*
X130363121Y-104481087D01*
X130353156Y-104502157D01*
X130341174Y-104522148D01*
X130327290Y-104540868D01*
X130311638Y-104558138D01*
X130294368Y-104573790D01*
X130275648Y-104587674D01*
X130255657Y-104599656D01*
X130234587Y-104609621D01*
X130212643Y-104617473D01*
X130190034Y-104623137D01*
X130166979Y-104626556D01*
X130143700Y-104627700D01*
X129568700Y-104627700D01*
X129545421Y-104626556D01*
X129522366Y-104623137D01*
X129499757Y-104617473D01*
X129477813Y-104609621D01*
X129456743Y-104599656D01*
X129436752Y-104587674D01*
X129418032Y-104573790D01*
X129400762Y-104558138D01*
X129385110Y-104540868D01*
X129371226Y-104522148D01*
X129359244Y-104502157D01*
X129349279Y-104481087D01*
X129341427Y-104459143D01*
X129335763Y-104436534D01*
X129332344Y-104413479D01*
X129331200Y-104390200D01*
X129331200Y-103915200D01*
X129332344Y-103891921D01*
X129335763Y-103868866D01*
X129341427Y-103846257D01*
X129349279Y-103824313D01*
X129359244Y-103803243D01*
X129371226Y-103783252D01*
X129385110Y-103764532D01*
X129400762Y-103747262D01*
X129418032Y-103731610D01*
X129436752Y-103717726D01*
X129456743Y-103705744D01*
X129477813Y-103695779D01*
X129499757Y-103687927D01*
X129522366Y-103682263D01*
X129545421Y-103678844D01*
X129568700Y-103677700D01*
X130143700Y-103677700D01*
X130166979Y-103678844D01*
X130166979Y-103678844D01*
G37*
D12*
X129856200Y-104152700D03*
D10*
G36*
X128416979Y-103678844D02*
G01*
X128440034Y-103682263D01*
X128462643Y-103687927D01*
X128484587Y-103695779D01*
X128505657Y-103705744D01*
X128525648Y-103717726D01*
X128544368Y-103731610D01*
X128561638Y-103747262D01*
X128577290Y-103764532D01*
X128591174Y-103783252D01*
X128603156Y-103803243D01*
X128613121Y-103824313D01*
X128620973Y-103846257D01*
X128626637Y-103868866D01*
X128630056Y-103891921D01*
X128631200Y-103915200D01*
X128631200Y-104390200D01*
X128630056Y-104413479D01*
X128626637Y-104436534D01*
X128620973Y-104459143D01*
X128613121Y-104481087D01*
X128603156Y-104502157D01*
X128591174Y-104522148D01*
X128577290Y-104540868D01*
X128561638Y-104558138D01*
X128544368Y-104573790D01*
X128525648Y-104587674D01*
X128505657Y-104599656D01*
X128484587Y-104609621D01*
X128462643Y-104617473D01*
X128440034Y-104623137D01*
X128416979Y-104626556D01*
X128393700Y-104627700D01*
X127818700Y-104627700D01*
X127795421Y-104626556D01*
X127772366Y-104623137D01*
X127749757Y-104617473D01*
X127727813Y-104609621D01*
X127706743Y-104599656D01*
X127686752Y-104587674D01*
X127668032Y-104573790D01*
X127650762Y-104558138D01*
X127635110Y-104540868D01*
X127621226Y-104522148D01*
X127609244Y-104502157D01*
X127599279Y-104481087D01*
X127591427Y-104459143D01*
X127585763Y-104436534D01*
X127582344Y-104413479D01*
X127581200Y-104390200D01*
X127581200Y-103915200D01*
X127582344Y-103891921D01*
X127585763Y-103868866D01*
X127591427Y-103846257D01*
X127599279Y-103824313D01*
X127609244Y-103803243D01*
X127621226Y-103783252D01*
X127635110Y-103764532D01*
X127650762Y-103747262D01*
X127668032Y-103731610D01*
X127686752Y-103717726D01*
X127706743Y-103705744D01*
X127727813Y-103695779D01*
X127749757Y-103687927D01*
X127772366Y-103682263D01*
X127795421Y-103678844D01*
X127818700Y-103677700D01*
X128393700Y-103677700D01*
X128416979Y-103678844D01*
X128416979Y-103678844D01*
G37*
D12*
X128106200Y-104152700D03*
D10*
G36*
X137710779Y-132351144D02*
G01*
X137733834Y-132354563D01*
X137756443Y-132360227D01*
X137778387Y-132368079D01*
X137799457Y-132378044D01*
X137819448Y-132390026D01*
X137838168Y-132403910D01*
X137855438Y-132419562D01*
X137871090Y-132436832D01*
X137884974Y-132455552D01*
X137896956Y-132475543D01*
X137906921Y-132496613D01*
X137914773Y-132518557D01*
X137920437Y-132541166D01*
X137923856Y-132564221D01*
X137925000Y-132587500D01*
X137925000Y-133162500D01*
X137923856Y-133185779D01*
X137920437Y-133208834D01*
X137914773Y-133231443D01*
X137906921Y-133253387D01*
X137896956Y-133274457D01*
X137884974Y-133294448D01*
X137871090Y-133313168D01*
X137855438Y-133330438D01*
X137838168Y-133346090D01*
X137819448Y-133359974D01*
X137799457Y-133371956D01*
X137778387Y-133381921D01*
X137756443Y-133389773D01*
X137733834Y-133395437D01*
X137710779Y-133398856D01*
X137687500Y-133400000D01*
X137212500Y-133400000D01*
X137189221Y-133398856D01*
X137166166Y-133395437D01*
X137143557Y-133389773D01*
X137121613Y-133381921D01*
X137100543Y-133371956D01*
X137080552Y-133359974D01*
X137061832Y-133346090D01*
X137044562Y-133330438D01*
X137028910Y-133313168D01*
X137015026Y-133294448D01*
X137003044Y-133274457D01*
X136993079Y-133253387D01*
X136985227Y-133231443D01*
X136979563Y-133208834D01*
X136976144Y-133185779D01*
X136975000Y-133162500D01*
X136975000Y-132587500D01*
X136976144Y-132564221D01*
X136979563Y-132541166D01*
X136985227Y-132518557D01*
X136993079Y-132496613D01*
X137003044Y-132475543D01*
X137015026Y-132455552D01*
X137028910Y-132436832D01*
X137044562Y-132419562D01*
X137061832Y-132403910D01*
X137080552Y-132390026D01*
X137100543Y-132378044D01*
X137121613Y-132368079D01*
X137143557Y-132360227D01*
X137166166Y-132354563D01*
X137189221Y-132351144D01*
X137212500Y-132350000D01*
X137687500Y-132350000D01*
X137710779Y-132351144D01*
X137710779Y-132351144D01*
G37*
D12*
X137450000Y-132875000D03*
D10*
G36*
X137710779Y-130601144D02*
G01*
X137733834Y-130604563D01*
X137756443Y-130610227D01*
X137778387Y-130618079D01*
X137799457Y-130628044D01*
X137819448Y-130640026D01*
X137838168Y-130653910D01*
X137855438Y-130669562D01*
X137871090Y-130686832D01*
X137884974Y-130705552D01*
X137896956Y-130725543D01*
X137906921Y-130746613D01*
X137914773Y-130768557D01*
X137920437Y-130791166D01*
X137923856Y-130814221D01*
X137925000Y-130837500D01*
X137925000Y-131412500D01*
X137923856Y-131435779D01*
X137920437Y-131458834D01*
X137914773Y-131481443D01*
X137906921Y-131503387D01*
X137896956Y-131524457D01*
X137884974Y-131544448D01*
X137871090Y-131563168D01*
X137855438Y-131580438D01*
X137838168Y-131596090D01*
X137819448Y-131609974D01*
X137799457Y-131621956D01*
X137778387Y-131631921D01*
X137756443Y-131639773D01*
X137733834Y-131645437D01*
X137710779Y-131648856D01*
X137687500Y-131650000D01*
X137212500Y-131650000D01*
X137189221Y-131648856D01*
X137166166Y-131645437D01*
X137143557Y-131639773D01*
X137121613Y-131631921D01*
X137100543Y-131621956D01*
X137080552Y-131609974D01*
X137061832Y-131596090D01*
X137044562Y-131580438D01*
X137028910Y-131563168D01*
X137015026Y-131544448D01*
X137003044Y-131524457D01*
X136993079Y-131503387D01*
X136985227Y-131481443D01*
X136979563Y-131458834D01*
X136976144Y-131435779D01*
X136975000Y-131412500D01*
X136975000Y-130837500D01*
X136976144Y-130814221D01*
X136979563Y-130791166D01*
X136985227Y-130768557D01*
X136993079Y-130746613D01*
X137003044Y-130725543D01*
X137015026Y-130705552D01*
X137028910Y-130686832D01*
X137044562Y-130669562D01*
X137061832Y-130653910D01*
X137080552Y-130640026D01*
X137100543Y-130628044D01*
X137121613Y-130618079D01*
X137143557Y-130610227D01*
X137166166Y-130604563D01*
X137189221Y-130601144D01*
X137212500Y-130600000D01*
X137687500Y-130600000D01*
X137710779Y-130601144D01*
X137710779Y-130601144D01*
G37*
D12*
X137450000Y-131125000D03*
D10*
G36*
X133037179Y-106891944D02*
G01*
X133060234Y-106895363D01*
X133082843Y-106901027D01*
X133104787Y-106908879D01*
X133125857Y-106918844D01*
X133145848Y-106930826D01*
X133164568Y-106944710D01*
X133181838Y-106960362D01*
X133197490Y-106977632D01*
X133211374Y-106996352D01*
X133223356Y-107016343D01*
X133233321Y-107037413D01*
X133241173Y-107059357D01*
X133246837Y-107081966D01*
X133250256Y-107105021D01*
X133251400Y-107128300D01*
X133251400Y-107603300D01*
X133250256Y-107626579D01*
X133246837Y-107649634D01*
X133241173Y-107672243D01*
X133233321Y-107694187D01*
X133223356Y-107715257D01*
X133211374Y-107735248D01*
X133197490Y-107753968D01*
X133181838Y-107771238D01*
X133164568Y-107786890D01*
X133145848Y-107800774D01*
X133125857Y-107812756D01*
X133104787Y-107822721D01*
X133082843Y-107830573D01*
X133060234Y-107836237D01*
X133037179Y-107839656D01*
X133013900Y-107840800D01*
X132438900Y-107840800D01*
X132415621Y-107839656D01*
X132392566Y-107836237D01*
X132369957Y-107830573D01*
X132348013Y-107822721D01*
X132326943Y-107812756D01*
X132306952Y-107800774D01*
X132288232Y-107786890D01*
X132270962Y-107771238D01*
X132255310Y-107753968D01*
X132241426Y-107735248D01*
X132229444Y-107715257D01*
X132219479Y-107694187D01*
X132211627Y-107672243D01*
X132205963Y-107649634D01*
X132202544Y-107626579D01*
X132201400Y-107603300D01*
X132201400Y-107128300D01*
X132202544Y-107105021D01*
X132205963Y-107081966D01*
X132211627Y-107059357D01*
X132219479Y-107037413D01*
X132229444Y-107016343D01*
X132241426Y-106996352D01*
X132255310Y-106977632D01*
X132270962Y-106960362D01*
X132288232Y-106944710D01*
X132306952Y-106930826D01*
X132326943Y-106918844D01*
X132348013Y-106908879D01*
X132369957Y-106901027D01*
X132392566Y-106895363D01*
X132415621Y-106891944D01*
X132438900Y-106890800D01*
X133013900Y-106890800D01*
X133037179Y-106891944D01*
X133037179Y-106891944D01*
G37*
D12*
X132726400Y-107365800D03*
D10*
G36*
X131287179Y-106891944D02*
G01*
X131310234Y-106895363D01*
X131332843Y-106901027D01*
X131354787Y-106908879D01*
X131375857Y-106918844D01*
X131395848Y-106930826D01*
X131414568Y-106944710D01*
X131431838Y-106960362D01*
X131447490Y-106977632D01*
X131461374Y-106996352D01*
X131473356Y-107016343D01*
X131483321Y-107037413D01*
X131491173Y-107059357D01*
X131496837Y-107081966D01*
X131500256Y-107105021D01*
X131501400Y-107128300D01*
X131501400Y-107603300D01*
X131500256Y-107626579D01*
X131496837Y-107649634D01*
X131491173Y-107672243D01*
X131483321Y-107694187D01*
X131473356Y-107715257D01*
X131461374Y-107735248D01*
X131447490Y-107753968D01*
X131431838Y-107771238D01*
X131414568Y-107786890D01*
X131395848Y-107800774D01*
X131375857Y-107812756D01*
X131354787Y-107822721D01*
X131332843Y-107830573D01*
X131310234Y-107836237D01*
X131287179Y-107839656D01*
X131263900Y-107840800D01*
X130688900Y-107840800D01*
X130665621Y-107839656D01*
X130642566Y-107836237D01*
X130619957Y-107830573D01*
X130598013Y-107822721D01*
X130576943Y-107812756D01*
X130556952Y-107800774D01*
X130538232Y-107786890D01*
X130520962Y-107771238D01*
X130505310Y-107753968D01*
X130491426Y-107735248D01*
X130479444Y-107715257D01*
X130469479Y-107694187D01*
X130461627Y-107672243D01*
X130455963Y-107649634D01*
X130452544Y-107626579D01*
X130451400Y-107603300D01*
X130451400Y-107128300D01*
X130452544Y-107105021D01*
X130455963Y-107081966D01*
X130461627Y-107059357D01*
X130469479Y-107037413D01*
X130479444Y-107016343D01*
X130491426Y-106996352D01*
X130505310Y-106977632D01*
X130520962Y-106960362D01*
X130538232Y-106944710D01*
X130556952Y-106930826D01*
X130576943Y-106918844D01*
X130598013Y-106908879D01*
X130619957Y-106901027D01*
X130642566Y-106895363D01*
X130665621Y-106891944D01*
X130688900Y-106890800D01*
X131263900Y-106890800D01*
X131287179Y-106891944D01*
X131287179Y-106891944D01*
G37*
D12*
X130976400Y-107365800D03*
D10*
G36*
X118460179Y-111463944D02*
G01*
X118483234Y-111467363D01*
X118505843Y-111473027D01*
X118527787Y-111480879D01*
X118548857Y-111490844D01*
X118568848Y-111502826D01*
X118587568Y-111516710D01*
X118604838Y-111532362D01*
X118620490Y-111549632D01*
X118634374Y-111568352D01*
X118646356Y-111588343D01*
X118656321Y-111609413D01*
X118664173Y-111631357D01*
X118669837Y-111653966D01*
X118673256Y-111677021D01*
X118674400Y-111700300D01*
X118674400Y-112175300D01*
X118673256Y-112198579D01*
X118669837Y-112221634D01*
X118664173Y-112244243D01*
X118656321Y-112266187D01*
X118646356Y-112287257D01*
X118634374Y-112307248D01*
X118620490Y-112325968D01*
X118604838Y-112343238D01*
X118587568Y-112358890D01*
X118568848Y-112372774D01*
X118548857Y-112384756D01*
X118527787Y-112394721D01*
X118505843Y-112402573D01*
X118483234Y-112408237D01*
X118460179Y-112411656D01*
X118436900Y-112412800D01*
X117861900Y-112412800D01*
X117838621Y-112411656D01*
X117815566Y-112408237D01*
X117792957Y-112402573D01*
X117771013Y-112394721D01*
X117749943Y-112384756D01*
X117729952Y-112372774D01*
X117711232Y-112358890D01*
X117693962Y-112343238D01*
X117678310Y-112325968D01*
X117664426Y-112307248D01*
X117652444Y-112287257D01*
X117642479Y-112266187D01*
X117634627Y-112244243D01*
X117628963Y-112221634D01*
X117625544Y-112198579D01*
X117624400Y-112175300D01*
X117624400Y-111700300D01*
X117625544Y-111677021D01*
X117628963Y-111653966D01*
X117634627Y-111631357D01*
X117642479Y-111609413D01*
X117652444Y-111588343D01*
X117664426Y-111568352D01*
X117678310Y-111549632D01*
X117693962Y-111532362D01*
X117711232Y-111516710D01*
X117729952Y-111502826D01*
X117749943Y-111490844D01*
X117771013Y-111480879D01*
X117792957Y-111473027D01*
X117815566Y-111467363D01*
X117838621Y-111463944D01*
X117861900Y-111462800D01*
X118436900Y-111462800D01*
X118460179Y-111463944D01*
X118460179Y-111463944D01*
G37*
D12*
X118149400Y-111937800D03*
D10*
G36*
X120210179Y-111463944D02*
G01*
X120233234Y-111467363D01*
X120255843Y-111473027D01*
X120277787Y-111480879D01*
X120298857Y-111490844D01*
X120318848Y-111502826D01*
X120337568Y-111516710D01*
X120354838Y-111532362D01*
X120370490Y-111549632D01*
X120384374Y-111568352D01*
X120396356Y-111588343D01*
X120406321Y-111609413D01*
X120414173Y-111631357D01*
X120419837Y-111653966D01*
X120423256Y-111677021D01*
X120424400Y-111700300D01*
X120424400Y-112175300D01*
X120423256Y-112198579D01*
X120419837Y-112221634D01*
X120414173Y-112244243D01*
X120406321Y-112266187D01*
X120396356Y-112287257D01*
X120384374Y-112307248D01*
X120370490Y-112325968D01*
X120354838Y-112343238D01*
X120337568Y-112358890D01*
X120318848Y-112372774D01*
X120298857Y-112384756D01*
X120277787Y-112394721D01*
X120255843Y-112402573D01*
X120233234Y-112408237D01*
X120210179Y-112411656D01*
X120186900Y-112412800D01*
X119611900Y-112412800D01*
X119588621Y-112411656D01*
X119565566Y-112408237D01*
X119542957Y-112402573D01*
X119521013Y-112394721D01*
X119499943Y-112384756D01*
X119479952Y-112372774D01*
X119461232Y-112358890D01*
X119443962Y-112343238D01*
X119428310Y-112325968D01*
X119414426Y-112307248D01*
X119402444Y-112287257D01*
X119392479Y-112266187D01*
X119384627Y-112244243D01*
X119378963Y-112221634D01*
X119375544Y-112198579D01*
X119374400Y-112175300D01*
X119374400Y-111700300D01*
X119375544Y-111677021D01*
X119378963Y-111653966D01*
X119384627Y-111631357D01*
X119392479Y-111609413D01*
X119402444Y-111588343D01*
X119414426Y-111568352D01*
X119428310Y-111549632D01*
X119443962Y-111532362D01*
X119461232Y-111516710D01*
X119479952Y-111502826D01*
X119499943Y-111490844D01*
X119521013Y-111480879D01*
X119542957Y-111473027D01*
X119565566Y-111467363D01*
X119588621Y-111463944D01*
X119611900Y-111462800D01*
X120186900Y-111462800D01*
X120210179Y-111463944D01*
X120210179Y-111463944D01*
G37*
D12*
X119899400Y-111937800D03*
D10*
G36*
X129648379Y-118054744D02*
G01*
X129671434Y-118058163D01*
X129694043Y-118063827D01*
X129715987Y-118071679D01*
X129737057Y-118081644D01*
X129757048Y-118093626D01*
X129775768Y-118107510D01*
X129793038Y-118123162D01*
X129808690Y-118140432D01*
X129822574Y-118159152D01*
X129834556Y-118179143D01*
X129844521Y-118200213D01*
X129852373Y-118222157D01*
X129858037Y-118244766D01*
X129861456Y-118267821D01*
X129862600Y-118291100D01*
X129862600Y-118866100D01*
X129861456Y-118889379D01*
X129858037Y-118912434D01*
X129852373Y-118935043D01*
X129844521Y-118956987D01*
X129834556Y-118978057D01*
X129822574Y-118998048D01*
X129808690Y-119016768D01*
X129793038Y-119034038D01*
X129775768Y-119049690D01*
X129757048Y-119063574D01*
X129737057Y-119075556D01*
X129715987Y-119085521D01*
X129694043Y-119093373D01*
X129671434Y-119099037D01*
X129648379Y-119102456D01*
X129625100Y-119103600D01*
X129150100Y-119103600D01*
X129126821Y-119102456D01*
X129103766Y-119099037D01*
X129081157Y-119093373D01*
X129059213Y-119085521D01*
X129038143Y-119075556D01*
X129018152Y-119063574D01*
X128999432Y-119049690D01*
X128982162Y-119034038D01*
X128966510Y-119016768D01*
X128952626Y-118998048D01*
X128940644Y-118978057D01*
X128930679Y-118956987D01*
X128922827Y-118935043D01*
X128917163Y-118912434D01*
X128913744Y-118889379D01*
X128912600Y-118866100D01*
X128912600Y-118291100D01*
X128913744Y-118267821D01*
X128917163Y-118244766D01*
X128922827Y-118222157D01*
X128930679Y-118200213D01*
X128940644Y-118179143D01*
X128952626Y-118159152D01*
X128966510Y-118140432D01*
X128982162Y-118123162D01*
X128999432Y-118107510D01*
X129018152Y-118093626D01*
X129038143Y-118081644D01*
X129059213Y-118071679D01*
X129081157Y-118063827D01*
X129103766Y-118058163D01*
X129126821Y-118054744D01*
X129150100Y-118053600D01*
X129625100Y-118053600D01*
X129648379Y-118054744D01*
X129648379Y-118054744D01*
G37*
D12*
X129387600Y-118578600D03*
D10*
G36*
X129648379Y-116304744D02*
G01*
X129671434Y-116308163D01*
X129694043Y-116313827D01*
X129715987Y-116321679D01*
X129737057Y-116331644D01*
X129757048Y-116343626D01*
X129775768Y-116357510D01*
X129793038Y-116373162D01*
X129808690Y-116390432D01*
X129822574Y-116409152D01*
X129834556Y-116429143D01*
X129844521Y-116450213D01*
X129852373Y-116472157D01*
X129858037Y-116494766D01*
X129861456Y-116517821D01*
X129862600Y-116541100D01*
X129862600Y-117116100D01*
X129861456Y-117139379D01*
X129858037Y-117162434D01*
X129852373Y-117185043D01*
X129844521Y-117206987D01*
X129834556Y-117228057D01*
X129822574Y-117248048D01*
X129808690Y-117266768D01*
X129793038Y-117284038D01*
X129775768Y-117299690D01*
X129757048Y-117313574D01*
X129737057Y-117325556D01*
X129715987Y-117335521D01*
X129694043Y-117343373D01*
X129671434Y-117349037D01*
X129648379Y-117352456D01*
X129625100Y-117353600D01*
X129150100Y-117353600D01*
X129126821Y-117352456D01*
X129103766Y-117349037D01*
X129081157Y-117343373D01*
X129059213Y-117335521D01*
X129038143Y-117325556D01*
X129018152Y-117313574D01*
X128999432Y-117299690D01*
X128982162Y-117284038D01*
X128966510Y-117266768D01*
X128952626Y-117248048D01*
X128940644Y-117228057D01*
X128930679Y-117206987D01*
X128922827Y-117185043D01*
X128917163Y-117162434D01*
X128913744Y-117139379D01*
X128912600Y-117116100D01*
X128912600Y-116541100D01*
X128913744Y-116517821D01*
X128917163Y-116494766D01*
X128922827Y-116472157D01*
X128930679Y-116450213D01*
X128940644Y-116429143D01*
X128952626Y-116409152D01*
X128966510Y-116390432D01*
X128982162Y-116373162D01*
X128999432Y-116357510D01*
X129018152Y-116343626D01*
X129038143Y-116331644D01*
X129059213Y-116321679D01*
X129081157Y-116313827D01*
X129103766Y-116308163D01*
X129126821Y-116304744D01*
X129150100Y-116303600D01*
X129625100Y-116303600D01*
X129648379Y-116304744D01*
X129648379Y-116304744D01*
G37*
D12*
X129387600Y-116828600D03*
D10*
G36*
X134879979Y-109939944D02*
G01*
X134903034Y-109943363D01*
X134925643Y-109949027D01*
X134947587Y-109956879D01*
X134968657Y-109966844D01*
X134988648Y-109978826D01*
X135007368Y-109992710D01*
X135024638Y-110008362D01*
X135040290Y-110025632D01*
X135054174Y-110044352D01*
X135066156Y-110064343D01*
X135076121Y-110085413D01*
X135083973Y-110107357D01*
X135089637Y-110129966D01*
X135093056Y-110153021D01*
X135094200Y-110176300D01*
X135094200Y-110651300D01*
X135093056Y-110674579D01*
X135089637Y-110697634D01*
X135083973Y-110720243D01*
X135076121Y-110742187D01*
X135066156Y-110763257D01*
X135054174Y-110783248D01*
X135040290Y-110801968D01*
X135024638Y-110819238D01*
X135007368Y-110834890D01*
X134988648Y-110848774D01*
X134968657Y-110860756D01*
X134947587Y-110870721D01*
X134925643Y-110878573D01*
X134903034Y-110884237D01*
X134879979Y-110887656D01*
X134856700Y-110888800D01*
X134281700Y-110888800D01*
X134258421Y-110887656D01*
X134235366Y-110884237D01*
X134212757Y-110878573D01*
X134190813Y-110870721D01*
X134169743Y-110860756D01*
X134149752Y-110848774D01*
X134131032Y-110834890D01*
X134113762Y-110819238D01*
X134098110Y-110801968D01*
X134084226Y-110783248D01*
X134072244Y-110763257D01*
X134062279Y-110742187D01*
X134054427Y-110720243D01*
X134048763Y-110697634D01*
X134045344Y-110674579D01*
X134044200Y-110651300D01*
X134044200Y-110176300D01*
X134045344Y-110153021D01*
X134048763Y-110129966D01*
X134054427Y-110107357D01*
X134062279Y-110085413D01*
X134072244Y-110064343D01*
X134084226Y-110044352D01*
X134098110Y-110025632D01*
X134113762Y-110008362D01*
X134131032Y-109992710D01*
X134149752Y-109978826D01*
X134169743Y-109966844D01*
X134190813Y-109956879D01*
X134212757Y-109949027D01*
X134235366Y-109943363D01*
X134258421Y-109939944D01*
X134281700Y-109938800D01*
X134856700Y-109938800D01*
X134879979Y-109939944D01*
X134879979Y-109939944D01*
G37*
D12*
X134569200Y-110413800D03*
D10*
G36*
X133129979Y-109939944D02*
G01*
X133153034Y-109943363D01*
X133175643Y-109949027D01*
X133197587Y-109956879D01*
X133218657Y-109966844D01*
X133238648Y-109978826D01*
X133257368Y-109992710D01*
X133274638Y-110008362D01*
X133290290Y-110025632D01*
X133304174Y-110044352D01*
X133316156Y-110064343D01*
X133326121Y-110085413D01*
X133333973Y-110107357D01*
X133339637Y-110129966D01*
X133343056Y-110153021D01*
X133344200Y-110176300D01*
X133344200Y-110651300D01*
X133343056Y-110674579D01*
X133339637Y-110697634D01*
X133333973Y-110720243D01*
X133326121Y-110742187D01*
X133316156Y-110763257D01*
X133304174Y-110783248D01*
X133290290Y-110801968D01*
X133274638Y-110819238D01*
X133257368Y-110834890D01*
X133238648Y-110848774D01*
X133218657Y-110860756D01*
X133197587Y-110870721D01*
X133175643Y-110878573D01*
X133153034Y-110884237D01*
X133129979Y-110887656D01*
X133106700Y-110888800D01*
X132531700Y-110888800D01*
X132508421Y-110887656D01*
X132485366Y-110884237D01*
X132462757Y-110878573D01*
X132440813Y-110870721D01*
X132419743Y-110860756D01*
X132399752Y-110848774D01*
X132381032Y-110834890D01*
X132363762Y-110819238D01*
X132348110Y-110801968D01*
X132334226Y-110783248D01*
X132322244Y-110763257D01*
X132312279Y-110742187D01*
X132304427Y-110720243D01*
X132298763Y-110697634D01*
X132295344Y-110674579D01*
X132294200Y-110651300D01*
X132294200Y-110176300D01*
X132295344Y-110153021D01*
X132298763Y-110129966D01*
X132304427Y-110107357D01*
X132312279Y-110085413D01*
X132322244Y-110064343D01*
X132334226Y-110044352D01*
X132348110Y-110025632D01*
X132363762Y-110008362D01*
X132381032Y-109992710D01*
X132399752Y-109978826D01*
X132419743Y-109966844D01*
X132440813Y-109956879D01*
X132462757Y-109949027D01*
X132485366Y-109943363D01*
X132508421Y-109939944D01*
X132531700Y-109938800D01*
X133106700Y-109938800D01*
X133129979Y-109939944D01*
X133129979Y-109939944D01*
G37*
D12*
X132819200Y-110413800D03*
D10*
G36*
X129802579Y-137904844D02*
G01*
X129825634Y-137908263D01*
X129848243Y-137913927D01*
X129870187Y-137921779D01*
X129891257Y-137931744D01*
X129911248Y-137943726D01*
X129929968Y-137957610D01*
X129947238Y-137973262D01*
X129962890Y-137990532D01*
X129976774Y-138009252D01*
X129988756Y-138029243D01*
X129998721Y-138050313D01*
X130006573Y-138072257D01*
X130012237Y-138094866D01*
X130015656Y-138117921D01*
X130016800Y-138141200D01*
X130016800Y-138716200D01*
X130015656Y-138739479D01*
X130012237Y-138762534D01*
X130006573Y-138785143D01*
X129998721Y-138807087D01*
X129988756Y-138828157D01*
X129976774Y-138848148D01*
X129962890Y-138866868D01*
X129947238Y-138884138D01*
X129929968Y-138899790D01*
X129911248Y-138913674D01*
X129891257Y-138925656D01*
X129870187Y-138935621D01*
X129848243Y-138943473D01*
X129825634Y-138949137D01*
X129802579Y-138952556D01*
X129779300Y-138953700D01*
X129304300Y-138953700D01*
X129281021Y-138952556D01*
X129257966Y-138949137D01*
X129235357Y-138943473D01*
X129213413Y-138935621D01*
X129192343Y-138925656D01*
X129172352Y-138913674D01*
X129153632Y-138899790D01*
X129136362Y-138884138D01*
X129120710Y-138866868D01*
X129106826Y-138848148D01*
X129094844Y-138828157D01*
X129084879Y-138807087D01*
X129077027Y-138785143D01*
X129071363Y-138762534D01*
X129067944Y-138739479D01*
X129066800Y-138716200D01*
X129066800Y-138141200D01*
X129067944Y-138117921D01*
X129071363Y-138094866D01*
X129077027Y-138072257D01*
X129084879Y-138050313D01*
X129094844Y-138029243D01*
X129106826Y-138009252D01*
X129120710Y-137990532D01*
X129136362Y-137973262D01*
X129153632Y-137957610D01*
X129172352Y-137943726D01*
X129192343Y-137931744D01*
X129213413Y-137921779D01*
X129235357Y-137913927D01*
X129257966Y-137908263D01*
X129281021Y-137904844D01*
X129304300Y-137903700D01*
X129779300Y-137903700D01*
X129802579Y-137904844D01*
X129802579Y-137904844D01*
G37*
D12*
X129541800Y-138428700D03*
D10*
G36*
X129802579Y-136154844D02*
G01*
X129825634Y-136158263D01*
X129848243Y-136163927D01*
X129870187Y-136171779D01*
X129891257Y-136181744D01*
X129911248Y-136193726D01*
X129929968Y-136207610D01*
X129947238Y-136223262D01*
X129962890Y-136240532D01*
X129976774Y-136259252D01*
X129988756Y-136279243D01*
X129998721Y-136300313D01*
X130006573Y-136322257D01*
X130012237Y-136344866D01*
X130015656Y-136367921D01*
X130016800Y-136391200D01*
X130016800Y-136966200D01*
X130015656Y-136989479D01*
X130012237Y-137012534D01*
X130006573Y-137035143D01*
X129998721Y-137057087D01*
X129988756Y-137078157D01*
X129976774Y-137098148D01*
X129962890Y-137116868D01*
X129947238Y-137134138D01*
X129929968Y-137149790D01*
X129911248Y-137163674D01*
X129891257Y-137175656D01*
X129870187Y-137185621D01*
X129848243Y-137193473D01*
X129825634Y-137199137D01*
X129802579Y-137202556D01*
X129779300Y-137203700D01*
X129304300Y-137203700D01*
X129281021Y-137202556D01*
X129257966Y-137199137D01*
X129235357Y-137193473D01*
X129213413Y-137185621D01*
X129192343Y-137175656D01*
X129172352Y-137163674D01*
X129153632Y-137149790D01*
X129136362Y-137134138D01*
X129120710Y-137116868D01*
X129106826Y-137098148D01*
X129094844Y-137078157D01*
X129084879Y-137057087D01*
X129077027Y-137035143D01*
X129071363Y-137012534D01*
X129067944Y-136989479D01*
X129066800Y-136966200D01*
X129066800Y-136391200D01*
X129067944Y-136367921D01*
X129071363Y-136344866D01*
X129077027Y-136322257D01*
X129084879Y-136300313D01*
X129094844Y-136279243D01*
X129106826Y-136259252D01*
X129120710Y-136240532D01*
X129136362Y-136223262D01*
X129153632Y-136207610D01*
X129172352Y-136193726D01*
X129192343Y-136181744D01*
X129213413Y-136171779D01*
X129235357Y-136163927D01*
X129257966Y-136158263D01*
X129281021Y-136154844D01*
X129304300Y-136153700D01*
X129779300Y-136153700D01*
X129802579Y-136154844D01*
X129802579Y-136154844D01*
G37*
D12*
X129541800Y-136678700D03*
D10*
G36*
X128303979Y-137904844D02*
G01*
X128327034Y-137908263D01*
X128349643Y-137913927D01*
X128371587Y-137921779D01*
X128392657Y-137931744D01*
X128412648Y-137943726D01*
X128431368Y-137957610D01*
X128448638Y-137973262D01*
X128464290Y-137990532D01*
X128478174Y-138009252D01*
X128490156Y-138029243D01*
X128500121Y-138050313D01*
X128507973Y-138072257D01*
X128513637Y-138094866D01*
X128517056Y-138117921D01*
X128518200Y-138141200D01*
X128518200Y-138716200D01*
X128517056Y-138739479D01*
X128513637Y-138762534D01*
X128507973Y-138785143D01*
X128500121Y-138807087D01*
X128490156Y-138828157D01*
X128478174Y-138848148D01*
X128464290Y-138866868D01*
X128448638Y-138884138D01*
X128431368Y-138899790D01*
X128412648Y-138913674D01*
X128392657Y-138925656D01*
X128371587Y-138935621D01*
X128349643Y-138943473D01*
X128327034Y-138949137D01*
X128303979Y-138952556D01*
X128280700Y-138953700D01*
X127805700Y-138953700D01*
X127782421Y-138952556D01*
X127759366Y-138949137D01*
X127736757Y-138943473D01*
X127714813Y-138935621D01*
X127693743Y-138925656D01*
X127673752Y-138913674D01*
X127655032Y-138899790D01*
X127637762Y-138884138D01*
X127622110Y-138866868D01*
X127608226Y-138848148D01*
X127596244Y-138828157D01*
X127586279Y-138807087D01*
X127578427Y-138785143D01*
X127572763Y-138762534D01*
X127569344Y-138739479D01*
X127568200Y-138716200D01*
X127568200Y-138141200D01*
X127569344Y-138117921D01*
X127572763Y-138094866D01*
X127578427Y-138072257D01*
X127586279Y-138050313D01*
X127596244Y-138029243D01*
X127608226Y-138009252D01*
X127622110Y-137990532D01*
X127637762Y-137973262D01*
X127655032Y-137957610D01*
X127673752Y-137943726D01*
X127693743Y-137931744D01*
X127714813Y-137921779D01*
X127736757Y-137913927D01*
X127759366Y-137908263D01*
X127782421Y-137904844D01*
X127805700Y-137903700D01*
X128280700Y-137903700D01*
X128303979Y-137904844D01*
X128303979Y-137904844D01*
G37*
D12*
X128043200Y-138428700D03*
D10*
G36*
X128303979Y-136154844D02*
G01*
X128327034Y-136158263D01*
X128349643Y-136163927D01*
X128371587Y-136171779D01*
X128392657Y-136181744D01*
X128412648Y-136193726D01*
X128431368Y-136207610D01*
X128448638Y-136223262D01*
X128464290Y-136240532D01*
X128478174Y-136259252D01*
X128490156Y-136279243D01*
X128500121Y-136300313D01*
X128507973Y-136322257D01*
X128513637Y-136344866D01*
X128517056Y-136367921D01*
X128518200Y-136391200D01*
X128518200Y-136966200D01*
X128517056Y-136989479D01*
X128513637Y-137012534D01*
X128507973Y-137035143D01*
X128500121Y-137057087D01*
X128490156Y-137078157D01*
X128478174Y-137098148D01*
X128464290Y-137116868D01*
X128448638Y-137134138D01*
X128431368Y-137149790D01*
X128412648Y-137163674D01*
X128392657Y-137175656D01*
X128371587Y-137185621D01*
X128349643Y-137193473D01*
X128327034Y-137199137D01*
X128303979Y-137202556D01*
X128280700Y-137203700D01*
X127805700Y-137203700D01*
X127782421Y-137202556D01*
X127759366Y-137199137D01*
X127736757Y-137193473D01*
X127714813Y-137185621D01*
X127693743Y-137175656D01*
X127673752Y-137163674D01*
X127655032Y-137149790D01*
X127637762Y-137134138D01*
X127622110Y-137116868D01*
X127608226Y-137098148D01*
X127596244Y-137078157D01*
X127586279Y-137057087D01*
X127578427Y-137035143D01*
X127572763Y-137012534D01*
X127569344Y-136989479D01*
X127568200Y-136966200D01*
X127568200Y-136391200D01*
X127569344Y-136367921D01*
X127572763Y-136344866D01*
X127578427Y-136322257D01*
X127586279Y-136300313D01*
X127596244Y-136279243D01*
X127608226Y-136259252D01*
X127622110Y-136240532D01*
X127637762Y-136223262D01*
X127655032Y-136207610D01*
X127673752Y-136193726D01*
X127693743Y-136181744D01*
X127714813Y-136171779D01*
X127736757Y-136163927D01*
X127759366Y-136158263D01*
X127782421Y-136154844D01*
X127805700Y-136153700D01*
X128280700Y-136153700D01*
X128303979Y-136154844D01*
X128303979Y-136154844D01*
G37*
D12*
X128043200Y-136678700D03*
D10*
G36*
X107245579Y-119835344D02*
G01*
X107268634Y-119838763D01*
X107291243Y-119844427D01*
X107313187Y-119852279D01*
X107334257Y-119862244D01*
X107354248Y-119874226D01*
X107372968Y-119888110D01*
X107390238Y-119903762D01*
X107405890Y-119921032D01*
X107419774Y-119939752D01*
X107431756Y-119959743D01*
X107441721Y-119980813D01*
X107449573Y-120002757D01*
X107455237Y-120025366D01*
X107458656Y-120048421D01*
X107459800Y-120071700D01*
X107459800Y-120646700D01*
X107458656Y-120669979D01*
X107455237Y-120693034D01*
X107449573Y-120715643D01*
X107441721Y-120737587D01*
X107431756Y-120758657D01*
X107419774Y-120778648D01*
X107405890Y-120797368D01*
X107390238Y-120814638D01*
X107372968Y-120830290D01*
X107354248Y-120844174D01*
X107334257Y-120856156D01*
X107313187Y-120866121D01*
X107291243Y-120873973D01*
X107268634Y-120879637D01*
X107245579Y-120883056D01*
X107222300Y-120884200D01*
X106747300Y-120884200D01*
X106724021Y-120883056D01*
X106700966Y-120879637D01*
X106678357Y-120873973D01*
X106656413Y-120866121D01*
X106635343Y-120856156D01*
X106615352Y-120844174D01*
X106596632Y-120830290D01*
X106579362Y-120814638D01*
X106563710Y-120797368D01*
X106549826Y-120778648D01*
X106537844Y-120758657D01*
X106527879Y-120737587D01*
X106520027Y-120715643D01*
X106514363Y-120693034D01*
X106510944Y-120669979D01*
X106509800Y-120646700D01*
X106509800Y-120071700D01*
X106510944Y-120048421D01*
X106514363Y-120025366D01*
X106520027Y-120002757D01*
X106527879Y-119980813D01*
X106537844Y-119959743D01*
X106549826Y-119939752D01*
X106563710Y-119921032D01*
X106579362Y-119903762D01*
X106596632Y-119888110D01*
X106615352Y-119874226D01*
X106635343Y-119862244D01*
X106656413Y-119852279D01*
X106678357Y-119844427D01*
X106700966Y-119838763D01*
X106724021Y-119835344D01*
X106747300Y-119834200D01*
X107222300Y-119834200D01*
X107245579Y-119835344D01*
X107245579Y-119835344D01*
G37*
D12*
X106984800Y-120359200D03*
D10*
G36*
X107245579Y-121585344D02*
G01*
X107268634Y-121588763D01*
X107291243Y-121594427D01*
X107313187Y-121602279D01*
X107334257Y-121612244D01*
X107354248Y-121624226D01*
X107372968Y-121638110D01*
X107390238Y-121653762D01*
X107405890Y-121671032D01*
X107419774Y-121689752D01*
X107431756Y-121709743D01*
X107441721Y-121730813D01*
X107449573Y-121752757D01*
X107455237Y-121775366D01*
X107458656Y-121798421D01*
X107459800Y-121821700D01*
X107459800Y-122396700D01*
X107458656Y-122419979D01*
X107455237Y-122443034D01*
X107449573Y-122465643D01*
X107441721Y-122487587D01*
X107431756Y-122508657D01*
X107419774Y-122528648D01*
X107405890Y-122547368D01*
X107390238Y-122564638D01*
X107372968Y-122580290D01*
X107354248Y-122594174D01*
X107334257Y-122606156D01*
X107313187Y-122616121D01*
X107291243Y-122623973D01*
X107268634Y-122629637D01*
X107245579Y-122633056D01*
X107222300Y-122634200D01*
X106747300Y-122634200D01*
X106724021Y-122633056D01*
X106700966Y-122629637D01*
X106678357Y-122623973D01*
X106656413Y-122616121D01*
X106635343Y-122606156D01*
X106615352Y-122594174D01*
X106596632Y-122580290D01*
X106579362Y-122564638D01*
X106563710Y-122547368D01*
X106549826Y-122528648D01*
X106537844Y-122508657D01*
X106527879Y-122487587D01*
X106520027Y-122465643D01*
X106514363Y-122443034D01*
X106510944Y-122419979D01*
X106509800Y-122396700D01*
X106509800Y-121821700D01*
X106510944Y-121798421D01*
X106514363Y-121775366D01*
X106520027Y-121752757D01*
X106527879Y-121730813D01*
X106537844Y-121709743D01*
X106549826Y-121689752D01*
X106563710Y-121671032D01*
X106579362Y-121653762D01*
X106596632Y-121638110D01*
X106615352Y-121624226D01*
X106635343Y-121612244D01*
X106656413Y-121602279D01*
X106678357Y-121594427D01*
X106700966Y-121588763D01*
X106724021Y-121585344D01*
X106747300Y-121584200D01*
X107222300Y-121584200D01*
X107245579Y-121585344D01*
X107245579Y-121585344D01*
G37*
D12*
X106984800Y-122109200D03*
D10*
G36*
X117634179Y-117295344D02*
G01*
X117657234Y-117298763D01*
X117679843Y-117304427D01*
X117701787Y-117312279D01*
X117722857Y-117322244D01*
X117742848Y-117334226D01*
X117761568Y-117348110D01*
X117778838Y-117363762D01*
X117794490Y-117381032D01*
X117808374Y-117399752D01*
X117820356Y-117419743D01*
X117830321Y-117440813D01*
X117838173Y-117462757D01*
X117843837Y-117485366D01*
X117847256Y-117508421D01*
X117848400Y-117531700D01*
X117848400Y-118106700D01*
X117847256Y-118129979D01*
X117843837Y-118153034D01*
X117838173Y-118175643D01*
X117830321Y-118197587D01*
X117820356Y-118218657D01*
X117808374Y-118238648D01*
X117794490Y-118257368D01*
X117778838Y-118274638D01*
X117761568Y-118290290D01*
X117742848Y-118304174D01*
X117722857Y-118316156D01*
X117701787Y-118326121D01*
X117679843Y-118333973D01*
X117657234Y-118339637D01*
X117634179Y-118343056D01*
X117610900Y-118344200D01*
X117135900Y-118344200D01*
X117112621Y-118343056D01*
X117089566Y-118339637D01*
X117066957Y-118333973D01*
X117045013Y-118326121D01*
X117023943Y-118316156D01*
X117003952Y-118304174D01*
X116985232Y-118290290D01*
X116967962Y-118274638D01*
X116952310Y-118257368D01*
X116938426Y-118238648D01*
X116926444Y-118218657D01*
X116916479Y-118197587D01*
X116908627Y-118175643D01*
X116902963Y-118153034D01*
X116899544Y-118129979D01*
X116898400Y-118106700D01*
X116898400Y-117531700D01*
X116899544Y-117508421D01*
X116902963Y-117485366D01*
X116908627Y-117462757D01*
X116916479Y-117440813D01*
X116926444Y-117419743D01*
X116938426Y-117399752D01*
X116952310Y-117381032D01*
X116967962Y-117363762D01*
X116985232Y-117348110D01*
X117003952Y-117334226D01*
X117023943Y-117322244D01*
X117045013Y-117312279D01*
X117066957Y-117304427D01*
X117089566Y-117298763D01*
X117112621Y-117295344D01*
X117135900Y-117294200D01*
X117610900Y-117294200D01*
X117634179Y-117295344D01*
X117634179Y-117295344D01*
G37*
D12*
X117373400Y-117819200D03*
D10*
G36*
X117634179Y-119045344D02*
G01*
X117657234Y-119048763D01*
X117679843Y-119054427D01*
X117701787Y-119062279D01*
X117722857Y-119072244D01*
X117742848Y-119084226D01*
X117761568Y-119098110D01*
X117778838Y-119113762D01*
X117794490Y-119131032D01*
X117808374Y-119149752D01*
X117820356Y-119169743D01*
X117830321Y-119190813D01*
X117838173Y-119212757D01*
X117843837Y-119235366D01*
X117847256Y-119258421D01*
X117848400Y-119281700D01*
X117848400Y-119856700D01*
X117847256Y-119879979D01*
X117843837Y-119903034D01*
X117838173Y-119925643D01*
X117830321Y-119947587D01*
X117820356Y-119968657D01*
X117808374Y-119988648D01*
X117794490Y-120007368D01*
X117778838Y-120024638D01*
X117761568Y-120040290D01*
X117742848Y-120054174D01*
X117722857Y-120066156D01*
X117701787Y-120076121D01*
X117679843Y-120083973D01*
X117657234Y-120089637D01*
X117634179Y-120093056D01*
X117610900Y-120094200D01*
X117135900Y-120094200D01*
X117112621Y-120093056D01*
X117089566Y-120089637D01*
X117066957Y-120083973D01*
X117045013Y-120076121D01*
X117023943Y-120066156D01*
X117003952Y-120054174D01*
X116985232Y-120040290D01*
X116967962Y-120024638D01*
X116952310Y-120007368D01*
X116938426Y-119988648D01*
X116926444Y-119968657D01*
X116916479Y-119947587D01*
X116908627Y-119925643D01*
X116902963Y-119903034D01*
X116899544Y-119879979D01*
X116898400Y-119856700D01*
X116898400Y-119281700D01*
X116899544Y-119258421D01*
X116902963Y-119235366D01*
X116908627Y-119212757D01*
X116916479Y-119190813D01*
X116926444Y-119169743D01*
X116938426Y-119149752D01*
X116952310Y-119131032D01*
X116967962Y-119113762D01*
X116985232Y-119098110D01*
X117003952Y-119084226D01*
X117023943Y-119072244D01*
X117045013Y-119062279D01*
X117066957Y-119054427D01*
X117089566Y-119048763D01*
X117112621Y-119045344D01*
X117135900Y-119044200D01*
X117610900Y-119044200D01*
X117634179Y-119045344D01*
X117634179Y-119045344D01*
G37*
D12*
X117373400Y-119569200D03*
D10*
G36*
X107256179Y-118296544D02*
G01*
X107279234Y-118299963D01*
X107301843Y-118305627D01*
X107323787Y-118313479D01*
X107344857Y-118323444D01*
X107364848Y-118335426D01*
X107383568Y-118349310D01*
X107400838Y-118364962D01*
X107416490Y-118382232D01*
X107430374Y-118400952D01*
X107442356Y-118420943D01*
X107452321Y-118442013D01*
X107460173Y-118463957D01*
X107465837Y-118486566D01*
X107469256Y-118509621D01*
X107470400Y-118532900D01*
X107470400Y-119007900D01*
X107469256Y-119031179D01*
X107465837Y-119054234D01*
X107460173Y-119076843D01*
X107452321Y-119098787D01*
X107442356Y-119119857D01*
X107430374Y-119139848D01*
X107416490Y-119158568D01*
X107400838Y-119175838D01*
X107383568Y-119191490D01*
X107364848Y-119205374D01*
X107344857Y-119217356D01*
X107323787Y-119227321D01*
X107301843Y-119235173D01*
X107279234Y-119240837D01*
X107256179Y-119244256D01*
X107232900Y-119245400D01*
X106657900Y-119245400D01*
X106634621Y-119244256D01*
X106611566Y-119240837D01*
X106588957Y-119235173D01*
X106567013Y-119227321D01*
X106545943Y-119217356D01*
X106525952Y-119205374D01*
X106507232Y-119191490D01*
X106489962Y-119175838D01*
X106474310Y-119158568D01*
X106460426Y-119139848D01*
X106448444Y-119119857D01*
X106438479Y-119098787D01*
X106430627Y-119076843D01*
X106424963Y-119054234D01*
X106421544Y-119031179D01*
X106420400Y-119007900D01*
X106420400Y-118532900D01*
X106421544Y-118509621D01*
X106424963Y-118486566D01*
X106430627Y-118463957D01*
X106438479Y-118442013D01*
X106448444Y-118420943D01*
X106460426Y-118400952D01*
X106474310Y-118382232D01*
X106489962Y-118364962D01*
X106507232Y-118349310D01*
X106525952Y-118335426D01*
X106545943Y-118323444D01*
X106567013Y-118313479D01*
X106588957Y-118305627D01*
X106611566Y-118299963D01*
X106634621Y-118296544D01*
X106657900Y-118295400D01*
X107232900Y-118295400D01*
X107256179Y-118296544D01*
X107256179Y-118296544D01*
G37*
D12*
X106945400Y-118770400D03*
D10*
G36*
X105506179Y-118296544D02*
G01*
X105529234Y-118299963D01*
X105551843Y-118305627D01*
X105573787Y-118313479D01*
X105594857Y-118323444D01*
X105614848Y-118335426D01*
X105633568Y-118349310D01*
X105650838Y-118364962D01*
X105666490Y-118382232D01*
X105680374Y-118400952D01*
X105692356Y-118420943D01*
X105702321Y-118442013D01*
X105710173Y-118463957D01*
X105715837Y-118486566D01*
X105719256Y-118509621D01*
X105720400Y-118532900D01*
X105720400Y-119007900D01*
X105719256Y-119031179D01*
X105715837Y-119054234D01*
X105710173Y-119076843D01*
X105702321Y-119098787D01*
X105692356Y-119119857D01*
X105680374Y-119139848D01*
X105666490Y-119158568D01*
X105650838Y-119175838D01*
X105633568Y-119191490D01*
X105614848Y-119205374D01*
X105594857Y-119217356D01*
X105573787Y-119227321D01*
X105551843Y-119235173D01*
X105529234Y-119240837D01*
X105506179Y-119244256D01*
X105482900Y-119245400D01*
X104907900Y-119245400D01*
X104884621Y-119244256D01*
X104861566Y-119240837D01*
X104838957Y-119235173D01*
X104817013Y-119227321D01*
X104795943Y-119217356D01*
X104775952Y-119205374D01*
X104757232Y-119191490D01*
X104739962Y-119175838D01*
X104724310Y-119158568D01*
X104710426Y-119139848D01*
X104698444Y-119119857D01*
X104688479Y-119098787D01*
X104680627Y-119076843D01*
X104674963Y-119054234D01*
X104671544Y-119031179D01*
X104670400Y-119007900D01*
X104670400Y-118532900D01*
X104671544Y-118509621D01*
X104674963Y-118486566D01*
X104680627Y-118463957D01*
X104688479Y-118442013D01*
X104698444Y-118420943D01*
X104710426Y-118400952D01*
X104724310Y-118382232D01*
X104739962Y-118364962D01*
X104757232Y-118349310D01*
X104775952Y-118335426D01*
X104795943Y-118323444D01*
X104817013Y-118313479D01*
X104838957Y-118305627D01*
X104861566Y-118299963D01*
X104884621Y-118296544D01*
X104907900Y-118295400D01*
X105482900Y-118295400D01*
X105506179Y-118296544D01*
X105506179Y-118296544D01*
G37*
D12*
X105195400Y-118770400D03*
D10*
G36*
X107256179Y-116772544D02*
G01*
X107279234Y-116775963D01*
X107301843Y-116781627D01*
X107323787Y-116789479D01*
X107344857Y-116799444D01*
X107364848Y-116811426D01*
X107383568Y-116825310D01*
X107400838Y-116840962D01*
X107416490Y-116858232D01*
X107430374Y-116876952D01*
X107442356Y-116896943D01*
X107452321Y-116918013D01*
X107460173Y-116939957D01*
X107465837Y-116962566D01*
X107469256Y-116985621D01*
X107470400Y-117008900D01*
X107470400Y-117483900D01*
X107469256Y-117507179D01*
X107465837Y-117530234D01*
X107460173Y-117552843D01*
X107452321Y-117574787D01*
X107442356Y-117595857D01*
X107430374Y-117615848D01*
X107416490Y-117634568D01*
X107400838Y-117651838D01*
X107383568Y-117667490D01*
X107364848Y-117681374D01*
X107344857Y-117693356D01*
X107323787Y-117703321D01*
X107301843Y-117711173D01*
X107279234Y-117716837D01*
X107256179Y-117720256D01*
X107232900Y-117721400D01*
X106657900Y-117721400D01*
X106634621Y-117720256D01*
X106611566Y-117716837D01*
X106588957Y-117711173D01*
X106567013Y-117703321D01*
X106545943Y-117693356D01*
X106525952Y-117681374D01*
X106507232Y-117667490D01*
X106489962Y-117651838D01*
X106474310Y-117634568D01*
X106460426Y-117615848D01*
X106448444Y-117595857D01*
X106438479Y-117574787D01*
X106430627Y-117552843D01*
X106424963Y-117530234D01*
X106421544Y-117507179D01*
X106420400Y-117483900D01*
X106420400Y-117008900D01*
X106421544Y-116985621D01*
X106424963Y-116962566D01*
X106430627Y-116939957D01*
X106438479Y-116918013D01*
X106448444Y-116896943D01*
X106460426Y-116876952D01*
X106474310Y-116858232D01*
X106489962Y-116840962D01*
X106507232Y-116825310D01*
X106525952Y-116811426D01*
X106545943Y-116799444D01*
X106567013Y-116789479D01*
X106588957Y-116781627D01*
X106611566Y-116775963D01*
X106634621Y-116772544D01*
X106657900Y-116771400D01*
X107232900Y-116771400D01*
X107256179Y-116772544D01*
X107256179Y-116772544D01*
G37*
D12*
X106945400Y-117246400D03*
D10*
G36*
X105506179Y-116772544D02*
G01*
X105529234Y-116775963D01*
X105551843Y-116781627D01*
X105573787Y-116789479D01*
X105594857Y-116799444D01*
X105614848Y-116811426D01*
X105633568Y-116825310D01*
X105650838Y-116840962D01*
X105666490Y-116858232D01*
X105680374Y-116876952D01*
X105692356Y-116896943D01*
X105702321Y-116918013D01*
X105710173Y-116939957D01*
X105715837Y-116962566D01*
X105719256Y-116985621D01*
X105720400Y-117008900D01*
X105720400Y-117483900D01*
X105719256Y-117507179D01*
X105715837Y-117530234D01*
X105710173Y-117552843D01*
X105702321Y-117574787D01*
X105692356Y-117595857D01*
X105680374Y-117615848D01*
X105666490Y-117634568D01*
X105650838Y-117651838D01*
X105633568Y-117667490D01*
X105614848Y-117681374D01*
X105594857Y-117693356D01*
X105573787Y-117703321D01*
X105551843Y-117711173D01*
X105529234Y-117716837D01*
X105506179Y-117720256D01*
X105482900Y-117721400D01*
X104907900Y-117721400D01*
X104884621Y-117720256D01*
X104861566Y-117716837D01*
X104838957Y-117711173D01*
X104817013Y-117703321D01*
X104795943Y-117693356D01*
X104775952Y-117681374D01*
X104757232Y-117667490D01*
X104739962Y-117651838D01*
X104724310Y-117634568D01*
X104710426Y-117615848D01*
X104698444Y-117595857D01*
X104688479Y-117574787D01*
X104680627Y-117552843D01*
X104674963Y-117530234D01*
X104671544Y-117507179D01*
X104670400Y-117483900D01*
X104670400Y-117008900D01*
X104671544Y-116985621D01*
X104674963Y-116962566D01*
X104680627Y-116939957D01*
X104688479Y-116918013D01*
X104698444Y-116896943D01*
X104710426Y-116876952D01*
X104724310Y-116858232D01*
X104739962Y-116840962D01*
X104757232Y-116825310D01*
X104775952Y-116811426D01*
X104795943Y-116799444D01*
X104817013Y-116789479D01*
X104838957Y-116781627D01*
X104861566Y-116775963D01*
X104884621Y-116772544D01*
X104907900Y-116771400D01*
X105482900Y-116771400D01*
X105506179Y-116772544D01*
X105506179Y-116772544D01*
G37*
D12*
X105195400Y-117246400D03*
D10*
G36*
X132695578Y-118049745D02*
G01*
X132718633Y-118053164D01*
X132741242Y-118058828D01*
X132763186Y-118066680D01*
X132784256Y-118076645D01*
X132804247Y-118088627D01*
X132822967Y-118102511D01*
X132840237Y-118118163D01*
X132855889Y-118135433D01*
X132869773Y-118154153D01*
X132881755Y-118174144D01*
X132891720Y-118195214D01*
X132899572Y-118217158D01*
X132905236Y-118239767D01*
X132908655Y-118262822D01*
X132909799Y-118286101D01*
X132909799Y-118861101D01*
X132908655Y-118884380D01*
X132905236Y-118907435D01*
X132899572Y-118930044D01*
X132891720Y-118951988D01*
X132881755Y-118973058D01*
X132869773Y-118993049D01*
X132855889Y-119011769D01*
X132840237Y-119029039D01*
X132822967Y-119044691D01*
X132804247Y-119058575D01*
X132784256Y-119070557D01*
X132763186Y-119080522D01*
X132741242Y-119088374D01*
X132718633Y-119094038D01*
X132695578Y-119097457D01*
X132672299Y-119098601D01*
X132197299Y-119098601D01*
X132174020Y-119097457D01*
X132150965Y-119094038D01*
X132128356Y-119088374D01*
X132106412Y-119080522D01*
X132085342Y-119070557D01*
X132065351Y-119058575D01*
X132046631Y-119044691D01*
X132029361Y-119029039D01*
X132013709Y-119011769D01*
X131999825Y-118993049D01*
X131987843Y-118973058D01*
X131977878Y-118951988D01*
X131970026Y-118930044D01*
X131964362Y-118907435D01*
X131960943Y-118884380D01*
X131959799Y-118861101D01*
X131959799Y-118286101D01*
X131960943Y-118262822D01*
X131964362Y-118239767D01*
X131970026Y-118217158D01*
X131977878Y-118195214D01*
X131987843Y-118174144D01*
X131999825Y-118154153D01*
X132013709Y-118135433D01*
X132029361Y-118118163D01*
X132046631Y-118102511D01*
X132065351Y-118088627D01*
X132085342Y-118076645D01*
X132106412Y-118066680D01*
X132128356Y-118058828D01*
X132150965Y-118053164D01*
X132174020Y-118049745D01*
X132197299Y-118048601D01*
X132672299Y-118048601D01*
X132695578Y-118049745D01*
X132695578Y-118049745D01*
G37*
D12*
X132434799Y-118573601D03*
D10*
G36*
X132695578Y-116299745D02*
G01*
X132718633Y-116303164D01*
X132741242Y-116308828D01*
X132763186Y-116316680D01*
X132784256Y-116326645D01*
X132804247Y-116338627D01*
X132822967Y-116352511D01*
X132840237Y-116368163D01*
X132855889Y-116385433D01*
X132869773Y-116404153D01*
X132881755Y-116424144D01*
X132891720Y-116445214D01*
X132899572Y-116467158D01*
X132905236Y-116489767D01*
X132908655Y-116512822D01*
X132909799Y-116536101D01*
X132909799Y-117111101D01*
X132908655Y-117134380D01*
X132905236Y-117157435D01*
X132899572Y-117180044D01*
X132891720Y-117201988D01*
X132881755Y-117223058D01*
X132869773Y-117243049D01*
X132855889Y-117261769D01*
X132840237Y-117279039D01*
X132822967Y-117294691D01*
X132804247Y-117308575D01*
X132784256Y-117320557D01*
X132763186Y-117330522D01*
X132741242Y-117338374D01*
X132718633Y-117344038D01*
X132695578Y-117347457D01*
X132672299Y-117348601D01*
X132197299Y-117348601D01*
X132174020Y-117347457D01*
X132150965Y-117344038D01*
X132128356Y-117338374D01*
X132106412Y-117330522D01*
X132085342Y-117320557D01*
X132065351Y-117308575D01*
X132046631Y-117294691D01*
X132029361Y-117279039D01*
X132013709Y-117261769D01*
X131999825Y-117243049D01*
X131987843Y-117223058D01*
X131977878Y-117201988D01*
X131970026Y-117180044D01*
X131964362Y-117157435D01*
X131960943Y-117134380D01*
X131959799Y-117111101D01*
X131959799Y-116536101D01*
X131960943Y-116512822D01*
X131964362Y-116489767D01*
X131970026Y-116467158D01*
X131977878Y-116445214D01*
X131987843Y-116424144D01*
X131999825Y-116404153D01*
X132013709Y-116385433D01*
X132029361Y-116368163D01*
X132046631Y-116352511D01*
X132065351Y-116338627D01*
X132085342Y-116326645D01*
X132106412Y-116316680D01*
X132128356Y-116308828D01*
X132150965Y-116303164D01*
X132174020Y-116299745D01*
X132197299Y-116298601D01*
X132672299Y-116298601D01*
X132695578Y-116299745D01*
X132695578Y-116299745D01*
G37*
D12*
X132434799Y-116823601D03*
D10*
G36*
X124783979Y-130945744D02*
G01*
X124807034Y-130949163D01*
X124829643Y-130954827D01*
X124851587Y-130962679D01*
X124872657Y-130972644D01*
X124892648Y-130984626D01*
X124911368Y-130998510D01*
X124928638Y-131014162D01*
X124944290Y-131031432D01*
X124958174Y-131050152D01*
X124970156Y-131070143D01*
X124980121Y-131091213D01*
X124987973Y-131113157D01*
X124993637Y-131135766D01*
X124997056Y-131158821D01*
X124998200Y-131182100D01*
X124998200Y-131657100D01*
X124997056Y-131680379D01*
X124993637Y-131703434D01*
X124987973Y-131726043D01*
X124980121Y-131747987D01*
X124970156Y-131769057D01*
X124958174Y-131789048D01*
X124944290Y-131807768D01*
X124928638Y-131825038D01*
X124911368Y-131840690D01*
X124892648Y-131854574D01*
X124872657Y-131866556D01*
X124851587Y-131876521D01*
X124829643Y-131884373D01*
X124807034Y-131890037D01*
X124783979Y-131893456D01*
X124760700Y-131894600D01*
X124185700Y-131894600D01*
X124162421Y-131893456D01*
X124139366Y-131890037D01*
X124116757Y-131884373D01*
X124094813Y-131876521D01*
X124073743Y-131866556D01*
X124053752Y-131854574D01*
X124035032Y-131840690D01*
X124017762Y-131825038D01*
X124002110Y-131807768D01*
X123988226Y-131789048D01*
X123976244Y-131769057D01*
X123966279Y-131747987D01*
X123958427Y-131726043D01*
X123952763Y-131703434D01*
X123949344Y-131680379D01*
X123948200Y-131657100D01*
X123948200Y-131182100D01*
X123949344Y-131158821D01*
X123952763Y-131135766D01*
X123958427Y-131113157D01*
X123966279Y-131091213D01*
X123976244Y-131070143D01*
X123988226Y-131050152D01*
X124002110Y-131031432D01*
X124017762Y-131014162D01*
X124035032Y-130998510D01*
X124053752Y-130984626D01*
X124073743Y-130972644D01*
X124094813Y-130962679D01*
X124116757Y-130954827D01*
X124139366Y-130949163D01*
X124162421Y-130945744D01*
X124185700Y-130944600D01*
X124760700Y-130944600D01*
X124783979Y-130945744D01*
X124783979Y-130945744D01*
G37*
D12*
X124473200Y-131419600D03*
D10*
G36*
X123033979Y-130945744D02*
G01*
X123057034Y-130949163D01*
X123079643Y-130954827D01*
X123101587Y-130962679D01*
X123122657Y-130972644D01*
X123142648Y-130984626D01*
X123161368Y-130998510D01*
X123178638Y-131014162D01*
X123194290Y-131031432D01*
X123208174Y-131050152D01*
X123220156Y-131070143D01*
X123230121Y-131091213D01*
X123237973Y-131113157D01*
X123243637Y-131135766D01*
X123247056Y-131158821D01*
X123248200Y-131182100D01*
X123248200Y-131657100D01*
X123247056Y-131680379D01*
X123243637Y-131703434D01*
X123237973Y-131726043D01*
X123230121Y-131747987D01*
X123220156Y-131769057D01*
X123208174Y-131789048D01*
X123194290Y-131807768D01*
X123178638Y-131825038D01*
X123161368Y-131840690D01*
X123142648Y-131854574D01*
X123122657Y-131866556D01*
X123101587Y-131876521D01*
X123079643Y-131884373D01*
X123057034Y-131890037D01*
X123033979Y-131893456D01*
X123010700Y-131894600D01*
X122435700Y-131894600D01*
X122412421Y-131893456D01*
X122389366Y-131890037D01*
X122366757Y-131884373D01*
X122344813Y-131876521D01*
X122323743Y-131866556D01*
X122303752Y-131854574D01*
X122285032Y-131840690D01*
X122267762Y-131825038D01*
X122252110Y-131807768D01*
X122238226Y-131789048D01*
X122226244Y-131769057D01*
X122216279Y-131747987D01*
X122208427Y-131726043D01*
X122202763Y-131703434D01*
X122199344Y-131680379D01*
X122198200Y-131657100D01*
X122198200Y-131182100D01*
X122199344Y-131158821D01*
X122202763Y-131135766D01*
X122208427Y-131113157D01*
X122216279Y-131091213D01*
X122226244Y-131070143D01*
X122238226Y-131050152D01*
X122252110Y-131031432D01*
X122267762Y-131014162D01*
X122285032Y-130998510D01*
X122303752Y-130984626D01*
X122323743Y-130972644D01*
X122344813Y-130962679D01*
X122366757Y-130954827D01*
X122389366Y-130949163D01*
X122412421Y-130945744D01*
X122435700Y-130944600D01*
X123010700Y-130944600D01*
X123033979Y-130945744D01*
X123033979Y-130945744D01*
G37*
D12*
X122723200Y-131419600D03*
D10*
G36*
X124783979Y-129421744D02*
G01*
X124807034Y-129425163D01*
X124829643Y-129430827D01*
X124851587Y-129438679D01*
X124872657Y-129448644D01*
X124892648Y-129460626D01*
X124911368Y-129474510D01*
X124928638Y-129490162D01*
X124944290Y-129507432D01*
X124958174Y-129526152D01*
X124970156Y-129546143D01*
X124980121Y-129567213D01*
X124987973Y-129589157D01*
X124993637Y-129611766D01*
X124997056Y-129634821D01*
X124998200Y-129658100D01*
X124998200Y-130133100D01*
X124997056Y-130156379D01*
X124993637Y-130179434D01*
X124987973Y-130202043D01*
X124980121Y-130223987D01*
X124970156Y-130245057D01*
X124958174Y-130265048D01*
X124944290Y-130283768D01*
X124928638Y-130301038D01*
X124911368Y-130316690D01*
X124892648Y-130330574D01*
X124872657Y-130342556D01*
X124851587Y-130352521D01*
X124829643Y-130360373D01*
X124807034Y-130366037D01*
X124783979Y-130369456D01*
X124760700Y-130370600D01*
X124185700Y-130370600D01*
X124162421Y-130369456D01*
X124139366Y-130366037D01*
X124116757Y-130360373D01*
X124094813Y-130352521D01*
X124073743Y-130342556D01*
X124053752Y-130330574D01*
X124035032Y-130316690D01*
X124017762Y-130301038D01*
X124002110Y-130283768D01*
X123988226Y-130265048D01*
X123976244Y-130245057D01*
X123966279Y-130223987D01*
X123958427Y-130202043D01*
X123952763Y-130179434D01*
X123949344Y-130156379D01*
X123948200Y-130133100D01*
X123948200Y-129658100D01*
X123949344Y-129634821D01*
X123952763Y-129611766D01*
X123958427Y-129589157D01*
X123966279Y-129567213D01*
X123976244Y-129546143D01*
X123988226Y-129526152D01*
X124002110Y-129507432D01*
X124017762Y-129490162D01*
X124035032Y-129474510D01*
X124053752Y-129460626D01*
X124073743Y-129448644D01*
X124094813Y-129438679D01*
X124116757Y-129430827D01*
X124139366Y-129425163D01*
X124162421Y-129421744D01*
X124185700Y-129420600D01*
X124760700Y-129420600D01*
X124783979Y-129421744D01*
X124783979Y-129421744D01*
G37*
D12*
X124473200Y-129895600D03*
D10*
G36*
X123033979Y-129421744D02*
G01*
X123057034Y-129425163D01*
X123079643Y-129430827D01*
X123101587Y-129438679D01*
X123122657Y-129448644D01*
X123142648Y-129460626D01*
X123161368Y-129474510D01*
X123178638Y-129490162D01*
X123194290Y-129507432D01*
X123208174Y-129526152D01*
X123220156Y-129546143D01*
X123230121Y-129567213D01*
X123237973Y-129589157D01*
X123243637Y-129611766D01*
X123247056Y-129634821D01*
X123248200Y-129658100D01*
X123248200Y-130133100D01*
X123247056Y-130156379D01*
X123243637Y-130179434D01*
X123237973Y-130202043D01*
X123230121Y-130223987D01*
X123220156Y-130245057D01*
X123208174Y-130265048D01*
X123194290Y-130283768D01*
X123178638Y-130301038D01*
X123161368Y-130316690D01*
X123142648Y-130330574D01*
X123122657Y-130342556D01*
X123101587Y-130352521D01*
X123079643Y-130360373D01*
X123057034Y-130366037D01*
X123033979Y-130369456D01*
X123010700Y-130370600D01*
X122435700Y-130370600D01*
X122412421Y-130369456D01*
X122389366Y-130366037D01*
X122366757Y-130360373D01*
X122344813Y-130352521D01*
X122323743Y-130342556D01*
X122303752Y-130330574D01*
X122285032Y-130316690D01*
X122267762Y-130301038D01*
X122252110Y-130283768D01*
X122238226Y-130265048D01*
X122226244Y-130245057D01*
X122216279Y-130223987D01*
X122208427Y-130202043D01*
X122202763Y-130179434D01*
X122199344Y-130156379D01*
X122198200Y-130133100D01*
X122198200Y-129658100D01*
X122199344Y-129634821D01*
X122202763Y-129611766D01*
X122208427Y-129589157D01*
X122216279Y-129567213D01*
X122226244Y-129546143D01*
X122238226Y-129526152D01*
X122252110Y-129507432D01*
X122267762Y-129490162D01*
X122285032Y-129474510D01*
X122303752Y-129460626D01*
X122323743Y-129448644D01*
X122344813Y-129438679D01*
X122366757Y-129430827D01*
X122389366Y-129425163D01*
X122412421Y-129421744D01*
X122435700Y-129420600D01*
X123010700Y-129420600D01*
X123033979Y-129421744D01*
X123033979Y-129421744D01*
G37*
D12*
X122723200Y-129895600D03*
D13*
X107637600Y-128066800D03*
X113037600Y-128066800D03*
D10*
G36*
X117658779Y-124036944D02*
G01*
X117681834Y-124040363D01*
X117704443Y-124046027D01*
X117726387Y-124053879D01*
X117747457Y-124063844D01*
X117767448Y-124075826D01*
X117786168Y-124089710D01*
X117803438Y-124105362D01*
X117819090Y-124122632D01*
X117832974Y-124141352D01*
X117844956Y-124161343D01*
X117854921Y-124182413D01*
X117862773Y-124204357D01*
X117868437Y-124226966D01*
X117871856Y-124250021D01*
X117873000Y-124273300D01*
X117873000Y-124748300D01*
X117871856Y-124771579D01*
X117868437Y-124794634D01*
X117862773Y-124817243D01*
X117854921Y-124839187D01*
X117844956Y-124860257D01*
X117832974Y-124880248D01*
X117819090Y-124898968D01*
X117803438Y-124916238D01*
X117786168Y-124931890D01*
X117767448Y-124945774D01*
X117747457Y-124957756D01*
X117726387Y-124967721D01*
X117704443Y-124975573D01*
X117681834Y-124981237D01*
X117658779Y-124984656D01*
X117635500Y-124985800D01*
X117060500Y-124985800D01*
X117037221Y-124984656D01*
X117014166Y-124981237D01*
X116991557Y-124975573D01*
X116969613Y-124967721D01*
X116948543Y-124957756D01*
X116928552Y-124945774D01*
X116909832Y-124931890D01*
X116892562Y-124916238D01*
X116876910Y-124898968D01*
X116863026Y-124880248D01*
X116851044Y-124860257D01*
X116841079Y-124839187D01*
X116833227Y-124817243D01*
X116827563Y-124794634D01*
X116824144Y-124771579D01*
X116823000Y-124748300D01*
X116823000Y-124273300D01*
X116824144Y-124250021D01*
X116827563Y-124226966D01*
X116833227Y-124204357D01*
X116841079Y-124182413D01*
X116851044Y-124161343D01*
X116863026Y-124141352D01*
X116876910Y-124122632D01*
X116892562Y-124105362D01*
X116909832Y-124089710D01*
X116928552Y-124075826D01*
X116948543Y-124063844D01*
X116969613Y-124053879D01*
X116991557Y-124046027D01*
X117014166Y-124040363D01*
X117037221Y-124036944D01*
X117060500Y-124035800D01*
X117635500Y-124035800D01*
X117658779Y-124036944D01*
X117658779Y-124036944D01*
G37*
D12*
X117348000Y-124510800D03*
D10*
G36*
X115908779Y-124036944D02*
G01*
X115931834Y-124040363D01*
X115954443Y-124046027D01*
X115976387Y-124053879D01*
X115997457Y-124063844D01*
X116017448Y-124075826D01*
X116036168Y-124089710D01*
X116053438Y-124105362D01*
X116069090Y-124122632D01*
X116082974Y-124141352D01*
X116094956Y-124161343D01*
X116104921Y-124182413D01*
X116112773Y-124204357D01*
X116118437Y-124226966D01*
X116121856Y-124250021D01*
X116123000Y-124273300D01*
X116123000Y-124748300D01*
X116121856Y-124771579D01*
X116118437Y-124794634D01*
X116112773Y-124817243D01*
X116104921Y-124839187D01*
X116094956Y-124860257D01*
X116082974Y-124880248D01*
X116069090Y-124898968D01*
X116053438Y-124916238D01*
X116036168Y-124931890D01*
X116017448Y-124945774D01*
X115997457Y-124957756D01*
X115976387Y-124967721D01*
X115954443Y-124975573D01*
X115931834Y-124981237D01*
X115908779Y-124984656D01*
X115885500Y-124985800D01*
X115310500Y-124985800D01*
X115287221Y-124984656D01*
X115264166Y-124981237D01*
X115241557Y-124975573D01*
X115219613Y-124967721D01*
X115198543Y-124957756D01*
X115178552Y-124945774D01*
X115159832Y-124931890D01*
X115142562Y-124916238D01*
X115126910Y-124898968D01*
X115113026Y-124880248D01*
X115101044Y-124860257D01*
X115091079Y-124839187D01*
X115083227Y-124817243D01*
X115077563Y-124794634D01*
X115074144Y-124771579D01*
X115073000Y-124748300D01*
X115073000Y-124273300D01*
X115074144Y-124250021D01*
X115077563Y-124226966D01*
X115083227Y-124204357D01*
X115091079Y-124182413D01*
X115101044Y-124161343D01*
X115113026Y-124141352D01*
X115126910Y-124122632D01*
X115142562Y-124105362D01*
X115159832Y-124089710D01*
X115178552Y-124075826D01*
X115198543Y-124063844D01*
X115219613Y-124053879D01*
X115241557Y-124046027D01*
X115264166Y-124040363D01*
X115287221Y-124036944D01*
X115310500Y-124035800D01*
X115885500Y-124035800D01*
X115908779Y-124036944D01*
X115908779Y-124036944D01*
G37*
D12*
X115598000Y-124510800D03*
D14*
X124423200Y-143159800D03*
X122743200Y-143159800D03*
D15*
X126493200Y-143159800D03*
X120673200Y-143159800D03*
D16*
X126045700Y-140859800D03*
X121120700Y-140859800D03*
D17*
X124883200Y-140499800D03*
X124233200Y-140499800D03*
X123583200Y-140499800D03*
X122933200Y-140499800D03*
X122283200Y-140499800D03*
D10*
G36*
X128378379Y-102065444D02*
G01*
X128401434Y-102068863D01*
X128424043Y-102074527D01*
X128445987Y-102082379D01*
X128467057Y-102092344D01*
X128487048Y-102104326D01*
X128505768Y-102118210D01*
X128523038Y-102133862D01*
X128538690Y-102151132D01*
X128552574Y-102169852D01*
X128564556Y-102189843D01*
X128574521Y-102210913D01*
X128582373Y-102232857D01*
X128588037Y-102255466D01*
X128591456Y-102278521D01*
X128592600Y-102301800D01*
X128592600Y-102876800D01*
X128591456Y-102900079D01*
X128588037Y-102923134D01*
X128582373Y-102945743D01*
X128574521Y-102967687D01*
X128564556Y-102988757D01*
X128552574Y-103008748D01*
X128538690Y-103027468D01*
X128523038Y-103044738D01*
X128505768Y-103060390D01*
X128487048Y-103074274D01*
X128467057Y-103086256D01*
X128445987Y-103096221D01*
X128424043Y-103104073D01*
X128401434Y-103109737D01*
X128378379Y-103113156D01*
X128355100Y-103114300D01*
X127880100Y-103114300D01*
X127856821Y-103113156D01*
X127833766Y-103109737D01*
X127811157Y-103104073D01*
X127789213Y-103096221D01*
X127768143Y-103086256D01*
X127748152Y-103074274D01*
X127729432Y-103060390D01*
X127712162Y-103044738D01*
X127696510Y-103027468D01*
X127682626Y-103008748D01*
X127670644Y-102988757D01*
X127660679Y-102967687D01*
X127652827Y-102945743D01*
X127647163Y-102923134D01*
X127643744Y-102900079D01*
X127642600Y-102876800D01*
X127642600Y-102301800D01*
X127643744Y-102278521D01*
X127647163Y-102255466D01*
X127652827Y-102232857D01*
X127660679Y-102210913D01*
X127670644Y-102189843D01*
X127682626Y-102169852D01*
X127696510Y-102151132D01*
X127712162Y-102133862D01*
X127729432Y-102118210D01*
X127748152Y-102104326D01*
X127768143Y-102092344D01*
X127789213Y-102082379D01*
X127811157Y-102074527D01*
X127833766Y-102068863D01*
X127856821Y-102065444D01*
X127880100Y-102064300D01*
X128355100Y-102064300D01*
X128378379Y-102065444D01*
X128378379Y-102065444D01*
G37*
D12*
X128117600Y-102589300D03*
D10*
G36*
X128378379Y-100315444D02*
G01*
X128401434Y-100318863D01*
X128424043Y-100324527D01*
X128445987Y-100332379D01*
X128467057Y-100342344D01*
X128487048Y-100354326D01*
X128505768Y-100368210D01*
X128523038Y-100383862D01*
X128538690Y-100401132D01*
X128552574Y-100419852D01*
X128564556Y-100439843D01*
X128574521Y-100460913D01*
X128582373Y-100482857D01*
X128588037Y-100505466D01*
X128591456Y-100528521D01*
X128592600Y-100551800D01*
X128592600Y-101126800D01*
X128591456Y-101150079D01*
X128588037Y-101173134D01*
X128582373Y-101195743D01*
X128574521Y-101217687D01*
X128564556Y-101238757D01*
X128552574Y-101258748D01*
X128538690Y-101277468D01*
X128523038Y-101294738D01*
X128505768Y-101310390D01*
X128487048Y-101324274D01*
X128467057Y-101336256D01*
X128445987Y-101346221D01*
X128424043Y-101354073D01*
X128401434Y-101359737D01*
X128378379Y-101363156D01*
X128355100Y-101364300D01*
X127880100Y-101364300D01*
X127856821Y-101363156D01*
X127833766Y-101359737D01*
X127811157Y-101354073D01*
X127789213Y-101346221D01*
X127768143Y-101336256D01*
X127748152Y-101324274D01*
X127729432Y-101310390D01*
X127712162Y-101294738D01*
X127696510Y-101277468D01*
X127682626Y-101258748D01*
X127670644Y-101238757D01*
X127660679Y-101217687D01*
X127652827Y-101195743D01*
X127647163Y-101173134D01*
X127643744Y-101150079D01*
X127642600Y-101126800D01*
X127642600Y-100551800D01*
X127643744Y-100528521D01*
X127647163Y-100505466D01*
X127652827Y-100482857D01*
X127660679Y-100460913D01*
X127670644Y-100439843D01*
X127682626Y-100419852D01*
X127696510Y-100401132D01*
X127712162Y-100383862D01*
X127729432Y-100368210D01*
X127748152Y-100354326D01*
X127768143Y-100342344D01*
X127789213Y-100332379D01*
X127811157Y-100324527D01*
X127833766Y-100318863D01*
X127856821Y-100315444D01*
X127880100Y-100314300D01*
X128355100Y-100314300D01*
X128378379Y-100315444D01*
X128378379Y-100315444D01*
G37*
D12*
X128117600Y-100839300D03*
D10*
G36*
X128113979Y-134450944D02*
G01*
X128137034Y-134454363D01*
X128159643Y-134460027D01*
X128181587Y-134467879D01*
X128202657Y-134477844D01*
X128222648Y-134489826D01*
X128241368Y-134503710D01*
X128258638Y-134519362D01*
X128274290Y-134536632D01*
X128288174Y-134555352D01*
X128300156Y-134575343D01*
X128310121Y-134596413D01*
X128317973Y-134618357D01*
X128323637Y-134640966D01*
X128327056Y-134664021D01*
X128328200Y-134687300D01*
X128328200Y-135162300D01*
X128327056Y-135185579D01*
X128323637Y-135208634D01*
X128317973Y-135231243D01*
X128310121Y-135253187D01*
X128300156Y-135274257D01*
X128288174Y-135294248D01*
X128274290Y-135312968D01*
X128258638Y-135330238D01*
X128241368Y-135345890D01*
X128222648Y-135359774D01*
X128202657Y-135371756D01*
X128181587Y-135381721D01*
X128159643Y-135389573D01*
X128137034Y-135395237D01*
X128113979Y-135398656D01*
X128090700Y-135399800D01*
X127515700Y-135399800D01*
X127492421Y-135398656D01*
X127469366Y-135395237D01*
X127446757Y-135389573D01*
X127424813Y-135381721D01*
X127403743Y-135371756D01*
X127383752Y-135359774D01*
X127365032Y-135345890D01*
X127347762Y-135330238D01*
X127332110Y-135312968D01*
X127318226Y-135294248D01*
X127306244Y-135274257D01*
X127296279Y-135253187D01*
X127288427Y-135231243D01*
X127282763Y-135208634D01*
X127279344Y-135185579D01*
X127278200Y-135162300D01*
X127278200Y-134687300D01*
X127279344Y-134664021D01*
X127282763Y-134640966D01*
X127288427Y-134618357D01*
X127296279Y-134596413D01*
X127306244Y-134575343D01*
X127318226Y-134555352D01*
X127332110Y-134536632D01*
X127347762Y-134519362D01*
X127365032Y-134503710D01*
X127383752Y-134489826D01*
X127403743Y-134477844D01*
X127424813Y-134467879D01*
X127446757Y-134460027D01*
X127469366Y-134454363D01*
X127492421Y-134450944D01*
X127515700Y-134449800D01*
X128090700Y-134449800D01*
X128113979Y-134450944D01*
X128113979Y-134450944D01*
G37*
D12*
X127803200Y-134924800D03*
D10*
G36*
X129863979Y-134450944D02*
G01*
X129887034Y-134454363D01*
X129909643Y-134460027D01*
X129931587Y-134467879D01*
X129952657Y-134477844D01*
X129972648Y-134489826D01*
X129991368Y-134503710D01*
X130008638Y-134519362D01*
X130024290Y-134536632D01*
X130038174Y-134555352D01*
X130050156Y-134575343D01*
X130060121Y-134596413D01*
X130067973Y-134618357D01*
X130073637Y-134640966D01*
X130077056Y-134664021D01*
X130078200Y-134687300D01*
X130078200Y-135162300D01*
X130077056Y-135185579D01*
X130073637Y-135208634D01*
X130067973Y-135231243D01*
X130060121Y-135253187D01*
X130050156Y-135274257D01*
X130038174Y-135294248D01*
X130024290Y-135312968D01*
X130008638Y-135330238D01*
X129991368Y-135345890D01*
X129972648Y-135359774D01*
X129952657Y-135371756D01*
X129931587Y-135381721D01*
X129909643Y-135389573D01*
X129887034Y-135395237D01*
X129863979Y-135398656D01*
X129840700Y-135399800D01*
X129265700Y-135399800D01*
X129242421Y-135398656D01*
X129219366Y-135395237D01*
X129196757Y-135389573D01*
X129174813Y-135381721D01*
X129153743Y-135371756D01*
X129133752Y-135359774D01*
X129115032Y-135345890D01*
X129097762Y-135330238D01*
X129082110Y-135312968D01*
X129068226Y-135294248D01*
X129056244Y-135274257D01*
X129046279Y-135253187D01*
X129038427Y-135231243D01*
X129032763Y-135208634D01*
X129029344Y-135185579D01*
X129028200Y-135162300D01*
X129028200Y-134687300D01*
X129029344Y-134664021D01*
X129032763Y-134640966D01*
X129038427Y-134618357D01*
X129046279Y-134596413D01*
X129056244Y-134575343D01*
X129068226Y-134555352D01*
X129082110Y-134536632D01*
X129097762Y-134519362D01*
X129115032Y-134503710D01*
X129133752Y-134489826D01*
X129153743Y-134477844D01*
X129174813Y-134467879D01*
X129196757Y-134460027D01*
X129219366Y-134454363D01*
X129242421Y-134450944D01*
X129265700Y-134449800D01*
X129840700Y-134449800D01*
X129863979Y-134450944D01*
X129863979Y-134450944D01*
G37*
D12*
X129553200Y-134924800D03*
D10*
G36*
X128113979Y-132926944D02*
G01*
X128137034Y-132930363D01*
X128159643Y-132936027D01*
X128181587Y-132943879D01*
X128202657Y-132953844D01*
X128222648Y-132965826D01*
X128241368Y-132979710D01*
X128258638Y-132995362D01*
X128274290Y-133012632D01*
X128288174Y-133031352D01*
X128300156Y-133051343D01*
X128310121Y-133072413D01*
X128317973Y-133094357D01*
X128323637Y-133116966D01*
X128327056Y-133140021D01*
X128328200Y-133163300D01*
X128328200Y-133638300D01*
X128327056Y-133661579D01*
X128323637Y-133684634D01*
X128317973Y-133707243D01*
X128310121Y-133729187D01*
X128300156Y-133750257D01*
X128288174Y-133770248D01*
X128274290Y-133788968D01*
X128258638Y-133806238D01*
X128241368Y-133821890D01*
X128222648Y-133835774D01*
X128202657Y-133847756D01*
X128181587Y-133857721D01*
X128159643Y-133865573D01*
X128137034Y-133871237D01*
X128113979Y-133874656D01*
X128090700Y-133875800D01*
X127515700Y-133875800D01*
X127492421Y-133874656D01*
X127469366Y-133871237D01*
X127446757Y-133865573D01*
X127424813Y-133857721D01*
X127403743Y-133847756D01*
X127383752Y-133835774D01*
X127365032Y-133821890D01*
X127347762Y-133806238D01*
X127332110Y-133788968D01*
X127318226Y-133770248D01*
X127306244Y-133750257D01*
X127296279Y-133729187D01*
X127288427Y-133707243D01*
X127282763Y-133684634D01*
X127279344Y-133661579D01*
X127278200Y-133638300D01*
X127278200Y-133163300D01*
X127279344Y-133140021D01*
X127282763Y-133116966D01*
X127288427Y-133094357D01*
X127296279Y-133072413D01*
X127306244Y-133051343D01*
X127318226Y-133031352D01*
X127332110Y-133012632D01*
X127347762Y-132995362D01*
X127365032Y-132979710D01*
X127383752Y-132965826D01*
X127403743Y-132953844D01*
X127424813Y-132943879D01*
X127446757Y-132936027D01*
X127469366Y-132930363D01*
X127492421Y-132926944D01*
X127515700Y-132925800D01*
X128090700Y-132925800D01*
X128113979Y-132926944D01*
X128113979Y-132926944D01*
G37*
D12*
X127803200Y-133400800D03*
D10*
G36*
X129863979Y-132926944D02*
G01*
X129887034Y-132930363D01*
X129909643Y-132936027D01*
X129931587Y-132943879D01*
X129952657Y-132953844D01*
X129972648Y-132965826D01*
X129991368Y-132979710D01*
X130008638Y-132995362D01*
X130024290Y-133012632D01*
X130038174Y-133031352D01*
X130050156Y-133051343D01*
X130060121Y-133072413D01*
X130067973Y-133094357D01*
X130073637Y-133116966D01*
X130077056Y-133140021D01*
X130078200Y-133163300D01*
X130078200Y-133638300D01*
X130077056Y-133661579D01*
X130073637Y-133684634D01*
X130067973Y-133707243D01*
X130060121Y-133729187D01*
X130050156Y-133750257D01*
X130038174Y-133770248D01*
X130024290Y-133788968D01*
X130008638Y-133806238D01*
X129991368Y-133821890D01*
X129972648Y-133835774D01*
X129952657Y-133847756D01*
X129931587Y-133857721D01*
X129909643Y-133865573D01*
X129887034Y-133871237D01*
X129863979Y-133874656D01*
X129840700Y-133875800D01*
X129265700Y-133875800D01*
X129242421Y-133874656D01*
X129219366Y-133871237D01*
X129196757Y-133865573D01*
X129174813Y-133857721D01*
X129153743Y-133847756D01*
X129133752Y-133835774D01*
X129115032Y-133821890D01*
X129097762Y-133806238D01*
X129082110Y-133788968D01*
X129068226Y-133770248D01*
X129056244Y-133750257D01*
X129046279Y-133729187D01*
X129038427Y-133707243D01*
X129032763Y-133684634D01*
X129029344Y-133661579D01*
X129028200Y-133638300D01*
X129028200Y-133163300D01*
X129029344Y-133140021D01*
X129032763Y-133116966D01*
X129038427Y-133094357D01*
X129046279Y-133072413D01*
X129056244Y-133051343D01*
X129068226Y-133031352D01*
X129082110Y-133012632D01*
X129097762Y-132995362D01*
X129115032Y-132979710D01*
X129133752Y-132965826D01*
X129153743Y-132953844D01*
X129174813Y-132943879D01*
X129196757Y-132936027D01*
X129219366Y-132930363D01*
X129242421Y-132926944D01*
X129265700Y-132925800D01*
X129840700Y-132925800D01*
X129863979Y-132926944D01*
X129863979Y-132926944D01*
G37*
D12*
X129553200Y-133400800D03*
D10*
G36*
X139244779Y-128974544D02*
G01*
X139267834Y-128977963D01*
X139290443Y-128983627D01*
X139312387Y-128991479D01*
X139333457Y-129001444D01*
X139353448Y-129013426D01*
X139372168Y-129027310D01*
X139389438Y-129042962D01*
X139405090Y-129060232D01*
X139418974Y-129078952D01*
X139430956Y-129098943D01*
X139440921Y-129120013D01*
X139448773Y-129141957D01*
X139454437Y-129164566D01*
X139457856Y-129187621D01*
X139459000Y-129210900D01*
X139459000Y-129785900D01*
X139457856Y-129809179D01*
X139454437Y-129832234D01*
X139448773Y-129854843D01*
X139440921Y-129876787D01*
X139430956Y-129897857D01*
X139418974Y-129917848D01*
X139405090Y-129936568D01*
X139389438Y-129953838D01*
X139372168Y-129969490D01*
X139353448Y-129983374D01*
X139333457Y-129995356D01*
X139312387Y-130005321D01*
X139290443Y-130013173D01*
X139267834Y-130018837D01*
X139244779Y-130022256D01*
X139221500Y-130023400D01*
X138746500Y-130023400D01*
X138723221Y-130022256D01*
X138700166Y-130018837D01*
X138677557Y-130013173D01*
X138655613Y-130005321D01*
X138634543Y-129995356D01*
X138614552Y-129983374D01*
X138595832Y-129969490D01*
X138578562Y-129953838D01*
X138562910Y-129936568D01*
X138549026Y-129917848D01*
X138537044Y-129897857D01*
X138527079Y-129876787D01*
X138519227Y-129854843D01*
X138513563Y-129832234D01*
X138510144Y-129809179D01*
X138509000Y-129785900D01*
X138509000Y-129210900D01*
X138510144Y-129187621D01*
X138513563Y-129164566D01*
X138519227Y-129141957D01*
X138527079Y-129120013D01*
X138537044Y-129098943D01*
X138549026Y-129078952D01*
X138562910Y-129060232D01*
X138578562Y-129042962D01*
X138595832Y-129027310D01*
X138614552Y-129013426D01*
X138634543Y-129001444D01*
X138655613Y-128991479D01*
X138677557Y-128983627D01*
X138700166Y-128977963D01*
X138723221Y-128974544D01*
X138746500Y-128973400D01*
X139221500Y-128973400D01*
X139244779Y-128974544D01*
X139244779Y-128974544D01*
G37*
D12*
X138984000Y-129498400D03*
D10*
G36*
X139244779Y-127224544D02*
G01*
X139267834Y-127227963D01*
X139290443Y-127233627D01*
X139312387Y-127241479D01*
X139333457Y-127251444D01*
X139353448Y-127263426D01*
X139372168Y-127277310D01*
X139389438Y-127292962D01*
X139405090Y-127310232D01*
X139418974Y-127328952D01*
X139430956Y-127348943D01*
X139440921Y-127370013D01*
X139448773Y-127391957D01*
X139454437Y-127414566D01*
X139457856Y-127437621D01*
X139459000Y-127460900D01*
X139459000Y-128035900D01*
X139457856Y-128059179D01*
X139454437Y-128082234D01*
X139448773Y-128104843D01*
X139440921Y-128126787D01*
X139430956Y-128147857D01*
X139418974Y-128167848D01*
X139405090Y-128186568D01*
X139389438Y-128203838D01*
X139372168Y-128219490D01*
X139353448Y-128233374D01*
X139333457Y-128245356D01*
X139312387Y-128255321D01*
X139290443Y-128263173D01*
X139267834Y-128268837D01*
X139244779Y-128272256D01*
X139221500Y-128273400D01*
X138746500Y-128273400D01*
X138723221Y-128272256D01*
X138700166Y-128268837D01*
X138677557Y-128263173D01*
X138655613Y-128255321D01*
X138634543Y-128245356D01*
X138614552Y-128233374D01*
X138595832Y-128219490D01*
X138578562Y-128203838D01*
X138562910Y-128186568D01*
X138549026Y-128167848D01*
X138537044Y-128147857D01*
X138527079Y-128126787D01*
X138519227Y-128104843D01*
X138513563Y-128082234D01*
X138510144Y-128059179D01*
X138509000Y-128035900D01*
X138509000Y-127460900D01*
X138510144Y-127437621D01*
X138513563Y-127414566D01*
X138519227Y-127391957D01*
X138527079Y-127370013D01*
X138537044Y-127348943D01*
X138549026Y-127328952D01*
X138562910Y-127310232D01*
X138578562Y-127292962D01*
X138595832Y-127277310D01*
X138614552Y-127263426D01*
X138634543Y-127251444D01*
X138655613Y-127241479D01*
X138677557Y-127233627D01*
X138700166Y-127227963D01*
X138723221Y-127224544D01*
X138746500Y-127223400D01*
X139221500Y-127223400D01*
X139244779Y-127224544D01*
X139244779Y-127224544D01*
G37*
D12*
X138984000Y-127748400D03*
D10*
G36*
X126462979Y-130945744D02*
G01*
X126486034Y-130949163D01*
X126508643Y-130954827D01*
X126530587Y-130962679D01*
X126551657Y-130972644D01*
X126571648Y-130984626D01*
X126590368Y-130998510D01*
X126607638Y-131014162D01*
X126623290Y-131031432D01*
X126637174Y-131050152D01*
X126649156Y-131070143D01*
X126659121Y-131091213D01*
X126666973Y-131113157D01*
X126672637Y-131135766D01*
X126676056Y-131158821D01*
X126677200Y-131182100D01*
X126677200Y-131657100D01*
X126676056Y-131680379D01*
X126672637Y-131703434D01*
X126666973Y-131726043D01*
X126659121Y-131747987D01*
X126649156Y-131769057D01*
X126637174Y-131789048D01*
X126623290Y-131807768D01*
X126607638Y-131825038D01*
X126590368Y-131840690D01*
X126571648Y-131854574D01*
X126551657Y-131866556D01*
X126530587Y-131876521D01*
X126508643Y-131884373D01*
X126486034Y-131890037D01*
X126462979Y-131893456D01*
X126439700Y-131894600D01*
X125864700Y-131894600D01*
X125841421Y-131893456D01*
X125818366Y-131890037D01*
X125795757Y-131884373D01*
X125773813Y-131876521D01*
X125752743Y-131866556D01*
X125732752Y-131854574D01*
X125714032Y-131840690D01*
X125696762Y-131825038D01*
X125681110Y-131807768D01*
X125667226Y-131789048D01*
X125655244Y-131769057D01*
X125645279Y-131747987D01*
X125637427Y-131726043D01*
X125631763Y-131703434D01*
X125628344Y-131680379D01*
X125627200Y-131657100D01*
X125627200Y-131182100D01*
X125628344Y-131158821D01*
X125631763Y-131135766D01*
X125637427Y-131113157D01*
X125645279Y-131091213D01*
X125655244Y-131070143D01*
X125667226Y-131050152D01*
X125681110Y-131031432D01*
X125696762Y-131014162D01*
X125714032Y-130998510D01*
X125732752Y-130984626D01*
X125752743Y-130972644D01*
X125773813Y-130962679D01*
X125795757Y-130954827D01*
X125818366Y-130949163D01*
X125841421Y-130945744D01*
X125864700Y-130944600D01*
X126439700Y-130944600D01*
X126462979Y-130945744D01*
X126462979Y-130945744D01*
G37*
D12*
X126152200Y-131419600D03*
D10*
G36*
X128212979Y-130945744D02*
G01*
X128236034Y-130949163D01*
X128258643Y-130954827D01*
X128280587Y-130962679D01*
X128301657Y-130972644D01*
X128321648Y-130984626D01*
X128340368Y-130998510D01*
X128357638Y-131014162D01*
X128373290Y-131031432D01*
X128387174Y-131050152D01*
X128399156Y-131070143D01*
X128409121Y-131091213D01*
X128416973Y-131113157D01*
X128422637Y-131135766D01*
X128426056Y-131158821D01*
X128427200Y-131182100D01*
X128427200Y-131657100D01*
X128426056Y-131680379D01*
X128422637Y-131703434D01*
X128416973Y-131726043D01*
X128409121Y-131747987D01*
X128399156Y-131769057D01*
X128387174Y-131789048D01*
X128373290Y-131807768D01*
X128357638Y-131825038D01*
X128340368Y-131840690D01*
X128321648Y-131854574D01*
X128301657Y-131866556D01*
X128280587Y-131876521D01*
X128258643Y-131884373D01*
X128236034Y-131890037D01*
X128212979Y-131893456D01*
X128189700Y-131894600D01*
X127614700Y-131894600D01*
X127591421Y-131893456D01*
X127568366Y-131890037D01*
X127545757Y-131884373D01*
X127523813Y-131876521D01*
X127502743Y-131866556D01*
X127482752Y-131854574D01*
X127464032Y-131840690D01*
X127446762Y-131825038D01*
X127431110Y-131807768D01*
X127417226Y-131789048D01*
X127405244Y-131769057D01*
X127395279Y-131747987D01*
X127387427Y-131726043D01*
X127381763Y-131703434D01*
X127378344Y-131680379D01*
X127377200Y-131657100D01*
X127377200Y-131182100D01*
X127378344Y-131158821D01*
X127381763Y-131135766D01*
X127387427Y-131113157D01*
X127395279Y-131091213D01*
X127405244Y-131070143D01*
X127417226Y-131050152D01*
X127431110Y-131031432D01*
X127446762Y-131014162D01*
X127464032Y-130998510D01*
X127482752Y-130984626D01*
X127502743Y-130972644D01*
X127523813Y-130962679D01*
X127545757Y-130954827D01*
X127568366Y-130949163D01*
X127591421Y-130945744D01*
X127614700Y-130944600D01*
X128189700Y-130944600D01*
X128212979Y-130945744D01*
X128212979Y-130945744D01*
G37*
D12*
X127902200Y-131419600D03*
D10*
G36*
X126462979Y-129421744D02*
G01*
X126486034Y-129425163D01*
X126508643Y-129430827D01*
X126530587Y-129438679D01*
X126551657Y-129448644D01*
X126571648Y-129460626D01*
X126590368Y-129474510D01*
X126607638Y-129490162D01*
X126623290Y-129507432D01*
X126637174Y-129526152D01*
X126649156Y-129546143D01*
X126659121Y-129567213D01*
X126666973Y-129589157D01*
X126672637Y-129611766D01*
X126676056Y-129634821D01*
X126677200Y-129658100D01*
X126677200Y-130133100D01*
X126676056Y-130156379D01*
X126672637Y-130179434D01*
X126666973Y-130202043D01*
X126659121Y-130223987D01*
X126649156Y-130245057D01*
X126637174Y-130265048D01*
X126623290Y-130283768D01*
X126607638Y-130301038D01*
X126590368Y-130316690D01*
X126571648Y-130330574D01*
X126551657Y-130342556D01*
X126530587Y-130352521D01*
X126508643Y-130360373D01*
X126486034Y-130366037D01*
X126462979Y-130369456D01*
X126439700Y-130370600D01*
X125864700Y-130370600D01*
X125841421Y-130369456D01*
X125818366Y-130366037D01*
X125795757Y-130360373D01*
X125773813Y-130352521D01*
X125752743Y-130342556D01*
X125732752Y-130330574D01*
X125714032Y-130316690D01*
X125696762Y-130301038D01*
X125681110Y-130283768D01*
X125667226Y-130265048D01*
X125655244Y-130245057D01*
X125645279Y-130223987D01*
X125637427Y-130202043D01*
X125631763Y-130179434D01*
X125628344Y-130156379D01*
X125627200Y-130133100D01*
X125627200Y-129658100D01*
X125628344Y-129634821D01*
X125631763Y-129611766D01*
X125637427Y-129589157D01*
X125645279Y-129567213D01*
X125655244Y-129546143D01*
X125667226Y-129526152D01*
X125681110Y-129507432D01*
X125696762Y-129490162D01*
X125714032Y-129474510D01*
X125732752Y-129460626D01*
X125752743Y-129448644D01*
X125773813Y-129438679D01*
X125795757Y-129430827D01*
X125818366Y-129425163D01*
X125841421Y-129421744D01*
X125864700Y-129420600D01*
X126439700Y-129420600D01*
X126462979Y-129421744D01*
X126462979Y-129421744D01*
G37*
D12*
X126152200Y-129895600D03*
D10*
G36*
X128212979Y-129421744D02*
G01*
X128236034Y-129425163D01*
X128258643Y-129430827D01*
X128280587Y-129438679D01*
X128301657Y-129448644D01*
X128321648Y-129460626D01*
X128340368Y-129474510D01*
X128357638Y-129490162D01*
X128373290Y-129507432D01*
X128387174Y-129526152D01*
X128399156Y-129546143D01*
X128409121Y-129567213D01*
X128416973Y-129589157D01*
X128422637Y-129611766D01*
X128426056Y-129634821D01*
X128427200Y-129658100D01*
X128427200Y-130133100D01*
X128426056Y-130156379D01*
X128422637Y-130179434D01*
X128416973Y-130202043D01*
X128409121Y-130223987D01*
X128399156Y-130245057D01*
X128387174Y-130265048D01*
X128373290Y-130283768D01*
X128357638Y-130301038D01*
X128340368Y-130316690D01*
X128321648Y-130330574D01*
X128301657Y-130342556D01*
X128280587Y-130352521D01*
X128258643Y-130360373D01*
X128236034Y-130366037D01*
X128212979Y-130369456D01*
X128189700Y-130370600D01*
X127614700Y-130370600D01*
X127591421Y-130369456D01*
X127568366Y-130366037D01*
X127545757Y-130360373D01*
X127523813Y-130352521D01*
X127502743Y-130342556D01*
X127482752Y-130330574D01*
X127464032Y-130316690D01*
X127446762Y-130301038D01*
X127431110Y-130283768D01*
X127417226Y-130265048D01*
X127405244Y-130245057D01*
X127395279Y-130223987D01*
X127387427Y-130202043D01*
X127381763Y-130179434D01*
X127378344Y-130156379D01*
X127377200Y-130133100D01*
X127377200Y-129658100D01*
X127378344Y-129634821D01*
X127381763Y-129611766D01*
X127387427Y-129589157D01*
X127395279Y-129567213D01*
X127405244Y-129546143D01*
X127417226Y-129526152D01*
X127431110Y-129507432D01*
X127446762Y-129490162D01*
X127464032Y-129474510D01*
X127482752Y-129460626D01*
X127502743Y-129448644D01*
X127523813Y-129438679D01*
X127545757Y-129430827D01*
X127568366Y-129425163D01*
X127591421Y-129421744D01*
X127614700Y-129420600D01*
X128189700Y-129420600D01*
X128212979Y-129421744D01*
X128212979Y-129421744D01*
G37*
D12*
X127902200Y-129895600D03*
D10*
G36*
X131172379Y-116304744D02*
G01*
X131195434Y-116308163D01*
X131218043Y-116313827D01*
X131239987Y-116321679D01*
X131261057Y-116331644D01*
X131281048Y-116343626D01*
X131299768Y-116357510D01*
X131317038Y-116373162D01*
X131332690Y-116390432D01*
X131346574Y-116409152D01*
X131358556Y-116429143D01*
X131368521Y-116450213D01*
X131376373Y-116472157D01*
X131382037Y-116494766D01*
X131385456Y-116517821D01*
X131386600Y-116541100D01*
X131386600Y-117116100D01*
X131385456Y-117139379D01*
X131382037Y-117162434D01*
X131376373Y-117185043D01*
X131368521Y-117206987D01*
X131358556Y-117228057D01*
X131346574Y-117248048D01*
X131332690Y-117266768D01*
X131317038Y-117284038D01*
X131299768Y-117299690D01*
X131281048Y-117313574D01*
X131261057Y-117325556D01*
X131239987Y-117335521D01*
X131218043Y-117343373D01*
X131195434Y-117349037D01*
X131172379Y-117352456D01*
X131149100Y-117353600D01*
X130674100Y-117353600D01*
X130650821Y-117352456D01*
X130627766Y-117349037D01*
X130605157Y-117343373D01*
X130583213Y-117335521D01*
X130562143Y-117325556D01*
X130542152Y-117313574D01*
X130523432Y-117299690D01*
X130506162Y-117284038D01*
X130490510Y-117266768D01*
X130476626Y-117248048D01*
X130464644Y-117228057D01*
X130454679Y-117206987D01*
X130446827Y-117185043D01*
X130441163Y-117162434D01*
X130437744Y-117139379D01*
X130436600Y-117116100D01*
X130436600Y-116541100D01*
X130437744Y-116517821D01*
X130441163Y-116494766D01*
X130446827Y-116472157D01*
X130454679Y-116450213D01*
X130464644Y-116429143D01*
X130476626Y-116409152D01*
X130490510Y-116390432D01*
X130506162Y-116373162D01*
X130523432Y-116357510D01*
X130542152Y-116343626D01*
X130562143Y-116331644D01*
X130583213Y-116321679D01*
X130605157Y-116313827D01*
X130627766Y-116308163D01*
X130650821Y-116304744D01*
X130674100Y-116303600D01*
X131149100Y-116303600D01*
X131172379Y-116304744D01*
X131172379Y-116304744D01*
G37*
D12*
X130911600Y-116828600D03*
D10*
G36*
X131172379Y-118054744D02*
G01*
X131195434Y-118058163D01*
X131218043Y-118063827D01*
X131239987Y-118071679D01*
X131261057Y-118081644D01*
X131281048Y-118093626D01*
X131299768Y-118107510D01*
X131317038Y-118123162D01*
X131332690Y-118140432D01*
X131346574Y-118159152D01*
X131358556Y-118179143D01*
X131368521Y-118200213D01*
X131376373Y-118222157D01*
X131382037Y-118244766D01*
X131385456Y-118267821D01*
X131386600Y-118291100D01*
X131386600Y-118866100D01*
X131385456Y-118889379D01*
X131382037Y-118912434D01*
X131376373Y-118935043D01*
X131368521Y-118956987D01*
X131358556Y-118978057D01*
X131346574Y-118998048D01*
X131332690Y-119016768D01*
X131317038Y-119034038D01*
X131299768Y-119049690D01*
X131281048Y-119063574D01*
X131261057Y-119075556D01*
X131239987Y-119085521D01*
X131218043Y-119093373D01*
X131195434Y-119099037D01*
X131172379Y-119102456D01*
X131149100Y-119103600D01*
X130674100Y-119103600D01*
X130650821Y-119102456D01*
X130627766Y-119099037D01*
X130605157Y-119093373D01*
X130583213Y-119085521D01*
X130562143Y-119075556D01*
X130542152Y-119063574D01*
X130523432Y-119049690D01*
X130506162Y-119034038D01*
X130490510Y-119016768D01*
X130476626Y-118998048D01*
X130464644Y-118978057D01*
X130454679Y-118956987D01*
X130446827Y-118935043D01*
X130441163Y-118912434D01*
X130437744Y-118889379D01*
X130436600Y-118866100D01*
X130436600Y-118291100D01*
X130437744Y-118267821D01*
X130441163Y-118244766D01*
X130446827Y-118222157D01*
X130454679Y-118200213D01*
X130464644Y-118179143D01*
X130476626Y-118159152D01*
X130490510Y-118140432D01*
X130506162Y-118123162D01*
X130523432Y-118107510D01*
X130542152Y-118093626D01*
X130562143Y-118081644D01*
X130583213Y-118071679D01*
X130605157Y-118063827D01*
X130627766Y-118058163D01*
X130650821Y-118054744D01*
X130674100Y-118053600D01*
X131149100Y-118053600D01*
X131172379Y-118054744D01*
X131172379Y-118054744D01*
G37*
D12*
X130911600Y-118578600D03*
D10*
G36*
X117634179Y-122423544D02*
G01*
X117657234Y-122426963D01*
X117679843Y-122432627D01*
X117701787Y-122440479D01*
X117722857Y-122450444D01*
X117742848Y-122462426D01*
X117761568Y-122476310D01*
X117778838Y-122491962D01*
X117794490Y-122509232D01*
X117808374Y-122527952D01*
X117820356Y-122547943D01*
X117830321Y-122569013D01*
X117838173Y-122590957D01*
X117843837Y-122613566D01*
X117847256Y-122636621D01*
X117848400Y-122659900D01*
X117848400Y-123234900D01*
X117847256Y-123258179D01*
X117843837Y-123281234D01*
X117838173Y-123303843D01*
X117830321Y-123325787D01*
X117820356Y-123346857D01*
X117808374Y-123366848D01*
X117794490Y-123385568D01*
X117778838Y-123402838D01*
X117761568Y-123418490D01*
X117742848Y-123432374D01*
X117722857Y-123444356D01*
X117701787Y-123454321D01*
X117679843Y-123462173D01*
X117657234Y-123467837D01*
X117634179Y-123471256D01*
X117610900Y-123472400D01*
X117135900Y-123472400D01*
X117112621Y-123471256D01*
X117089566Y-123467837D01*
X117066957Y-123462173D01*
X117045013Y-123454321D01*
X117023943Y-123444356D01*
X117003952Y-123432374D01*
X116985232Y-123418490D01*
X116967962Y-123402838D01*
X116952310Y-123385568D01*
X116938426Y-123366848D01*
X116926444Y-123346857D01*
X116916479Y-123325787D01*
X116908627Y-123303843D01*
X116902963Y-123281234D01*
X116899544Y-123258179D01*
X116898400Y-123234900D01*
X116898400Y-122659900D01*
X116899544Y-122636621D01*
X116902963Y-122613566D01*
X116908627Y-122590957D01*
X116916479Y-122569013D01*
X116926444Y-122547943D01*
X116938426Y-122527952D01*
X116952310Y-122509232D01*
X116967962Y-122491962D01*
X116985232Y-122476310D01*
X117003952Y-122462426D01*
X117023943Y-122450444D01*
X117045013Y-122440479D01*
X117066957Y-122432627D01*
X117089566Y-122426963D01*
X117112621Y-122423544D01*
X117135900Y-122422400D01*
X117610900Y-122422400D01*
X117634179Y-122423544D01*
X117634179Y-122423544D01*
G37*
D12*
X117373400Y-122947400D03*
D10*
G36*
X117634179Y-120673544D02*
G01*
X117657234Y-120676963D01*
X117679843Y-120682627D01*
X117701787Y-120690479D01*
X117722857Y-120700444D01*
X117742848Y-120712426D01*
X117761568Y-120726310D01*
X117778838Y-120741962D01*
X117794490Y-120759232D01*
X117808374Y-120777952D01*
X117820356Y-120797943D01*
X117830321Y-120819013D01*
X117838173Y-120840957D01*
X117843837Y-120863566D01*
X117847256Y-120886621D01*
X117848400Y-120909900D01*
X117848400Y-121484900D01*
X117847256Y-121508179D01*
X117843837Y-121531234D01*
X117838173Y-121553843D01*
X117830321Y-121575787D01*
X117820356Y-121596857D01*
X117808374Y-121616848D01*
X117794490Y-121635568D01*
X117778838Y-121652838D01*
X117761568Y-121668490D01*
X117742848Y-121682374D01*
X117722857Y-121694356D01*
X117701787Y-121704321D01*
X117679843Y-121712173D01*
X117657234Y-121717837D01*
X117634179Y-121721256D01*
X117610900Y-121722400D01*
X117135900Y-121722400D01*
X117112621Y-121721256D01*
X117089566Y-121717837D01*
X117066957Y-121712173D01*
X117045013Y-121704321D01*
X117023943Y-121694356D01*
X117003952Y-121682374D01*
X116985232Y-121668490D01*
X116967962Y-121652838D01*
X116952310Y-121635568D01*
X116938426Y-121616848D01*
X116926444Y-121596857D01*
X116916479Y-121575787D01*
X116908627Y-121553843D01*
X116902963Y-121531234D01*
X116899544Y-121508179D01*
X116898400Y-121484900D01*
X116898400Y-120909900D01*
X116899544Y-120886621D01*
X116902963Y-120863566D01*
X116908627Y-120840957D01*
X116916479Y-120819013D01*
X116926444Y-120797943D01*
X116938426Y-120777952D01*
X116952310Y-120759232D01*
X116967962Y-120741962D01*
X116985232Y-120726310D01*
X117003952Y-120712426D01*
X117023943Y-120700444D01*
X117045013Y-120690479D01*
X117066957Y-120682627D01*
X117089566Y-120676963D01*
X117112621Y-120673544D01*
X117135900Y-120672400D01*
X117610900Y-120672400D01*
X117634179Y-120673544D01*
X117634179Y-120673544D01*
G37*
D12*
X117373400Y-121197400D03*
D10*
G36*
X137710779Y-129001144D02*
G01*
X137733834Y-129004563D01*
X137756443Y-129010227D01*
X137778387Y-129018079D01*
X137799457Y-129028044D01*
X137819448Y-129040026D01*
X137838168Y-129053910D01*
X137855438Y-129069562D01*
X137871090Y-129086832D01*
X137884974Y-129105552D01*
X137896956Y-129125543D01*
X137906921Y-129146613D01*
X137914773Y-129168557D01*
X137920437Y-129191166D01*
X137923856Y-129214221D01*
X137925000Y-129237500D01*
X137925000Y-129812500D01*
X137923856Y-129835779D01*
X137920437Y-129858834D01*
X137914773Y-129881443D01*
X137906921Y-129903387D01*
X137896956Y-129924457D01*
X137884974Y-129944448D01*
X137871090Y-129963168D01*
X137855438Y-129980438D01*
X137838168Y-129996090D01*
X137819448Y-130009974D01*
X137799457Y-130021956D01*
X137778387Y-130031921D01*
X137756443Y-130039773D01*
X137733834Y-130045437D01*
X137710779Y-130048856D01*
X137687500Y-130050000D01*
X137212500Y-130050000D01*
X137189221Y-130048856D01*
X137166166Y-130045437D01*
X137143557Y-130039773D01*
X137121613Y-130031921D01*
X137100543Y-130021956D01*
X137080552Y-130009974D01*
X137061832Y-129996090D01*
X137044562Y-129980438D01*
X137028910Y-129963168D01*
X137015026Y-129944448D01*
X137003044Y-129924457D01*
X136993079Y-129903387D01*
X136985227Y-129881443D01*
X136979563Y-129858834D01*
X136976144Y-129835779D01*
X136975000Y-129812500D01*
X136975000Y-129237500D01*
X136976144Y-129214221D01*
X136979563Y-129191166D01*
X136985227Y-129168557D01*
X136993079Y-129146613D01*
X137003044Y-129125543D01*
X137015026Y-129105552D01*
X137028910Y-129086832D01*
X137044562Y-129069562D01*
X137061832Y-129053910D01*
X137080552Y-129040026D01*
X137100543Y-129028044D01*
X137121613Y-129018079D01*
X137143557Y-129010227D01*
X137166166Y-129004563D01*
X137189221Y-129001144D01*
X137212500Y-129000000D01*
X137687500Y-129000000D01*
X137710779Y-129001144D01*
X137710779Y-129001144D01*
G37*
D12*
X137450000Y-129525000D03*
D10*
G36*
X137710779Y-127251144D02*
G01*
X137733834Y-127254563D01*
X137756443Y-127260227D01*
X137778387Y-127268079D01*
X137799457Y-127278044D01*
X137819448Y-127290026D01*
X137838168Y-127303910D01*
X137855438Y-127319562D01*
X137871090Y-127336832D01*
X137884974Y-127355552D01*
X137896956Y-127375543D01*
X137906921Y-127396613D01*
X137914773Y-127418557D01*
X137920437Y-127441166D01*
X137923856Y-127464221D01*
X137925000Y-127487500D01*
X137925000Y-128062500D01*
X137923856Y-128085779D01*
X137920437Y-128108834D01*
X137914773Y-128131443D01*
X137906921Y-128153387D01*
X137896956Y-128174457D01*
X137884974Y-128194448D01*
X137871090Y-128213168D01*
X137855438Y-128230438D01*
X137838168Y-128246090D01*
X137819448Y-128259974D01*
X137799457Y-128271956D01*
X137778387Y-128281921D01*
X137756443Y-128289773D01*
X137733834Y-128295437D01*
X137710779Y-128298856D01*
X137687500Y-128300000D01*
X137212500Y-128300000D01*
X137189221Y-128298856D01*
X137166166Y-128295437D01*
X137143557Y-128289773D01*
X137121613Y-128281921D01*
X137100543Y-128271956D01*
X137080552Y-128259974D01*
X137061832Y-128246090D01*
X137044562Y-128230438D01*
X137028910Y-128213168D01*
X137015026Y-128194448D01*
X137003044Y-128174457D01*
X136993079Y-128153387D01*
X136985227Y-128131443D01*
X136979563Y-128108834D01*
X136976144Y-128085779D01*
X136975000Y-128062500D01*
X136975000Y-127487500D01*
X136976144Y-127464221D01*
X136979563Y-127441166D01*
X136985227Y-127418557D01*
X136993079Y-127396613D01*
X137003044Y-127375543D01*
X137015026Y-127355552D01*
X137028910Y-127336832D01*
X137044562Y-127319562D01*
X137061832Y-127303910D01*
X137080552Y-127290026D01*
X137100543Y-127278044D01*
X137121613Y-127268079D01*
X137143557Y-127260227D01*
X137166166Y-127254563D01*
X137189221Y-127251144D01*
X137212500Y-127250000D01*
X137687500Y-127250000D01*
X137710779Y-127251144D01*
X137710779Y-127251144D01*
G37*
D12*
X137450000Y-127775000D03*
D10*
G36*
X114890979Y-101671744D02*
G01*
X114914034Y-101675163D01*
X114936643Y-101680827D01*
X114958587Y-101688679D01*
X114979657Y-101698644D01*
X114999648Y-101710626D01*
X115018368Y-101724510D01*
X115035638Y-101740162D01*
X115051290Y-101757432D01*
X115065174Y-101776152D01*
X115077156Y-101796143D01*
X115087121Y-101817213D01*
X115094973Y-101839157D01*
X115100637Y-101861766D01*
X115104056Y-101884821D01*
X115105200Y-101908100D01*
X115105200Y-102483100D01*
X115104056Y-102506379D01*
X115100637Y-102529434D01*
X115094973Y-102552043D01*
X115087121Y-102573987D01*
X115077156Y-102595057D01*
X115065174Y-102615048D01*
X115051290Y-102633768D01*
X115035638Y-102651038D01*
X115018368Y-102666690D01*
X114999648Y-102680574D01*
X114979657Y-102692556D01*
X114958587Y-102702521D01*
X114936643Y-102710373D01*
X114914034Y-102716037D01*
X114890979Y-102719456D01*
X114867700Y-102720600D01*
X114392700Y-102720600D01*
X114369421Y-102719456D01*
X114346366Y-102716037D01*
X114323757Y-102710373D01*
X114301813Y-102702521D01*
X114280743Y-102692556D01*
X114260752Y-102680574D01*
X114242032Y-102666690D01*
X114224762Y-102651038D01*
X114209110Y-102633768D01*
X114195226Y-102615048D01*
X114183244Y-102595057D01*
X114173279Y-102573987D01*
X114165427Y-102552043D01*
X114159763Y-102529434D01*
X114156344Y-102506379D01*
X114155200Y-102483100D01*
X114155200Y-101908100D01*
X114156344Y-101884821D01*
X114159763Y-101861766D01*
X114165427Y-101839157D01*
X114173279Y-101817213D01*
X114183244Y-101796143D01*
X114195226Y-101776152D01*
X114209110Y-101757432D01*
X114224762Y-101740162D01*
X114242032Y-101724510D01*
X114260752Y-101710626D01*
X114280743Y-101698644D01*
X114301813Y-101688679D01*
X114323757Y-101680827D01*
X114346366Y-101675163D01*
X114369421Y-101671744D01*
X114392700Y-101670600D01*
X114867700Y-101670600D01*
X114890979Y-101671744D01*
X114890979Y-101671744D01*
G37*
D12*
X114630200Y-102195600D03*
D10*
G36*
X114890979Y-99921744D02*
G01*
X114914034Y-99925163D01*
X114936643Y-99930827D01*
X114958587Y-99938679D01*
X114979657Y-99948644D01*
X114999648Y-99960626D01*
X115018368Y-99974510D01*
X115035638Y-99990162D01*
X115051290Y-100007432D01*
X115065174Y-100026152D01*
X115077156Y-100046143D01*
X115087121Y-100067213D01*
X115094973Y-100089157D01*
X115100637Y-100111766D01*
X115104056Y-100134821D01*
X115105200Y-100158100D01*
X115105200Y-100733100D01*
X115104056Y-100756379D01*
X115100637Y-100779434D01*
X115094973Y-100802043D01*
X115087121Y-100823987D01*
X115077156Y-100845057D01*
X115065174Y-100865048D01*
X115051290Y-100883768D01*
X115035638Y-100901038D01*
X115018368Y-100916690D01*
X114999648Y-100930574D01*
X114979657Y-100942556D01*
X114958587Y-100952521D01*
X114936643Y-100960373D01*
X114914034Y-100966037D01*
X114890979Y-100969456D01*
X114867700Y-100970600D01*
X114392700Y-100970600D01*
X114369421Y-100969456D01*
X114346366Y-100966037D01*
X114323757Y-100960373D01*
X114301813Y-100952521D01*
X114280743Y-100942556D01*
X114260752Y-100930574D01*
X114242032Y-100916690D01*
X114224762Y-100901038D01*
X114209110Y-100883768D01*
X114195226Y-100865048D01*
X114183244Y-100845057D01*
X114173279Y-100823987D01*
X114165427Y-100802043D01*
X114159763Y-100779434D01*
X114156344Y-100756379D01*
X114155200Y-100733100D01*
X114155200Y-100158100D01*
X114156344Y-100134821D01*
X114159763Y-100111766D01*
X114165427Y-100089157D01*
X114173279Y-100067213D01*
X114183244Y-100046143D01*
X114195226Y-100026152D01*
X114209110Y-100007432D01*
X114224762Y-99990162D01*
X114242032Y-99974510D01*
X114260752Y-99960626D01*
X114280743Y-99948644D01*
X114301813Y-99938679D01*
X114323757Y-99930827D01*
X114346366Y-99925163D01*
X114369421Y-99921744D01*
X114392700Y-99920600D01*
X114867700Y-99920600D01*
X114890979Y-99921744D01*
X114890979Y-99921744D01*
G37*
D12*
X114630200Y-100445600D03*
D18*
X141828800Y-127974600D03*
X141828800Y-135774600D03*
X134600000Y-128000000D03*
X134600000Y-135800000D03*
D19*
X105753400Y-100584000D03*
X112483400Y-100584000D03*
D20*
X124971400Y-112572800D03*
X124971400Y-110772800D03*
X126771400Y-112572800D03*
X126771400Y-110772800D03*
D21*
X129371400Y-108922800D03*
X129371400Y-109422800D03*
X129371400Y-109922800D03*
X129371400Y-110422800D03*
X129371400Y-110922800D03*
X129371400Y-111422800D03*
X129371400Y-111922800D03*
X129371400Y-112422800D03*
X129371400Y-112922800D03*
X129371400Y-113422800D03*
X129371400Y-113922800D03*
X129371400Y-114422800D03*
D22*
X128621400Y-115172800D03*
X128121400Y-115172800D03*
X127621400Y-115172800D03*
X127121400Y-115172800D03*
X126621400Y-115172800D03*
X126121400Y-115172800D03*
X125621400Y-115172800D03*
X125121400Y-115172800D03*
X124621400Y-115172800D03*
X124121400Y-115172800D03*
X123621400Y-115172800D03*
X123121400Y-115172800D03*
D21*
X122371400Y-114422800D03*
X122371400Y-113922800D03*
X122371400Y-113422800D03*
X122371400Y-112922800D03*
X122371400Y-112422800D03*
X122371400Y-111922800D03*
X122371400Y-111422800D03*
X122371400Y-110922800D03*
X122371400Y-110422800D03*
X122371400Y-109922800D03*
X122371400Y-109422800D03*
X122371400Y-108922800D03*
D22*
X123121400Y-108172800D03*
X123621400Y-108172800D03*
X124121400Y-108172800D03*
X124621400Y-108172800D03*
X125121400Y-108172800D03*
X125621400Y-108172800D03*
X126121400Y-108172800D03*
X126621400Y-108172800D03*
X127121400Y-108172800D03*
X127621400Y-108172800D03*
X128121400Y-108172800D03*
X128621400Y-108172800D03*
D10*
G36*
X121476826Y-136835101D02*
G01*
X121482893Y-136836001D01*
X121488843Y-136837491D01*
X121494618Y-136839558D01*
X121500162Y-136842180D01*
X121505423Y-136845333D01*
X121510350Y-136848987D01*
X121514894Y-136853106D01*
X121519013Y-136857650D01*
X121522667Y-136862577D01*
X121525820Y-136867838D01*
X121528442Y-136873382D01*
X121530509Y-136879157D01*
X121531999Y-136885107D01*
X121532899Y-136891174D01*
X121533200Y-136897300D01*
X121533200Y-137022300D01*
X121532899Y-137028426D01*
X121531999Y-137034493D01*
X121530509Y-137040443D01*
X121528442Y-137046218D01*
X121525820Y-137051762D01*
X121522667Y-137057023D01*
X121519013Y-137061950D01*
X121514894Y-137066494D01*
X121510350Y-137070613D01*
X121505423Y-137074267D01*
X121500162Y-137077420D01*
X121494618Y-137080042D01*
X121488843Y-137082109D01*
X121482893Y-137083599D01*
X121476826Y-137084499D01*
X121470700Y-137084800D01*
X120795700Y-137084800D01*
X120789574Y-137084499D01*
X120783507Y-137083599D01*
X120777557Y-137082109D01*
X120771782Y-137080042D01*
X120766238Y-137077420D01*
X120760977Y-137074267D01*
X120756050Y-137070613D01*
X120751506Y-137066494D01*
X120747387Y-137061950D01*
X120743733Y-137057023D01*
X120740580Y-137051762D01*
X120737958Y-137046218D01*
X120735891Y-137040443D01*
X120734401Y-137034493D01*
X120733501Y-137028426D01*
X120733200Y-137022300D01*
X120733200Y-136897300D01*
X120733501Y-136891174D01*
X120734401Y-136885107D01*
X120735891Y-136879157D01*
X120737958Y-136873382D01*
X120740580Y-136867838D01*
X120743733Y-136862577D01*
X120747387Y-136857650D01*
X120751506Y-136853106D01*
X120756050Y-136848987D01*
X120760977Y-136845333D01*
X120766238Y-136842180D01*
X120771782Y-136839558D01*
X120777557Y-136837491D01*
X120783507Y-136836001D01*
X120789574Y-136835101D01*
X120795700Y-136834800D01*
X121470700Y-136834800D01*
X121476826Y-136835101D01*
X121476826Y-136835101D01*
G37*
D23*
X121133200Y-136959800D03*
D10*
G36*
X121476826Y-136335101D02*
G01*
X121482893Y-136336001D01*
X121488843Y-136337491D01*
X121494618Y-136339558D01*
X121500162Y-136342180D01*
X121505423Y-136345333D01*
X121510350Y-136348987D01*
X121514894Y-136353106D01*
X121519013Y-136357650D01*
X121522667Y-136362577D01*
X121525820Y-136367838D01*
X121528442Y-136373382D01*
X121530509Y-136379157D01*
X121531999Y-136385107D01*
X121532899Y-136391174D01*
X121533200Y-136397300D01*
X121533200Y-136522300D01*
X121532899Y-136528426D01*
X121531999Y-136534493D01*
X121530509Y-136540443D01*
X121528442Y-136546218D01*
X121525820Y-136551762D01*
X121522667Y-136557023D01*
X121519013Y-136561950D01*
X121514894Y-136566494D01*
X121510350Y-136570613D01*
X121505423Y-136574267D01*
X121500162Y-136577420D01*
X121494618Y-136580042D01*
X121488843Y-136582109D01*
X121482893Y-136583599D01*
X121476826Y-136584499D01*
X121470700Y-136584800D01*
X120795700Y-136584800D01*
X120789574Y-136584499D01*
X120783507Y-136583599D01*
X120777557Y-136582109D01*
X120771782Y-136580042D01*
X120766238Y-136577420D01*
X120760977Y-136574267D01*
X120756050Y-136570613D01*
X120751506Y-136566494D01*
X120747387Y-136561950D01*
X120743733Y-136557023D01*
X120740580Y-136551762D01*
X120737958Y-136546218D01*
X120735891Y-136540443D01*
X120734401Y-136534493D01*
X120733501Y-136528426D01*
X120733200Y-136522300D01*
X120733200Y-136397300D01*
X120733501Y-136391174D01*
X120734401Y-136385107D01*
X120735891Y-136379157D01*
X120737958Y-136373382D01*
X120740580Y-136367838D01*
X120743733Y-136362577D01*
X120747387Y-136357650D01*
X120751506Y-136353106D01*
X120756050Y-136348987D01*
X120760977Y-136345333D01*
X120766238Y-136342180D01*
X120771782Y-136339558D01*
X120777557Y-136337491D01*
X120783507Y-136336001D01*
X120789574Y-136335101D01*
X120795700Y-136334800D01*
X121470700Y-136334800D01*
X121476826Y-136335101D01*
X121476826Y-136335101D01*
G37*
D23*
X121133200Y-136459800D03*
D10*
G36*
X121476826Y-135835101D02*
G01*
X121482893Y-135836001D01*
X121488843Y-135837491D01*
X121494618Y-135839558D01*
X121500162Y-135842180D01*
X121505423Y-135845333D01*
X121510350Y-135848987D01*
X121514894Y-135853106D01*
X121519013Y-135857650D01*
X121522667Y-135862577D01*
X121525820Y-135867838D01*
X121528442Y-135873382D01*
X121530509Y-135879157D01*
X121531999Y-135885107D01*
X121532899Y-135891174D01*
X121533200Y-135897300D01*
X121533200Y-136022300D01*
X121532899Y-136028426D01*
X121531999Y-136034493D01*
X121530509Y-136040443D01*
X121528442Y-136046218D01*
X121525820Y-136051762D01*
X121522667Y-136057023D01*
X121519013Y-136061950D01*
X121514894Y-136066494D01*
X121510350Y-136070613D01*
X121505423Y-136074267D01*
X121500162Y-136077420D01*
X121494618Y-136080042D01*
X121488843Y-136082109D01*
X121482893Y-136083599D01*
X121476826Y-136084499D01*
X121470700Y-136084800D01*
X120795700Y-136084800D01*
X120789574Y-136084499D01*
X120783507Y-136083599D01*
X120777557Y-136082109D01*
X120771782Y-136080042D01*
X120766238Y-136077420D01*
X120760977Y-136074267D01*
X120756050Y-136070613D01*
X120751506Y-136066494D01*
X120747387Y-136061950D01*
X120743733Y-136057023D01*
X120740580Y-136051762D01*
X120737958Y-136046218D01*
X120735891Y-136040443D01*
X120734401Y-136034493D01*
X120733501Y-136028426D01*
X120733200Y-136022300D01*
X120733200Y-135897300D01*
X120733501Y-135891174D01*
X120734401Y-135885107D01*
X120735891Y-135879157D01*
X120737958Y-135873382D01*
X120740580Y-135867838D01*
X120743733Y-135862577D01*
X120747387Y-135857650D01*
X120751506Y-135853106D01*
X120756050Y-135848987D01*
X120760977Y-135845333D01*
X120766238Y-135842180D01*
X120771782Y-135839558D01*
X120777557Y-135837491D01*
X120783507Y-135836001D01*
X120789574Y-135835101D01*
X120795700Y-135834800D01*
X121470700Y-135834800D01*
X121476826Y-135835101D01*
X121476826Y-135835101D01*
G37*
D23*
X121133200Y-135959800D03*
D10*
G36*
X121476826Y-135335101D02*
G01*
X121482893Y-135336001D01*
X121488843Y-135337491D01*
X121494618Y-135339558D01*
X121500162Y-135342180D01*
X121505423Y-135345333D01*
X121510350Y-135348987D01*
X121514894Y-135353106D01*
X121519013Y-135357650D01*
X121522667Y-135362577D01*
X121525820Y-135367838D01*
X121528442Y-135373382D01*
X121530509Y-135379157D01*
X121531999Y-135385107D01*
X121532899Y-135391174D01*
X121533200Y-135397300D01*
X121533200Y-135522300D01*
X121532899Y-135528426D01*
X121531999Y-135534493D01*
X121530509Y-135540443D01*
X121528442Y-135546218D01*
X121525820Y-135551762D01*
X121522667Y-135557023D01*
X121519013Y-135561950D01*
X121514894Y-135566494D01*
X121510350Y-135570613D01*
X121505423Y-135574267D01*
X121500162Y-135577420D01*
X121494618Y-135580042D01*
X121488843Y-135582109D01*
X121482893Y-135583599D01*
X121476826Y-135584499D01*
X121470700Y-135584800D01*
X120795700Y-135584800D01*
X120789574Y-135584499D01*
X120783507Y-135583599D01*
X120777557Y-135582109D01*
X120771782Y-135580042D01*
X120766238Y-135577420D01*
X120760977Y-135574267D01*
X120756050Y-135570613D01*
X120751506Y-135566494D01*
X120747387Y-135561950D01*
X120743733Y-135557023D01*
X120740580Y-135551762D01*
X120737958Y-135546218D01*
X120735891Y-135540443D01*
X120734401Y-135534493D01*
X120733501Y-135528426D01*
X120733200Y-135522300D01*
X120733200Y-135397300D01*
X120733501Y-135391174D01*
X120734401Y-135385107D01*
X120735891Y-135379157D01*
X120737958Y-135373382D01*
X120740580Y-135367838D01*
X120743733Y-135362577D01*
X120747387Y-135357650D01*
X120751506Y-135353106D01*
X120756050Y-135348987D01*
X120760977Y-135345333D01*
X120766238Y-135342180D01*
X120771782Y-135339558D01*
X120777557Y-135337491D01*
X120783507Y-135336001D01*
X120789574Y-135335101D01*
X120795700Y-135334800D01*
X121470700Y-135334800D01*
X121476826Y-135335101D01*
X121476826Y-135335101D01*
G37*
D23*
X121133200Y-135459800D03*
D10*
G36*
X121476826Y-134835101D02*
G01*
X121482893Y-134836001D01*
X121488843Y-134837491D01*
X121494618Y-134839558D01*
X121500162Y-134842180D01*
X121505423Y-134845333D01*
X121510350Y-134848987D01*
X121514894Y-134853106D01*
X121519013Y-134857650D01*
X121522667Y-134862577D01*
X121525820Y-134867838D01*
X121528442Y-134873382D01*
X121530509Y-134879157D01*
X121531999Y-134885107D01*
X121532899Y-134891174D01*
X121533200Y-134897300D01*
X121533200Y-135022300D01*
X121532899Y-135028426D01*
X121531999Y-135034493D01*
X121530509Y-135040443D01*
X121528442Y-135046218D01*
X121525820Y-135051762D01*
X121522667Y-135057023D01*
X121519013Y-135061950D01*
X121514894Y-135066494D01*
X121510350Y-135070613D01*
X121505423Y-135074267D01*
X121500162Y-135077420D01*
X121494618Y-135080042D01*
X121488843Y-135082109D01*
X121482893Y-135083599D01*
X121476826Y-135084499D01*
X121470700Y-135084800D01*
X120795700Y-135084800D01*
X120789574Y-135084499D01*
X120783507Y-135083599D01*
X120777557Y-135082109D01*
X120771782Y-135080042D01*
X120766238Y-135077420D01*
X120760977Y-135074267D01*
X120756050Y-135070613D01*
X120751506Y-135066494D01*
X120747387Y-135061950D01*
X120743733Y-135057023D01*
X120740580Y-135051762D01*
X120737958Y-135046218D01*
X120735891Y-135040443D01*
X120734401Y-135034493D01*
X120733501Y-135028426D01*
X120733200Y-135022300D01*
X120733200Y-134897300D01*
X120733501Y-134891174D01*
X120734401Y-134885107D01*
X120735891Y-134879157D01*
X120737958Y-134873382D01*
X120740580Y-134867838D01*
X120743733Y-134862577D01*
X120747387Y-134857650D01*
X120751506Y-134853106D01*
X120756050Y-134848987D01*
X120760977Y-134845333D01*
X120766238Y-134842180D01*
X120771782Y-134839558D01*
X120777557Y-134837491D01*
X120783507Y-134836001D01*
X120789574Y-134835101D01*
X120795700Y-134834800D01*
X121470700Y-134834800D01*
X121476826Y-134835101D01*
X121476826Y-134835101D01*
G37*
D23*
X121133200Y-134959800D03*
D10*
G36*
X121476826Y-134335101D02*
G01*
X121482893Y-134336001D01*
X121488843Y-134337491D01*
X121494618Y-134339558D01*
X121500162Y-134342180D01*
X121505423Y-134345333D01*
X121510350Y-134348987D01*
X121514894Y-134353106D01*
X121519013Y-134357650D01*
X121522667Y-134362577D01*
X121525820Y-134367838D01*
X121528442Y-134373382D01*
X121530509Y-134379157D01*
X121531999Y-134385107D01*
X121532899Y-134391174D01*
X121533200Y-134397300D01*
X121533200Y-134522300D01*
X121532899Y-134528426D01*
X121531999Y-134534493D01*
X121530509Y-134540443D01*
X121528442Y-134546218D01*
X121525820Y-134551762D01*
X121522667Y-134557023D01*
X121519013Y-134561950D01*
X121514894Y-134566494D01*
X121510350Y-134570613D01*
X121505423Y-134574267D01*
X121500162Y-134577420D01*
X121494618Y-134580042D01*
X121488843Y-134582109D01*
X121482893Y-134583599D01*
X121476826Y-134584499D01*
X121470700Y-134584800D01*
X120795700Y-134584800D01*
X120789574Y-134584499D01*
X120783507Y-134583599D01*
X120777557Y-134582109D01*
X120771782Y-134580042D01*
X120766238Y-134577420D01*
X120760977Y-134574267D01*
X120756050Y-134570613D01*
X120751506Y-134566494D01*
X120747387Y-134561950D01*
X120743733Y-134557023D01*
X120740580Y-134551762D01*
X120737958Y-134546218D01*
X120735891Y-134540443D01*
X120734401Y-134534493D01*
X120733501Y-134528426D01*
X120733200Y-134522300D01*
X120733200Y-134397300D01*
X120733501Y-134391174D01*
X120734401Y-134385107D01*
X120735891Y-134379157D01*
X120737958Y-134373382D01*
X120740580Y-134367838D01*
X120743733Y-134362577D01*
X120747387Y-134357650D01*
X120751506Y-134353106D01*
X120756050Y-134348987D01*
X120760977Y-134345333D01*
X120766238Y-134342180D01*
X120771782Y-134339558D01*
X120777557Y-134337491D01*
X120783507Y-134336001D01*
X120789574Y-134335101D01*
X120795700Y-134334800D01*
X121470700Y-134334800D01*
X121476826Y-134335101D01*
X121476826Y-134335101D01*
G37*
D23*
X121133200Y-134459800D03*
D10*
G36*
X121476826Y-133835101D02*
G01*
X121482893Y-133836001D01*
X121488843Y-133837491D01*
X121494618Y-133839558D01*
X121500162Y-133842180D01*
X121505423Y-133845333D01*
X121510350Y-133848987D01*
X121514894Y-133853106D01*
X121519013Y-133857650D01*
X121522667Y-133862577D01*
X121525820Y-133867838D01*
X121528442Y-133873382D01*
X121530509Y-133879157D01*
X121531999Y-133885107D01*
X121532899Y-133891174D01*
X121533200Y-133897300D01*
X121533200Y-134022300D01*
X121532899Y-134028426D01*
X121531999Y-134034493D01*
X121530509Y-134040443D01*
X121528442Y-134046218D01*
X121525820Y-134051762D01*
X121522667Y-134057023D01*
X121519013Y-134061950D01*
X121514894Y-134066494D01*
X121510350Y-134070613D01*
X121505423Y-134074267D01*
X121500162Y-134077420D01*
X121494618Y-134080042D01*
X121488843Y-134082109D01*
X121482893Y-134083599D01*
X121476826Y-134084499D01*
X121470700Y-134084800D01*
X120795700Y-134084800D01*
X120789574Y-134084499D01*
X120783507Y-134083599D01*
X120777557Y-134082109D01*
X120771782Y-134080042D01*
X120766238Y-134077420D01*
X120760977Y-134074267D01*
X120756050Y-134070613D01*
X120751506Y-134066494D01*
X120747387Y-134061950D01*
X120743733Y-134057023D01*
X120740580Y-134051762D01*
X120737958Y-134046218D01*
X120735891Y-134040443D01*
X120734401Y-134034493D01*
X120733501Y-134028426D01*
X120733200Y-134022300D01*
X120733200Y-133897300D01*
X120733501Y-133891174D01*
X120734401Y-133885107D01*
X120735891Y-133879157D01*
X120737958Y-133873382D01*
X120740580Y-133867838D01*
X120743733Y-133862577D01*
X120747387Y-133857650D01*
X120751506Y-133853106D01*
X120756050Y-133848987D01*
X120760977Y-133845333D01*
X120766238Y-133842180D01*
X120771782Y-133839558D01*
X120777557Y-133837491D01*
X120783507Y-133836001D01*
X120789574Y-133835101D01*
X120795700Y-133834800D01*
X121470700Y-133834800D01*
X121476826Y-133835101D01*
X121476826Y-133835101D01*
G37*
D23*
X121133200Y-133959800D03*
D10*
G36*
X122151826Y-132610101D02*
G01*
X122157893Y-132611001D01*
X122163843Y-132612491D01*
X122169618Y-132614558D01*
X122175162Y-132617180D01*
X122180423Y-132620333D01*
X122185350Y-132623987D01*
X122189894Y-132628106D01*
X122194013Y-132632650D01*
X122197667Y-132637577D01*
X122200820Y-132642838D01*
X122203442Y-132648382D01*
X122205509Y-132654157D01*
X122206999Y-132660107D01*
X122207899Y-132666174D01*
X122208200Y-132672300D01*
X122208200Y-133347300D01*
X122207899Y-133353426D01*
X122206999Y-133359493D01*
X122205509Y-133365443D01*
X122203442Y-133371218D01*
X122200820Y-133376762D01*
X122197667Y-133382023D01*
X122194013Y-133386950D01*
X122189894Y-133391494D01*
X122185350Y-133395613D01*
X122180423Y-133399267D01*
X122175162Y-133402420D01*
X122169618Y-133405042D01*
X122163843Y-133407109D01*
X122157893Y-133408599D01*
X122151826Y-133409499D01*
X122145700Y-133409800D01*
X122020700Y-133409800D01*
X122014574Y-133409499D01*
X122008507Y-133408599D01*
X122002557Y-133407109D01*
X121996782Y-133405042D01*
X121991238Y-133402420D01*
X121985977Y-133399267D01*
X121981050Y-133395613D01*
X121976506Y-133391494D01*
X121972387Y-133386950D01*
X121968733Y-133382023D01*
X121965580Y-133376762D01*
X121962958Y-133371218D01*
X121960891Y-133365443D01*
X121959401Y-133359493D01*
X121958501Y-133353426D01*
X121958200Y-133347300D01*
X121958200Y-132672300D01*
X121958501Y-132666174D01*
X121959401Y-132660107D01*
X121960891Y-132654157D01*
X121962958Y-132648382D01*
X121965580Y-132642838D01*
X121968733Y-132637577D01*
X121972387Y-132632650D01*
X121976506Y-132628106D01*
X121981050Y-132623987D01*
X121985977Y-132620333D01*
X121991238Y-132617180D01*
X121996782Y-132614558D01*
X122002557Y-132612491D01*
X122008507Y-132611001D01*
X122014574Y-132610101D01*
X122020700Y-132609800D01*
X122145700Y-132609800D01*
X122151826Y-132610101D01*
X122151826Y-132610101D01*
G37*
D23*
X122083200Y-133009800D03*
D10*
G36*
X122651826Y-132610101D02*
G01*
X122657893Y-132611001D01*
X122663843Y-132612491D01*
X122669618Y-132614558D01*
X122675162Y-132617180D01*
X122680423Y-132620333D01*
X122685350Y-132623987D01*
X122689894Y-132628106D01*
X122694013Y-132632650D01*
X122697667Y-132637577D01*
X122700820Y-132642838D01*
X122703442Y-132648382D01*
X122705509Y-132654157D01*
X122706999Y-132660107D01*
X122707899Y-132666174D01*
X122708200Y-132672300D01*
X122708200Y-133347300D01*
X122707899Y-133353426D01*
X122706999Y-133359493D01*
X122705509Y-133365443D01*
X122703442Y-133371218D01*
X122700820Y-133376762D01*
X122697667Y-133382023D01*
X122694013Y-133386950D01*
X122689894Y-133391494D01*
X122685350Y-133395613D01*
X122680423Y-133399267D01*
X122675162Y-133402420D01*
X122669618Y-133405042D01*
X122663843Y-133407109D01*
X122657893Y-133408599D01*
X122651826Y-133409499D01*
X122645700Y-133409800D01*
X122520700Y-133409800D01*
X122514574Y-133409499D01*
X122508507Y-133408599D01*
X122502557Y-133407109D01*
X122496782Y-133405042D01*
X122491238Y-133402420D01*
X122485977Y-133399267D01*
X122481050Y-133395613D01*
X122476506Y-133391494D01*
X122472387Y-133386950D01*
X122468733Y-133382023D01*
X122465580Y-133376762D01*
X122462958Y-133371218D01*
X122460891Y-133365443D01*
X122459401Y-133359493D01*
X122458501Y-133353426D01*
X122458200Y-133347300D01*
X122458200Y-132672300D01*
X122458501Y-132666174D01*
X122459401Y-132660107D01*
X122460891Y-132654157D01*
X122462958Y-132648382D01*
X122465580Y-132642838D01*
X122468733Y-132637577D01*
X122472387Y-132632650D01*
X122476506Y-132628106D01*
X122481050Y-132623987D01*
X122485977Y-132620333D01*
X122491238Y-132617180D01*
X122496782Y-132614558D01*
X122502557Y-132612491D01*
X122508507Y-132611001D01*
X122514574Y-132610101D01*
X122520700Y-132609800D01*
X122645700Y-132609800D01*
X122651826Y-132610101D01*
X122651826Y-132610101D01*
G37*
D23*
X122583200Y-133009800D03*
D10*
G36*
X123151826Y-132610101D02*
G01*
X123157893Y-132611001D01*
X123163843Y-132612491D01*
X123169618Y-132614558D01*
X123175162Y-132617180D01*
X123180423Y-132620333D01*
X123185350Y-132623987D01*
X123189894Y-132628106D01*
X123194013Y-132632650D01*
X123197667Y-132637577D01*
X123200820Y-132642838D01*
X123203442Y-132648382D01*
X123205509Y-132654157D01*
X123206999Y-132660107D01*
X123207899Y-132666174D01*
X123208200Y-132672300D01*
X123208200Y-133347300D01*
X123207899Y-133353426D01*
X123206999Y-133359493D01*
X123205509Y-133365443D01*
X123203442Y-133371218D01*
X123200820Y-133376762D01*
X123197667Y-133382023D01*
X123194013Y-133386950D01*
X123189894Y-133391494D01*
X123185350Y-133395613D01*
X123180423Y-133399267D01*
X123175162Y-133402420D01*
X123169618Y-133405042D01*
X123163843Y-133407109D01*
X123157893Y-133408599D01*
X123151826Y-133409499D01*
X123145700Y-133409800D01*
X123020700Y-133409800D01*
X123014574Y-133409499D01*
X123008507Y-133408599D01*
X123002557Y-133407109D01*
X122996782Y-133405042D01*
X122991238Y-133402420D01*
X122985977Y-133399267D01*
X122981050Y-133395613D01*
X122976506Y-133391494D01*
X122972387Y-133386950D01*
X122968733Y-133382023D01*
X122965580Y-133376762D01*
X122962958Y-133371218D01*
X122960891Y-133365443D01*
X122959401Y-133359493D01*
X122958501Y-133353426D01*
X122958200Y-133347300D01*
X122958200Y-132672300D01*
X122958501Y-132666174D01*
X122959401Y-132660107D01*
X122960891Y-132654157D01*
X122962958Y-132648382D01*
X122965580Y-132642838D01*
X122968733Y-132637577D01*
X122972387Y-132632650D01*
X122976506Y-132628106D01*
X122981050Y-132623987D01*
X122985977Y-132620333D01*
X122991238Y-132617180D01*
X122996782Y-132614558D01*
X123002557Y-132612491D01*
X123008507Y-132611001D01*
X123014574Y-132610101D01*
X123020700Y-132609800D01*
X123145700Y-132609800D01*
X123151826Y-132610101D01*
X123151826Y-132610101D01*
G37*
D23*
X123083200Y-133009800D03*
D10*
G36*
X123651826Y-132610101D02*
G01*
X123657893Y-132611001D01*
X123663843Y-132612491D01*
X123669618Y-132614558D01*
X123675162Y-132617180D01*
X123680423Y-132620333D01*
X123685350Y-132623987D01*
X123689894Y-132628106D01*
X123694013Y-132632650D01*
X123697667Y-132637577D01*
X123700820Y-132642838D01*
X123703442Y-132648382D01*
X123705509Y-132654157D01*
X123706999Y-132660107D01*
X123707899Y-132666174D01*
X123708200Y-132672300D01*
X123708200Y-133347300D01*
X123707899Y-133353426D01*
X123706999Y-133359493D01*
X123705509Y-133365443D01*
X123703442Y-133371218D01*
X123700820Y-133376762D01*
X123697667Y-133382023D01*
X123694013Y-133386950D01*
X123689894Y-133391494D01*
X123685350Y-133395613D01*
X123680423Y-133399267D01*
X123675162Y-133402420D01*
X123669618Y-133405042D01*
X123663843Y-133407109D01*
X123657893Y-133408599D01*
X123651826Y-133409499D01*
X123645700Y-133409800D01*
X123520700Y-133409800D01*
X123514574Y-133409499D01*
X123508507Y-133408599D01*
X123502557Y-133407109D01*
X123496782Y-133405042D01*
X123491238Y-133402420D01*
X123485977Y-133399267D01*
X123481050Y-133395613D01*
X123476506Y-133391494D01*
X123472387Y-133386950D01*
X123468733Y-133382023D01*
X123465580Y-133376762D01*
X123462958Y-133371218D01*
X123460891Y-133365443D01*
X123459401Y-133359493D01*
X123458501Y-133353426D01*
X123458200Y-133347300D01*
X123458200Y-132672300D01*
X123458501Y-132666174D01*
X123459401Y-132660107D01*
X123460891Y-132654157D01*
X123462958Y-132648382D01*
X123465580Y-132642838D01*
X123468733Y-132637577D01*
X123472387Y-132632650D01*
X123476506Y-132628106D01*
X123481050Y-132623987D01*
X123485977Y-132620333D01*
X123491238Y-132617180D01*
X123496782Y-132614558D01*
X123502557Y-132612491D01*
X123508507Y-132611001D01*
X123514574Y-132610101D01*
X123520700Y-132609800D01*
X123645700Y-132609800D01*
X123651826Y-132610101D01*
X123651826Y-132610101D01*
G37*
D23*
X123583200Y-133009800D03*
D10*
G36*
X124151826Y-132610101D02*
G01*
X124157893Y-132611001D01*
X124163843Y-132612491D01*
X124169618Y-132614558D01*
X124175162Y-132617180D01*
X124180423Y-132620333D01*
X124185350Y-132623987D01*
X124189894Y-132628106D01*
X124194013Y-132632650D01*
X124197667Y-132637577D01*
X124200820Y-132642838D01*
X124203442Y-132648382D01*
X124205509Y-132654157D01*
X124206999Y-132660107D01*
X124207899Y-132666174D01*
X124208200Y-132672300D01*
X124208200Y-133347300D01*
X124207899Y-133353426D01*
X124206999Y-133359493D01*
X124205509Y-133365443D01*
X124203442Y-133371218D01*
X124200820Y-133376762D01*
X124197667Y-133382023D01*
X124194013Y-133386950D01*
X124189894Y-133391494D01*
X124185350Y-133395613D01*
X124180423Y-133399267D01*
X124175162Y-133402420D01*
X124169618Y-133405042D01*
X124163843Y-133407109D01*
X124157893Y-133408599D01*
X124151826Y-133409499D01*
X124145700Y-133409800D01*
X124020700Y-133409800D01*
X124014574Y-133409499D01*
X124008507Y-133408599D01*
X124002557Y-133407109D01*
X123996782Y-133405042D01*
X123991238Y-133402420D01*
X123985977Y-133399267D01*
X123981050Y-133395613D01*
X123976506Y-133391494D01*
X123972387Y-133386950D01*
X123968733Y-133382023D01*
X123965580Y-133376762D01*
X123962958Y-133371218D01*
X123960891Y-133365443D01*
X123959401Y-133359493D01*
X123958501Y-133353426D01*
X123958200Y-133347300D01*
X123958200Y-132672300D01*
X123958501Y-132666174D01*
X123959401Y-132660107D01*
X123960891Y-132654157D01*
X123962958Y-132648382D01*
X123965580Y-132642838D01*
X123968733Y-132637577D01*
X123972387Y-132632650D01*
X123976506Y-132628106D01*
X123981050Y-132623987D01*
X123985977Y-132620333D01*
X123991238Y-132617180D01*
X123996782Y-132614558D01*
X124002557Y-132612491D01*
X124008507Y-132611001D01*
X124014574Y-132610101D01*
X124020700Y-132609800D01*
X124145700Y-132609800D01*
X124151826Y-132610101D01*
X124151826Y-132610101D01*
G37*
D23*
X124083200Y-133009800D03*
D10*
G36*
X124651826Y-132610101D02*
G01*
X124657893Y-132611001D01*
X124663843Y-132612491D01*
X124669618Y-132614558D01*
X124675162Y-132617180D01*
X124680423Y-132620333D01*
X124685350Y-132623987D01*
X124689894Y-132628106D01*
X124694013Y-132632650D01*
X124697667Y-132637577D01*
X124700820Y-132642838D01*
X124703442Y-132648382D01*
X124705509Y-132654157D01*
X124706999Y-132660107D01*
X124707899Y-132666174D01*
X124708200Y-132672300D01*
X124708200Y-133347300D01*
X124707899Y-133353426D01*
X124706999Y-133359493D01*
X124705509Y-133365443D01*
X124703442Y-133371218D01*
X124700820Y-133376762D01*
X124697667Y-133382023D01*
X124694013Y-133386950D01*
X124689894Y-133391494D01*
X124685350Y-133395613D01*
X124680423Y-133399267D01*
X124675162Y-133402420D01*
X124669618Y-133405042D01*
X124663843Y-133407109D01*
X124657893Y-133408599D01*
X124651826Y-133409499D01*
X124645700Y-133409800D01*
X124520700Y-133409800D01*
X124514574Y-133409499D01*
X124508507Y-133408599D01*
X124502557Y-133407109D01*
X124496782Y-133405042D01*
X124491238Y-133402420D01*
X124485977Y-133399267D01*
X124481050Y-133395613D01*
X124476506Y-133391494D01*
X124472387Y-133386950D01*
X124468733Y-133382023D01*
X124465580Y-133376762D01*
X124462958Y-133371218D01*
X124460891Y-133365443D01*
X124459401Y-133359493D01*
X124458501Y-133353426D01*
X124458200Y-133347300D01*
X124458200Y-132672300D01*
X124458501Y-132666174D01*
X124459401Y-132660107D01*
X124460891Y-132654157D01*
X124462958Y-132648382D01*
X124465580Y-132642838D01*
X124468733Y-132637577D01*
X124472387Y-132632650D01*
X124476506Y-132628106D01*
X124481050Y-132623987D01*
X124485977Y-132620333D01*
X124491238Y-132617180D01*
X124496782Y-132614558D01*
X124502557Y-132612491D01*
X124508507Y-132611001D01*
X124514574Y-132610101D01*
X124520700Y-132609800D01*
X124645700Y-132609800D01*
X124651826Y-132610101D01*
X124651826Y-132610101D01*
G37*
D23*
X124583200Y-133009800D03*
D10*
G36*
X125151826Y-132610101D02*
G01*
X125157893Y-132611001D01*
X125163843Y-132612491D01*
X125169618Y-132614558D01*
X125175162Y-132617180D01*
X125180423Y-132620333D01*
X125185350Y-132623987D01*
X125189894Y-132628106D01*
X125194013Y-132632650D01*
X125197667Y-132637577D01*
X125200820Y-132642838D01*
X125203442Y-132648382D01*
X125205509Y-132654157D01*
X125206999Y-132660107D01*
X125207899Y-132666174D01*
X125208200Y-132672300D01*
X125208200Y-133347300D01*
X125207899Y-133353426D01*
X125206999Y-133359493D01*
X125205509Y-133365443D01*
X125203442Y-133371218D01*
X125200820Y-133376762D01*
X125197667Y-133382023D01*
X125194013Y-133386950D01*
X125189894Y-133391494D01*
X125185350Y-133395613D01*
X125180423Y-133399267D01*
X125175162Y-133402420D01*
X125169618Y-133405042D01*
X125163843Y-133407109D01*
X125157893Y-133408599D01*
X125151826Y-133409499D01*
X125145700Y-133409800D01*
X125020700Y-133409800D01*
X125014574Y-133409499D01*
X125008507Y-133408599D01*
X125002557Y-133407109D01*
X124996782Y-133405042D01*
X124991238Y-133402420D01*
X124985977Y-133399267D01*
X124981050Y-133395613D01*
X124976506Y-133391494D01*
X124972387Y-133386950D01*
X124968733Y-133382023D01*
X124965580Y-133376762D01*
X124962958Y-133371218D01*
X124960891Y-133365443D01*
X124959401Y-133359493D01*
X124958501Y-133353426D01*
X124958200Y-133347300D01*
X124958200Y-132672300D01*
X124958501Y-132666174D01*
X124959401Y-132660107D01*
X124960891Y-132654157D01*
X124962958Y-132648382D01*
X124965580Y-132642838D01*
X124968733Y-132637577D01*
X124972387Y-132632650D01*
X124976506Y-132628106D01*
X124981050Y-132623987D01*
X124985977Y-132620333D01*
X124991238Y-132617180D01*
X124996782Y-132614558D01*
X125002557Y-132612491D01*
X125008507Y-132611001D01*
X125014574Y-132610101D01*
X125020700Y-132609800D01*
X125145700Y-132609800D01*
X125151826Y-132610101D01*
X125151826Y-132610101D01*
G37*
D23*
X125083200Y-133009800D03*
D10*
G36*
X126376826Y-133835101D02*
G01*
X126382893Y-133836001D01*
X126388843Y-133837491D01*
X126394618Y-133839558D01*
X126400162Y-133842180D01*
X126405423Y-133845333D01*
X126410350Y-133848987D01*
X126414894Y-133853106D01*
X126419013Y-133857650D01*
X126422667Y-133862577D01*
X126425820Y-133867838D01*
X126428442Y-133873382D01*
X126430509Y-133879157D01*
X126431999Y-133885107D01*
X126432899Y-133891174D01*
X126433200Y-133897300D01*
X126433200Y-134022300D01*
X126432899Y-134028426D01*
X126431999Y-134034493D01*
X126430509Y-134040443D01*
X126428442Y-134046218D01*
X126425820Y-134051762D01*
X126422667Y-134057023D01*
X126419013Y-134061950D01*
X126414894Y-134066494D01*
X126410350Y-134070613D01*
X126405423Y-134074267D01*
X126400162Y-134077420D01*
X126394618Y-134080042D01*
X126388843Y-134082109D01*
X126382893Y-134083599D01*
X126376826Y-134084499D01*
X126370700Y-134084800D01*
X125695700Y-134084800D01*
X125689574Y-134084499D01*
X125683507Y-134083599D01*
X125677557Y-134082109D01*
X125671782Y-134080042D01*
X125666238Y-134077420D01*
X125660977Y-134074267D01*
X125656050Y-134070613D01*
X125651506Y-134066494D01*
X125647387Y-134061950D01*
X125643733Y-134057023D01*
X125640580Y-134051762D01*
X125637958Y-134046218D01*
X125635891Y-134040443D01*
X125634401Y-134034493D01*
X125633501Y-134028426D01*
X125633200Y-134022300D01*
X125633200Y-133897300D01*
X125633501Y-133891174D01*
X125634401Y-133885107D01*
X125635891Y-133879157D01*
X125637958Y-133873382D01*
X125640580Y-133867838D01*
X125643733Y-133862577D01*
X125647387Y-133857650D01*
X125651506Y-133853106D01*
X125656050Y-133848987D01*
X125660977Y-133845333D01*
X125666238Y-133842180D01*
X125671782Y-133839558D01*
X125677557Y-133837491D01*
X125683507Y-133836001D01*
X125689574Y-133835101D01*
X125695700Y-133834800D01*
X126370700Y-133834800D01*
X126376826Y-133835101D01*
X126376826Y-133835101D01*
G37*
D23*
X126033200Y-133959800D03*
D10*
G36*
X126376826Y-134335101D02*
G01*
X126382893Y-134336001D01*
X126388843Y-134337491D01*
X126394618Y-134339558D01*
X126400162Y-134342180D01*
X126405423Y-134345333D01*
X126410350Y-134348987D01*
X126414894Y-134353106D01*
X126419013Y-134357650D01*
X126422667Y-134362577D01*
X126425820Y-134367838D01*
X126428442Y-134373382D01*
X126430509Y-134379157D01*
X126431999Y-134385107D01*
X126432899Y-134391174D01*
X126433200Y-134397300D01*
X126433200Y-134522300D01*
X126432899Y-134528426D01*
X126431999Y-134534493D01*
X126430509Y-134540443D01*
X126428442Y-134546218D01*
X126425820Y-134551762D01*
X126422667Y-134557023D01*
X126419013Y-134561950D01*
X126414894Y-134566494D01*
X126410350Y-134570613D01*
X126405423Y-134574267D01*
X126400162Y-134577420D01*
X126394618Y-134580042D01*
X126388843Y-134582109D01*
X126382893Y-134583599D01*
X126376826Y-134584499D01*
X126370700Y-134584800D01*
X125695700Y-134584800D01*
X125689574Y-134584499D01*
X125683507Y-134583599D01*
X125677557Y-134582109D01*
X125671782Y-134580042D01*
X125666238Y-134577420D01*
X125660977Y-134574267D01*
X125656050Y-134570613D01*
X125651506Y-134566494D01*
X125647387Y-134561950D01*
X125643733Y-134557023D01*
X125640580Y-134551762D01*
X125637958Y-134546218D01*
X125635891Y-134540443D01*
X125634401Y-134534493D01*
X125633501Y-134528426D01*
X125633200Y-134522300D01*
X125633200Y-134397300D01*
X125633501Y-134391174D01*
X125634401Y-134385107D01*
X125635891Y-134379157D01*
X125637958Y-134373382D01*
X125640580Y-134367838D01*
X125643733Y-134362577D01*
X125647387Y-134357650D01*
X125651506Y-134353106D01*
X125656050Y-134348987D01*
X125660977Y-134345333D01*
X125666238Y-134342180D01*
X125671782Y-134339558D01*
X125677557Y-134337491D01*
X125683507Y-134336001D01*
X125689574Y-134335101D01*
X125695700Y-134334800D01*
X126370700Y-134334800D01*
X126376826Y-134335101D01*
X126376826Y-134335101D01*
G37*
D23*
X126033200Y-134459800D03*
D10*
G36*
X126376826Y-134835101D02*
G01*
X126382893Y-134836001D01*
X126388843Y-134837491D01*
X126394618Y-134839558D01*
X126400162Y-134842180D01*
X126405423Y-134845333D01*
X126410350Y-134848987D01*
X126414894Y-134853106D01*
X126419013Y-134857650D01*
X126422667Y-134862577D01*
X126425820Y-134867838D01*
X126428442Y-134873382D01*
X126430509Y-134879157D01*
X126431999Y-134885107D01*
X126432899Y-134891174D01*
X126433200Y-134897300D01*
X126433200Y-135022300D01*
X126432899Y-135028426D01*
X126431999Y-135034493D01*
X126430509Y-135040443D01*
X126428442Y-135046218D01*
X126425820Y-135051762D01*
X126422667Y-135057023D01*
X126419013Y-135061950D01*
X126414894Y-135066494D01*
X126410350Y-135070613D01*
X126405423Y-135074267D01*
X126400162Y-135077420D01*
X126394618Y-135080042D01*
X126388843Y-135082109D01*
X126382893Y-135083599D01*
X126376826Y-135084499D01*
X126370700Y-135084800D01*
X125695700Y-135084800D01*
X125689574Y-135084499D01*
X125683507Y-135083599D01*
X125677557Y-135082109D01*
X125671782Y-135080042D01*
X125666238Y-135077420D01*
X125660977Y-135074267D01*
X125656050Y-135070613D01*
X125651506Y-135066494D01*
X125647387Y-135061950D01*
X125643733Y-135057023D01*
X125640580Y-135051762D01*
X125637958Y-135046218D01*
X125635891Y-135040443D01*
X125634401Y-135034493D01*
X125633501Y-135028426D01*
X125633200Y-135022300D01*
X125633200Y-134897300D01*
X125633501Y-134891174D01*
X125634401Y-134885107D01*
X125635891Y-134879157D01*
X125637958Y-134873382D01*
X125640580Y-134867838D01*
X125643733Y-134862577D01*
X125647387Y-134857650D01*
X125651506Y-134853106D01*
X125656050Y-134848987D01*
X125660977Y-134845333D01*
X125666238Y-134842180D01*
X125671782Y-134839558D01*
X125677557Y-134837491D01*
X125683507Y-134836001D01*
X125689574Y-134835101D01*
X125695700Y-134834800D01*
X126370700Y-134834800D01*
X126376826Y-134835101D01*
X126376826Y-134835101D01*
G37*
D23*
X126033200Y-134959800D03*
D10*
G36*
X126376826Y-135335101D02*
G01*
X126382893Y-135336001D01*
X126388843Y-135337491D01*
X126394618Y-135339558D01*
X126400162Y-135342180D01*
X126405423Y-135345333D01*
X126410350Y-135348987D01*
X126414894Y-135353106D01*
X126419013Y-135357650D01*
X126422667Y-135362577D01*
X126425820Y-135367838D01*
X126428442Y-135373382D01*
X126430509Y-135379157D01*
X126431999Y-135385107D01*
X126432899Y-135391174D01*
X126433200Y-135397300D01*
X126433200Y-135522300D01*
X126432899Y-135528426D01*
X126431999Y-135534493D01*
X126430509Y-135540443D01*
X126428442Y-135546218D01*
X126425820Y-135551762D01*
X126422667Y-135557023D01*
X126419013Y-135561950D01*
X126414894Y-135566494D01*
X126410350Y-135570613D01*
X126405423Y-135574267D01*
X126400162Y-135577420D01*
X126394618Y-135580042D01*
X126388843Y-135582109D01*
X126382893Y-135583599D01*
X126376826Y-135584499D01*
X126370700Y-135584800D01*
X125695700Y-135584800D01*
X125689574Y-135584499D01*
X125683507Y-135583599D01*
X125677557Y-135582109D01*
X125671782Y-135580042D01*
X125666238Y-135577420D01*
X125660977Y-135574267D01*
X125656050Y-135570613D01*
X125651506Y-135566494D01*
X125647387Y-135561950D01*
X125643733Y-135557023D01*
X125640580Y-135551762D01*
X125637958Y-135546218D01*
X125635891Y-135540443D01*
X125634401Y-135534493D01*
X125633501Y-135528426D01*
X125633200Y-135522300D01*
X125633200Y-135397300D01*
X125633501Y-135391174D01*
X125634401Y-135385107D01*
X125635891Y-135379157D01*
X125637958Y-135373382D01*
X125640580Y-135367838D01*
X125643733Y-135362577D01*
X125647387Y-135357650D01*
X125651506Y-135353106D01*
X125656050Y-135348987D01*
X125660977Y-135345333D01*
X125666238Y-135342180D01*
X125671782Y-135339558D01*
X125677557Y-135337491D01*
X125683507Y-135336001D01*
X125689574Y-135335101D01*
X125695700Y-135334800D01*
X126370700Y-135334800D01*
X126376826Y-135335101D01*
X126376826Y-135335101D01*
G37*
D23*
X126033200Y-135459800D03*
D10*
G36*
X126376826Y-135835101D02*
G01*
X126382893Y-135836001D01*
X126388843Y-135837491D01*
X126394618Y-135839558D01*
X126400162Y-135842180D01*
X126405423Y-135845333D01*
X126410350Y-135848987D01*
X126414894Y-135853106D01*
X126419013Y-135857650D01*
X126422667Y-135862577D01*
X126425820Y-135867838D01*
X126428442Y-135873382D01*
X126430509Y-135879157D01*
X126431999Y-135885107D01*
X126432899Y-135891174D01*
X126433200Y-135897300D01*
X126433200Y-136022300D01*
X126432899Y-136028426D01*
X126431999Y-136034493D01*
X126430509Y-136040443D01*
X126428442Y-136046218D01*
X126425820Y-136051762D01*
X126422667Y-136057023D01*
X126419013Y-136061950D01*
X126414894Y-136066494D01*
X126410350Y-136070613D01*
X126405423Y-136074267D01*
X126400162Y-136077420D01*
X126394618Y-136080042D01*
X126388843Y-136082109D01*
X126382893Y-136083599D01*
X126376826Y-136084499D01*
X126370700Y-136084800D01*
X125695700Y-136084800D01*
X125689574Y-136084499D01*
X125683507Y-136083599D01*
X125677557Y-136082109D01*
X125671782Y-136080042D01*
X125666238Y-136077420D01*
X125660977Y-136074267D01*
X125656050Y-136070613D01*
X125651506Y-136066494D01*
X125647387Y-136061950D01*
X125643733Y-136057023D01*
X125640580Y-136051762D01*
X125637958Y-136046218D01*
X125635891Y-136040443D01*
X125634401Y-136034493D01*
X125633501Y-136028426D01*
X125633200Y-136022300D01*
X125633200Y-135897300D01*
X125633501Y-135891174D01*
X125634401Y-135885107D01*
X125635891Y-135879157D01*
X125637958Y-135873382D01*
X125640580Y-135867838D01*
X125643733Y-135862577D01*
X125647387Y-135857650D01*
X125651506Y-135853106D01*
X125656050Y-135848987D01*
X125660977Y-135845333D01*
X125666238Y-135842180D01*
X125671782Y-135839558D01*
X125677557Y-135837491D01*
X125683507Y-135836001D01*
X125689574Y-135835101D01*
X125695700Y-135834800D01*
X126370700Y-135834800D01*
X126376826Y-135835101D01*
X126376826Y-135835101D01*
G37*
D23*
X126033200Y-135959800D03*
D10*
G36*
X126376826Y-136335101D02*
G01*
X126382893Y-136336001D01*
X126388843Y-136337491D01*
X126394618Y-136339558D01*
X126400162Y-136342180D01*
X126405423Y-136345333D01*
X126410350Y-136348987D01*
X126414894Y-136353106D01*
X126419013Y-136357650D01*
X126422667Y-136362577D01*
X126425820Y-136367838D01*
X126428442Y-136373382D01*
X126430509Y-136379157D01*
X126431999Y-136385107D01*
X126432899Y-136391174D01*
X126433200Y-136397300D01*
X126433200Y-136522300D01*
X126432899Y-136528426D01*
X126431999Y-136534493D01*
X126430509Y-136540443D01*
X126428442Y-136546218D01*
X126425820Y-136551762D01*
X126422667Y-136557023D01*
X126419013Y-136561950D01*
X126414894Y-136566494D01*
X126410350Y-136570613D01*
X126405423Y-136574267D01*
X126400162Y-136577420D01*
X126394618Y-136580042D01*
X126388843Y-136582109D01*
X126382893Y-136583599D01*
X126376826Y-136584499D01*
X126370700Y-136584800D01*
X125695700Y-136584800D01*
X125689574Y-136584499D01*
X125683507Y-136583599D01*
X125677557Y-136582109D01*
X125671782Y-136580042D01*
X125666238Y-136577420D01*
X125660977Y-136574267D01*
X125656050Y-136570613D01*
X125651506Y-136566494D01*
X125647387Y-136561950D01*
X125643733Y-136557023D01*
X125640580Y-136551762D01*
X125637958Y-136546218D01*
X125635891Y-136540443D01*
X125634401Y-136534493D01*
X125633501Y-136528426D01*
X125633200Y-136522300D01*
X125633200Y-136397300D01*
X125633501Y-136391174D01*
X125634401Y-136385107D01*
X125635891Y-136379157D01*
X125637958Y-136373382D01*
X125640580Y-136367838D01*
X125643733Y-136362577D01*
X125647387Y-136357650D01*
X125651506Y-136353106D01*
X125656050Y-136348987D01*
X125660977Y-136345333D01*
X125666238Y-136342180D01*
X125671782Y-136339558D01*
X125677557Y-136337491D01*
X125683507Y-136336001D01*
X125689574Y-136335101D01*
X125695700Y-136334800D01*
X126370700Y-136334800D01*
X126376826Y-136335101D01*
X126376826Y-136335101D01*
G37*
D23*
X126033200Y-136459800D03*
D10*
G36*
X126376826Y-136835101D02*
G01*
X126382893Y-136836001D01*
X126388843Y-136837491D01*
X126394618Y-136839558D01*
X126400162Y-136842180D01*
X126405423Y-136845333D01*
X126410350Y-136848987D01*
X126414894Y-136853106D01*
X126419013Y-136857650D01*
X126422667Y-136862577D01*
X126425820Y-136867838D01*
X126428442Y-136873382D01*
X126430509Y-136879157D01*
X126431999Y-136885107D01*
X126432899Y-136891174D01*
X126433200Y-136897300D01*
X126433200Y-137022300D01*
X126432899Y-137028426D01*
X126431999Y-137034493D01*
X126430509Y-137040443D01*
X126428442Y-137046218D01*
X126425820Y-137051762D01*
X126422667Y-137057023D01*
X126419013Y-137061950D01*
X126414894Y-137066494D01*
X126410350Y-137070613D01*
X126405423Y-137074267D01*
X126400162Y-137077420D01*
X126394618Y-137080042D01*
X126388843Y-137082109D01*
X126382893Y-137083599D01*
X126376826Y-137084499D01*
X126370700Y-137084800D01*
X125695700Y-137084800D01*
X125689574Y-137084499D01*
X125683507Y-137083599D01*
X125677557Y-137082109D01*
X125671782Y-137080042D01*
X125666238Y-137077420D01*
X125660977Y-137074267D01*
X125656050Y-137070613D01*
X125651506Y-137066494D01*
X125647387Y-137061950D01*
X125643733Y-137057023D01*
X125640580Y-137051762D01*
X125637958Y-137046218D01*
X125635891Y-137040443D01*
X125634401Y-137034493D01*
X125633501Y-137028426D01*
X125633200Y-137022300D01*
X125633200Y-136897300D01*
X125633501Y-136891174D01*
X125634401Y-136885107D01*
X125635891Y-136879157D01*
X125637958Y-136873382D01*
X125640580Y-136867838D01*
X125643733Y-136862577D01*
X125647387Y-136857650D01*
X125651506Y-136853106D01*
X125656050Y-136848987D01*
X125660977Y-136845333D01*
X125666238Y-136842180D01*
X125671782Y-136839558D01*
X125677557Y-136837491D01*
X125683507Y-136836001D01*
X125689574Y-136835101D01*
X125695700Y-136834800D01*
X126370700Y-136834800D01*
X126376826Y-136835101D01*
X126376826Y-136835101D01*
G37*
D23*
X126033200Y-136959800D03*
D10*
G36*
X125151826Y-137510101D02*
G01*
X125157893Y-137511001D01*
X125163843Y-137512491D01*
X125169618Y-137514558D01*
X125175162Y-137517180D01*
X125180423Y-137520333D01*
X125185350Y-137523987D01*
X125189894Y-137528106D01*
X125194013Y-137532650D01*
X125197667Y-137537577D01*
X125200820Y-137542838D01*
X125203442Y-137548382D01*
X125205509Y-137554157D01*
X125206999Y-137560107D01*
X125207899Y-137566174D01*
X125208200Y-137572300D01*
X125208200Y-138247300D01*
X125207899Y-138253426D01*
X125206999Y-138259493D01*
X125205509Y-138265443D01*
X125203442Y-138271218D01*
X125200820Y-138276762D01*
X125197667Y-138282023D01*
X125194013Y-138286950D01*
X125189894Y-138291494D01*
X125185350Y-138295613D01*
X125180423Y-138299267D01*
X125175162Y-138302420D01*
X125169618Y-138305042D01*
X125163843Y-138307109D01*
X125157893Y-138308599D01*
X125151826Y-138309499D01*
X125145700Y-138309800D01*
X125020700Y-138309800D01*
X125014574Y-138309499D01*
X125008507Y-138308599D01*
X125002557Y-138307109D01*
X124996782Y-138305042D01*
X124991238Y-138302420D01*
X124985977Y-138299267D01*
X124981050Y-138295613D01*
X124976506Y-138291494D01*
X124972387Y-138286950D01*
X124968733Y-138282023D01*
X124965580Y-138276762D01*
X124962958Y-138271218D01*
X124960891Y-138265443D01*
X124959401Y-138259493D01*
X124958501Y-138253426D01*
X124958200Y-138247300D01*
X124958200Y-137572300D01*
X124958501Y-137566174D01*
X124959401Y-137560107D01*
X124960891Y-137554157D01*
X124962958Y-137548382D01*
X124965580Y-137542838D01*
X124968733Y-137537577D01*
X124972387Y-137532650D01*
X124976506Y-137528106D01*
X124981050Y-137523987D01*
X124985977Y-137520333D01*
X124991238Y-137517180D01*
X124996782Y-137514558D01*
X125002557Y-137512491D01*
X125008507Y-137511001D01*
X125014574Y-137510101D01*
X125020700Y-137509800D01*
X125145700Y-137509800D01*
X125151826Y-137510101D01*
X125151826Y-137510101D01*
G37*
D23*
X125083200Y-137909800D03*
D10*
G36*
X124651826Y-137510101D02*
G01*
X124657893Y-137511001D01*
X124663843Y-137512491D01*
X124669618Y-137514558D01*
X124675162Y-137517180D01*
X124680423Y-137520333D01*
X124685350Y-137523987D01*
X124689894Y-137528106D01*
X124694013Y-137532650D01*
X124697667Y-137537577D01*
X124700820Y-137542838D01*
X124703442Y-137548382D01*
X124705509Y-137554157D01*
X124706999Y-137560107D01*
X124707899Y-137566174D01*
X124708200Y-137572300D01*
X124708200Y-138247300D01*
X124707899Y-138253426D01*
X124706999Y-138259493D01*
X124705509Y-138265443D01*
X124703442Y-138271218D01*
X124700820Y-138276762D01*
X124697667Y-138282023D01*
X124694013Y-138286950D01*
X124689894Y-138291494D01*
X124685350Y-138295613D01*
X124680423Y-138299267D01*
X124675162Y-138302420D01*
X124669618Y-138305042D01*
X124663843Y-138307109D01*
X124657893Y-138308599D01*
X124651826Y-138309499D01*
X124645700Y-138309800D01*
X124520700Y-138309800D01*
X124514574Y-138309499D01*
X124508507Y-138308599D01*
X124502557Y-138307109D01*
X124496782Y-138305042D01*
X124491238Y-138302420D01*
X124485977Y-138299267D01*
X124481050Y-138295613D01*
X124476506Y-138291494D01*
X124472387Y-138286950D01*
X124468733Y-138282023D01*
X124465580Y-138276762D01*
X124462958Y-138271218D01*
X124460891Y-138265443D01*
X124459401Y-138259493D01*
X124458501Y-138253426D01*
X124458200Y-138247300D01*
X124458200Y-137572300D01*
X124458501Y-137566174D01*
X124459401Y-137560107D01*
X124460891Y-137554157D01*
X124462958Y-137548382D01*
X124465580Y-137542838D01*
X124468733Y-137537577D01*
X124472387Y-137532650D01*
X124476506Y-137528106D01*
X124481050Y-137523987D01*
X124485977Y-137520333D01*
X124491238Y-137517180D01*
X124496782Y-137514558D01*
X124502557Y-137512491D01*
X124508507Y-137511001D01*
X124514574Y-137510101D01*
X124520700Y-137509800D01*
X124645700Y-137509800D01*
X124651826Y-137510101D01*
X124651826Y-137510101D01*
G37*
D23*
X124583200Y-137909800D03*
D10*
G36*
X124151826Y-137510101D02*
G01*
X124157893Y-137511001D01*
X124163843Y-137512491D01*
X124169618Y-137514558D01*
X124175162Y-137517180D01*
X124180423Y-137520333D01*
X124185350Y-137523987D01*
X124189894Y-137528106D01*
X124194013Y-137532650D01*
X124197667Y-137537577D01*
X124200820Y-137542838D01*
X124203442Y-137548382D01*
X124205509Y-137554157D01*
X124206999Y-137560107D01*
X124207899Y-137566174D01*
X124208200Y-137572300D01*
X124208200Y-138247300D01*
X124207899Y-138253426D01*
X124206999Y-138259493D01*
X124205509Y-138265443D01*
X124203442Y-138271218D01*
X124200820Y-138276762D01*
X124197667Y-138282023D01*
X124194013Y-138286950D01*
X124189894Y-138291494D01*
X124185350Y-138295613D01*
X124180423Y-138299267D01*
X124175162Y-138302420D01*
X124169618Y-138305042D01*
X124163843Y-138307109D01*
X124157893Y-138308599D01*
X124151826Y-138309499D01*
X124145700Y-138309800D01*
X124020700Y-138309800D01*
X124014574Y-138309499D01*
X124008507Y-138308599D01*
X124002557Y-138307109D01*
X123996782Y-138305042D01*
X123991238Y-138302420D01*
X123985977Y-138299267D01*
X123981050Y-138295613D01*
X123976506Y-138291494D01*
X123972387Y-138286950D01*
X123968733Y-138282023D01*
X123965580Y-138276762D01*
X123962958Y-138271218D01*
X123960891Y-138265443D01*
X123959401Y-138259493D01*
X123958501Y-138253426D01*
X123958200Y-138247300D01*
X123958200Y-137572300D01*
X123958501Y-137566174D01*
X123959401Y-137560107D01*
X123960891Y-137554157D01*
X123962958Y-137548382D01*
X123965580Y-137542838D01*
X123968733Y-137537577D01*
X123972387Y-137532650D01*
X123976506Y-137528106D01*
X123981050Y-137523987D01*
X123985977Y-137520333D01*
X123991238Y-137517180D01*
X123996782Y-137514558D01*
X124002557Y-137512491D01*
X124008507Y-137511001D01*
X124014574Y-137510101D01*
X124020700Y-137509800D01*
X124145700Y-137509800D01*
X124151826Y-137510101D01*
X124151826Y-137510101D01*
G37*
D23*
X124083200Y-137909800D03*
D10*
G36*
X123651826Y-137510101D02*
G01*
X123657893Y-137511001D01*
X123663843Y-137512491D01*
X123669618Y-137514558D01*
X123675162Y-137517180D01*
X123680423Y-137520333D01*
X123685350Y-137523987D01*
X123689894Y-137528106D01*
X123694013Y-137532650D01*
X123697667Y-137537577D01*
X123700820Y-137542838D01*
X123703442Y-137548382D01*
X123705509Y-137554157D01*
X123706999Y-137560107D01*
X123707899Y-137566174D01*
X123708200Y-137572300D01*
X123708200Y-138247300D01*
X123707899Y-138253426D01*
X123706999Y-138259493D01*
X123705509Y-138265443D01*
X123703442Y-138271218D01*
X123700820Y-138276762D01*
X123697667Y-138282023D01*
X123694013Y-138286950D01*
X123689894Y-138291494D01*
X123685350Y-138295613D01*
X123680423Y-138299267D01*
X123675162Y-138302420D01*
X123669618Y-138305042D01*
X123663843Y-138307109D01*
X123657893Y-138308599D01*
X123651826Y-138309499D01*
X123645700Y-138309800D01*
X123520700Y-138309800D01*
X123514574Y-138309499D01*
X123508507Y-138308599D01*
X123502557Y-138307109D01*
X123496782Y-138305042D01*
X123491238Y-138302420D01*
X123485977Y-138299267D01*
X123481050Y-138295613D01*
X123476506Y-138291494D01*
X123472387Y-138286950D01*
X123468733Y-138282023D01*
X123465580Y-138276762D01*
X123462958Y-138271218D01*
X123460891Y-138265443D01*
X123459401Y-138259493D01*
X123458501Y-138253426D01*
X123458200Y-138247300D01*
X123458200Y-137572300D01*
X123458501Y-137566174D01*
X123459401Y-137560107D01*
X123460891Y-137554157D01*
X123462958Y-137548382D01*
X123465580Y-137542838D01*
X123468733Y-137537577D01*
X123472387Y-137532650D01*
X123476506Y-137528106D01*
X123481050Y-137523987D01*
X123485977Y-137520333D01*
X123491238Y-137517180D01*
X123496782Y-137514558D01*
X123502557Y-137512491D01*
X123508507Y-137511001D01*
X123514574Y-137510101D01*
X123520700Y-137509800D01*
X123645700Y-137509800D01*
X123651826Y-137510101D01*
X123651826Y-137510101D01*
G37*
D23*
X123583200Y-137909800D03*
D10*
G36*
X123151826Y-137510101D02*
G01*
X123157893Y-137511001D01*
X123163843Y-137512491D01*
X123169618Y-137514558D01*
X123175162Y-137517180D01*
X123180423Y-137520333D01*
X123185350Y-137523987D01*
X123189894Y-137528106D01*
X123194013Y-137532650D01*
X123197667Y-137537577D01*
X123200820Y-137542838D01*
X123203442Y-137548382D01*
X123205509Y-137554157D01*
X123206999Y-137560107D01*
X123207899Y-137566174D01*
X123208200Y-137572300D01*
X123208200Y-138247300D01*
X123207899Y-138253426D01*
X123206999Y-138259493D01*
X123205509Y-138265443D01*
X123203442Y-138271218D01*
X123200820Y-138276762D01*
X123197667Y-138282023D01*
X123194013Y-138286950D01*
X123189894Y-138291494D01*
X123185350Y-138295613D01*
X123180423Y-138299267D01*
X123175162Y-138302420D01*
X123169618Y-138305042D01*
X123163843Y-138307109D01*
X123157893Y-138308599D01*
X123151826Y-138309499D01*
X123145700Y-138309800D01*
X123020700Y-138309800D01*
X123014574Y-138309499D01*
X123008507Y-138308599D01*
X123002557Y-138307109D01*
X122996782Y-138305042D01*
X122991238Y-138302420D01*
X122985977Y-138299267D01*
X122981050Y-138295613D01*
X122976506Y-138291494D01*
X122972387Y-138286950D01*
X122968733Y-138282023D01*
X122965580Y-138276762D01*
X122962958Y-138271218D01*
X122960891Y-138265443D01*
X122959401Y-138259493D01*
X122958501Y-138253426D01*
X122958200Y-138247300D01*
X122958200Y-137572300D01*
X122958501Y-137566174D01*
X122959401Y-137560107D01*
X122960891Y-137554157D01*
X122962958Y-137548382D01*
X122965580Y-137542838D01*
X122968733Y-137537577D01*
X122972387Y-137532650D01*
X122976506Y-137528106D01*
X122981050Y-137523987D01*
X122985977Y-137520333D01*
X122991238Y-137517180D01*
X122996782Y-137514558D01*
X123002557Y-137512491D01*
X123008507Y-137511001D01*
X123014574Y-137510101D01*
X123020700Y-137509800D01*
X123145700Y-137509800D01*
X123151826Y-137510101D01*
X123151826Y-137510101D01*
G37*
D23*
X123083200Y-137909800D03*
D10*
G36*
X122651826Y-137510101D02*
G01*
X122657893Y-137511001D01*
X122663843Y-137512491D01*
X122669618Y-137514558D01*
X122675162Y-137517180D01*
X122680423Y-137520333D01*
X122685350Y-137523987D01*
X122689894Y-137528106D01*
X122694013Y-137532650D01*
X122697667Y-137537577D01*
X122700820Y-137542838D01*
X122703442Y-137548382D01*
X122705509Y-137554157D01*
X122706999Y-137560107D01*
X122707899Y-137566174D01*
X122708200Y-137572300D01*
X122708200Y-138247300D01*
X122707899Y-138253426D01*
X122706999Y-138259493D01*
X122705509Y-138265443D01*
X122703442Y-138271218D01*
X122700820Y-138276762D01*
X122697667Y-138282023D01*
X122694013Y-138286950D01*
X122689894Y-138291494D01*
X122685350Y-138295613D01*
X122680423Y-138299267D01*
X122675162Y-138302420D01*
X122669618Y-138305042D01*
X122663843Y-138307109D01*
X122657893Y-138308599D01*
X122651826Y-138309499D01*
X122645700Y-138309800D01*
X122520700Y-138309800D01*
X122514574Y-138309499D01*
X122508507Y-138308599D01*
X122502557Y-138307109D01*
X122496782Y-138305042D01*
X122491238Y-138302420D01*
X122485977Y-138299267D01*
X122481050Y-138295613D01*
X122476506Y-138291494D01*
X122472387Y-138286950D01*
X122468733Y-138282023D01*
X122465580Y-138276762D01*
X122462958Y-138271218D01*
X122460891Y-138265443D01*
X122459401Y-138259493D01*
X122458501Y-138253426D01*
X122458200Y-138247300D01*
X122458200Y-137572300D01*
X122458501Y-137566174D01*
X122459401Y-137560107D01*
X122460891Y-137554157D01*
X122462958Y-137548382D01*
X122465580Y-137542838D01*
X122468733Y-137537577D01*
X122472387Y-137532650D01*
X122476506Y-137528106D01*
X122481050Y-137523987D01*
X122485977Y-137520333D01*
X122491238Y-137517180D01*
X122496782Y-137514558D01*
X122502557Y-137512491D01*
X122508507Y-137511001D01*
X122514574Y-137510101D01*
X122520700Y-137509800D01*
X122645700Y-137509800D01*
X122651826Y-137510101D01*
X122651826Y-137510101D01*
G37*
D23*
X122583200Y-137909800D03*
D10*
G36*
X122151826Y-137510101D02*
G01*
X122157893Y-137511001D01*
X122163843Y-137512491D01*
X122169618Y-137514558D01*
X122175162Y-137517180D01*
X122180423Y-137520333D01*
X122185350Y-137523987D01*
X122189894Y-137528106D01*
X122194013Y-137532650D01*
X122197667Y-137537577D01*
X122200820Y-137542838D01*
X122203442Y-137548382D01*
X122205509Y-137554157D01*
X122206999Y-137560107D01*
X122207899Y-137566174D01*
X122208200Y-137572300D01*
X122208200Y-138247300D01*
X122207899Y-138253426D01*
X122206999Y-138259493D01*
X122205509Y-138265443D01*
X122203442Y-138271218D01*
X122200820Y-138276762D01*
X122197667Y-138282023D01*
X122194013Y-138286950D01*
X122189894Y-138291494D01*
X122185350Y-138295613D01*
X122180423Y-138299267D01*
X122175162Y-138302420D01*
X122169618Y-138305042D01*
X122163843Y-138307109D01*
X122157893Y-138308599D01*
X122151826Y-138309499D01*
X122145700Y-138309800D01*
X122020700Y-138309800D01*
X122014574Y-138309499D01*
X122008507Y-138308599D01*
X122002557Y-138307109D01*
X121996782Y-138305042D01*
X121991238Y-138302420D01*
X121985977Y-138299267D01*
X121981050Y-138295613D01*
X121976506Y-138291494D01*
X121972387Y-138286950D01*
X121968733Y-138282023D01*
X121965580Y-138276762D01*
X121962958Y-138271218D01*
X121960891Y-138265443D01*
X121959401Y-138259493D01*
X121958501Y-138253426D01*
X121958200Y-138247300D01*
X121958200Y-137572300D01*
X121958501Y-137566174D01*
X121959401Y-137560107D01*
X121960891Y-137554157D01*
X121962958Y-137548382D01*
X121965580Y-137542838D01*
X121968733Y-137537577D01*
X121972387Y-137532650D01*
X121976506Y-137528106D01*
X121981050Y-137523987D01*
X121985977Y-137520333D01*
X121991238Y-137517180D01*
X121996782Y-137514558D01*
X122002557Y-137512491D01*
X122008507Y-137511001D01*
X122014574Y-137510101D01*
X122020700Y-137509800D01*
X122145700Y-137509800D01*
X122151826Y-137510101D01*
X122151826Y-137510101D01*
G37*
D23*
X122083200Y-137909800D03*
D10*
G36*
X124950254Y-133890883D02*
G01*
X124972095Y-133894123D01*
X124993514Y-133899488D01*
X125014304Y-133906927D01*
X125034264Y-133916368D01*
X125053203Y-133927719D01*
X125070938Y-133940873D01*
X125087299Y-133955701D01*
X125102127Y-133972062D01*
X125115281Y-133989797D01*
X125126632Y-134008736D01*
X125136073Y-134028696D01*
X125143512Y-134049486D01*
X125148877Y-134070905D01*
X125152117Y-134092746D01*
X125153200Y-134114800D01*
X125153200Y-134564800D01*
X125152117Y-134586854D01*
X125148877Y-134608695D01*
X125143512Y-134630114D01*
X125136073Y-134650904D01*
X125126632Y-134670864D01*
X125115281Y-134689803D01*
X125102127Y-134707538D01*
X125087299Y-134723899D01*
X125070938Y-134738727D01*
X125053203Y-134751881D01*
X125034264Y-134763232D01*
X125014304Y-134772673D01*
X124993514Y-134780112D01*
X124972095Y-134785477D01*
X124950254Y-134788717D01*
X124928200Y-134789800D01*
X124478200Y-134789800D01*
X124456146Y-134788717D01*
X124434305Y-134785477D01*
X124412886Y-134780112D01*
X124392096Y-134772673D01*
X124372136Y-134763232D01*
X124353197Y-134751881D01*
X124335462Y-134738727D01*
X124319101Y-134723899D01*
X124304273Y-134707538D01*
X124291119Y-134689803D01*
X124279768Y-134670864D01*
X124270327Y-134650904D01*
X124262888Y-134630114D01*
X124257523Y-134608695D01*
X124254283Y-134586854D01*
X124253200Y-134564800D01*
X124253200Y-134114800D01*
X124254283Y-134092746D01*
X124257523Y-134070905D01*
X124262888Y-134049486D01*
X124270327Y-134028696D01*
X124279768Y-134008736D01*
X124291119Y-133989797D01*
X124304273Y-133972062D01*
X124319101Y-133955701D01*
X124335462Y-133940873D01*
X124353197Y-133927719D01*
X124372136Y-133916368D01*
X124392096Y-133906927D01*
X124412886Y-133899488D01*
X124434305Y-133894123D01*
X124456146Y-133890883D01*
X124478200Y-133889800D01*
X124928200Y-133889800D01*
X124950254Y-133890883D01*
X124950254Y-133890883D01*
G37*
D24*
X124703200Y-134339800D03*
D10*
G36*
X123830254Y-133890883D02*
G01*
X123852095Y-133894123D01*
X123873514Y-133899488D01*
X123894304Y-133906927D01*
X123914264Y-133916368D01*
X123933203Y-133927719D01*
X123950938Y-133940873D01*
X123967299Y-133955701D01*
X123982127Y-133972062D01*
X123995281Y-133989797D01*
X124006632Y-134008736D01*
X124016073Y-134028696D01*
X124023512Y-134049486D01*
X124028877Y-134070905D01*
X124032117Y-134092746D01*
X124033200Y-134114800D01*
X124033200Y-134564800D01*
X124032117Y-134586854D01*
X124028877Y-134608695D01*
X124023512Y-134630114D01*
X124016073Y-134650904D01*
X124006632Y-134670864D01*
X123995281Y-134689803D01*
X123982127Y-134707538D01*
X123967299Y-134723899D01*
X123950938Y-134738727D01*
X123933203Y-134751881D01*
X123914264Y-134763232D01*
X123894304Y-134772673D01*
X123873514Y-134780112D01*
X123852095Y-134785477D01*
X123830254Y-134788717D01*
X123808200Y-134789800D01*
X123358200Y-134789800D01*
X123336146Y-134788717D01*
X123314305Y-134785477D01*
X123292886Y-134780112D01*
X123272096Y-134772673D01*
X123252136Y-134763232D01*
X123233197Y-134751881D01*
X123215462Y-134738727D01*
X123199101Y-134723899D01*
X123184273Y-134707538D01*
X123171119Y-134689803D01*
X123159768Y-134670864D01*
X123150327Y-134650904D01*
X123142888Y-134630114D01*
X123137523Y-134608695D01*
X123134283Y-134586854D01*
X123133200Y-134564800D01*
X123133200Y-134114800D01*
X123134283Y-134092746D01*
X123137523Y-134070905D01*
X123142888Y-134049486D01*
X123150327Y-134028696D01*
X123159768Y-134008736D01*
X123171119Y-133989797D01*
X123184273Y-133972062D01*
X123199101Y-133955701D01*
X123215462Y-133940873D01*
X123233197Y-133927719D01*
X123252136Y-133916368D01*
X123272096Y-133906927D01*
X123292886Y-133899488D01*
X123314305Y-133894123D01*
X123336146Y-133890883D01*
X123358200Y-133889800D01*
X123808200Y-133889800D01*
X123830254Y-133890883D01*
X123830254Y-133890883D01*
G37*
D24*
X123583200Y-134339800D03*
D10*
G36*
X122710254Y-133890883D02*
G01*
X122732095Y-133894123D01*
X122753514Y-133899488D01*
X122774304Y-133906927D01*
X122794264Y-133916368D01*
X122813203Y-133927719D01*
X122830938Y-133940873D01*
X122847299Y-133955701D01*
X122862127Y-133972062D01*
X122875281Y-133989797D01*
X122886632Y-134008736D01*
X122896073Y-134028696D01*
X122903512Y-134049486D01*
X122908877Y-134070905D01*
X122912117Y-134092746D01*
X122913200Y-134114800D01*
X122913200Y-134564800D01*
X122912117Y-134586854D01*
X122908877Y-134608695D01*
X122903512Y-134630114D01*
X122896073Y-134650904D01*
X122886632Y-134670864D01*
X122875281Y-134689803D01*
X122862127Y-134707538D01*
X122847299Y-134723899D01*
X122830938Y-134738727D01*
X122813203Y-134751881D01*
X122794264Y-134763232D01*
X122774304Y-134772673D01*
X122753514Y-134780112D01*
X122732095Y-134785477D01*
X122710254Y-134788717D01*
X122688200Y-134789800D01*
X122238200Y-134789800D01*
X122216146Y-134788717D01*
X122194305Y-134785477D01*
X122172886Y-134780112D01*
X122152096Y-134772673D01*
X122132136Y-134763232D01*
X122113197Y-134751881D01*
X122095462Y-134738727D01*
X122079101Y-134723899D01*
X122064273Y-134707538D01*
X122051119Y-134689803D01*
X122039768Y-134670864D01*
X122030327Y-134650904D01*
X122022888Y-134630114D01*
X122017523Y-134608695D01*
X122014283Y-134586854D01*
X122013200Y-134564800D01*
X122013200Y-134114800D01*
X122014283Y-134092746D01*
X122017523Y-134070905D01*
X122022888Y-134049486D01*
X122030327Y-134028696D01*
X122039768Y-134008736D01*
X122051119Y-133989797D01*
X122064273Y-133972062D01*
X122079101Y-133955701D01*
X122095462Y-133940873D01*
X122113197Y-133927719D01*
X122132136Y-133916368D01*
X122152096Y-133906927D01*
X122172886Y-133899488D01*
X122194305Y-133894123D01*
X122216146Y-133890883D01*
X122238200Y-133889800D01*
X122688200Y-133889800D01*
X122710254Y-133890883D01*
X122710254Y-133890883D01*
G37*
D24*
X122463200Y-134339800D03*
D10*
G36*
X124950254Y-135010883D02*
G01*
X124972095Y-135014123D01*
X124993514Y-135019488D01*
X125014304Y-135026927D01*
X125034264Y-135036368D01*
X125053203Y-135047719D01*
X125070938Y-135060873D01*
X125087299Y-135075701D01*
X125102127Y-135092062D01*
X125115281Y-135109797D01*
X125126632Y-135128736D01*
X125136073Y-135148696D01*
X125143512Y-135169486D01*
X125148877Y-135190905D01*
X125152117Y-135212746D01*
X125153200Y-135234800D01*
X125153200Y-135684800D01*
X125152117Y-135706854D01*
X125148877Y-135728695D01*
X125143512Y-135750114D01*
X125136073Y-135770904D01*
X125126632Y-135790864D01*
X125115281Y-135809803D01*
X125102127Y-135827538D01*
X125087299Y-135843899D01*
X125070938Y-135858727D01*
X125053203Y-135871881D01*
X125034264Y-135883232D01*
X125014304Y-135892673D01*
X124993514Y-135900112D01*
X124972095Y-135905477D01*
X124950254Y-135908717D01*
X124928200Y-135909800D01*
X124478200Y-135909800D01*
X124456146Y-135908717D01*
X124434305Y-135905477D01*
X124412886Y-135900112D01*
X124392096Y-135892673D01*
X124372136Y-135883232D01*
X124353197Y-135871881D01*
X124335462Y-135858727D01*
X124319101Y-135843899D01*
X124304273Y-135827538D01*
X124291119Y-135809803D01*
X124279768Y-135790864D01*
X124270327Y-135770904D01*
X124262888Y-135750114D01*
X124257523Y-135728695D01*
X124254283Y-135706854D01*
X124253200Y-135684800D01*
X124253200Y-135234800D01*
X124254283Y-135212746D01*
X124257523Y-135190905D01*
X124262888Y-135169486D01*
X124270327Y-135148696D01*
X124279768Y-135128736D01*
X124291119Y-135109797D01*
X124304273Y-135092062D01*
X124319101Y-135075701D01*
X124335462Y-135060873D01*
X124353197Y-135047719D01*
X124372136Y-135036368D01*
X124392096Y-135026927D01*
X124412886Y-135019488D01*
X124434305Y-135014123D01*
X124456146Y-135010883D01*
X124478200Y-135009800D01*
X124928200Y-135009800D01*
X124950254Y-135010883D01*
X124950254Y-135010883D01*
G37*
D24*
X124703200Y-135459800D03*
D10*
G36*
X123830254Y-135010883D02*
G01*
X123852095Y-135014123D01*
X123873514Y-135019488D01*
X123894304Y-135026927D01*
X123914264Y-135036368D01*
X123933203Y-135047719D01*
X123950938Y-135060873D01*
X123967299Y-135075701D01*
X123982127Y-135092062D01*
X123995281Y-135109797D01*
X124006632Y-135128736D01*
X124016073Y-135148696D01*
X124023512Y-135169486D01*
X124028877Y-135190905D01*
X124032117Y-135212746D01*
X124033200Y-135234800D01*
X124033200Y-135684800D01*
X124032117Y-135706854D01*
X124028877Y-135728695D01*
X124023512Y-135750114D01*
X124016073Y-135770904D01*
X124006632Y-135790864D01*
X123995281Y-135809803D01*
X123982127Y-135827538D01*
X123967299Y-135843899D01*
X123950938Y-135858727D01*
X123933203Y-135871881D01*
X123914264Y-135883232D01*
X123894304Y-135892673D01*
X123873514Y-135900112D01*
X123852095Y-135905477D01*
X123830254Y-135908717D01*
X123808200Y-135909800D01*
X123358200Y-135909800D01*
X123336146Y-135908717D01*
X123314305Y-135905477D01*
X123292886Y-135900112D01*
X123272096Y-135892673D01*
X123252136Y-135883232D01*
X123233197Y-135871881D01*
X123215462Y-135858727D01*
X123199101Y-135843899D01*
X123184273Y-135827538D01*
X123171119Y-135809803D01*
X123159768Y-135790864D01*
X123150327Y-135770904D01*
X123142888Y-135750114D01*
X123137523Y-135728695D01*
X123134283Y-135706854D01*
X123133200Y-135684800D01*
X123133200Y-135234800D01*
X123134283Y-135212746D01*
X123137523Y-135190905D01*
X123142888Y-135169486D01*
X123150327Y-135148696D01*
X123159768Y-135128736D01*
X123171119Y-135109797D01*
X123184273Y-135092062D01*
X123199101Y-135075701D01*
X123215462Y-135060873D01*
X123233197Y-135047719D01*
X123252136Y-135036368D01*
X123272096Y-135026927D01*
X123292886Y-135019488D01*
X123314305Y-135014123D01*
X123336146Y-135010883D01*
X123358200Y-135009800D01*
X123808200Y-135009800D01*
X123830254Y-135010883D01*
X123830254Y-135010883D01*
G37*
D24*
X123583200Y-135459800D03*
D10*
G36*
X122710254Y-135010883D02*
G01*
X122732095Y-135014123D01*
X122753514Y-135019488D01*
X122774304Y-135026927D01*
X122794264Y-135036368D01*
X122813203Y-135047719D01*
X122830938Y-135060873D01*
X122847299Y-135075701D01*
X122862127Y-135092062D01*
X122875281Y-135109797D01*
X122886632Y-135128736D01*
X122896073Y-135148696D01*
X122903512Y-135169486D01*
X122908877Y-135190905D01*
X122912117Y-135212746D01*
X122913200Y-135234800D01*
X122913200Y-135684800D01*
X122912117Y-135706854D01*
X122908877Y-135728695D01*
X122903512Y-135750114D01*
X122896073Y-135770904D01*
X122886632Y-135790864D01*
X122875281Y-135809803D01*
X122862127Y-135827538D01*
X122847299Y-135843899D01*
X122830938Y-135858727D01*
X122813203Y-135871881D01*
X122794264Y-135883232D01*
X122774304Y-135892673D01*
X122753514Y-135900112D01*
X122732095Y-135905477D01*
X122710254Y-135908717D01*
X122688200Y-135909800D01*
X122238200Y-135909800D01*
X122216146Y-135908717D01*
X122194305Y-135905477D01*
X122172886Y-135900112D01*
X122152096Y-135892673D01*
X122132136Y-135883232D01*
X122113197Y-135871881D01*
X122095462Y-135858727D01*
X122079101Y-135843899D01*
X122064273Y-135827538D01*
X122051119Y-135809803D01*
X122039768Y-135790864D01*
X122030327Y-135770904D01*
X122022888Y-135750114D01*
X122017523Y-135728695D01*
X122014283Y-135706854D01*
X122013200Y-135684800D01*
X122013200Y-135234800D01*
X122014283Y-135212746D01*
X122017523Y-135190905D01*
X122022888Y-135169486D01*
X122030327Y-135148696D01*
X122039768Y-135128736D01*
X122051119Y-135109797D01*
X122064273Y-135092062D01*
X122079101Y-135075701D01*
X122095462Y-135060873D01*
X122113197Y-135047719D01*
X122132136Y-135036368D01*
X122152096Y-135026927D01*
X122172886Y-135019488D01*
X122194305Y-135014123D01*
X122216146Y-135010883D01*
X122238200Y-135009800D01*
X122688200Y-135009800D01*
X122710254Y-135010883D01*
X122710254Y-135010883D01*
G37*
D24*
X122463200Y-135459800D03*
D10*
G36*
X124950254Y-136130883D02*
G01*
X124972095Y-136134123D01*
X124993514Y-136139488D01*
X125014304Y-136146927D01*
X125034264Y-136156368D01*
X125053203Y-136167719D01*
X125070938Y-136180873D01*
X125087299Y-136195701D01*
X125102127Y-136212062D01*
X125115281Y-136229797D01*
X125126632Y-136248736D01*
X125136073Y-136268696D01*
X125143512Y-136289486D01*
X125148877Y-136310905D01*
X125152117Y-136332746D01*
X125153200Y-136354800D01*
X125153200Y-136804800D01*
X125152117Y-136826854D01*
X125148877Y-136848695D01*
X125143512Y-136870114D01*
X125136073Y-136890904D01*
X125126632Y-136910864D01*
X125115281Y-136929803D01*
X125102127Y-136947538D01*
X125087299Y-136963899D01*
X125070938Y-136978727D01*
X125053203Y-136991881D01*
X125034264Y-137003232D01*
X125014304Y-137012673D01*
X124993514Y-137020112D01*
X124972095Y-137025477D01*
X124950254Y-137028717D01*
X124928200Y-137029800D01*
X124478200Y-137029800D01*
X124456146Y-137028717D01*
X124434305Y-137025477D01*
X124412886Y-137020112D01*
X124392096Y-137012673D01*
X124372136Y-137003232D01*
X124353197Y-136991881D01*
X124335462Y-136978727D01*
X124319101Y-136963899D01*
X124304273Y-136947538D01*
X124291119Y-136929803D01*
X124279768Y-136910864D01*
X124270327Y-136890904D01*
X124262888Y-136870114D01*
X124257523Y-136848695D01*
X124254283Y-136826854D01*
X124253200Y-136804800D01*
X124253200Y-136354800D01*
X124254283Y-136332746D01*
X124257523Y-136310905D01*
X124262888Y-136289486D01*
X124270327Y-136268696D01*
X124279768Y-136248736D01*
X124291119Y-136229797D01*
X124304273Y-136212062D01*
X124319101Y-136195701D01*
X124335462Y-136180873D01*
X124353197Y-136167719D01*
X124372136Y-136156368D01*
X124392096Y-136146927D01*
X124412886Y-136139488D01*
X124434305Y-136134123D01*
X124456146Y-136130883D01*
X124478200Y-136129800D01*
X124928200Y-136129800D01*
X124950254Y-136130883D01*
X124950254Y-136130883D01*
G37*
D24*
X124703200Y-136579800D03*
D10*
G36*
X123830254Y-136130883D02*
G01*
X123852095Y-136134123D01*
X123873514Y-136139488D01*
X123894304Y-136146927D01*
X123914264Y-136156368D01*
X123933203Y-136167719D01*
X123950938Y-136180873D01*
X123967299Y-136195701D01*
X123982127Y-136212062D01*
X123995281Y-136229797D01*
X124006632Y-136248736D01*
X124016073Y-136268696D01*
X124023512Y-136289486D01*
X124028877Y-136310905D01*
X124032117Y-136332746D01*
X124033200Y-136354800D01*
X124033200Y-136804800D01*
X124032117Y-136826854D01*
X124028877Y-136848695D01*
X124023512Y-136870114D01*
X124016073Y-136890904D01*
X124006632Y-136910864D01*
X123995281Y-136929803D01*
X123982127Y-136947538D01*
X123967299Y-136963899D01*
X123950938Y-136978727D01*
X123933203Y-136991881D01*
X123914264Y-137003232D01*
X123894304Y-137012673D01*
X123873514Y-137020112D01*
X123852095Y-137025477D01*
X123830254Y-137028717D01*
X123808200Y-137029800D01*
X123358200Y-137029800D01*
X123336146Y-137028717D01*
X123314305Y-137025477D01*
X123292886Y-137020112D01*
X123272096Y-137012673D01*
X123252136Y-137003232D01*
X123233197Y-136991881D01*
X123215462Y-136978727D01*
X123199101Y-136963899D01*
X123184273Y-136947538D01*
X123171119Y-136929803D01*
X123159768Y-136910864D01*
X123150327Y-136890904D01*
X123142888Y-136870114D01*
X123137523Y-136848695D01*
X123134283Y-136826854D01*
X123133200Y-136804800D01*
X123133200Y-136354800D01*
X123134283Y-136332746D01*
X123137523Y-136310905D01*
X123142888Y-136289486D01*
X123150327Y-136268696D01*
X123159768Y-136248736D01*
X123171119Y-136229797D01*
X123184273Y-136212062D01*
X123199101Y-136195701D01*
X123215462Y-136180873D01*
X123233197Y-136167719D01*
X123252136Y-136156368D01*
X123272096Y-136146927D01*
X123292886Y-136139488D01*
X123314305Y-136134123D01*
X123336146Y-136130883D01*
X123358200Y-136129800D01*
X123808200Y-136129800D01*
X123830254Y-136130883D01*
X123830254Y-136130883D01*
G37*
D24*
X123583200Y-136579800D03*
D10*
G36*
X122710254Y-136130883D02*
G01*
X122732095Y-136134123D01*
X122753514Y-136139488D01*
X122774304Y-136146927D01*
X122794264Y-136156368D01*
X122813203Y-136167719D01*
X122830938Y-136180873D01*
X122847299Y-136195701D01*
X122862127Y-136212062D01*
X122875281Y-136229797D01*
X122886632Y-136248736D01*
X122896073Y-136268696D01*
X122903512Y-136289486D01*
X122908877Y-136310905D01*
X122912117Y-136332746D01*
X122913200Y-136354800D01*
X122913200Y-136804800D01*
X122912117Y-136826854D01*
X122908877Y-136848695D01*
X122903512Y-136870114D01*
X122896073Y-136890904D01*
X122886632Y-136910864D01*
X122875281Y-136929803D01*
X122862127Y-136947538D01*
X122847299Y-136963899D01*
X122830938Y-136978727D01*
X122813203Y-136991881D01*
X122794264Y-137003232D01*
X122774304Y-137012673D01*
X122753514Y-137020112D01*
X122732095Y-137025477D01*
X122710254Y-137028717D01*
X122688200Y-137029800D01*
X122238200Y-137029800D01*
X122216146Y-137028717D01*
X122194305Y-137025477D01*
X122172886Y-137020112D01*
X122152096Y-137012673D01*
X122132136Y-137003232D01*
X122113197Y-136991881D01*
X122095462Y-136978727D01*
X122079101Y-136963899D01*
X122064273Y-136947538D01*
X122051119Y-136929803D01*
X122039768Y-136910864D01*
X122030327Y-136890904D01*
X122022888Y-136870114D01*
X122017523Y-136848695D01*
X122014283Y-136826854D01*
X122013200Y-136804800D01*
X122013200Y-136354800D01*
X122014283Y-136332746D01*
X122017523Y-136310905D01*
X122022888Y-136289486D01*
X122030327Y-136268696D01*
X122039768Y-136248736D01*
X122051119Y-136229797D01*
X122064273Y-136212062D01*
X122079101Y-136195701D01*
X122095462Y-136180873D01*
X122113197Y-136167719D01*
X122132136Y-136156368D01*
X122152096Y-136146927D01*
X122172886Y-136139488D01*
X122194305Y-136134123D01*
X122216146Y-136130883D01*
X122238200Y-136129800D01*
X122688200Y-136129800D01*
X122710254Y-136130883D01*
X122710254Y-136130883D01*
G37*
D24*
X122463200Y-136579800D03*
D25*
X109041800Y-117842000D03*
X109041800Y-122442000D03*
X109041800Y-120142000D03*
D26*
X115341800Y-120142000D03*
D27*
X105359000Y-115468400D03*
X105359000Y-114198400D03*
X105359000Y-112928400D03*
X105359000Y-111658400D03*
X105359000Y-110388400D03*
X105359000Y-109118400D03*
X105359000Y-107848400D03*
X105359000Y-106578400D03*
X105359000Y-105308400D03*
X105359000Y-104038400D03*
X114859000Y-104038400D03*
X114859000Y-105308400D03*
X114859000Y-106578400D03*
X114859000Y-107848400D03*
X114859000Y-115468400D03*
X114859000Y-114198400D03*
X114859000Y-112928400D03*
X114859000Y-111658400D03*
X114859000Y-110388400D03*
X114859000Y-109118400D03*
M02*
