G04 #@! TF.GenerationSoftware,KiCad,Pcbnew,5.1.1-8be2ce7~80~ubuntu18.04.1*
G04 #@! TF.CreationDate,2019-05-08T10:27:23+07:00*
G04 #@! TF.ProjectId,driver-servo-esp32,64726976-6572-42d7-9365-72766f2d6573,rev?*
G04 #@! TF.SameCoordinates,Original*
G04 #@! TF.FileFunction,Soldermask,Top*
G04 #@! TF.FilePolarity,Negative*
%FSLAX46Y46*%
G04 Gerber Fmt 4.6, Leading zero omitted, Abs format (unit mm)*
G04 Created by KiCad (PCBNEW 5.1.1-8be2ce7~80~ubuntu18.04.1) date 2019-05-08 10:27:23*
%MOMM*%
%LPD*%
G04 APERTURE LIST*
%ADD10C,0.100000*%
G04 APERTURE END LIST*
D10*
G36*
X100911985Y-142567002D02*
G01*
X101061810Y-142596804D01*
X101344074Y-142713721D01*
X101598105Y-142883459D01*
X101814141Y-143099495D01*
X101983879Y-143353526D01*
X102100796Y-143635790D01*
X102160400Y-143935440D01*
X102160400Y-144240960D01*
X102100796Y-144540610D01*
X101983879Y-144822874D01*
X101814141Y-145076905D01*
X101598105Y-145292941D01*
X101344074Y-145462679D01*
X101061810Y-145579596D01*
X100911985Y-145609398D01*
X100762161Y-145639200D01*
X100456639Y-145639200D01*
X100306815Y-145609398D01*
X100156990Y-145579596D01*
X99874726Y-145462679D01*
X99620695Y-145292941D01*
X99404659Y-145076905D01*
X99234921Y-144822874D01*
X99118004Y-144540610D01*
X99058400Y-144240960D01*
X99058400Y-143935440D01*
X99118004Y-143635790D01*
X99234921Y-143353526D01*
X99404659Y-143099495D01*
X99620695Y-142883459D01*
X99874726Y-142713721D01*
X100156990Y-142596804D01*
X100306815Y-142567002D01*
X100456639Y-142537200D01*
X100762161Y-142537200D01*
X100911985Y-142567002D01*
X100911985Y-142567002D01*
G37*
G36*
X126834200Y-142033801D02*
G01*
X126836602Y-142058187D01*
X126843715Y-142081636D01*
X126855266Y-142103247D01*
X126870811Y-142122189D01*
X126889753Y-142137734D01*
X126911364Y-142149285D01*
X126934813Y-142156398D01*
X126959199Y-142158800D01*
X127731700Y-142158800D01*
X127731700Y-144160800D01*
X123784700Y-144160800D01*
X123784700Y-142158800D01*
X125132201Y-142158800D01*
X125156587Y-142156398D01*
X125180036Y-142149285D01*
X125201647Y-142137734D01*
X125220589Y-142122189D01*
X125236134Y-142103247D01*
X125247685Y-142081636D01*
X125254798Y-142058187D01*
X125257200Y-142033801D01*
X125257200Y-141365799D01*
X125254798Y-141341413D01*
X125247685Y-141317964D01*
X125236134Y-141296353D01*
X125220589Y-141277411D01*
X125201647Y-141261866D01*
X125180036Y-141250315D01*
X125156587Y-141243202D01*
X125132201Y-141240800D01*
X122034199Y-141240800D01*
X122009813Y-141243202D01*
X121986364Y-141250315D01*
X121964753Y-141261866D01*
X121945811Y-141277411D01*
X121930266Y-141296353D01*
X121918715Y-141317964D01*
X121911602Y-141341413D01*
X121909200Y-141365799D01*
X121909200Y-142033801D01*
X121911602Y-142058187D01*
X121918715Y-142081636D01*
X121930266Y-142103247D01*
X121945811Y-142122189D01*
X121964753Y-142137734D01*
X121986364Y-142149285D01*
X122009813Y-142156398D01*
X122034199Y-142158800D01*
X123381700Y-142158800D01*
X123381700Y-144160800D01*
X119434700Y-144160800D01*
X119434700Y-142158800D01*
X120207201Y-142158800D01*
X120231587Y-142156398D01*
X120255036Y-142149285D01*
X120276647Y-142137734D01*
X120295589Y-142122189D01*
X120311134Y-142103247D01*
X120322685Y-142081636D01*
X120329798Y-142058187D01*
X120332200Y-142033801D01*
X120332200Y-139758800D01*
X126834200Y-139758800D01*
X126834200Y-142033801D01*
X126834200Y-142033801D01*
G37*
G36*
X128407699Y-137857145D02*
G01*
X128445195Y-137868520D01*
X128479754Y-137886992D01*
X128510047Y-137911853D01*
X128534908Y-137942146D01*
X128553380Y-137976705D01*
X128564755Y-138014201D01*
X128569200Y-138059338D01*
X128569200Y-138798062D01*
X128564755Y-138843199D01*
X128553380Y-138880695D01*
X128534908Y-138915254D01*
X128510047Y-138945547D01*
X128479754Y-138970408D01*
X128445195Y-138988880D01*
X128407699Y-139000255D01*
X128362562Y-139004700D01*
X127723838Y-139004700D01*
X127678701Y-139000255D01*
X127641205Y-138988880D01*
X127606646Y-138970408D01*
X127576353Y-138945547D01*
X127551492Y-138915254D01*
X127533020Y-138880695D01*
X127521645Y-138843199D01*
X127517200Y-138798062D01*
X127517200Y-138059338D01*
X127521645Y-138014201D01*
X127533020Y-137976705D01*
X127551492Y-137942146D01*
X127576353Y-137911853D01*
X127606646Y-137886992D01*
X127641205Y-137868520D01*
X127678701Y-137857145D01*
X127723838Y-137852700D01*
X128362562Y-137852700D01*
X128407699Y-137857145D01*
X128407699Y-137857145D01*
G37*
G36*
X129906299Y-137857145D02*
G01*
X129943795Y-137868520D01*
X129978354Y-137886992D01*
X130008647Y-137911853D01*
X130033508Y-137942146D01*
X130051980Y-137976705D01*
X130063355Y-138014201D01*
X130067800Y-138059338D01*
X130067800Y-138798062D01*
X130063355Y-138843199D01*
X130051980Y-138880695D01*
X130033508Y-138915254D01*
X130008647Y-138945547D01*
X129978354Y-138970408D01*
X129943795Y-138988880D01*
X129906299Y-139000255D01*
X129861162Y-139004700D01*
X129222438Y-139004700D01*
X129177301Y-139000255D01*
X129139805Y-138988880D01*
X129105246Y-138970408D01*
X129074953Y-138945547D01*
X129050092Y-138915254D01*
X129031620Y-138880695D01*
X129020245Y-138843199D01*
X129015800Y-138798062D01*
X129015800Y-138059338D01*
X129020245Y-138014201D01*
X129031620Y-137976705D01*
X129050092Y-137942146D01*
X129074953Y-137911853D01*
X129105246Y-137886992D01*
X129139805Y-137868520D01*
X129177301Y-137857145D01*
X129222438Y-137852700D01*
X129861162Y-137852700D01*
X129906299Y-137857145D01*
X129906299Y-137857145D01*
G37*
G36*
X118488674Y-137703465D02*
G01*
X118526367Y-137714899D01*
X118561103Y-137733466D01*
X118591548Y-137758452D01*
X118616534Y-137788897D01*
X118635101Y-137823633D01*
X118646535Y-137861326D01*
X118651000Y-137906661D01*
X118651000Y-138743339D01*
X118646535Y-138788674D01*
X118635101Y-138826367D01*
X118616534Y-138861103D01*
X118591548Y-138891548D01*
X118561103Y-138916534D01*
X118526367Y-138935101D01*
X118488674Y-138946535D01*
X118443339Y-138951000D01*
X117356661Y-138951000D01*
X117311326Y-138946535D01*
X117273633Y-138935101D01*
X117238897Y-138916534D01*
X117208452Y-138891548D01*
X117183466Y-138861103D01*
X117164899Y-138826367D01*
X117153465Y-138788674D01*
X117149000Y-138743339D01*
X117149000Y-137906661D01*
X117153465Y-137861326D01*
X117164899Y-137823633D01*
X117183466Y-137788897D01*
X117208452Y-137758452D01*
X117238897Y-137733466D01*
X117273633Y-137714899D01*
X117311326Y-137703465D01*
X117356661Y-137699000D01*
X118443339Y-137699000D01*
X118488674Y-137703465D01*
X118488674Y-137703465D01*
G37*
G36*
X111928825Y-136637960D02*
G01*
X111928828Y-136637961D01*
X111928829Y-136637961D01*
X112108093Y-136692340D01*
X112108096Y-136692342D01*
X112108097Y-136692342D01*
X112273303Y-136780646D01*
X112418112Y-136899488D01*
X112536954Y-137044297D01*
X112617798Y-137195547D01*
X112625260Y-137209507D01*
X112679639Y-137388771D01*
X112679640Y-137388775D01*
X112698001Y-137575200D01*
X112679640Y-137761625D01*
X112679639Y-137761628D01*
X112679639Y-137761629D01*
X112625260Y-137940893D01*
X112625258Y-137940896D01*
X112625258Y-137940897D01*
X112536954Y-138106103D01*
X112418112Y-138250912D01*
X112273303Y-138369754D01*
X112108097Y-138458058D01*
X112108093Y-138458060D01*
X111928829Y-138512439D01*
X111928828Y-138512439D01*
X111928825Y-138512440D01*
X111789118Y-138526200D01*
X109495682Y-138526200D01*
X109355975Y-138512440D01*
X109355972Y-138512439D01*
X109355971Y-138512439D01*
X109176707Y-138458060D01*
X109176703Y-138458058D01*
X109011497Y-138369754D01*
X108866688Y-138250912D01*
X108747846Y-138106103D01*
X108659542Y-137940897D01*
X108659542Y-137940896D01*
X108659540Y-137940893D01*
X108605161Y-137761629D01*
X108605161Y-137761628D01*
X108605160Y-137761625D01*
X108586799Y-137575200D01*
X108605160Y-137388775D01*
X108605161Y-137388771D01*
X108659540Y-137209507D01*
X108667002Y-137195547D01*
X108747846Y-137044297D01*
X108866688Y-136899488D01*
X109011497Y-136780646D01*
X109176703Y-136692342D01*
X109176704Y-136692342D01*
X109176707Y-136692340D01*
X109355971Y-136637961D01*
X109355972Y-136637961D01*
X109355975Y-136637960D01*
X109495682Y-136624200D01*
X111789118Y-136624200D01*
X111928825Y-136637960D01*
X111928825Y-136637960D01*
G37*
G36*
X122238555Y-137459883D02*
G01*
X122243229Y-137461301D01*
X122247530Y-137463600D01*
X122253902Y-137468829D01*
X122274276Y-137482443D01*
X122296915Y-137491820D01*
X122320949Y-137496600D01*
X122345453Y-137496600D01*
X122369486Y-137491819D01*
X122392125Y-137482442D01*
X122412498Y-137468829D01*
X122418870Y-137463600D01*
X122423171Y-137461301D01*
X122427845Y-137459883D01*
X122438841Y-137458800D01*
X122727559Y-137458800D01*
X122738555Y-137459883D01*
X122743229Y-137461301D01*
X122747530Y-137463600D01*
X122753902Y-137468829D01*
X122774276Y-137482443D01*
X122796915Y-137491820D01*
X122820949Y-137496600D01*
X122845453Y-137496600D01*
X122869486Y-137491819D01*
X122892125Y-137482442D01*
X122912498Y-137468829D01*
X122918870Y-137463600D01*
X122923171Y-137461301D01*
X122927845Y-137459883D01*
X122938841Y-137458800D01*
X123227559Y-137458800D01*
X123238555Y-137459883D01*
X123243229Y-137461301D01*
X123247530Y-137463600D01*
X123253902Y-137468829D01*
X123274276Y-137482443D01*
X123296915Y-137491820D01*
X123320949Y-137496600D01*
X123345453Y-137496600D01*
X123369486Y-137491819D01*
X123392125Y-137482442D01*
X123412498Y-137468829D01*
X123418870Y-137463600D01*
X123423171Y-137461301D01*
X123427845Y-137459883D01*
X123438841Y-137458800D01*
X123727559Y-137458800D01*
X123738555Y-137459883D01*
X123743229Y-137461301D01*
X123747530Y-137463600D01*
X123753902Y-137468829D01*
X123774276Y-137482443D01*
X123796915Y-137491820D01*
X123820949Y-137496600D01*
X123845453Y-137496600D01*
X123869486Y-137491819D01*
X123892125Y-137482442D01*
X123912498Y-137468829D01*
X123918870Y-137463600D01*
X123923171Y-137461301D01*
X123927845Y-137459883D01*
X123938841Y-137458800D01*
X124227559Y-137458800D01*
X124238555Y-137459883D01*
X124243229Y-137461301D01*
X124247530Y-137463600D01*
X124253902Y-137468829D01*
X124274276Y-137482443D01*
X124296915Y-137491820D01*
X124320949Y-137496600D01*
X124345453Y-137496600D01*
X124369486Y-137491819D01*
X124392125Y-137482442D01*
X124412498Y-137468829D01*
X124418870Y-137463600D01*
X124423171Y-137461301D01*
X124427845Y-137459883D01*
X124438841Y-137458800D01*
X124727559Y-137458800D01*
X124738555Y-137459883D01*
X124743229Y-137461301D01*
X124747530Y-137463600D01*
X124753902Y-137468829D01*
X124774276Y-137482443D01*
X124796915Y-137491820D01*
X124820949Y-137496600D01*
X124845453Y-137496600D01*
X124869486Y-137491819D01*
X124892125Y-137482442D01*
X124912498Y-137468829D01*
X124918870Y-137463600D01*
X124923171Y-137461301D01*
X124927845Y-137459883D01*
X124938841Y-137458800D01*
X125227559Y-137458800D01*
X125238555Y-137459883D01*
X125243229Y-137461301D01*
X125247531Y-137463600D01*
X125251304Y-137466696D01*
X125254400Y-137470469D01*
X125256699Y-137474771D01*
X125258117Y-137479445D01*
X125259200Y-137490441D01*
X125259200Y-138329159D01*
X125258117Y-138340155D01*
X125256699Y-138344829D01*
X125254400Y-138349131D01*
X125251304Y-138352904D01*
X125247531Y-138356000D01*
X125243229Y-138358299D01*
X125238555Y-138359717D01*
X125227559Y-138360800D01*
X124938841Y-138360800D01*
X124927845Y-138359717D01*
X124923171Y-138358299D01*
X124918870Y-138356000D01*
X124912498Y-138350771D01*
X124892124Y-138337157D01*
X124869485Y-138327780D01*
X124845451Y-138323000D01*
X124820947Y-138323000D01*
X124796914Y-138327781D01*
X124774275Y-138337158D01*
X124753902Y-138350771D01*
X124747530Y-138356000D01*
X124743229Y-138358299D01*
X124738555Y-138359717D01*
X124727559Y-138360800D01*
X124438841Y-138360800D01*
X124427845Y-138359717D01*
X124423171Y-138358299D01*
X124418870Y-138356000D01*
X124412498Y-138350771D01*
X124392124Y-138337157D01*
X124369485Y-138327780D01*
X124345451Y-138323000D01*
X124320947Y-138323000D01*
X124296914Y-138327781D01*
X124274275Y-138337158D01*
X124253902Y-138350771D01*
X124247530Y-138356000D01*
X124243229Y-138358299D01*
X124238555Y-138359717D01*
X124227559Y-138360800D01*
X123938841Y-138360800D01*
X123927845Y-138359717D01*
X123923171Y-138358299D01*
X123918870Y-138356000D01*
X123912498Y-138350771D01*
X123892124Y-138337157D01*
X123869485Y-138327780D01*
X123845451Y-138323000D01*
X123820947Y-138323000D01*
X123796914Y-138327781D01*
X123774275Y-138337158D01*
X123753902Y-138350771D01*
X123747530Y-138356000D01*
X123743229Y-138358299D01*
X123738555Y-138359717D01*
X123727559Y-138360800D01*
X123438841Y-138360800D01*
X123427845Y-138359717D01*
X123423171Y-138358299D01*
X123418870Y-138356000D01*
X123412498Y-138350771D01*
X123392124Y-138337157D01*
X123369485Y-138327780D01*
X123345451Y-138323000D01*
X123320947Y-138323000D01*
X123296914Y-138327781D01*
X123274275Y-138337158D01*
X123253902Y-138350771D01*
X123247530Y-138356000D01*
X123243229Y-138358299D01*
X123238555Y-138359717D01*
X123227559Y-138360800D01*
X122938841Y-138360800D01*
X122927845Y-138359717D01*
X122923171Y-138358299D01*
X122918870Y-138356000D01*
X122912498Y-138350771D01*
X122892124Y-138337157D01*
X122869485Y-138327780D01*
X122845451Y-138323000D01*
X122820947Y-138323000D01*
X122796914Y-138327781D01*
X122774275Y-138337158D01*
X122753902Y-138350771D01*
X122747530Y-138356000D01*
X122743229Y-138358299D01*
X122738555Y-138359717D01*
X122727559Y-138360800D01*
X122438841Y-138360800D01*
X122427845Y-138359717D01*
X122423171Y-138358299D01*
X122418870Y-138356000D01*
X122412498Y-138350771D01*
X122392124Y-138337157D01*
X122369485Y-138327780D01*
X122345451Y-138323000D01*
X122320947Y-138323000D01*
X122296914Y-138327781D01*
X122274275Y-138337158D01*
X122253902Y-138350771D01*
X122247530Y-138356000D01*
X122243229Y-138358299D01*
X122238555Y-138359717D01*
X122227559Y-138360800D01*
X121938841Y-138360800D01*
X121927845Y-138359717D01*
X121923171Y-138358299D01*
X121918869Y-138356000D01*
X121915096Y-138352904D01*
X121912000Y-138349131D01*
X121909701Y-138344829D01*
X121908283Y-138340155D01*
X121907200Y-138329159D01*
X121907200Y-137490441D01*
X121908283Y-137479445D01*
X121909701Y-137474771D01*
X121912000Y-137470469D01*
X121915096Y-137466696D01*
X121918869Y-137463600D01*
X121923171Y-137461301D01*
X121927845Y-137459883D01*
X121938841Y-137458800D01*
X122227559Y-137458800D01*
X122238555Y-137459883D01*
X122238555Y-137459883D01*
G37*
G36*
X129906299Y-136107145D02*
G01*
X129943795Y-136118520D01*
X129978354Y-136136992D01*
X130008647Y-136161853D01*
X130033508Y-136192146D01*
X130051980Y-136226705D01*
X130063355Y-136264201D01*
X130067800Y-136309338D01*
X130067800Y-137048062D01*
X130063355Y-137093199D01*
X130051980Y-137130695D01*
X130033508Y-137165254D01*
X130008647Y-137195547D01*
X129978354Y-137220408D01*
X129943795Y-137238880D01*
X129906299Y-137250255D01*
X129861162Y-137254700D01*
X129222438Y-137254700D01*
X129177301Y-137250255D01*
X129139805Y-137238880D01*
X129105246Y-137220408D01*
X129074953Y-137195547D01*
X129050092Y-137165254D01*
X129031620Y-137130695D01*
X129020245Y-137093199D01*
X129015800Y-137048062D01*
X129015800Y-136309338D01*
X129020245Y-136264201D01*
X129031620Y-136226705D01*
X129050092Y-136192146D01*
X129074953Y-136161853D01*
X129105246Y-136136992D01*
X129139805Y-136118520D01*
X129177301Y-136107145D01*
X129222438Y-136102700D01*
X129861162Y-136102700D01*
X129906299Y-136107145D01*
X129906299Y-136107145D01*
G37*
G36*
X128407699Y-136107145D02*
G01*
X128445195Y-136118520D01*
X128479754Y-136136992D01*
X128510047Y-136161853D01*
X128534908Y-136192146D01*
X128553380Y-136226705D01*
X128564755Y-136264201D01*
X128569200Y-136309338D01*
X128569200Y-137048062D01*
X128564755Y-137093199D01*
X128553380Y-137130695D01*
X128534908Y-137165254D01*
X128510047Y-137195547D01*
X128479754Y-137220408D01*
X128445195Y-137238880D01*
X128407699Y-137250255D01*
X128362562Y-137254700D01*
X127723838Y-137254700D01*
X127678701Y-137250255D01*
X127641205Y-137238880D01*
X127606646Y-137220408D01*
X127576353Y-137195547D01*
X127551492Y-137165254D01*
X127533020Y-137130695D01*
X127521645Y-137093199D01*
X127517200Y-137048062D01*
X127517200Y-136309338D01*
X127521645Y-136264201D01*
X127533020Y-136226705D01*
X127551492Y-136192146D01*
X127576353Y-136161853D01*
X127606646Y-136136992D01*
X127641205Y-136118520D01*
X127678701Y-136107145D01*
X127723838Y-136102700D01*
X128362562Y-136102700D01*
X128407699Y-136107145D01*
X128407699Y-136107145D01*
G37*
G36*
X125187324Y-133737299D02*
G01*
X125215587Y-133745873D01*
X125241634Y-133759796D01*
X125264467Y-133778533D01*
X125283204Y-133801366D01*
X125297127Y-133827413D01*
X125305701Y-133855676D01*
X125309200Y-133891208D01*
X125309200Y-137028392D01*
X125305701Y-137063924D01*
X125297127Y-137092187D01*
X125283204Y-137118234D01*
X125264467Y-137141067D01*
X125241634Y-137159804D01*
X125215587Y-137173727D01*
X125187324Y-137182301D01*
X125151792Y-137185800D01*
X122014608Y-137185800D01*
X121979076Y-137182301D01*
X121950813Y-137173727D01*
X121924766Y-137159804D01*
X121901933Y-137141067D01*
X121883196Y-137118234D01*
X121869273Y-137092187D01*
X121860699Y-137063924D01*
X121857200Y-137028392D01*
X121857200Y-133891208D01*
X121860699Y-133855676D01*
X121869273Y-133827413D01*
X121883196Y-133801366D01*
X121901933Y-133778533D01*
X121924766Y-133759796D01*
X121950813Y-133745873D01*
X121979076Y-133737299D01*
X122014608Y-133733800D01*
X125151792Y-133733800D01*
X125187324Y-133737299D01*
X125187324Y-133737299D01*
G37*
G36*
X126463555Y-133784883D02*
G01*
X126468229Y-133786301D01*
X126472531Y-133788600D01*
X126476304Y-133791696D01*
X126479400Y-133795469D01*
X126481699Y-133799771D01*
X126483117Y-133804445D01*
X126484200Y-133815441D01*
X126484200Y-134104159D01*
X126483117Y-134115155D01*
X126481699Y-134119829D01*
X126479400Y-134124130D01*
X126474171Y-134130502D01*
X126460557Y-134150876D01*
X126451180Y-134173515D01*
X126446400Y-134197549D01*
X126446400Y-134222053D01*
X126451181Y-134246086D01*
X126460558Y-134268725D01*
X126474171Y-134289098D01*
X126479400Y-134295470D01*
X126481699Y-134299771D01*
X126483117Y-134304445D01*
X126484200Y-134315441D01*
X126484200Y-134604159D01*
X126483117Y-134615155D01*
X126481699Y-134619829D01*
X126479400Y-134624130D01*
X126474171Y-134630502D01*
X126460557Y-134650876D01*
X126451180Y-134673515D01*
X126446400Y-134697549D01*
X126446400Y-134722053D01*
X126451181Y-134746086D01*
X126460558Y-134768725D01*
X126474171Y-134789098D01*
X126479400Y-134795470D01*
X126481699Y-134799771D01*
X126483117Y-134804445D01*
X126484200Y-134815441D01*
X126484200Y-135104159D01*
X126483117Y-135115155D01*
X126481699Y-135119829D01*
X126479400Y-135124130D01*
X126474171Y-135130502D01*
X126460557Y-135150876D01*
X126451180Y-135173515D01*
X126446400Y-135197549D01*
X126446400Y-135222053D01*
X126451181Y-135246086D01*
X126460558Y-135268725D01*
X126474171Y-135289098D01*
X126479400Y-135295470D01*
X126481699Y-135299771D01*
X126483117Y-135304445D01*
X126484200Y-135315441D01*
X126484200Y-135604159D01*
X126483117Y-135615155D01*
X126481699Y-135619829D01*
X126479400Y-135624130D01*
X126474171Y-135630502D01*
X126460557Y-135650876D01*
X126451180Y-135673515D01*
X126446400Y-135697549D01*
X126446400Y-135722053D01*
X126451181Y-135746086D01*
X126460558Y-135768725D01*
X126474171Y-135789098D01*
X126479400Y-135795470D01*
X126481699Y-135799771D01*
X126483117Y-135804445D01*
X126484200Y-135815441D01*
X126484200Y-136104159D01*
X126483117Y-136115155D01*
X126481699Y-136119829D01*
X126479400Y-136124130D01*
X126474171Y-136130502D01*
X126460557Y-136150876D01*
X126451180Y-136173515D01*
X126446400Y-136197549D01*
X126446400Y-136222053D01*
X126451181Y-136246086D01*
X126460558Y-136268725D01*
X126474171Y-136289098D01*
X126479400Y-136295470D01*
X126481699Y-136299771D01*
X126483117Y-136304445D01*
X126484200Y-136315441D01*
X126484200Y-136604159D01*
X126483117Y-136615155D01*
X126481699Y-136619829D01*
X126479400Y-136624130D01*
X126474171Y-136630502D01*
X126460557Y-136650876D01*
X126451180Y-136673515D01*
X126446400Y-136697549D01*
X126446400Y-136722053D01*
X126451181Y-136746086D01*
X126460558Y-136768725D01*
X126474171Y-136789098D01*
X126479400Y-136795470D01*
X126481699Y-136799771D01*
X126483117Y-136804445D01*
X126484200Y-136815441D01*
X126484200Y-137104159D01*
X126483117Y-137115155D01*
X126481699Y-137119829D01*
X126479400Y-137124131D01*
X126476304Y-137127904D01*
X126472531Y-137131000D01*
X126468229Y-137133299D01*
X126463555Y-137134717D01*
X126452559Y-137135800D01*
X125613841Y-137135800D01*
X125602845Y-137134717D01*
X125598171Y-137133299D01*
X125593869Y-137131000D01*
X125590096Y-137127904D01*
X125587000Y-137124131D01*
X125584701Y-137119829D01*
X125583283Y-137115155D01*
X125582200Y-137104159D01*
X125582200Y-136815441D01*
X125583283Y-136804445D01*
X125584701Y-136799771D01*
X125587000Y-136795470D01*
X125592229Y-136789098D01*
X125605843Y-136768724D01*
X125615220Y-136746085D01*
X125620000Y-136722051D01*
X125620000Y-136697547D01*
X125615219Y-136673514D01*
X125605842Y-136650875D01*
X125592229Y-136630502D01*
X125587000Y-136624130D01*
X125584701Y-136619829D01*
X125583283Y-136615155D01*
X125582200Y-136604159D01*
X125582200Y-136315441D01*
X125583283Y-136304445D01*
X125584701Y-136299771D01*
X125587000Y-136295470D01*
X125592229Y-136289098D01*
X125605843Y-136268724D01*
X125615220Y-136246085D01*
X125620000Y-136222051D01*
X125620000Y-136197547D01*
X125615219Y-136173514D01*
X125605842Y-136150875D01*
X125592229Y-136130502D01*
X125587000Y-136124130D01*
X125584701Y-136119829D01*
X125583283Y-136115155D01*
X125582200Y-136104159D01*
X125582200Y-135815441D01*
X125583283Y-135804445D01*
X125584701Y-135799771D01*
X125587000Y-135795470D01*
X125592229Y-135789098D01*
X125605843Y-135768724D01*
X125615220Y-135746085D01*
X125620000Y-135722051D01*
X125620000Y-135697547D01*
X125615219Y-135673514D01*
X125605842Y-135650875D01*
X125592229Y-135630502D01*
X125587000Y-135624130D01*
X125584701Y-135619829D01*
X125583283Y-135615155D01*
X125582200Y-135604159D01*
X125582200Y-135315441D01*
X125583283Y-135304445D01*
X125584701Y-135299771D01*
X125587000Y-135295470D01*
X125592229Y-135289098D01*
X125605843Y-135268724D01*
X125615220Y-135246085D01*
X125620000Y-135222051D01*
X125620000Y-135197547D01*
X125615219Y-135173514D01*
X125605842Y-135150875D01*
X125592229Y-135130502D01*
X125587000Y-135124130D01*
X125584701Y-135119829D01*
X125583283Y-135115155D01*
X125582200Y-135104159D01*
X125582200Y-134815441D01*
X125583283Y-134804445D01*
X125584701Y-134799771D01*
X125587000Y-134795470D01*
X125592229Y-134789098D01*
X125605843Y-134768724D01*
X125615220Y-134746085D01*
X125620000Y-134722051D01*
X125620000Y-134697547D01*
X125615219Y-134673514D01*
X125605842Y-134650875D01*
X125592229Y-134630502D01*
X125587000Y-134624130D01*
X125584701Y-134619829D01*
X125583283Y-134615155D01*
X125582200Y-134604159D01*
X125582200Y-134315441D01*
X125583283Y-134304445D01*
X125584701Y-134299771D01*
X125587000Y-134295470D01*
X125592229Y-134289098D01*
X125605843Y-134268724D01*
X125615220Y-134246085D01*
X125620000Y-134222051D01*
X125620000Y-134197547D01*
X125615219Y-134173514D01*
X125605842Y-134150875D01*
X125592229Y-134130502D01*
X125587000Y-134124130D01*
X125584701Y-134119829D01*
X125583283Y-134115155D01*
X125582200Y-134104159D01*
X125582200Y-133815441D01*
X125583283Y-133804445D01*
X125584701Y-133799771D01*
X125587000Y-133795469D01*
X125590096Y-133791696D01*
X125593869Y-133788600D01*
X125598171Y-133786301D01*
X125602845Y-133784883D01*
X125613841Y-133783800D01*
X126452559Y-133783800D01*
X126463555Y-133784883D01*
X126463555Y-133784883D01*
G37*
G36*
X121563555Y-133784883D02*
G01*
X121568229Y-133786301D01*
X121572531Y-133788600D01*
X121576304Y-133791696D01*
X121579400Y-133795469D01*
X121581699Y-133799771D01*
X121583117Y-133804445D01*
X121584200Y-133815441D01*
X121584200Y-134104159D01*
X121583117Y-134115155D01*
X121581699Y-134119829D01*
X121579400Y-134124130D01*
X121574171Y-134130502D01*
X121560557Y-134150876D01*
X121551180Y-134173515D01*
X121546400Y-134197549D01*
X121546400Y-134222053D01*
X121551181Y-134246086D01*
X121560558Y-134268725D01*
X121574171Y-134289098D01*
X121579400Y-134295470D01*
X121581699Y-134299771D01*
X121583117Y-134304445D01*
X121584200Y-134315441D01*
X121584200Y-134604159D01*
X121583117Y-134615155D01*
X121581699Y-134619829D01*
X121579400Y-134624130D01*
X121574171Y-134630502D01*
X121560557Y-134650876D01*
X121551180Y-134673515D01*
X121546400Y-134697549D01*
X121546400Y-134722053D01*
X121551181Y-134746086D01*
X121560558Y-134768725D01*
X121574171Y-134789098D01*
X121579400Y-134795470D01*
X121581699Y-134799771D01*
X121583117Y-134804445D01*
X121584200Y-134815441D01*
X121584200Y-135104159D01*
X121583117Y-135115155D01*
X121581699Y-135119829D01*
X121579400Y-135124130D01*
X121574171Y-135130502D01*
X121560557Y-135150876D01*
X121551180Y-135173515D01*
X121546400Y-135197549D01*
X121546400Y-135222053D01*
X121551181Y-135246086D01*
X121560558Y-135268725D01*
X121574171Y-135289098D01*
X121579400Y-135295470D01*
X121581699Y-135299771D01*
X121583117Y-135304445D01*
X121584200Y-135315441D01*
X121584200Y-135604159D01*
X121583117Y-135615155D01*
X121581699Y-135619829D01*
X121579400Y-135624130D01*
X121574171Y-135630502D01*
X121560557Y-135650876D01*
X121551180Y-135673515D01*
X121546400Y-135697549D01*
X121546400Y-135722053D01*
X121551181Y-135746086D01*
X121560558Y-135768725D01*
X121574171Y-135789098D01*
X121579400Y-135795470D01*
X121581699Y-135799771D01*
X121583117Y-135804445D01*
X121584200Y-135815441D01*
X121584200Y-136104159D01*
X121583117Y-136115155D01*
X121581699Y-136119829D01*
X121579400Y-136124130D01*
X121574171Y-136130502D01*
X121560557Y-136150876D01*
X121551180Y-136173515D01*
X121546400Y-136197549D01*
X121546400Y-136222053D01*
X121551181Y-136246086D01*
X121560558Y-136268725D01*
X121574171Y-136289098D01*
X121579400Y-136295470D01*
X121581699Y-136299771D01*
X121583117Y-136304445D01*
X121584200Y-136315441D01*
X121584200Y-136604159D01*
X121583117Y-136615155D01*
X121581699Y-136619829D01*
X121579400Y-136624130D01*
X121574171Y-136630502D01*
X121560557Y-136650876D01*
X121551180Y-136673515D01*
X121546400Y-136697549D01*
X121546400Y-136722053D01*
X121551181Y-136746086D01*
X121560558Y-136768725D01*
X121574171Y-136789098D01*
X121579400Y-136795470D01*
X121581699Y-136799771D01*
X121583117Y-136804445D01*
X121584200Y-136815441D01*
X121584200Y-137104159D01*
X121583117Y-137115155D01*
X121581699Y-137119829D01*
X121579400Y-137124131D01*
X121576304Y-137127904D01*
X121572531Y-137131000D01*
X121568229Y-137133299D01*
X121563555Y-137134717D01*
X121552559Y-137135800D01*
X120713841Y-137135800D01*
X120702845Y-137134717D01*
X120698171Y-137133299D01*
X120693869Y-137131000D01*
X120690096Y-137127904D01*
X120687000Y-137124131D01*
X120684701Y-137119829D01*
X120683283Y-137115155D01*
X120682200Y-137104159D01*
X120682200Y-136815441D01*
X120683283Y-136804445D01*
X120684701Y-136799771D01*
X120687000Y-136795470D01*
X120692229Y-136789098D01*
X120705843Y-136768724D01*
X120715220Y-136746085D01*
X120720000Y-136722051D01*
X120720000Y-136697547D01*
X120715219Y-136673514D01*
X120705842Y-136650875D01*
X120692229Y-136630502D01*
X120687000Y-136624130D01*
X120684701Y-136619829D01*
X120683283Y-136615155D01*
X120682200Y-136604159D01*
X120682200Y-136315441D01*
X120683283Y-136304445D01*
X120684701Y-136299771D01*
X120687000Y-136295470D01*
X120692229Y-136289098D01*
X120705843Y-136268724D01*
X120715220Y-136246085D01*
X120720000Y-136222051D01*
X120720000Y-136197547D01*
X120715219Y-136173514D01*
X120705842Y-136150875D01*
X120692229Y-136130502D01*
X120687000Y-136124130D01*
X120684701Y-136119829D01*
X120683283Y-136115155D01*
X120682200Y-136104159D01*
X120682200Y-135815441D01*
X120683283Y-135804445D01*
X120684701Y-135799771D01*
X120687000Y-135795470D01*
X120692229Y-135789098D01*
X120705843Y-135768724D01*
X120715220Y-135746085D01*
X120720000Y-135722051D01*
X120720000Y-135697547D01*
X120715219Y-135673514D01*
X120705842Y-135650875D01*
X120692229Y-135630502D01*
X120687000Y-135624130D01*
X120684701Y-135619829D01*
X120683283Y-135615155D01*
X120682200Y-135604159D01*
X120682200Y-135315441D01*
X120683283Y-135304445D01*
X120684701Y-135299771D01*
X120687000Y-135295470D01*
X120692229Y-135289098D01*
X120705843Y-135268724D01*
X120715220Y-135246085D01*
X120720000Y-135222051D01*
X120720000Y-135197547D01*
X120715219Y-135173514D01*
X120705842Y-135150875D01*
X120692229Y-135130502D01*
X120687000Y-135124130D01*
X120684701Y-135119829D01*
X120683283Y-135115155D01*
X120682200Y-135104159D01*
X120682200Y-134815441D01*
X120683283Y-134804445D01*
X120684701Y-134799771D01*
X120687000Y-134795470D01*
X120692229Y-134789098D01*
X120705843Y-134768724D01*
X120715220Y-134746085D01*
X120720000Y-134722051D01*
X120720000Y-134697547D01*
X120715219Y-134673514D01*
X120705842Y-134650875D01*
X120692229Y-134630502D01*
X120687000Y-134624130D01*
X120684701Y-134619829D01*
X120683283Y-134615155D01*
X120682200Y-134604159D01*
X120682200Y-134315441D01*
X120683283Y-134304445D01*
X120684701Y-134299771D01*
X120687000Y-134295470D01*
X120692229Y-134289098D01*
X120705843Y-134268724D01*
X120715220Y-134246085D01*
X120720000Y-134222051D01*
X120720000Y-134197547D01*
X120715219Y-134173514D01*
X120705842Y-134150875D01*
X120692229Y-134130502D01*
X120687000Y-134124130D01*
X120684701Y-134119829D01*
X120683283Y-134115155D01*
X120682200Y-134104159D01*
X120682200Y-133815441D01*
X120683283Y-133804445D01*
X120684701Y-133799771D01*
X120687000Y-133795469D01*
X120690096Y-133791696D01*
X120693869Y-133788600D01*
X120698171Y-133786301D01*
X120702845Y-133784883D01*
X120713841Y-133783800D01*
X121552559Y-133783800D01*
X121563555Y-133784883D01*
X121563555Y-133784883D01*
G37*
G36*
X118488674Y-135653465D02*
G01*
X118526367Y-135664899D01*
X118561103Y-135683466D01*
X118591548Y-135708452D01*
X118616534Y-135738897D01*
X118635101Y-135773633D01*
X118646535Y-135811326D01*
X118651000Y-135856661D01*
X118651000Y-136693339D01*
X118646535Y-136738674D01*
X118635101Y-136776367D01*
X118616534Y-136811103D01*
X118591548Y-136841548D01*
X118561103Y-136866534D01*
X118526367Y-136885101D01*
X118488674Y-136896535D01*
X118443339Y-136901000D01*
X117356661Y-136901000D01*
X117311326Y-136896535D01*
X117273633Y-136885101D01*
X117238897Y-136866534D01*
X117208452Y-136841548D01*
X117183466Y-136811103D01*
X117164899Y-136776367D01*
X117153465Y-136738674D01*
X117149000Y-136693339D01*
X117149000Y-135856661D01*
X117153465Y-135811326D01*
X117164899Y-135773633D01*
X117183466Y-135738897D01*
X117208452Y-135708452D01*
X117238897Y-135683466D01*
X117273633Y-135664899D01*
X117311326Y-135653465D01*
X117356661Y-135649000D01*
X118443339Y-135649000D01*
X118488674Y-135653465D01*
X118488674Y-135653465D01*
G37*
G36*
X115628824Y-132737960D02*
G01*
X115628827Y-132737961D01*
X115628828Y-132737961D01*
X115808092Y-132792340D01*
X115808095Y-132792342D01*
X115808096Y-132792342D01*
X115973303Y-132880646D01*
X116118112Y-132999488D01*
X116236954Y-133144297D01*
X116325258Y-133309503D01*
X116325260Y-133309507D01*
X116371154Y-133460800D01*
X116379640Y-133488775D01*
X116393400Y-133628482D01*
X116393400Y-135921918D01*
X116379640Y-136061625D01*
X116379639Y-136061628D01*
X116379639Y-136061629D01*
X116325260Y-136240893D01*
X116325258Y-136240896D01*
X116325258Y-136240897D01*
X116236954Y-136406103D01*
X116118112Y-136550912D01*
X115973303Y-136669754D01*
X115830497Y-136746085D01*
X115808093Y-136758060D01*
X115628829Y-136812439D01*
X115628828Y-136812439D01*
X115628825Y-136812440D01*
X115442400Y-136830801D01*
X115255976Y-136812440D01*
X115255973Y-136812439D01*
X115255972Y-136812439D01*
X115076708Y-136758060D01*
X115054304Y-136746085D01*
X114911498Y-136669754D01*
X114766689Y-136550912D01*
X114647847Y-136406103D01*
X114559543Y-136240897D01*
X114559543Y-136240896D01*
X114559541Y-136240893D01*
X114505162Y-136061629D01*
X114505162Y-136061628D01*
X114505161Y-136061625D01*
X114491401Y-135921918D01*
X114491400Y-133628483D01*
X114505160Y-133488776D01*
X114505161Y-133488772D01*
X114559540Y-133309508D01*
X114594361Y-133244362D01*
X114647846Y-133144297D01*
X114766688Y-132999488D01*
X114911497Y-132880646D01*
X115076703Y-132792342D01*
X115076704Y-132792342D01*
X115076707Y-132792340D01*
X115255971Y-132737961D01*
X115255972Y-132737961D01*
X115255975Y-132737960D01*
X115442400Y-132719599D01*
X115628824Y-132737960D01*
X115628824Y-132737960D01*
G37*
G36*
X135401000Y-136601000D02*
G01*
X133799000Y-136601000D01*
X133799000Y-134999000D01*
X135401000Y-134999000D01*
X135401000Y-136601000D01*
X135401000Y-136601000D01*
G37*
G36*
X142629800Y-136575600D02*
G01*
X141027800Y-136575600D01*
X141027800Y-134973600D01*
X142629800Y-134973600D01*
X142629800Y-136575600D01*
X142629800Y-136575600D01*
G37*
G36*
X128217699Y-134403245D02*
G01*
X128255195Y-134414620D01*
X128289754Y-134433092D01*
X128320047Y-134457953D01*
X128344908Y-134488246D01*
X128363380Y-134522805D01*
X128374755Y-134560301D01*
X128379200Y-134605438D01*
X128379200Y-135244162D01*
X128374755Y-135289299D01*
X128363380Y-135326795D01*
X128344908Y-135361354D01*
X128320047Y-135391647D01*
X128289754Y-135416508D01*
X128255195Y-135434980D01*
X128217699Y-135446355D01*
X128172562Y-135450800D01*
X127433838Y-135450800D01*
X127388701Y-135446355D01*
X127351205Y-135434980D01*
X127316646Y-135416508D01*
X127286353Y-135391647D01*
X127261492Y-135361354D01*
X127243020Y-135326795D01*
X127231645Y-135289299D01*
X127227200Y-135244162D01*
X127227200Y-134605438D01*
X127231645Y-134560301D01*
X127243020Y-134522805D01*
X127261492Y-134488246D01*
X127286353Y-134457953D01*
X127316646Y-134433092D01*
X127351205Y-134414620D01*
X127388701Y-134403245D01*
X127433838Y-134398800D01*
X128172562Y-134398800D01*
X128217699Y-134403245D01*
X128217699Y-134403245D01*
G37*
G36*
X129967699Y-134403245D02*
G01*
X130005195Y-134414620D01*
X130039754Y-134433092D01*
X130070047Y-134457953D01*
X130094908Y-134488246D01*
X130113380Y-134522805D01*
X130124755Y-134560301D01*
X130129200Y-134605438D01*
X130129200Y-135244162D01*
X130124755Y-135289299D01*
X130113380Y-135326795D01*
X130094908Y-135361354D01*
X130070047Y-135391647D01*
X130039754Y-135416508D01*
X130005195Y-135434980D01*
X129967699Y-135446355D01*
X129922562Y-135450800D01*
X129183838Y-135450800D01*
X129138701Y-135446355D01*
X129101205Y-135434980D01*
X129066646Y-135416508D01*
X129036353Y-135391647D01*
X129011492Y-135361354D01*
X128993020Y-135326795D01*
X128981645Y-135289299D01*
X128977200Y-135244162D01*
X128977200Y-134605438D01*
X128981645Y-134560301D01*
X128993020Y-134522805D01*
X129011492Y-134488246D01*
X129036353Y-134457953D01*
X129066646Y-134433092D01*
X129101205Y-134414620D01*
X129138701Y-134403245D01*
X129183838Y-134398800D01*
X129922562Y-134398800D01*
X129967699Y-134403245D01*
X129967699Y-134403245D01*
G37*
G36*
X128217699Y-132879245D02*
G01*
X128255195Y-132890620D01*
X128289754Y-132909092D01*
X128320047Y-132933953D01*
X128344908Y-132964246D01*
X128363380Y-132998805D01*
X128374755Y-133036301D01*
X128379200Y-133081438D01*
X128379200Y-133720162D01*
X128374755Y-133765299D01*
X128363380Y-133802795D01*
X128344908Y-133837354D01*
X128320047Y-133867647D01*
X128289754Y-133892508D01*
X128255195Y-133910980D01*
X128217699Y-133922355D01*
X128172562Y-133926800D01*
X127433838Y-133926800D01*
X127388701Y-133922355D01*
X127351205Y-133910980D01*
X127316646Y-133892508D01*
X127286353Y-133867647D01*
X127261492Y-133837354D01*
X127243020Y-133802795D01*
X127231645Y-133765299D01*
X127227200Y-133720162D01*
X127227200Y-133081438D01*
X127231645Y-133036301D01*
X127243020Y-132998805D01*
X127261492Y-132964246D01*
X127286353Y-132933953D01*
X127316646Y-132909092D01*
X127351205Y-132890620D01*
X127388701Y-132879245D01*
X127433838Y-132874800D01*
X128172562Y-132874800D01*
X128217699Y-132879245D01*
X128217699Y-132879245D01*
G37*
G36*
X129967699Y-132879245D02*
G01*
X130005195Y-132890620D01*
X130039754Y-132909092D01*
X130070047Y-132933953D01*
X130094908Y-132964246D01*
X130113380Y-132998805D01*
X130124755Y-133036301D01*
X130129200Y-133081438D01*
X130129200Y-133720162D01*
X130124755Y-133765299D01*
X130113380Y-133802795D01*
X130094908Y-133837354D01*
X130070047Y-133867647D01*
X130039754Y-133892508D01*
X130005195Y-133910980D01*
X129967699Y-133922355D01*
X129922562Y-133926800D01*
X129183838Y-133926800D01*
X129138701Y-133922355D01*
X129101205Y-133910980D01*
X129066646Y-133892508D01*
X129036353Y-133867647D01*
X129011492Y-133837354D01*
X128993020Y-133802795D01*
X128981645Y-133765299D01*
X128977200Y-133720162D01*
X128977200Y-133081438D01*
X128981645Y-133036301D01*
X128993020Y-132998805D01*
X129011492Y-132964246D01*
X129036353Y-132933953D01*
X129066646Y-132909092D01*
X129101205Y-132890620D01*
X129138701Y-132879245D01*
X129183838Y-132874800D01*
X129922562Y-132874800D01*
X129967699Y-132879245D01*
X129967699Y-132879245D01*
G37*
G36*
X122238555Y-132559883D02*
G01*
X122243229Y-132561301D01*
X122247530Y-132563600D01*
X122253902Y-132568829D01*
X122274276Y-132582443D01*
X122296915Y-132591820D01*
X122320949Y-132596600D01*
X122345453Y-132596600D01*
X122369486Y-132591819D01*
X122392125Y-132582442D01*
X122412498Y-132568829D01*
X122418870Y-132563600D01*
X122423171Y-132561301D01*
X122427845Y-132559883D01*
X122438841Y-132558800D01*
X122727559Y-132558800D01*
X122738555Y-132559883D01*
X122743229Y-132561301D01*
X122747530Y-132563600D01*
X122753902Y-132568829D01*
X122774276Y-132582443D01*
X122796915Y-132591820D01*
X122820949Y-132596600D01*
X122845453Y-132596600D01*
X122869486Y-132591819D01*
X122892125Y-132582442D01*
X122912498Y-132568829D01*
X122918870Y-132563600D01*
X122923171Y-132561301D01*
X122927845Y-132559883D01*
X122938841Y-132558800D01*
X123227559Y-132558800D01*
X123238555Y-132559883D01*
X123243229Y-132561301D01*
X123247530Y-132563600D01*
X123253902Y-132568829D01*
X123274276Y-132582443D01*
X123296915Y-132591820D01*
X123320949Y-132596600D01*
X123345453Y-132596600D01*
X123369486Y-132591819D01*
X123392125Y-132582442D01*
X123412498Y-132568829D01*
X123418870Y-132563600D01*
X123423171Y-132561301D01*
X123427845Y-132559883D01*
X123438841Y-132558800D01*
X123727559Y-132558800D01*
X123738555Y-132559883D01*
X123743229Y-132561301D01*
X123747530Y-132563600D01*
X123753902Y-132568829D01*
X123774276Y-132582443D01*
X123796915Y-132591820D01*
X123820949Y-132596600D01*
X123845453Y-132596600D01*
X123869486Y-132591819D01*
X123892125Y-132582442D01*
X123912498Y-132568829D01*
X123918870Y-132563600D01*
X123923171Y-132561301D01*
X123927845Y-132559883D01*
X123938841Y-132558800D01*
X124227559Y-132558800D01*
X124238555Y-132559883D01*
X124243229Y-132561301D01*
X124247530Y-132563600D01*
X124253902Y-132568829D01*
X124274276Y-132582443D01*
X124296915Y-132591820D01*
X124320949Y-132596600D01*
X124345453Y-132596600D01*
X124369486Y-132591819D01*
X124392125Y-132582442D01*
X124412498Y-132568829D01*
X124418870Y-132563600D01*
X124423171Y-132561301D01*
X124427845Y-132559883D01*
X124438841Y-132558800D01*
X124727559Y-132558800D01*
X124738555Y-132559883D01*
X124743229Y-132561301D01*
X124747530Y-132563600D01*
X124753902Y-132568829D01*
X124774276Y-132582443D01*
X124796915Y-132591820D01*
X124820949Y-132596600D01*
X124845453Y-132596600D01*
X124869486Y-132591819D01*
X124892125Y-132582442D01*
X124912498Y-132568829D01*
X124918870Y-132563600D01*
X124923171Y-132561301D01*
X124927845Y-132559883D01*
X124938841Y-132558800D01*
X125227559Y-132558800D01*
X125238555Y-132559883D01*
X125243229Y-132561301D01*
X125247531Y-132563600D01*
X125251304Y-132566696D01*
X125254400Y-132570469D01*
X125256699Y-132574771D01*
X125258117Y-132579445D01*
X125259200Y-132590441D01*
X125259200Y-133429159D01*
X125258117Y-133440155D01*
X125256699Y-133444829D01*
X125254400Y-133449131D01*
X125251304Y-133452904D01*
X125247531Y-133456000D01*
X125243229Y-133458299D01*
X125238555Y-133459717D01*
X125227559Y-133460800D01*
X124938841Y-133460800D01*
X124927845Y-133459717D01*
X124923171Y-133458299D01*
X124918870Y-133456000D01*
X124912498Y-133450771D01*
X124892124Y-133437157D01*
X124869485Y-133427780D01*
X124845451Y-133423000D01*
X124820947Y-133423000D01*
X124796914Y-133427781D01*
X124774275Y-133437158D01*
X124753902Y-133450771D01*
X124747530Y-133456000D01*
X124743229Y-133458299D01*
X124738555Y-133459717D01*
X124727559Y-133460800D01*
X124438841Y-133460800D01*
X124427845Y-133459717D01*
X124423171Y-133458299D01*
X124418870Y-133456000D01*
X124412498Y-133450771D01*
X124392124Y-133437157D01*
X124369485Y-133427780D01*
X124345451Y-133423000D01*
X124320947Y-133423000D01*
X124296914Y-133427781D01*
X124274275Y-133437158D01*
X124253902Y-133450771D01*
X124247530Y-133456000D01*
X124243229Y-133458299D01*
X124238555Y-133459717D01*
X124227559Y-133460800D01*
X123938841Y-133460800D01*
X123927845Y-133459717D01*
X123923171Y-133458299D01*
X123918870Y-133456000D01*
X123912498Y-133450771D01*
X123892124Y-133437157D01*
X123869485Y-133427780D01*
X123845451Y-133423000D01*
X123820947Y-133423000D01*
X123796914Y-133427781D01*
X123774275Y-133437158D01*
X123753902Y-133450771D01*
X123747530Y-133456000D01*
X123743229Y-133458299D01*
X123738555Y-133459717D01*
X123727559Y-133460800D01*
X123438841Y-133460800D01*
X123427845Y-133459717D01*
X123423171Y-133458299D01*
X123418870Y-133456000D01*
X123412498Y-133450771D01*
X123392124Y-133437157D01*
X123369485Y-133427780D01*
X123345451Y-133423000D01*
X123320947Y-133423000D01*
X123296914Y-133427781D01*
X123274275Y-133437158D01*
X123253902Y-133450771D01*
X123247530Y-133456000D01*
X123243229Y-133458299D01*
X123238555Y-133459717D01*
X123227559Y-133460800D01*
X122938841Y-133460800D01*
X122927845Y-133459717D01*
X122923171Y-133458299D01*
X122918870Y-133456000D01*
X122912498Y-133450771D01*
X122892124Y-133437157D01*
X122869485Y-133427780D01*
X122845451Y-133423000D01*
X122820947Y-133423000D01*
X122796914Y-133427781D01*
X122774275Y-133437158D01*
X122753902Y-133450771D01*
X122747530Y-133456000D01*
X122743229Y-133458299D01*
X122738555Y-133459717D01*
X122727559Y-133460800D01*
X122438841Y-133460800D01*
X122427845Y-133459717D01*
X122423171Y-133458299D01*
X122418870Y-133456000D01*
X122412498Y-133450771D01*
X122392124Y-133437157D01*
X122369485Y-133427780D01*
X122345451Y-133423000D01*
X122320947Y-133423000D01*
X122296914Y-133427781D01*
X122274275Y-133437158D01*
X122253902Y-133450771D01*
X122247530Y-133456000D01*
X122243229Y-133458299D01*
X122238555Y-133459717D01*
X122227559Y-133460800D01*
X121938841Y-133460800D01*
X121927845Y-133459717D01*
X121923171Y-133458299D01*
X121918869Y-133456000D01*
X121915096Y-133452904D01*
X121912000Y-133449131D01*
X121909701Y-133444829D01*
X121908283Y-133440155D01*
X121907200Y-133429159D01*
X121907200Y-132590441D01*
X121908283Y-132579445D01*
X121909701Y-132574771D01*
X121912000Y-132570469D01*
X121915096Y-132566696D01*
X121918869Y-132563600D01*
X121923171Y-132561301D01*
X121927845Y-132559883D01*
X121938841Y-132558800D01*
X122227559Y-132558800D01*
X122238555Y-132559883D01*
X122238555Y-132559883D01*
G37*
G36*
X137814499Y-132303445D02*
G01*
X137851995Y-132314820D01*
X137886554Y-132333292D01*
X137916847Y-132358153D01*
X137941708Y-132388446D01*
X137960180Y-132423005D01*
X137971555Y-132460501D01*
X137976000Y-132505638D01*
X137976000Y-133244362D01*
X137971555Y-133289499D01*
X137960180Y-133326995D01*
X137941708Y-133361554D01*
X137916847Y-133391847D01*
X137886554Y-133416708D01*
X137851995Y-133435180D01*
X137814499Y-133446555D01*
X137769362Y-133451000D01*
X137130638Y-133451000D01*
X137085501Y-133446555D01*
X137048005Y-133435180D01*
X137013446Y-133416708D01*
X136983153Y-133391847D01*
X136958292Y-133361554D01*
X136939820Y-133326995D01*
X136928445Y-133289499D01*
X136924000Y-133244362D01*
X136924000Y-132505638D01*
X136928445Y-132460501D01*
X136939820Y-132423005D01*
X136958292Y-132388446D01*
X136983153Y-132358153D01*
X137013446Y-132333292D01*
X137048005Y-132314820D01*
X137085501Y-132303445D01*
X137130638Y-132299000D01*
X137769362Y-132299000D01*
X137814499Y-132303445D01*
X137814499Y-132303445D01*
G37*
G36*
X139348499Y-132254245D02*
G01*
X139385995Y-132265620D01*
X139420554Y-132284092D01*
X139450847Y-132308953D01*
X139475708Y-132339246D01*
X139494180Y-132373805D01*
X139505555Y-132411301D01*
X139510000Y-132456438D01*
X139510000Y-133195162D01*
X139505555Y-133240299D01*
X139494180Y-133277795D01*
X139475708Y-133312354D01*
X139450847Y-133342647D01*
X139420554Y-133367508D01*
X139385995Y-133385980D01*
X139348499Y-133397355D01*
X139303362Y-133401800D01*
X138664638Y-133401800D01*
X138619501Y-133397355D01*
X138582005Y-133385980D01*
X138547446Y-133367508D01*
X138517153Y-133342647D01*
X138492292Y-133312354D01*
X138473820Y-133277795D01*
X138462445Y-133240299D01*
X138458000Y-133195162D01*
X138458000Y-132456438D01*
X138462445Y-132411301D01*
X138473820Y-132373805D01*
X138492292Y-132339246D01*
X138517153Y-132308953D01*
X138547446Y-132284092D01*
X138582005Y-132265620D01*
X138619501Y-132254245D01*
X138664638Y-132249800D01*
X139303362Y-132249800D01*
X139348499Y-132254245D01*
X139348499Y-132254245D01*
G37*
G36*
X112893400Y-132726200D02*
G01*
X108391400Y-132726200D01*
X108391400Y-130824200D01*
X112893400Y-130824200D01*
X112893400Y-132726200D01*
X112893400Y-132726200D01*
G37*
G36*
X128316699Y-130898045D02*
G01*
X128354195Y-130909420D01*
X128388754Y-130927892D01*
X128419047Y-130952753D01*
X128443908Y-130983046D01*
X128462380Y-131017605D01*
X128473755Y-131055101D01*
X128478200Y-131100238D01*
X128478200Y-131738962D01*
X128473755Y-131784099D01*
X128462380Y-131821595D01*
X128443908Y-131856154D01*
X128419047Y-131886447D01*
X128388754Y-131911308D01*
X128354195Y-131929780D01*
X128316699Y-131941155D01*
X128271562Y-131945600D01*
X127532838Y-131945600D01*
X127487701Y-131941155D01*
X127450205Y-131929780D01*
X127415646Y-131911308D01*
X127385353Y-131886447D01*
X127360492Y-131856154D01*
X127342020Y-131821595D01*
X127330645Y-131784099D01*
X127326200Y-131738962D01*
X127326200Y-131100238D01*
X127330645Y-131055101D01*
X127342020Y-131017605D01*
X127360492Y-130983046D01*
X127385353Y-130952753D01*
X127415646Y-130927892D01*
X127450205Y-130909420D01*
X127487701Y-130898045D01*
X127532838Y-130893600D01*
X128271562Y-130893600D01*
X128316699Y-130898045D01*
X128316699Y-130898045D01*
G37*
G36*
X126566699Y-130898045D02*
G01*
X126604195Y-130909420D01*
X126638754Y-130927892D01*
X126669047Y-130952753D01*
X126693908Y-130983046D01*
X126712380Y-131017605D01*
X126723755Y-131055101D01*
X126728200Y-131100238D01*
X126728200Y-131738962D01*
X126723755Y-131784099D01*
X126712380Y-131821595D01*
X126693908Y-131856154D01*
X126669047Y-131886447D01*
X126638754Y-131911308D01*
X126604195Y-131929780D01*
X126566699Y-131941155D01*
X126521562Y-131945600D01*
X125782838Y-131945600D01*
X125737701Y-131941155D01*
X125700205Y-131929780D01*
X125665646Y-131911308D01*
X125635353Y-131886447D01*
X125610492Y-131856154D01*
X125592020Y-131821595D01*
X125580645Y-131784099D01*
X125576200Y-131738962D01*
X125576200Y-131100238D01*
X125580645Y-131055101D01*
X125592020Y-131017605D01*
X125610492Y-130983046D01*
X125635353Y-130952753D01*
X125665646Y-130927892D01*
X125700205Y-130909420D01*
X125737701Y-130898045D01*
X125782838Y-130893600D01*
X126521562Y-130893600D01*
X126566699Y-130898045D01*
X126566699Y-130898045D01*
G37*
G36*
X124887699Y-130898045D02*
G01*
X124925195Y-130909420D01*
X124959754Y-130927892D01*
X124990047Y-130952753D01*
X125014908Y-130983046D01*
X125033380Y-131017605D01*
X125044755Y-131055101D01*
X125049200Y-131100238D01*
X125049200Y-131738962D01*
X125044755Y-131784099D01*
X125033380Y-131821595D01*
X125014908Y-131856154D01*
X124990047Y-131886447D01*
X124959754Y-131911308D01*
X124925195Y-131929780D01*
X124887699Y-131941155D01*
X124842562Y-131945600D01*
X124103838Y-131945600D01*
X124058701Y-131941155D01*
X124021205Y-131929780D01*
X123986646Y-131911308D01*
X123956353Y-131886447D01*
X123931492Y-131856154D01*
X123913020Y-131821595D01*
X123901645Y-131784099D01*
X123897200Y-131738962D01*
X123897200Y-131100238D01*
X123901645Y-131055101D01*
X123913020Y-131017605D01*
X123931492Y-130983046D01*
X123956353Y-130952753D01*
X123986646Y-130927892D01*
X124021205Y-130909420D01*
X124058701Y-130898045D01*
X124103838Y-130893600D01*
X124842562Y-130893600D01*
X124887699Y-130898045D01*
X124887699Y-130898045D01*
G37*
G36*
X123137699Y-130898045D02*
G01*
X123175195Y-130909420D01*
X123209754Y-130927892D01*
X123240047Y-130952753D01*
X123264908Y-130983046D01*
X123283380Y-131017605D01*
X123294755Y-131055101D01*
X123299200Y-131100238D01*
X123299200Y-131738962D01*
X123294755Y-131784099D01*
X123283380Y-131821595D01*
X123264908Y-131856154D01*
X123240047Y-131886447D01*
X123209754Y-131911308D01*
X123175195Y-131929780D01*
X123137699Y-131941155D01*
X123092562Y-131945600D01*
X122353838Y-131945600D01*
X122308701Y-131941155D01*
X122271205Y-131929780D01*
X122236646Y-131911308D01*
X122206353Y-131886447D01*
X122181492Y-131856154D01*
X122163020Y-131821595D01*
X122151645Y-131784099D01*
X122147200Y-131738962D01*
X122147200Y-131100238D01*
X122151645Y-131055101D01*
X122163020Y-131017605D01*
X122181492Y-130983046D01*
X122206353Y-130952753D01*
X122236646Y-130927892D01*
X122271205Y-130909420D01*
X122308701Y-130898045D01*
X122353838Y-130893600D01*
X123092562Y-130893600D01*
X123137699Y-130898045D01*
X123137699Y-130898045D01*
G37*
G36*
X137814499Y-130553445D02*
G01*
X137851995Y-130564820D01*
X137886554Y-130583292D01*
X137916847Y-130608153D01*
X137941708Y-130638446D01*
X137960180Y-130673005D01*
X137971555Y-130710501D01*
X137976000Y-130755638D01*
X137976000Y-131494362D01*
X137971555Y-131539499D01*
X137960180Y-131576995D01*
X137941708Y-131611554D01*
X137916847Y-131641847D01*
X137886554Y-131666708D01*
X137851995Y-131685180D01*
X137814499Y-131696555D01*
X137769362Y-131701000D01*
X137130638Y-131701000D01*
X137085501Y-131696555D01*
X137048005Y-131685180D01*
X137013446Y-131666708D01*
X136983153Y-131641847D01*
X136958292Y-131611554D01*
X136939820Y-131576995D01*
X136928445Y-131539499D01*
X136924000Y-131494362D01*
X136924000Y-130755638D01*
X136928445Y-130710501D01*
X136939820Y-130673005D01*
X136958292Y-130638446D01*
X136983153Y-130608153D01*
X137013446Y-130583292D01*
X137048005Y-130564820D01*
X137085501Y-130553445D01*
X137130638Y-130549000D01*
X137769362Y-130549000D01*
X137814499Y-130553445D01*
X137814499Y-130553445D01*
G37*
G36*
X139348499Y-130504245D02*
G01*
X139385995Y-130515620D01*
X139420554Y-130534092D01*
X139450847Y-130558953D01*
X139475708Y-130589246D01*
X139494180Y-130623805D01*
X139505555Y-130661301D01*
X139510000Y-130706438D01*
X139510000Y-131445162D01*
X139505555Y-131490299D01*
X139494180Y-131527795D01*
X139475708Y-131562354D01*
X139450847Y-131592647D01*
X139420554Y-131617508D01*
X139385995Y-131635980D01*
X139348499Y-131647355D01*
X139303362Y-131651800D01*
X138664638Y-131651800D01*
X138619501Y-131647355D01*
X138582005Y-131635980D01*
X138547446Y-131617508D01*
X138517153Y-131592647D01*
X138492292Y-131562354D01*
X138473820Y-131527795D01*
X138462445Y-131490299D01*
X138458000Y-131445162D01*
X138458000Y-130706438D01*
X138462445Y-130661301D01*
X138473820Y-130623805D01*
X138492292Y-130589246D01*
X138517153Y-130558953D01*
X138547446Y-130534092D01*
X138582005Y-130515620D01*
X138619501Y-130504245D01*
X138664638Y-130499800D01*
X139303362Y-130499800D01*
X139348499Y-130504245D01*
X139348499Y-130504245D01*
G37*
G36*
X124887699Y-129374045D02*
G01*
X124925195Y-129385420D01*
X124959754Y-129403892D01*
X124990047Y-129428753D01*
X125014908Y-129459046D01*
X125033380Y-129493605D01*
X125044755Y-129531101D01*
X125049200Y-129576238D01*
X125049200Y-130214962D01*
X125044755Y-130260099D01*
X125033380Y-130297595D01*
X125014908Y-130332154D01*
X124990047Y-130362447D01*
X124959754Y-130387308D01*
X124925195Y-130405780D01*
X124887699Y-130417155D01*
X124842562Y-130421600D01*
X124103838Y-130421600D01*
X124058701Y-130417155D01*
X124021205Y-130405780D01*
X123986646Y-130387308D01*
X123956353Y-130362447D01*
X123931492Y-130332154D01*
X123913020Y-130297595D01*
X123901645Y-130260099D01*
X123897200Y-130214962D01*
X123897200Y-129576238D01*
X123901645Y-129531101D01*
X123913020Y-129493605D01*
X123931492Y-129459046D01*
X123956353Y-129428753D01*
X123986646Y-129403892D01*
X124021205Y-129385420D01*
X124058701Y-129374045D01*
X124103838Y-129369600D01*
X124842562Y-129369600D01*
X124887699Y-129374045D01*
X124887699Y-129374045D01*
G37*
G36*
X128316699Y-129374045D02*
G01*
X128354195Y-129385420D01*
X128388754Y-129403892D01*
X128419047Y-129428753D01*
X128443908Y-129459046D01*
X128462380Y-129493605D01*
X128473755Y-129531101D01*
X128478200Y-129576238D01*
X128478200Y-130214962D01*
X128473755Y-130260099D01*
X128462380Y-130297595D01*
X128443908Y-130332154D01*
X128419047Y-130362447D01*
X128388754Y-130387308D01*
X128354195Y-130405780D01*
X128316699Y-130417155D01*
X128271562Y-130421600D01*
X127532838Y-130421600D01*
X127487701Y-130417155D01*
X127450205Y-130405780D01*
X127415646Y-130387308D01*
X127385353Y-130362447D01*
X127360492Y-130332154D01*
X127342020Y-130297595D01*
X127330645Y-130260099D01*
X127326200Y-130214962D01*
X127326200Y-129576238D01*
X127330645Y-129531101D01*
X127342020Y-129493605D01*
X127360492Y-129459046D01*
X127385353Y-129428753D01*
X127415646Y-129403892D01*
X127450205Y-129385420D01*
X127487701Y-129374045D01*
X127532838Y-129369600D01*
X128271562Y-129369600D01*
X128316699Y-129374045D01*
X128316699Y-129374045D01*
G37*
G36*
X126566699Y-129374045D02*
G01*
X126604195Y-129385420D01*
X126638754Y-129403892D01*
X126669047Y-129428753D01*
X126693908Y-129459046D01*
X126712380Y-129493605D01*
X126723755Y-129531101D01*
X126728200Y-129576238D01*
X126728200Y-130214962D01*
X126723755Y-130260099D01*
X126712380Y-130297595D01*
X126693908Y-130332154D01*
X126669047Y-130362447D01*
X126638754Y-130387308D01*
X126604195Y-130405780D01*
X126566699Y-130417155D01*
X126521562Y-130421600D01*
X125782838Y-130421600D01*
X125737701Y-130417155D01*
X125700205Y-130405780D01*
X125665646Y-130387308D01*
X125635353Y-130362447D01*
X125610492Y-130332154D01*
X125592020Y-130297595D01*
X125580645Y-130260099D01*
X125576200Y-130214962D01*
X125576200Y-129576238D01*
X125580645Y-129531101D01*
X125592020Y-129493605D01*
X125610492Y-129459046D01*
X125635353Y-129428753D01*
X125665646Y-129403892D01*
X125700205Y-129385420D01*
X125737701Y-129374045D01*
X125782838Y-129369600D01*
X126521562Y-129369600D01*
X126566699Y-129374045D01*
X126566699Y-129374045D01*
G37*
G36*
X123137699Y-129374045D02*
G01*
X123175195Y-129385420D01*
X123209754Y-129403892D01*
X123240047Y-129428753D01*
X123264908Y-129459046D01*
X123283380Y-129493605D01*
X123294755Y-129531101D01*
X123299200Y-129576238D01*
X123299200Y-130214962D01*
X123294755Y-130260099D01*
X123283380Y-130297595D01*
X123264908Y-130332154D01*
X123240047Y-130362447D01*
X123209754Y-130387308D01*
X123175195Y-130405780D01*
X123137699Y-130417155D01*
X123092562Y-130421600D01*
X122353838Y-130421600D01*
X122308701Y-130417155D01*
X122271205Y-130405780D01*
X122236646Y-130387308D01*
X122206353Y-130362447D01*
X122181492Y-130332154D01*
X122163020Y-130297595D01*
X122151645Y-130260099D01*
X122147200Y-130214962D01*
X122147200Y-129576238D01*
X122151645Y-129531101D01*
X122163020Y-129493605D01*
X122181492Y-129459046D01*
X122206353Y-129428753D01*
X122236646Y-129403892D01*
X122271205Y-129385420D01*
X122308701Y-129374045D01*
X122353838Y-129369600D01*
X123092562Y-129369600D01*
X123137699Y-129374045D01*
X123137699Y-129374045D01*
G37*
G36*
X137814499Y-128953445D02*
G01*
X137851995Y-128964820D01*
X137886554Y-128983292D01*
X137916847Y-129008153D01*
X137941708Y-129038446D01*
X137960180Y-129073005D01*
X137971555Y-129110501D01*
X137976000Y-129155638D01*
X137976000Y-129894362D01*
X137971555Y-129939499D01*
X137960180Y-129976995D01*
X137941708Y-130011554D01*
X137916847Y-130041847D01*
X137886554Y-130066708D01*
X137851995Y-130085180D01*
X137814499Y-130096555D01*
X137769362Y-130101000D01*
X137130638Y-130101000D01*
X137085501Y-130096555D01*
X137048005Y-130085180D01*
X137013446Y-130066708D01*
X136983153Y-130041847D01*
X136958292Y-130011554D01*
X136939820Y-129976995D01*
X136928445Y-129939499D01*
X136924000Y-129894362D01*
X136924000Y-129155638D01*
X136928445Y-129110501D01*
X136939820Y-129073005D01*
X136958292Y-129038446D01*
X136983153Y-129008153D01*
X137013446Y-128983292D01*
X137048005Y-128964820D01*
X137085501Y-128953445D01*
X137130638Y-128949000D01*
X137769362Y-128949000D01*
X137814499Y-128953445D01*
X137814499Y-128953445D01*
G37*
G36*
X139348499Y-128926845D02*
G01*
X139385995Y-128938220D01*
X139420554Y-128956692D01*
X139450847Y-128981553D01*
X139475708Y-129011846D01*
X139494180Y-129046405D01*
X139505555Y-129083901D01*
X139510000Y-129129038D01*
X139510000Y-129867762D01*
X139505555Y-129912899D01*
X139494180Y-129950395D01*
X139475708Y-129984954D01*
X139450847Y-130015247D01*
X139420554Y-130040108D01*
X139385995Y-130058580D01*
X139348499Y-130069955D01*
X139303362Y-130074400D01*
X138664638Y-130074400D01*
X138619501Y-130069955D01*
X138582005Y-130058580D01*
X138547446Y-130040108D01*
X138517153Y-130015247D01*
X138492292Y-129984954D01*
X138473820Y-129950395D01*
X138462445Y-129912899D01*
X138458000Y-129867762D01*
X138458000Y-129129038D01*
X138462445Y-129083901D01*
X138473820Y-129046405D01*
X138492292Y-129011846D01*
X138517153Y-128981553D01*
X138547446Y-128956692D01*
X138582005Y-128938220D01*
X138619501Y-128926845D01*
X138664638Y-128922400D01*
X139303362Y-128922400D01*
X139348499Y-128926845D01*
X139348499Y-128926845D01*
G37*
G36*
X114838600Y-129267800D02*
G01*
X111236600Y-129267800D01*
X111236600Y-126865800D01*
X114838600Y-126865800D01*
X114838600Y-129267800D01*
X114838600Y-129267800D01*
G37*
G36*
X109438600Y-129267800D02*
G01*
X105836600Y-129267800D01*
X105836600Y-126865800D01*
X109438600Y-126865800D01*
X109438600Y-129267800D01*
X109438600Y-129267800D01*
G37*
G36*
X135401000Y-128801000D02*
G01*
X133799000Y-128801000D01*
X133799000Y-127199000D01*
X135401000Y-127199000D01*
X135401000Y-128801000D01*
X135401000Y-128801000D01*
G37*
G36*
X142629800Y-128775600D02*
G01*
X141027800Y-128775600D01*
X141027800Y-127173600D01*
X142629800Y-127173600D01*
X142629800Y-128775600D01*
X142629800Y-128775600D01*
G37*
G36*
X137814499Y-127203445D02*
G01*
X137851995Y-127214820D01*
X137886554Y-127233292D01*
X137916847Y-127258153D01*
X137941708Y-127288446D01*
X137960180Y-127323005D01*
X137971555Y-127360501D01*
X137976000Y-127405638D01*
X137976000Y-128144362D01*
X137971555Y-128189499D01*
X137960180Y-128226995D01*
X137941708Y-128261554D01*
X137916847Y-128291847D01*
X137886554Y-128316708D01*
X137851995Y-128335180D01*
X137814499Y-128346555D01*
X137769362Y-128351000D01*
X137130638Y-128351000D01*
X137085501Y-128346555D01*
X137048005Y-128335180D01*
X137013446Y-128316708D01*
X136983153Y-128291847D01*
X136958292Y-128261554D01*
X136939820Y-128226995D01*
X136928445Y-128189499D01*
X136924000Y-128144362D01*
X136924000Y-127405638D01*
X136928445Y-127360501D01*
X136939820Y-127323005D01*
X136958292Y-127288446D01*
X136983153Y-127258153D01*
X137013446Y-127233292D01*
X137048005Y-127214820D01*
X137085501Y-127203445D01*
X137130638Y-127199000D01*
X137769362Y-127199000D01*
X137814499Y-127203445D01*
X137814499Y-127203445D01*
G37*
G36*
X139348499Y-127176845D02*
G01*
X139385995Y-127188220D01*
X139420554Y-127206692D01*
X139450847Y-127231553D01*
X139475708Y-127261846D01*
X139494180Y-127296405D01*
X139505555Y-127333901D01*
X139510000Y-127379038D01*
X139510000Y-128117762D01*
X139505555Y-128162899D01*
X139494180Y-128200395D01*
X139475708Y-128234954D01*
X139450847Y-128265247D01*
X139420554Y-128290108D01*
X139385995Y-128308580D01*
X139348499Y-128319955D01*
X139303362Y-128324400D01*
X138664638Y-128324400D01*
X138619501Y-128319955D01*
X138582005Y-128308580D01*
X138547446Y-128290108D01*
X138517153Y-128265247D01*
X138492292Y-128234954D01*
X138473820Y-128200395D01*
X138462445Y-128162899D01*
X138458000Y-128117762D01*
X138458000Y-127379038D01*
X138462445Y-127333901D01*
X138473820Y-127296405D01*
X138492292Y-127261846D01*
X138517153Y-127231553D01*
X138547446Y-127206692D01*
X138582005Y-127188220D01*
X138619501Y-127176845D01*
X138664638Y-127172400D01*
X139303362Y-127172400D01*
X139348499Y-127176845D01*
X139348499Y-127176845D01*
G37*
G36*
X134890443Y-124105519D02*
G01*
X134956627Y-124112037D01*
X135126466Y-124163557D01*
X135282991Y-124247222D01*
X135283695Y-124247800D01*
X135420186Y-124359814D01*
X135503448Y-124461271D01*
X135532778Y-124497009D01*
X135616443Y-124653534D01*
X135667963Y-124823373D01*
X135685359Y-125000000D01*
X135667963Y-125176627D01*
X135616443Y-125346466D01*
X135532778Y-125502991D01*
X135503448Y-125538729D01*
X135420186Y-125640186D01*
X135318729Y-125723448D01*
X135282991Y-125752778D01*
X135126466Y-125836443D01*
X134956627Y-125887963D01*
X134890443Y-125894481D01*
X134824260Y-125901000D01*
X134735740Y-125901000D01*
X134669557Y-125894481D01*
X134603373Y-125887963D01*
X134433534Y-125836443D01*
X134277009Y-125752778D01*
X134241271Y-125723448D01*
X134139814Y-125640186D01*
X134056552Y-125538729D01*
X134027222Y-125502991D01*
X133943557Y-125346466D01*
X133892037Y-125176627D01*
X133874641Y-125000000D01*
X133892037Y-124823373D01*
X133943557Y-124653534D01*
X134027222Y-124497009D01*
X134056552Y-124461271D01*
X134139814Y-124359814D01*
X134276305Y-124247800D01*
X134277009Y-124247222D01*
X134433534Y-124163557D01*
X134603373Y-124112037D01*
X134669557Y-124105519D01*
X134735740Y-124099000D01*
X134824260Y-124099000D01*
X134890443Y-124105519D01*
X134890443Y-124105519D01*
G37*
G36*
X132350443Y-124105519D02*
G01*
X132416627Y-124112037D01*
X132586466Y-124163557D01*
X132742991Y-124247222D01*
X132743695Y-124247800D01*
X132880186Y-124359814D01*
X132963448Y-124461271D01*
X132992778Y-124497009D01*
X133076443Y-124653534D01*
X133127963Y-124823373D01*
X133145359Y-125000000D01*
X133127963Y-125176627D01*
X133076443Y-125346466D01*
X132992778Y-125502991D01*
X132963448Y-125538729D01*
X132880186Y-125640186D01*
X132778729Y-125723448D01*
X132742991Y-125752778D01*
X132586466Y-125836443D01*
X132416627Y-125887963D01*
X132350443Y-125894481D01*
X132284260Y-125901000D01*
X132195740Y-125901000D01*
X132129557Y-125894481D01*
X132063373Y-125887963D01*
X131893534Y-125836443D01*
X131737009Y-125752778D01*
X131701271Y-125723448D01*
X131599814Y-125640186D01*
X131516552Y-125538729D01*
X131487222Y-125502991D01*
X131403557Y-125346466D01*
X131352037Y-125176627D01*
X131334641Y-125000000D01*
X131352037Y-124823373D01*
X131403557Y-124653534D01*
X131487222Y-124497009D01*
X131516552Y-124461271D01*
X131599814Y-124359814D01*
X131736305Y-124247800D01*
X131737009Y-124247222D01*
X131893534Y-124163557D01*
X132063373Y-124112037D01*
X132129557Y-124105519D01*
X132195740Y-124099000D01*
X132284260Y-124099000D01*
X132350443Y-124105519D01*
X132350443Y-124105519D01*
G37*
G36*
X130601000Y-125901000D02*
G01*
X128799000Y-125901000D01*
X128799000Y-124099000D01*
X130601000Y-124099000D01*
X130601000Y-125901000D01*
X130601000Y-125901000D01*
G37*
G36*
X137430443Y-124105519D02*
G01*
X137496627Y-124112037D01*
X137666466Y-124163557D01*
X137822991Y-124247222D01*
X137823695Y-124247800D01*
X137960186Y-124359814D01*
X138043448Y-124461271D01*
X138072778Y-124497009D01*
X138156443Y-124653534D01*
X138207963Y-124823373D01*
X138225359Y-125000000D01*
X138207963Y-125176627D01*
X138156443Y-125346466D01*
X138072778Y-125502991D01*
X138043448Y-125538729D01*
X137960186Y-125640186D01*
X137858729Y-125723448D01*
X137822991Y-125752778D01*
X137666466Y-125836443D01*
X137496627Y-125887963D01*
X137430443Y-125894481D01*
X137364260Y-125901000D01*
X137275740Y-125901000D01*
X137209557Y-125894481D01*
X137143373Y-125887963D01*
X136973534Y-125836443D01*
X136817009Y-125752778D01*
X136781271Y-125723448D01*
X136679814Y-125640186D01*
X136596552Y-125538729D01*
X136567222Y-125502991D01*
X136483557Y-125346466D01*
X136432037Y-125176627D01*
X136414641Y-125000000D01*
X136432037Y-124823373D01*
X136483557Y-124653534D01*
X136567222Y-124497009D01*
X136596552Y-124461271D01*
X136679814Y-124359814D01*
X136816305Y-124247800D01*
X136817009Y-124247222D01*
X136973534Y-124163557D01*
X137143373Y-124112037D01*
X137209557Y-124105519D01*
X137275740Y-124099000D01*
X137364260Y-124099000D01*
X137430443Y-124105519D01*
X137430443Y-124105519D01*
G37*
G36*
X139970443Y-124105519D02*
G01*
X140036627Y-124112037D01*
X140206466Y-124163557D01*
X140362991Y-124247222D01*
X140363695Y-124247800D01*
X140500186Y-124359814D01*
X140583448Y-124461271D01*
X140612778Y-124497009D01*
X140696443Y-124653534D01*
X140747963Y-124823373D01*
X140765359Y-125000000D01*
X140747963Y-125176627D01*
X140696443Y-125346466D01*
X140612778Y-125502991D01*
X140583448Y-125538729D01*
X140500186Y-125640186D01*
X140398729Y-125723448D01*
X140362991Y-125752778D01*
X140206466Y-125836443D01*
X140036627Y-125887963D01*
X139970443Y-125894481D01*
X139904260Y-125901000D01*
X139815740Y-125901000D01*
X139749557Y-125894481D01*
X139683373Y-125887963D01*
X139513534Y-125836443D01*
X139357009Y-125752778D01*
X139321271Y-125723448D01*
X139219814Y-125640186D01*
X139136552Y-125538729D01*
X139107222Y-125502991D01*
X139023557Y-125346466D01*
X138972037Y-125176627D01*
X138954641Y-125000000D01*
X138972037Y-124823373D01*
X139023557Y-124653534D01*
X139107222Y-124497009D01*
X139136552Y-124461271D01*
X139219814Y-124359814D01*
X139356305Y-124247800D01*
X139357009Y-124247222D01*
X139513534Y-124163557D01*
X139683373Y-124112037D01*
X139749557Y-124105519D01*
X139815740Y-124099000D01*
X139904260Y-124099000D01*
X139970443Y-124105519D01*
X139970443Y-124105519D01*
G37*
G36*
X142510443Y-124105519D02*
G01*
X142576627Y-124112037D01*
X142746466Y-124163557D01*
X142902991Y-124247222D01*
X142903695Y-124247800D01*
X143040186Y-124359814D01*
X143123448Y-124461271D01*
X143152778Y-124497009D01*
X143236443Y-124653534D01*
X143287963Y-124823373D01*
X143305359Y-125000000D01*
X143287963Y-125176627D01*
X143236443Y-125346466D01*
X143152778Y-125502991D01*
X143123448Y-125538729D01*
X143040186Y-125640186D01*
X142938729Y-125723448D01*
X142902991Y-125752778D01*
X142746466Y-125836443D01*
X142576627Y-125887963D01*
X142510443Y-125894481D01*
X142444260Y-125901000D01*
X142355740Y-125901000D01*
X142289557Y-125894481D01*
X142223373Y-125887963D01*
X142053534Y-125836443D01*
X141897009Y-125752778D01*
X141861271Y-125723448D01*
X141759814Y-125640186D01*
X141676552Y-125538729D01*
X141647222Y-125502991D01*
X141563557Y-125346466D01*
X141512037Y-125176627D01*
X141494641Y-125000000D01*
X141512037Y-124823373D01*
X141563557Y-124653534D01*
X141647222Y-124497009D01*
X141676552Y-124461271D01*
X141759814Y-124359814D01*
X141896305Y-124247800D01*
X141897009Y-124247222D01*
X142053534Y-124163557D01*
X142223373Y-124112037D01*
X142289557Y-124105519D01*
X142355740Y-124099000D01*
X142444260Y-124099000D01*
X142510443Y-124105519D01*
X142510443Y-124105519D01*
G37*
G36*
X116012499Y-123989245D02*
G01*
X116049995Y-124000620D01*
X116084554Y-124019092D01*
X116114847Y-124043953D01*
X116139708Y-124074246D01*
X116158180Y-124108805D01*
X116169555Y-124146301D01*
X116174000Y-124191438D01*
X116174000Y-124830162D01*
X116169555Y-124875299D01*
X116158180Y-124912795D01*
X116139708Y-124947354D01*
X116114847Y-124977647D01*
X116084554Y-125002508D01*
X116049995Y-125020980D01*
X116012499Y-125032355D01*
X115967362Y-125036800D01*
X115228638Y-125036800D01*
X115183501Y-125032355D01*
X115146005Y-125020980D01*
X115111446Y-125002508D01*
X115081153Y-124977647D01*
X115056292Y-124947354D01*
X115037820Y-124912795D01*
X115026445Y-124875299D01*
X115022000Y-124830162D01*
X115022000Y-124191438D01*
X115026445Y-124146301D01*
X115037820Y-124108805D01*
X115056292Y-124074246D01*
X115081153Y-124043953D01*
X115111446Y-124019092D01*
X115146005Y-124000620D01*
X115183501Y-123989245D01*
X115228638Y-123984800D01*
X115967362Y-123984800D01*
X116012499Y-123989245D01*
X116012499Y-123989245D01*
G37*
G36*
X117762499Y-123989245D02*
G01*
X117799995Y-124000620D01*
X117834554Y-124019092D01*
X117864847Y-124043953D01*
X117889708Y-124074246D01*
X117908180Y-124108805D01*
X117919555Y-124146301D01*
X117924000Y-124191438D01*
X117924000Y-124830162D01*
X117919555Y-124875299D01*
X117908180Y-124912795D01*
X117889708Y-124947354D01*
X117864847Y-124977647D01*
X117834554Y-125002508D01*
X117799995Y-125020980D01*
X117762499Y-125032355D01*
X117717362Y-125036800D01*
X116978638Y-125036800D01*
X116933501Y-125032355D01*
X116896005Y-125020980D01*
X116861446Y-125002508D01*
X116831153Y-124977647D01*
X116806292Y-124947354D01*
X116787820Y-124912795D01*
X116776445Y-124875299D01*
X116772000Y-124830162D01*
X116772000Y-124191438D01*
X116776445Y-124146301D01*
X116787820Y-124108805D01*
X116806292Y-124074246D01*
X116831153Y-124043953D01*
X116861446Y-124019092D01*
X116896005Y-124000620D01*
X116933501Y-123989245D01*
X116978638Y-123984800D01*
X117717362Y-123984800D01*
X117762499Y-123989245D01*
X117762499Y-123989245D01*
G37*
G36*
X117737899Y-122375845D02*
G01*
X117775395Y-122387220D01*
X117809954Y-122405692D01*
X117840247Y-122430553D01*
X117865108Y-122460846D01*
X117883580Y-122495405D01*
X117894955Y-122532901D01*
X117899400Y-122578038D01*
X117899400Y-123316762D01*
X117894955Y-123361899D01*
X117883580Y-123399395D01*
X117865108Y-123433954D01*
X117840247Y-123464247D01*
X117809954Y-123489108D01*
X117775395Y-123507580D01*
X117737899Y-123518955D01*
X117692762Y-123523400D01*
X117054038Y-123523400D01*
X117008901Y-123518955D01*
X116971405Y-123507580D01*
X116936846Y-123489108D01*
X116906553Y-123464247D01*
X116881692Y-123433954D01*
X116863220Y-123399395D01*
X116851845Y-123361899D01*
X116847400Y-123316762D01*
X116847400Y-122578038D01*
X116851845Y-122532901D01*
X116863220Y-122495405D01*
X116881692Y-122460846D01*
X116906553Y-122430553D01*
X116936846Y-122405692D01*
X116971405Y-122387220D01*
X117008901Y-122375845D01*
X117054038Y-122371400D01*
X117692762Y-122371400D01*
X117737899Y-122375845D01*
X117737899Y-122375845D01*
G37*
G36*
X110092800Y-123243000D02*
G01*
X107990800Y-123243000D01*
X107990800Y-121641000D01*
X110092800Y-121641000D01*
X110092800Y-123243000D01*
X110092800Y-123243000D01*
G37*
G36*
X100863944Y-119957446D02*
G01*
X101061810Y-119996804D01*
X101344074Y-120113721D01*
X101598105Y-120283459D01*
X101814141Y-120499495D01*
X101983879Y-120753526D01*
X102057037Y-120930147D01*
X102100796Y-121035791D01*
X102160400Y-121335439D01*
X102160400Y-121640961D01*
X102140877Y-121739108D01*
X102100796Y-121940610D01*
X101983879Y-122222874D01*
X101814141Y-122476905D01*
X101598105Y-122692941D01*
X101344074Y-122862679D01*
X101061810Y-122979596D01*
X100911985Y-123009398D01*
X100762161Y-123039200D01*
X100456639Y-123039200D01*
X100306815Y-123009398D01*
X100156990Y-122979596D01*
X99874726Y-122862679D01*
X99620695Y-122692941D01*
X99404659Y-122476905D01*
X99234921Y-122222874D01*
X99118004Y-121940610D01*
X99077923Y-121739108D01*
X99058400Y-121640961D01*
X99058400Y-121335439D01*
X99118004Y-121035791D01*
X99161763Y-120930147D01*
X99234921Y-120753526D01*
X99404659Y-120499495D01*
X99620695Y-120283459D01*
X99874726Y-120113721D01*
X100156990Y-119996804D01*
X100354856Y-119957446D01*
X100456639Y-119937200D01*
X100762161Y-119937200D01*
X100863944Y-119957446D01*
X100863944Y-119957446D01*
G37*
G36*
X107349299Y-121537645D02*
G01*
X107386795Y-121549020D01*
X107421354Y-121567492D01*
X107451647Y-121592353D01*
X107476508Y-121622646D01*
X107494980Y-121657205D01*
X107506355Y-121694701D01*
X107510800Y-121739838D01*
X107510800Y-122478562D01*
X107506355Y-122523699D01*
X107494980Y-122561195D01*
X107476508Y-122595754D01*
X107451647Y-122626047D01*
X107421354Y-122650908D01*
X107386795Y-122669380D01*
X107349299Y-122680755D01*
X107304162Y-122685200D01*
X106665438Y-122685200D01*
X106620301Y-122680755D01*
X106582805Y-122669380D01*
X106548246Y-122650908D01*
X106517953Y-122626047D01*
X106493092Y-122595754D01*
X106474620Y-122561195D01*
X106463245Y-122523699D01*
X106458800Y-122478562D01*
X106458800Y-121739838D01*
X106463245Y-121694701D01*
X106474620Y-121657205D01*
X106493092Y-121622646D01*
X106517953Y-121592353D01*
X106548246Y-121567492D01*
X106582805Y-121549020D01*
X106620301Y-121537645D01*
X106665438Y-121533200D01*
X107304162Y-121533200D01*
X107349299Y-121537645D01*
X107349299Y-121537645D01*
G37*
G36*
X116392800Y-122093000D02*
G01*
X114290800Y-122093000D01*
X114290800Y-118191000D01*
X116392800Y-118191000D01*
X116392800Y-122093000D01*
X116392800Y-122093000D01*
G37*
G36*
X117737899Y-120625845D02*
G01*
X117775395Y-120637220D01*
X117809954Y-120655692D01*
X117840247Y-120680553D01*
X117865108Y-120710846D01*
X117883580Y-120745405D01*
X117894955Y-120782901D01*
X117899400Y-120828038D01*
X117899400Y-121566762D01*
X117894955Y-121611899D01*
X117883580Y-121649395D01*
X117865108Y-121683954D01*
X117840247Y-121714247D01*
X117809954Y-121739108D01*
X117775395Y-121757580D01*
X117737899Y-121768955D01*
X117692762Y-121773400D01*
X117054038Y-121773400D01*
X117008901Y-121768955D01*
X116971405Y-121757580D01*
X116936846Y-121739108D01*
X116906553Y-121714247D01*
X116881692Y-121683954D01*
X116863220Y-121649395D01*
X116851845Y-121611899D01*
X116847400Y-121566762D01*
X116847400Y-120828038D01*
X116851845Y-120782901D01*
X116863220Y-120745405D01*
X116881692Y-120710846D01*
X116906553Y-120680553D01*
X116936846Y-120655692D01*
X116971405Y-120637220D01*
X117008901Y-120625845D01*
X117054038Y-120621400D01*
X117692762Y-120621400D01*
X117737899Y-120625845D01*
X117737899Y-120625845D01*
G37*
G36*
X110092800Y-120943000D02*
G01*
X107990800Y-120943000D01*
X107990800Y-119341000D01*
X110092800Y-119341000D01*
X110092800Y-120943000D01*
X110092800Y-120943000D01*
G37*
G36*
X107349299Y-119787645D02*
G01*
X107386795Y-119799020D01*
X107421354Y-119817492D01*
X107451647Y-119842353D01*
X107476508Y-119872646D01*
X107494980Y-119907205D01*
X107506355Y-119944701D01*
X107510800Y-119989838D01*
X107510800Y-120728562D01*
X107506355Y-120773699D01*
X107494980Y-120811195D01*
X107476508Y-120845754D01*
X107451647Y-120876047D01*
X107421354Y-120900908D01*
X107386795Y-120919380D01*
X107349299Y-120930755D01*
X107304162Y-120935200D01*
X106665438Y-120935200D01*
X106620301Y-120930755D01*
X106582805Y-120919380D01*
X106548246Y-120900908D01*
X106517953Y-120876047D01*
X106493092Y-120845754D01*
X106474620Y-120811195D01*
X106463245Y-120773699D01*
X106458800Y-120728562D01*
X106458800Y-119989838D01*
X106463245Y-119944701D01*
X106474620Y-119907205D01*
X106493092Y-119872646D01*
X106517953Y-119842353D01*
X106548246Y-119817492D01*
X106582805Y-119799020D01*
X106620301Y-119787645D01*
X106665438Y-119783200D01*
X107304162Y-119783200D01*
X107349299Y-119787645D01*
X107349299Y-119787645D01*
G37*
G36*
X117737899Y-118997645D02*
G01*
X117775395Y-119009020D01*
X117809954Y-119027492D01*
X117840247Y-119052353D01*
X117865108Y-119082646D01*
X117883580Y-119117205D01*
X117894955Y-119154701D01*
X117899400Y-119199838D01*
X117899400Y-119938562D01*
X117894955Y-119983699D01*
X117883580Y-120021195D01*
X117865108Y-120055754D01*
X117840247Y-120086047D01*
X117809954Y-120110908D01*
X117775395Y-120129380D01*
X117737899Y-120140755D01*
X117692762Y-120145200D01*
X117054038Y-120145200D01*
X117008901Y-120140755D01*
X116971405Y-120129380D01*
X116936846Y-120110908D01*
X116906553Y-120086047D01*
X116881692Y-120055754D01*
X116863220Y-120021195D01*
X116851845Y-119983699D01*
X116847400Y-119938562D01*
X116847400Y-119199838D01*
X116851845Y-119154701D01*
X116863220Y-119117205D01*
X116881692Y-119082646D01*
X116906553Y-119052353D01*
X116936846Y-119027492D01*
X116971405Y-119009020D01*
X117008901Y-118997645D01*
X117054038Y-118993200D01*
X117692762Y-118993200D01*
X117737899Y-118997645D01*
X117737899Y-118997645D01*
G37*
G36*
X119414299Y-118972245D02*
G01*
X119451795Y-118983620D01*
X119486354Y-119002092D01*
X119516647Y-119026953D01*
X119541508Y-119057246D01*
X119559980Y-119091805D01*
X119571355Y-119129301D01*
X119575800Y-119174438D01*
X119575800Y-119913162D01*
X119571355Y-119958299D01*
X119559980Y-119995795D01*
X119541508Y-120030354D01*
X119516647Y-120060647D01*
X119486354Y-120085508D01*
X119451795Y-120103980D01*
X119414299Y-120115355D01*
X119369162Y-120119800D01*
X118730438Y-120119800D01*
X118685301Y-120115355D01*
X118647805Y-120103980D01*
X118613246Y-120085508D01*
X118582953Y-120060647D01*
X118558092Y-120030354D01*
X118539620Y-119995795D01*
X118528245Y-119958299D01*
X118523800Y-119913162D01*
X118523800Y-119174438D01*
X118528245Y-119129301D01*
X118539620Y-119091805D01*
X118558092Y-119057246D01*
X118582953Y-119026953D01*
X118613246Y-119002092D01*
X118647805Y-118983620D01*
X118685301Y-118972245D01*
X118730438Y-118967800D01*
X119369162Y-118967800D01*
X119414299Y-118972245D01*
X119414299Y-118972245D01*
G37*
G36*
X107359899Y-118248845D02*
G01*
X107397395Y-118260220D01*
X107431954Y-118278692D01*
X107462247Y-118303553D01*
X107487108Y-118333846D01*
X107505580Y-118368405D01*
X107516955Y-118405901D01*
X107521400Y-118451038D01*
X107521400Y-119089762D01*
X107516955Y-119134899D01*
X107505580Y-119172395D01*
X107487108Y-119206954D01*
X107462247Y-119237247D01*
X107431954Y-119262108D01*
X107397395Y-119280580D01*
X107359899Y-119291955D01*
X107314762Y-119296400D01*
X106576038Y-119296400D01*
X106530901Y-119291955D01*
X106493405Y-119280580D01*
X106458846Y-119262108D01*
X106428553Y-119237247D01*
X106403692Y-119206954D01*
X106385220Y-119172395D01*
X106373845Y-119134899D01*
X106369400Y-119089762D01*
X106369400Y-118451038D01*
X106373845Y-118405901D01*
X106385220Y-118368405D01*
X106403692Y-118333846D01*
X106428553Y-118303553D01*
X106458846Y-118278692D01*
X106493405Y-118260220D01*
X106530901Y-118248845D01*
X106576038Y-118244400D01*
X107314762Y-118244400D01*
X107359899Y-118248845D01*
X107359899Y-118248845D01*
G37*
G36*
X105609899Y-118248845D02*
G01*
X105647395Y-118260220D01*
X105681954Y-118278692D01*
X105712247Y-118303553D01*
X105737108Y-118333846D01*
X105755580Y-118368405D01*
X105766955Y-118405901D01*
X105771400Y-118451038D01*
X105771400Y-119089762D01*
X105766955Y-119134899D01*
X105755580Y-119172395D01*
X105737108Y-119206954D01*
X105712247Y-119237247D01*
X105681954Y-119262108D01*
X105647395Y-119280580D01*
X105609899Y-119291955D01*
X105564762Y-119296400D01*
X104826038Y-119296400D01*
X104780901Y-119291955D01*
X104743405Y-119280580D01*
X104708846Y-119262108D01*
X104678553Y-119237247D01*
X104653692Y-119206954D01*
X104635220Y-119172395D01*
X104623845Y-119134899D01*
X104619400Y-119089762D01*
X104619400Y-118451038D01*
X104623845Y-118405901D01*
X104635220Y-118368405D01*
X104653692Y-118333846D01*
X104678553Y-118303553D01*
X104708846Y-118278692D01*
X104743405Y-118260220D01*
X104780901Y-118248845D01*
X104826038Y-118244400D01*
X105564762Y-118244400D01*
X105609899Y-118248845D01*
X105609899Y-118248845D01*
G37*
G36*
X129752099Y-118007045D02*
G01*
X129789595Y-118018420D01*
X129824154Y-118036892D01*
X129854447Y-118061753D01*
X129879308Y-118092046D01*
X129897780Y-118126605D01*
X129909155Y-118164101D01*
X129913600Y-118209238D01*
X129913600Y-118947962D01*
X129909155Y-118993099D01*
X129897780Y-119030595D01*
X129879308Y-119065154D01*
X129854447Y-119095447D01*
X129824154Y-119120308D01*
X129789595Y-119138780D01*
X129752099Y-119150155D01*
X129706962Y-119154600D01*
X129068238Y-119154600D01*
X129023101Y-119150155D01*
X128985605Y-119138780D01*
X128951046Y-119120308D01*
X128920753Y-119095447D01*
X128895892Y-119065154D01*
X128877420Y-119030595D01*
X128866045Y-118993099D01*
X128861600Y-118947962D01*
X128861600Y-118209238D01*
X128866045Y-118164101D01*
X128877420Y-118126605D01*
X128895892Y-118092046D01*
X128920753Y-118061753D01*
X128951046Y-118036892D01*
X128985605Y-118018420D01*
X129023101Y-118007045D01*
X129068238Y-118002600D01*
X129706962Y-118002600D01*
X129752099Y-118007045D01*
X129752099Y-118007045D01*
G37*
G36*
X131276099Y-118007045D02*
G01*
X131313595Y-118018420D01*
X131348154Y-118036892D01*
X131378447Y-118061753D01*
X131403308Y-118092046D01*
X131421780Y-118126605D01*
X131433155Y-118164101D01*
X131437600Y-118209238D01*
X131437600Y-118947962D01*
X131433155Y-118993099D01*
X131421780Y-119030595D01*
X131403308Y-119065154D01*
X131378447Y-119095447D01*
X131348154Y-119120308D01*
X131313595Y-119138780D01*
X131276099Y-119150155D01*
X131230962Y-119154600D01*
X130592238Y-119154600D01*
X130547101Y-119150155D01*
X130509605Y-119138780D01*
X130475046Y-119120308D01*
X130444753Y-119095447D01*
X130419892Y-119065154D01*
X130401420Y-119030595D01*
X130390045Y-118993099D01*
X130385600Y-118947962D01*
X130385600Y-118209238D01*
X130390045Y-118164101D01*
X130401420Y-118126605D01*
X130419892Y-118092046D01*
X130444753Y-118061753D01*
X130475046Y-118036892D01*
X130509605Y-118018420D01*
X130547101Y-118007045D01*
X130592238Y-118002600D01*
X131230962Y-118002600D01*
X131276099Y-118007045D01*
X131276099Y-118007045D01*
G37*
G36*
X132799298Y-118002046D02*
G01*
X132836794Y-118013421D01*
X132871353Y-118031893D01*
X132901646Y-118056754D01*
X132926507Y-118087047D01*
X132944979Y-118121606D01*
X132956354Y-118159102D01*
X132960799Y-118204239D01*
X132960799Y-118942963D01*
X132956354Y-118988100D01*
X132944979Y-119025596D01*
X132926507Y-119060155D01*
X132901646Y-119090448D01*
X132871353Y-119115309D01*
X132836794Y-119133781D01*
X132799298Y-119145156D01*
X132754161Y-119149601D01*
X132115437Y-119149601D01*
X132070300Y-119145156D01*
X132032804Y-119133781D01*
X131998245Y-119115309D01*
X131967952Y-119090448D01*
X131943091Y-119060155D01*
X131924619Y-119025596D01*
X131913244Y-118988100D01*
X131908799Y-118942963D01*
X131908799Y-118204239D01*
X131913244Y-118159102D01*
X131924619Y-118121606D01*
X131943091Y-118087047D01*
X131967952Y-118056754D01*
X131998245Y-118031893D01*
X132032804Y-118013421D01*
X132070300Y-118002046D01*
X132115437Y-117997601D01*
X132754161Y-117997601D01*
X132799298Y-118002046D01*
X132799298Y-118002046D01*
G37*
G36*
X102622374Y-116882754D02*
G01*
X102716627Y-116892037D01*
X102886466Y-116943557D01*
X103042991Y-117027222D01*
X103059779Y-117041000D01*
X103180186Y-117139814D01*
X103247834Y-117222245D01*
X103292778Y-117277009D01*
X103376443Y-117433534D01*
X103427963Y-117603373D01*
X103445359Y-117780000D01*
X103427963Y-117956627D01*
X103376443Y-118126466D01*
X103292778Y-118282991D01*
X103284753Y-118292769D01*
X103180186Y-118420186D01*
X103078729Y-118503448D01*
X103042991Y-118532778D01*
X102886466Y-118616443D01*
X102716627Y-118667963D01*
X102650442Y-118674482D01*
X102584260Y-118681000D01*
X102495740Y-118681000D01*
X102429558Y-118674482D01*
X102363373Y-118667963D01*
X102193534Y-118616443D01*
X102037009Y-118532778D01*
X102001271Y-118503448D01*
X101899814Y-118420186D01*
X101795247Y-118292769D01*
X101787222Y-118282991D01*
X101703557Y-118126466D01*
X101652037Y-117956627D01*
X101634641Y-117780000D01*
X101652037Y-117603373D01*
X101703557Y-117433534D01*
X101787222Y-117277009D01*
X101832166Y-117222245D01*
X101899814Y-117139814D01*
X102020221Y-117041000D01*
X102037009Y-117027222D01*
X102193534Y-116943557D01*
X102363373Y-116892037D01*
X102457626Y-116882754D01*
X102495740Y-116879000D01*
X102584260Y-116879000D01*
X102622374Y-116882754D01*
X102622374Y-116882754D01*
G37*
G36*
X97542374Y-116882754D02*
G01*
X97636627Y-116892037D01*
X97806466Y-116943557D01*
X97962991Y-117027222D01*
X97979779Y-117041000D01*
X98100186Y-117139814D01*
X98167834Y-117222245D01*
X98212778Y-117277009D01*
X98296443Y-117433534D01*
X98347963Y-117603373D01*
X98365359Y-117780000D01*
X98347963Y-117956627D01*
X98296443Y-118126466D01*
X98212778Y-118282991D01*
X98204753Y-118292769D01*
X98100186Y-118420186D01*
X97998729Y-118503448D01*
X97962991Y-118532778D01*
X97806466Y-118616443D01*
X97636627Y-118667963D01*
X97570442Y-118674482D01*
X97504260Y-118681000D01*
X97415740Y-118681000D01*
X97349558Y-118674482D01*
X97283373Y-118667963D01*
X97113534Y-118616443D01*
X96957009Y-118532778D01*
X96921271Y-118503448D01*
X96819814Y-118420186D01*
X96715247Y-118292769D01*
X96707222Y-118282991D01*
X96623557Y-118126466D01*
X96572037Y-117956627D01*
X96554641Y-117780000D01*
X96572037Y-117603373D01*
X96623557Y-117433534D01*
X96707222Y-117277009D01*
X96752166Y-117222245D01*
X96819814Y-117139814D01*
X96940221Y-117041000D01*
X96957009Y-117027222D01*
X97113534Y-116943557D01*
X97283373Y-116892037D01*
X97377626Y-116882754D01*
X97415740Y-116879000D01*
X97504260Y-116879000D01*
X97542374Y-116882754D01*
X97542374Y-116882754D01*
G37*
G36*
X100082374Y-116882754D02*
G01*
X100176627Y-116892037D01*
X100346466Y-116943557D01*
X100502991Y-117027222D01*
X100519779Y-117041000D01*
X100640186Y-117139814D01*
X100707834Y-117222245D01*
X100752778Y-117277009D01*
X100836443Y-117433534D01*
X100887963Y-117603373D01*
X100905359Y-117780000D01*
X100887963Y-117956627D01*
X100836443Y-118126466D01*
X100752778Y-118282991D01*
X100744753Y-118292769D01*
X100640186Y-118420186D01*
X100538729Y-118503448D01*
X100502991Y-118532778D01*
X100346466Y-118616443D01*
X100176627Y-118667963D01*
X100110442Y-118674482D01*
X100044260Y-118681000D01*
X99955740Y-118681000D01*
X99889558Y-118674482D01*
X99823373Y-118667963D01*
X99653534Y-118616443D01*
X99497009Y-118532778D01*
X99461271Y-118503448D01*
X99359814Y-118420186D01*
X99255247Y-118292769D01*
X99247222Y-118282991D01*
X99163557Y-118126466D01*
X99112037Y-117956627D01*
X99094641Y-117780000D01*
X99112037Y-117603373D01*
X99163557Y-117433534D01*
X99247222Y-117277009D01*
X99292166Y-117222245D01*
X99359814Y-117139814D01*
X99480221Y-117041000D01*
X99497009Y-117027222D01*
X99653534Y-116943557D01*
X99823373Y-116892037D01*
X99917626Y-116882754D01*
X99955740Y-116879000D01*
X100044260Y-116879000D01*
X100082374Y-116882754D01*
X100082374Y-116882754D01*
G37*
G36*
X110092800Y-118643000D02*
G01*
X107990800Y-118643000D01*
X107990800Y-117041000D01*
X110092800Y-117041000D01*
X110092800Y-118643000D01*
X110092800Y-118643000D01*
G37*
G36*
X117737899Y-117247645D02*
G01*
X117775395Y-117259020D01*
X117809954Y-117277492D01*
X117840247Y-117302353D01*
X117865108Y-117332646D01*
X117883580Y-117367205D01*
X117894955Y-117404701D01*
X117899400Y-117449838D01*
X117899400Y-118188562D01*
X117894955Y-118233699D01*
X117883580Y-118271195D01*
X117865108Y-118305754D01*
X117840247Y-118336047D01*
X117809954Y-118360908D01*
X117775395Y-118379380D01*
X117737899Y-118390755D01*
X117692762Y-118395200D01*
X117054038Y-118395200D01*
X117008901Y-118390755D01*
X116971405Y-118379380D01*
X116936846Y-118360908D01*
X116906553Y-118336047D01*
X116881692Y-118305754D01*
X116863220Y-118271195D01*
X116851845Y-118233699D01*
X116847400Y-118188562D01*
X116847400Y-117449838D01*
X116851845Y-117404701D01*
X116863220Y-117367205D01*
X116881692Y-117332646D01*
X116906553Y-117302353D01*
X116936846Y-117277492D01*
X116971405Y-117259020D01*
X117008901Y-117247645D01*
X117054038Y-117243200D01*
X117692762Y-117243200D01*
X117737899Y-117247645D01*
X117737899Y-117247645D01*
G37*
G36*
X119414299Y-117222245D02*
G01*
X119451795Y-117233620D01*
X119486354Y-117252092D01*
X119516647Y-117276953D01*
X119541508Y-117307246D01*
X119559980Y-117341805D01*
X119571355Y-117379301D01*
X119575800Y-117424438D01*
X119575800Y-118163162D01*
X119571355Y-118208299D01*
X119559980Y-118245795D01*
X119541508Y-118280354D01*
X119516647Y-118310647D01*
X119486354Y-118335508D01*
X119451795Y-118353980D01*
X119414299Y-118365355D01*
X119369162Y-118369800D01*
X118730438Y-118369800D01*
X118685301Y-118365355D01*
X118647805Y-118353980D01*
X118613246Y-118335508D01*
X118582953Y-118310647D01*
X118558092Y-118280354D01*
X118539620Y-118245795D01*
X118528245Y-118208299D01*
X118523800Y-118163162D01*
X118523800Y-117424438D01*
X118528245Y-117379301D01*
X118539620Y-117341805D01*
X118558092Y-117307246D01*
X118582953Y-117276953D01*
X118613246Y-117252092D01*
X118647805Y-117233620D01*
X118685301Y-117222245D01*
X118730438Y-117217800D01*
X119369162Y-117217800D01*
X119414299Y-117222245D01*
X119414299Y-117222245D01*
G37*
G36*
X105609899Y-116724845D02*
G01*
X105647395Y-116736220D01*
X105681954Y-116754692D01*
X105712247Y-116779553D01*
X105737108Y-116809846D01*
X105755580Y-116844405D01*
X105766955Y-116881901D01*
X105771400Y-116927038D01*
X105771400Y-117565762D01*
X105766955Y-117610899D01*
X105755580Y-117648395D01*
X105737108Y-117682954D01*
X105712247Y-117713247D01*
X105681954Y-117738108D01*
X105647395Y-117756580D01*
X105609899Y-117767955D01*
X105564762Y-117772400D01*
X104826038Y-117772400D01*
X104780901Y-117767955D01*
X104743405Y-117756580D01*
X104708846Y-117738108D01*
X104678553Y-117713247D01*
X104653692Y-117682954D01*
X104635220Y-117648395D01*
X104623845Y-117610899D01*
X104619400Y-117565762D01*
X104619400Y-116927038D01*
X104623845Y-116881901D01*
X104635220Y-116844405D01*
X104653692Y-116809846D01*
X104678553Y-116779553D01*
X104708846Y-116754692D01*
X104743405Y-116736220D01*
X104780901Y-116724845D01*
X104826038Y-116720400D01*
X105564762Y-116720400D01*
X105609899Y-116724845D01*
X105609899Y-116724845D01*
G37*
G36*
X107359899Y-116724845D02*
G01*
X107397395Y-116736220D01*
X107431954Y-116754692D01*
X107462247Y-116779553D01*
X107487108Y-116809846D01*
X107505580Y-116844405D01*
X107516955Y-116881901D01*
X107521400Y-116927038D01*
X107521400Y-117565762D01*
X107516955Y-117610899D01*
X107505580Y-117648395D01*
X107487108Y-117682954D01*
X107462247Y-117713247D01*
X107431954Y-117738108D01*
X107397395Y-117756580D01*
X107359899Y-117767955D01*
X107314762Y-117772400D01*
X106576038Y-117772400D01*
X106530901Y-117767955D01*
X106493405Y-117756580D01*
X106458846Y-117738108D01*
X106428553Y-117713247D01*
X106403692Y-117682954D01*
X106385220Y-117648395D01*
X106373845Y-117610899D01*
X106369400Y-117565762D01*
X106369400Y-116927038D01*
X106373845Y-116881901D01*
X106385220Y-116844405D01*
X106403692Y-116809846D01*
X106428553Y-116779553D01*
X106458846Y-116754692D01*
X106493405Y-116736220D01*
X106530901Y-116724845D01*
X106576038Y-116720400D01*
X107314762Y-116720400D01*
X107359899Y-116724845D01*
X107359899Y-116724845D01*
G37*
G36*
X131276099Y-116257045D02*
G01*
X131313595Y-116268420D01*
X131348154Y-116286892D01*
X131378447Y-116311753D01*
X131403308Y-116342046D01*
X131421780Y-116376605D01*
X131433155Y-116414101D01*
X131437600Y-116459238D01*
X131437600Y-117197962D01*
X131433155Y-117243099D01*
X131421780Y-117280595D01*
X131403308Y-117315154D01*
X131378447Y-117345447D01*
X131348154Y-117370308D01*
X131313595Y-117388780D01*
X131276099Y-117400155D01*
X131230962Y-117404600D01*
X130592238Y-117404600D01*
X130547101Y-117400155D01*
X130509605Y-117388780D01*
X130475046Y-117370308D01*
X130444753Y-117345447D01*
X130419892Y-117315154D01*
X130401420Y-117280595D01*
X130390045Y-117243099D01*
X130385600Y-117197962D01*
X130385600Y-116459238D01*
X130390045Y-116414101D01*
X130401420Y-116376605D01*
X130419892Y-116342046D01*
X130444753Y-116311753D01*
X130475046Y-116286892D01*
X130509605Y-116268420D01*
X130547101Y-116257045D01*
X130592238Y-116252600D01*
X131230962Y-116252600D01*
X131276099Y-116257045D01*
X131276099Y-116257045D01*
G37*
G36*
X129752099Y-116257045D02*
G01*
X129789595Y-116268420D01*
X129824154Y-116286892D01*
X129854447Y-116311753D01*
X129879308Y-116342046D01*
X129897780Y-116376605D01*
X129909155Y-116414101D01*
X129913600Y-116459238D01*
X129913600Y-117197962D01*
X129909155Y-117243099D01*
X129897780Y-117280595D01*
X129879308Y-117315154D01*
X129854447Y-117345447D01*
X129824154Y-117370308D01*
X129789595Y-117388780D01*
X129752099Y-117400155D01*
X129706962Y-117404600D01*
X129068238Y-117404600D01*
X129023101Y-117400155D01*
X128985605Y-117388780D01*
X128951046Y-117370308D01*
X128920753Y-117345447D01*
X128895892Y-117315154D01*
X128877420Y-117280595D01*
X128866045Y-117243099D01*
X128861600Y-117197962D01*
X128861600Y-116459238D01*
X128866045Y-116414101D01*
X128877420Y-116376605D01*
X128895892Y-116342046D01*
X128920753Y-116311753D01*
X128951046Y-116286892D01*
X128985605Y-116268420D01*
X129023101Y-116257045D01*
X129068238Y-116252600D01*
X129706962Y-116252600D01*
X129752099Y-116257045D01*
X129752099Y-116257045D01*
G37*
G36*
X132799298Y-116252046D02*
G01*
X132836794Y-116263421D01*
X132871353Y-116281893D01*
X132901646Y-116306754D01*
X132926507Y-116337047D01*
X132944979Y-116371606D01*
X132956354Y-116409102D01*
X132960799Y-116454239D01*
X132960799Y-117192963D01*
X132956354Y-117238100D01*
X132944979Y-117275596D01*
X132926507Y-117310155D01*
X132901646Y-117340448D01*
X132871353Y-117365309D01*
X132836794Y-117383781D01*
X132799298Y-117395156D01*
X132754161Y-117399601D01*
X132115437Y-117399601D01*
X132070300Y-117395156D01*
X132032804Y-117383781D01*
X131998245Y-117365309D01*
X131967952Y-117340448D01*
X131943091Y-117310155D01*
X131924619Y-117275596D01*
X131913244Y-117238100D01*
X131908799Y-117192963D01*
X131908799Y-116454239D01*
X131913244Y-116409102D01*
X131924619Y-116371606D01*
X131943091Y-116337047D01*
X131967952Y-116306754D01*
X131998245Y-116281893D01*
X132032804Y-116263421D01*
X132070300Y-116252046D01*
X132115437Y-116247601D01*
X132754161Y-116247601D01*
X132799298Y-116252046D01*
X132799298Y-116252046D01*
G37*
G36*
X102650443Y-114345519D02*
G01*
X102716627Y-114352037D01*
X102886466Y-114403557D01*
X103042991Y-114487222D01*
X103078729Y-114516552D01*
X103180186Y-114599814D01*
X103261924Y-114699413D01*
X103292778Y-114737009D01*
X103376443Y-114893534D01*
X103427963Y-115063373D01*
X103445359Y-115240000D01*
X103427963Y-115416627D01*
X103376443Y-115586466D01*
X103292778Y-115742991D01*
X103263448Y-115778729D01*
X103180186Y-115880186D01*
X103078729Y-115963448D01*
X103042991Y-115992778D01*
X102886466Y-116076443D01*
X102716627Y-116127963D01*
X102650442Y-116134482D01*
X102584260Y-116141000D01*
X102495740Y-116141000D01*
X102429558Y-116134482D01*
X102363373Y-116127963D01*
X102193534Y-116076443D01*
X102037009Y-115992778D01*
X102001271Y-115963448D01*
X101899814Y-115880186D01*
X101816552Y-115778729D01*
X101787222Y-115742991D01*
X101703557Y-115586466D01*
X101652037Y-115416627D01*
X101634641Y-115240000D01*
X101652037Y-115063373D01*
X101703557Y-114893534D01*
X101787222Y-114737009D01*
X101818076Y-114699413D01*
X101899814Y-114599814D01*
X102001271Y-114516552D01*
X102037009Y-114487222D01*
X102193534Y-114403557D01*
X102363373Y-114352037D01*
X102429557Y-114345519D01*
X102495740Y-114339000D01*
X102584260Y-114339000D01*
X102650443Y-114345519D01*
X102650443Y-114345519D01*
G37*
G36*
X97570443Y-114345519D02*
G01*
X97636627Y-114352037D01*
X97806466Y-114403557D01*
X97962991Y-114487222D01*
X97998729Y-114516552D01*
X98100186Y-114599814D01*
X98181924Y-114699413D01*
X98212778Y-114737009D01*
X98296443Y-114893534D01*
X98347963Y-115063373D01*
X98365359Y-115240000D01*
X98347963Y-115416627D01*
X98296443Y-115586466D01*
X98212778Y-115742991D01*
X98183448Y-115778729D01*
X98100186Y-115880186D01*
X97998729Y-115963448D01*
X97962991Y-115992778D01*
X97806466Y-116076443D01*
X97636627Y-116127963D01*
X97570442Y-116134482D01*
X97504260Y-116141000D01*
X97415740Y-116141000D01*
X97349558Y-116134482D01*
X97283373Y-116127963D01*
X97113534Y-116076443D01*
X96957009Y-115992778D01*
X96921271Y-115963448D01*
X96819814Y-115880186D01*
X96736552Y-115778729D01*
X96707222Y-115742991D01*
X96623557Y-115586466D01*
X96572037Y-115416627D01*
X96554641Y-115240000D01*
X96572037Y-115063373D01*
X96623557Y-114893534D01*
X96707222Y-114737009D01*
X96738076Y-114699413D01*
X96819814Y-114599814D01*
X96921271Y-114516552D01*
X96957009Y-114487222D01*
X97113534Y-114403557D01*
X97283373Y-114352037D01*
X97349557Y-114345519D01*
X97415740Y-114339000D01*
X97504260Y-114339000D01*
X97570443Y-114345519D01*
X97570443Y-114345519D01*
G37*
G36*
X100110443Y-114345519D02*
G01*
X100176627Y-114352037D01*
X100346466Y-114403557D01*
X100502991Y-114487222D01*
X100538729Y-114516552D01*
X100640186Y-114599814D01*
X100721924Y-114699413D01*
X100752778Y-114737009D01*
X100836443Y-114893534D01*
X100887963Y-115063373D01*
X100905359Y-115240000D01*
X100887963Y-115416627D01*
X100836443Y-115586466D01*
X100752778Y-115742991D01*
X100723448Y-115778729D01*
X100640186Y-115880186D01*
X100538729Y-115963448D01*
X100502991Y-115992778D01*
X100346466Y-116076443D01*
X100176627Y-116127963D01*
X100110442Y-116134482D01*
X100044260Y-116141000D01*
X99955740Y-116141000D01*
X99889558Y-116134482D01*
X99823373Y-116127963D01*
X99653534Y-116076443D01*
X99497009Y-115992778D01*
X99461271Y-115963448D01*
X99359814Y-115880186D01*
X99276552Y-115778729D01*
X99247222Y-115742991D01*
X99163557Y-115586466D01*
X99112037Y-115416627D01*
X99094641Y-115240000D01*
X99112037Y-115063373D01*
X99163557Y-114893534D01*
X99247222Y-114737009D01*
X99278076Y-114699413D01*
X99359814Y-114599814D01*
X99461271Y-114516552D01*
X99497009Y-114487222D01*
X99653534Y-114403557D01*
X99823373Y-114352037D01*
X99889557Y-114345519D01*
X99955740Y-114339000D01*
X100044260Y-114339000D01*
X100110443Y-114345519D01*
X100110443Y-114345519D01*
G37*
G36*
X106160000Y-115819400D02*
G01*
X104558000Y-115819400D01*
X104558000Y-115117400D01*
X106160000Y-115117400D01*
X106160000Y-115819400D01*
X106160000Y-115819400D01*
G37*
G36*
X115660000Y-115819400D02*
G01*
X114058000Y-115819400D01*
X114058000Y-115117400D01*
X115660000Y-115117400D01*
X115660000Y-115819400D01*
X115660000Y-115819400D01*
G37*
G36*
X128797400Y-108621801D02*
G01*
X128799802Y-108646187D01*
X128806915Y-108669636D01*
X128818466Y-108691247D01*
X128834011Y-108710189D01*
X128852953Y-108725734D01*
X128874564Y-108737285D01*
X128898013Y-108744398D01*
X128922399Y-108746800D01*
X129922400Y-108746800D01*
X129922400Y-114598800D01*
X128922399Y-114598800D01*
X128898013Y-114601202D01*
X128874564Y-114608315D01*
X128852953Y-114619866D01*
X128834011Y-114635411D01*
X128818466Y-114654353D01*
X128806915Y-114675964D01*
X128799802Y-114699413D01*
X128797400Y-114723799D01*
X128797400Y-115723800D01*
X122945400Y-115723800D01*
X122945400Y-114723799D01*
X122942998Y-114699413D01*
X122935885Y-114675964D01*
X122924334Y-114654353D01*
X122908789Y-114635411D01*
X122889847Y-114619866D01*
X122868236Y-114608315D01*
X122844787Y-114601202D01*
X122820401Y-114598800D01*
X121820400Y-114598800D01*
X121820400Y-108848799D01*
X122922400Y-108848799D01*
X122922400Y-114496801D01*
X122924802Y-114521187D01*
X122931915Y-114544636D01*
X122943466Y-114566247D01*
X122959011Y-114585189D01*
X122977953Y-114600734D01*
X122999564Y-114612285D01*
X123023013Y-114619398D01*
X123047399Y-114621800D01*
X128695401Y-114621800D01*
X128719787Y-114619398D01*
X128743236Y-114612285D01*
X128764847Y-114600734D01*
X128783789Y-114585189D01*
X128799334Y-114566247D01*
X128810885Y-114544636D01*
X128817998Y-114521187D01*
X128820400Y-114496801D01*
X128820400Y-108848799D01*
X128817998Y-108824413D01*
X128810885Y-108800964D01*
X128799334Y-108779353D01*
X128783789Y-108760411D01*
X128764847Y-108744866D01*
X128743236Y-108733315D01*
X128719787Y-108726202D01*
X128695401Y-108723800D01*
X123047399Y-108723800D01*
X123023013Y-108726202D01*
X122999564Y-108733315D01*
X122977953Y-108744866D01*
X122959011Y-108760411D01*
X122943466Y-108779353D01*
X122931915Y-108800964D01*
X122924802Y-108824413D01*
X122922400Y-108848799D01*
X121820400Y-108848799D01*
X121820400Y-108746800D01*
X122820401Y-108746800D01*
X122844787Y-108744398D01*
X122868236Y-108737285D01*
X122889847Y-108725734D01*
X122908789Y-108710189D01*
X122924334Y-108691247D01*
X122935885Y-108669636D01*
X122942998Y-108646187D01*
X122945400Y-108621801D01*
X122945400Y-107621800D01*
X128797400Y-107621800D01*
X128797400Y-108621801D01*
X128797400Y-108621801D01*
G37*
G36*
X128313100Y-114114500D02*
G01*
X123429700Y-114114500D01*
X123429700Y-109231100D01*
X128313100Y-109231100D01*
X128313100Y-114114500D01*
X128313100Y-114114500D01*
G37*
G36*
X115660000Y-114549400D02*
G01*
X114058000Y-114549400D01*
X114058000Y-113847400D01*
X115660000Y-113847400D01*
X115660000Y-114549400D01*
X115660000Y-114549400D01*
G37*
G36*
X106160000Y-114549400D02*
G01*
X104558000Y-114549400D01*
X104558000Y-113847400D01*
X106160000Y-113847400D01*
X106160000Y-114549400D01*
X106160000Y-114549400D01*
G37*
G36*
X102650442Y-111805518D02*
G01*
X102716627Y-111812037D01*
X102886466Y-111863557D01*
X103042991Y-111947222D01*
X103078729Y-111976552D01*
X103180186Y-112059814D01*
X103263448Y-112161271D01*
X103292778Y-112197009D01*
X103376443Y-112353534D01*
X103427963Y-112523373D01*
X103445359Y-112700000D01*
X103427963Y-112876627D01*
X103376443Y-113046466D01*
X103292778Y-113202991D01*
X103263448Y-113238729D01*
X103180186Y-113340186D01*
X103078729Y-113423448D01*
X103042991Y-113452778D01*
X102886466Y-113536443D01*
X102716627Y-113587963D01*
X102650443Y-113594481D01*
X102584260Y-113601000D01*
X102495740Y-113601000D01*
X102429557Y-113594481D01*
X102363373Y-113587963D01*
X102193534Y-113536443D01*
X102037009Y-113452778D01*
X102001271Y-113423448D01*
X101899814Y-113340186D01*
X101816552Y-113238729D01*
X101787222Y-113202991D01*
X101703557Y-113046466D01*
X101652037Y-112876627D01*
X101634641Y-112700000D01*
X101652037Y-112523373D01*
X101703557Y-112353534D01*
X101787222Y-112197009D01*
X101816552Y-112161271D01*
X101899814Y-112059814D01*
X102001271Y-111976552D01*
X102037009Y-111947222D01*
X102193534Y-111863557D01*
X102363373Y-111812037D01*
X102429558Y-111805518D01*
X102495740Y-111799000D01*
X102584260Y-111799000D01*
X102650442Y-111805518D01*
X102650442Y-111805518D01*
G37*
G36*
X97570442Y-111805518D02*
G01*
X97636627Y-111812037D01*
X97806466Y-111863557D01*
X97962991Y-111947222D01*
X97998729Y-111976552D01*
X98100186Y-112059814D01*
X98183448Y-112161271D01*
X98212778Y-112197009D01*
X98296443Y-112353534D01*
X98347963Y-112523373D01*
X98365359Y-112700000D01*
X98347963Y-112876627D01*
X98296443Y-113046466D01*
X98212778Y-113202991D01*
X98183448Y-113238729D01*
X98100186Y-113340186D01*
X97998729Y-113423448D01*
X97962991Y-113452778D01*
X97806466Y-113536443D01*
X97636627Y-113587963D01*
X97570443Y-113594481D01*
X97504260Y-113601000D01*
X97415740Y-113601000D01*
X97349557Y-113594481D01*
X97283373Y-113587963D01*
X97113534Y-113536443D01*
X96957009Y-113452778D01*
X96921271Y-113423448D01*
X96819814Y-113340186D01*
X96736552Y-113238729D01*
X96707222Y-113202991D01*
X96623557Y-113046466D01*
X96572037Y-112876627D01*
X96554641Y-112700000D01*
X96572037Y-112523373D01*
X96623557Y-112353534D01*
X96707222Y-112197009D01*
X96736552Y-112161271D01*
X96819814Y-112059814D01*
X96921271Y-111976552D01*
X96957009Y-111947222D01*
X97113534Y-111863557D01*
X97283373Y-111812037D01*
X97349558Y-111805518D01*
X97415740Y-111799000D01*
X97504260Y-111799000D01*
X97570442Y-111805518D01*
X97570442Y-111805518D01*
G37*
G36*
X100110442Y-111805518D02*
G01*
X100176627Y-111812037D01*
X100346466Y-111863557D01*
X100502991Y-111947222D01*
X100538729Y-111976552D01*
X100640186Y-112059814D01*
X100723448Y-112161271D01*
X100752778Y-112197009D01*
X100836443Y-112353534D01*
X100887963Y-112523373D01*
X100905359Y-112700000D01*
X100887963Y-112876627D01*
X100836443Y-113046466D01*
X100752778Y-113202991D01*
X100723448Y-113238729D01*
X100640186Y-113340186D01*
X100538729Y-113423448D01*
X100502991Y-113452778D01*
X100346466Y-113536443D01*
X100176627Y-113587963D01*
X100110443Y-113594481D01*
X100044260Y-113601000D01*
X99955740Y-113601000D01*
X99889557Y-113594481D01*
X99823373Y-113587963D01*
X99653534Y-113536443D01*
X99497009Y-113452778D01*
X99461271Y-113423448D01*
X99359814Y-113340186D01*
X99276552Y-113238729D01*
X99247222Y-113202991D01*
X99163557Y-113046466D01*
X99112037Y-112876627D01*
X99094641Y-112700000D01*
X99112037Y-112523373D01*
X99163557Y-112353534D01*
X99247222Y-112197009D01*
X99276552Y-112161271D01*
X99359814Y-112059814D01*
X99461271Y-111976552D01*
X99497009Y-111947222D01*
X99653534Y-111863557D01*
X99823373Y-111812037D01*
X99889558Y-111805518D01*
X99955740Y-111799000D01*
X100044260Y-111799000D01*
X100110442Y-111805518D01*
X100110442Y-111805518D01*
G37*
G36*
X115660000Y-113279400D02*
G01*
X114058000Y-113279400D01*
X114058000Y-112577400D01*
X115660000Y-112577400D01*
X115660000Y-113279400D01*
X115660000Y-113279400D01*
G37*
G36*
X106160000Y-113279400D02*
G01*
X104558000Y-113279400D01*
X104558000Y-112577400D01*
X106160000Y-112577400D01*
X106160000Y-113279400D01*
X106160000Y-113279400D01*
G37*
G36*
X118563899Y-111416245D02*
G01*
X118601395Y-111427620D01*
X118635954Y-111446092D01*
X118666247Y-111470953D01*
X118691108Y-111501246D01*
X118709580Y-111535805D01*
X118720955Y-111573301D01*
X118725400Y-111618438D01*
X118725400Y-112257162D01*
X118720955Y-112302299D01*
X118709580Y-112339795D01*
X118691108Y-112374354D01*
X118666247Y-112404647D01*
X118635954Y-112429508D01*
X118601395Y-112447980D01*
X118563899Y-112459355D01*
X118518762Y-112463800D01*
X117780038Y-112463800D01*
X117734901Y-112459355D01*
X117697405Y-112447980D01*
X117662846Y-112429508D01*
X117632553Y-112404647D01*
X117607692Y-112374354D01*
X117589220Y-112339795D01*
X117577845Y-112302299D01*
X117573400Y-112257162D01*
X117573400Y-111618438D01*
X117577845Y-111573301D01*
X117589220Y-111535805D01*
X117607692Y-111501246D01*
X117632553Y-111470953D01*
X117662846Y-111446092D01*
X117697405Y-111427620D01*
X117734901Y-111416245D01*
X117780038Y-111411800D01*
X118518762Y-111411800D01*
X118563899Y-111416245D01*
X118563899Y-111416245D01*
G37*
G36*
X120313899Y-111416245D02*
G01*
X120351395Y-111427620D01*
X120385954Y-111446092D01*
X120416247Y-111470953D01*
X120441108Y-111501246D01*
X120459580Y-111535805D01*
X120470955Y-111573301D01*
X120475400Y-111618438D01*
X120475400Y-112257162D01*
X120470955Y-112302299D01*
X120459580Y-112339795D01*
X120441108Y-112374354D01*
X120416247Y-112404647D01*
X120385954Y-112429508D01*
X120351395Y-112447980D01*
X120313899Y-112459355D01*
X120268762Y-112463800D01*
X119530038Y-112463800D01*
X119484901Y-112459355D01*
X119447405Y-112447980D01*
X119412846Y-112429508D01*
X119382553Y-112404647D01*
X119357692Y-112374354D01*
X119339220Y-112339795D01*
X119327845Y-112302299D01*
X119323400Y-112257162D01*
X119323400Y-111618438D01*
X119327845Y-111573301D01*
X119339220Y-111535805D01*
X119357692Y-111501246D01*
X119382553Y-111470953D01*
X119412846Y-111446092D01*
X119447405Y-111427620D01*
X119484901Y-111416245D01*
X119530038Y-111411800D01*
X120268762Y-111411800D01*
X120313899Y-111416245D01*
X120313899Y-111416245D01*
G37*
G36*
X106160000Y-112009400D02*
G01*
X104558000Y-112009400D01*
X104558000Y-111307400D01*
X106160000Y-111307400D01*
X106160000Y-112009400D01*
X106160000Y-112009400D01*
G37*
G36*
X115660000Y-112009400D02*
G01*
X114058000Y-112009400D01*
X114058000Y-111307400D01*
X115660000Y-111307400D01*
X115660000Y-112009400D01*
X115660000Y-112009400D01*
G37*
G36*
X100110442Y-109265518D02*
G01*
X100176627Y-109272037D01*
X100346466Y-109323557D01*
X100346468Y-109323558D01*
X100408373Y-109356647D01*
X100502991Y-109407222D01*
X100513443Y-109415800D01*
X100640186Y-109519814D01*
X100705007Y-109598800D01*
X100752778Y-109657009D01*
X100836443Y-109813534D01*
X100887963Y-109983373D01*
X100905359Y-110160000D01*
X100887963Y-110336627D01*
X100836443Y-110506466D01*
X100752778Y-110662991D01*
X100741445Y-110676800D01*
X100640186Y-110800186D01*
X100538729Y-110883448D01*
X100502991Y-110912778D01*
X100346466Y-110996443D01*
X100176627Y-111047963D01*
X100110442Y-111054482D01*
X100044260Y-111061000D01*
X99955740Y-111061000D01*
X99889558Y-111054482D01*
X99823373Y-111047963D01*
X99653534Y-110996443D01*
X99497009Y-110912778D01*
X99461271Y-110883448D01*
X99359814Y-110800186D01*
X99258555Y-110676800D01*
X99247222Y-110662991D01*
X99163557Y-110506466D01*
X99112037Y-110336627D01*
X99094641Y-110160000D01*
X99112037Y-109983373D01*
X99163557Y-109813534D01*
X99247222Y-109657009D01*
X99294993Y-109598800D01*
X99359814Y-109519814D01*
X99486557Y-109415800D01*
X99497009Y-109407222D01*
X99591627Y-109356647D01*
X99653532Y-109323558D01*
X99653534Y-109323557D01*
X99823373Y-109272037D01*
X99889558Y-109265518D01*
X99955740Y-109259000D01*
X100044260Y-109259000D01*
X100110442Y-109265518D01*
X100110442Y-109265518D01*
G37*
G36*
X97570442Y-109265518D02*
G01*
X97636627Y-109272037D01*
X97806466Y-109323557D01*
X97806468Y-109323558D01*
X97868373Y-109356647D01*
X97962991Y-109407222D01*
X97973443Y-109415800D01*
X98100186Y-109519814D01*
X98165007Y-109598800D01*
X98212778Y-109657009D01*
X98296443Y-109813534D01*
X98347963Y-109983373D01*
X98365359Y-110160000D01*
X98347963Y-110336627D01*
X98296443Y-110506466D01*
X98212778Y-110662991D01*
X98201445Y-110676800D01*
X98100186Y-110800186D01*
X97998729Y-110883448D01*
X97962991Y-110912778D01*
X97806466Y-110996443D01*
X97636627Y-111047963D01*
X97570442Y-111054482D01*
X97504260Y-111061000D01*
X97415740Y-111061000D01*
X97349558Y-111054482D01*
X97283373Y-111047963D01*
X97113534Y-110996443D01*
X96957009Y-110912778D01*
X96921271Y-110883448D01*
X96819814Y-110800186D01*
X96718555Y-110676800D01*
X96707222Y-110662991D01*
X96623557Y-110506466D01*
X96572037Y-110336627D01*
X96554641Y-110160000D01*
X96572037Y-109983373D01*
X96623557Y-109813534D01*
X96707222Y-109657009D01*
X96754993Y-109598800D01*
X96819814Y-109519814D01*
X96946557Y-109415800D01*
X96957009Y-109407222D01*
X97051627Y-109356647D01*
X97113532Y-109323558D01*
X97113534Y-109323557D01*
X97283373Y-109272037D01*
X97349558Y-109265518D01*
X97415740Y-109259000D01*
X97504260Y-109259000D01*
X97570442Y-109265518D01*
X97570442Y-109265518D01*
G37*
G36*
X102650442Y-109265518D02*
G01*
X102716627Y-109272037D01*
X102886466Y-109323557D01*
X102886468Y-109323558D01*
X102948373Y-109356647D01*
X103042991Y-109407222D01*
X103053443Y-109415800D01*
X103180186Y-109519814D01*
X103245007Y-109598800D01*
X103292778Y-109657009D01*
X103376443Y-109813534D01*
X103427963Y-109983373D01*
X103445359Y-110160000D01*
X103427963Y-110336627D01*
X103376443Y-110506466D01*
X103292778Y-110662991D01*
X103281445Y-110676800D01*
X103180186Y-110800186D01*
X103078729Y-110883448D01*
X103042991Y-110912778D01*
X102886466Y-110996443D01*
X102716627Y-111047963D01*
X102650442Y-111054482D01*
X102584260Y-111061000D01*
X102495740Y-111061000D01*
X102429558Y-111054482D01*
X102363373Y-111047963D01*
X102193534Y-110996443D01*
X102037009Y-110912778D01*
X102001271Y-110883448D01*
X101899814Y-110800186D01*
X101798555Y-110676800D01*
X101787222Y-110662991D01*
X101703557Y-110506466D01*
X101652037Y-110336627D01*
X101634641Y-110160000D01*
X101652037Y-109983373D01*
X101703557Y-109813534D01*
X101787222Y-109657009D01*
X101834993Y-109598800D01*
X101899814Y-109519814D01*
X102026557Y-109415800D01*
X102037009Y-109407222D01*
X102131627Y-109356647D01*
X102193532Y-109323558D01*
X102193534Y-109323557D01*
X102363373Y-109272037D01*
X102429558Y-109265518D01*
X102495740Y-109259000D01*
X102584260Y-109259000D01*
X102650442Y-109265518D01*
X102650442Y-109265518D01*
G37*
G36*
X133233699Y-109892245D02*
G01*
X133271195Y-109903620D01*
X133305754Y-109922092D01*
X133336047Y-109946953D01*
X133360908Y-109977246D01*
X133379380Y-110011805D01*
X133390755Y-110049301D01*
X133395200Y-110094438D01*
X133395200Y-110733162D01*
X133390755Y-110778299D01*
X133379380Y-110815795D01*
X133360908Y-110850354D01*
X133336047Y-110880647D01*
X133305754Y-110905508D01*
X133271195Y-110923980D01*
X133233699Y-110935355D01*
X133188562Y-110939800D01*
X132449838Y-110939800D01*
X132404701Y-110935355D01*
X132367205Y-110923980D01*
X132332646Y-110905508D01*
X132302353Y-110880647D01*
X132277492Y-110850354D01*
X132259020Y-110815795D01*
X132247645Y-110778299D01*
X132243200Y-110733162D01*
X132243200Y-110094438D01*
X132247645Y-110049301D01*
X132259020Y-110011805D01*
X132277492Y-109977246D01*
X132302353Y-109946953D01*
X132332646Y-109922092D01*
X132367205Y-109903620D01*
X132404701Y-109892245D01*
X132449838Y-109887800D01*
X133188562Y-109887800D01*
X133233699Y-109892245D01*
X133233699Y-109892245D01*
G37*
G36*
X134983699Y-109892245D02*
G01*
X135021195Y-109903620D01*
X135055754Y-109922092D01*
X135086047Y-109946953D01*
X135110908Y-109977246D01*
X135129380Y-110011805D01*
X135140755Y-110049301D01*
X135145200Y-110094438D01*
X135145200Y-110733162D01*
X135140755Y-110778299D01*
X135129380Y-110815795D01*
X135110908Y-110850354D01*
X135086047Y-110880647D01*
X135055754Y-110905508D01*
X135021195Y-110923980D01*
X134983699Y-110935355D01*
X134938562Y-110939800D01*
X134199838Y-110939800D01*
X134154701Y-110935355D01*
X134117205Y-110923980D01*
X134082646Y-110905508D01*
X134052353Y-110880647D01*
X134027492Y-110850354D01*
X134009020Y-110815795D01*
X133997645Y-110778299D01*
X133993200Y-110733162D01*
X133993200Y-110094438D01*
X133997645Y-110049301D01*
X134009020Y-110011805D01*
X134027492Y-109977246D01*
X134052353Y-109946953D01*
X134082646Y-109922092D01*
X134117205Y-109903620D01*
X134154701Y-109892245D01*
X134199838Y-109887800D01*
X134938562Y-109887800D01*
X134983699Y-109892245D01*
X134983699Y-109892245D01*
G37*
G36*
X115660000Y-110739400D02*
G01*
X114058000Y-110739400D01*
X114058000Y-110037400D01*
X115660000Y-110037400D01*
X115660000Y-110739400D01*
X115660000Y-110739400D01*
G37*
G36*
X106160000Y-110739400D02*
G01*
X104558000Y-110739400D01*
X104558000Y-110037400D01*
X106160000Y-110037400D01*
X106160000Y-110739400D01*
X106160000Y-110739400D01*
G37*
G36*
X115660000Y-109469400D02*
G01*
X114058000Y-109469400D01*
X114058000Y-108767400D01*
X115660000Y-108767400D01*
X115660000Y-109469400D01*
X115660000Y-109469400D01*
G37*
G36*
X106160000Y-109469400D02*
G01*
X104558000Y-109469400D01*
X104558000Y-108767400D01*
X106160000Y-108767400D01*
X106160000Y-109469400D01*
X106160000Y-109469400D01*
G37*
G36*
X133245099Y-108368245D02*
G01*
X133282595Y-108379620D01*
X133317154Y-108398092D01*
X133347447Y-108422953D01*
X133372308Y-108453246D01*
X133390780Y-108487805D01*
X133402155Y-108525301D01*
X133406600Y-108570438D01*
X133406600Y-109209162D01*
X133402155Y-109254299D01*
X133390780Y-109291795D01*
X133372308Y-109326354D01*
X133347447Y-109356647D01*
X133317154Y-109381508D01*
X133282595Y-109399980D01*
X133245099Y-109411355D01*
X133199962Y-109415800D01*
X132461238Y-109415800D01*
X132416101Y-109411355D01*
X132378605Y-109399980D01*
X132344046Y-109381508D01*
X132313753Y-109356647D01*
X132288892Y-109326354D01*
X132270420Y-109291795D01*
X132259045Y-109254299D01*
X132254600Y-109209162D01*
X132254600Y-108570438D01*
X132259045Y-108525301D01*
X132270420Y-108487805D01*
X132288892Y-108453246D01*
X132313753Y-108422953D01*
X132344046Y-108398092D01*
X132378605Y-108379620D01*
X132416101Y-108368245D01*
X132461238Y-108363800D01*
X133199962Y-108363800D01*
X133245099Y-108368245D01*
X133245099Y-108368245D01*
G37*
G36*
X134995099Y-108368245D02*
G01*
X135032595Y-108379620D01*
X135067154Y-108398092D01*
X135097447Y-108422953D01*
X135122308Y-108453246D01*
X135140780Y-108487805D01*
X135152155Y-108525301D01*
X135156600Y-108570438D01*
X135156600Y-109209162D01*
X135152155Y-109254299D01*
X135140780Y-109291795D01*
X135122308Y-109326354D01*
X135097447Y-109356647D01*
X135067154Y-109381508D01*
X135032595Y-109399980D01*
X134995099Y-109411355D01*
X134949962Y-109415800D01*
X134211238Y-109415800D01*
X134166101Y-109411355D01*
X134128605Y-109399980D01*
X134094046Y-109381508D01*
X134063753Y-109356647D01*
X134038892Y-109326354D01*
X134020420Y-109291795D01*
X134009045Y-109254299D01*
X134004600Y-109209162D01*
X134004600Y-108570438D01*
X134009045Y-108525301D01*
X134020420Y-108487805D01*
X134038892Y-108453246D01*
X134063753Y-108422953D01*
X134094046Y-108398092D01*
X134128605Y-108379620D01*
X134166101Y-108368245D01*
X134211238Y-108363800D01*
X134949962Y-108363800D01*
X134995099Y-108368245D01*
X134995099Y-108368245D01*
G37*
G36*
X97570443Y-106725519D02*
G01*
X97636627Y-106732037D01*
X97806466Y-106783557D01*
X97962991Y-106867222D01*
X97998729Y-106896552D01*
X98100186Y-106979814D01*
X98183448Y-107081271D01*
X98212778Y-107117009D01*
X98296443Y-107273534D01*
X98347963Y-107443373D01*
X98365359Y-107620000D01*
X98347963Y-107796627D01*
X98296443Y-107966466D01*
X98212778Y-108122991D01*
X98183448Y-108158729D01*
X98100186Y-108260186D01*
X97998729Y-108343448D01*
X97962991Y-108372778D01*
X97806466Y-108456443D01*
X97636627Y-108507963D01*
X97570442Y-108514482D01*
X97504260Y-108521000D01*
X97415740Y-108521000D01*
X97349558Y-108514482D01*
X97283373Y-108507963D01*
X97113534Y-108456443D01*
X96957009Y-108372778D01*
X96921271Y-108343448D01*
X96819814Y-108260186D01*
X96736552Y-108158729D01*
X96707222Y-108122991D01*
X96623557Y-107966466D01*
X96572037Y-107796627D01*
X96554641Y-107620000D01*
X96572037Y-107443373D01*
X96623557Y-107273534D01*
X96707222Y-107117009D01*
X96736552Y-107081271D01*
X96819814Y-106979814D01*
X96921271Y-106896552D01*
X96957009Y-106867222D01*
X97113534Y-106783557D01*
X97283373Y-106732037D01*
X97349557Y-106725519D01*
X97415740Y-106719000D01*
X97504260Y-106719000D01*
X97570443Y-106725519D01*
X97570443Y-106725519D01*
G37*
G36*
X102650443Y-106725519D02*
G01*
X102716627Y-106732037D01*
X102886466Y-106783557D01*
X103042991Y-106867222D01*
X103078729Y-106896552D01*
X103180186Y-106979814D01*
X103263448Y-107081271D01*
X103292778Y-107117009D01*
X103376443Y-107273534D01*
X103427963Y-107443373D01*
X103445359Y-107620000D01*
X103427963Y-107796627D01*
X103376443Y-107966466D01*
X103292778Y-108122991D01*
X103263448Y-108158729D01*
X103180186Y-108260186D01*
X103078729Y-108343448D01*
X103042991Y-108372778D01*
X102886466Y-108456443D01*
X102716627Y-108507963D01*
X102650442Y-108514482D01*
X102584260Y-108521000D01*
X102495740Y-108521000D01*
X102429558Y-108514482D01*
X102363373Y-108507963D01*
X102193534Y-108456443D01*
X102037009Y-108372778D01*
X102001271Y-108343448D01*
X101899814Y-108260186D01*
X101816552Y-108158729D01*
X101787222Y-108122991D01*
X101703557Y-107966466D01*
X101652037Y-107796627D01*
X101634641Y-107620000D01*
X101652037Y-107443373D01*
X101703557Y-107273534D01*
X101787222Y-107117009D01*
X101816552Y-107081271D01*
X101899814Y-106979814D01*
X102001271Y-106896552D01*
X102037009Y-106867222D01*
X102193534Y-106783557D01*
X102363373Y-106732037D01*
X102429557Y-106725519D01*
X102495740Y-106719000D01*
X102584260Y-106719000D01*
X102650443Y-106725519D01*
X102650443Y-106725519D01*
G37*
G36*
X100110443Y-106725519D02*
G01*
X100176627Y-106732037D01*
X100346466Y-106783557D01*
X100502991Y-106867222D01*
X100538729Y-106896552D01*
X100640186Y-106979814D01*
X100723448Y-107081271D01*
X100752778Y-107117009D01*
X100836443Y-107273534D01*
X100887963Y-107443373D01*
X100905359Y-107620000D01*
X100887963Y-107796627D01*
X100836443Y-107966466D01*
X100752778Y-108122991D01*
X100723448Y-108158729D01*
X100640186Y-108260186D01*
X100538729Y-108343448D01*
X100502991Y-108372778D01*
X100346466Y-108456443D01*
X100176627Y-108507963D01*
X100110442Y-108514482D01*
X100044260Y-108521000D01*
X99955740Y-108521000D01*
X99889558Y-108514482D01*
X99823373Y-108507963D01*
X99653534Y-108456443D01*
X99497009Y-108372778D01*
X99461271Y-108343448D01*
X99359814Y-108260186D01*
X99276552Y-108158729D01*
X99247222Y-108122991D01*
X99163557Y-107966466D01*
X99112037Y-107796627D01*
X99094641Y-107620000D01*
X99112037Y-107443373D01*
X99163557Y-107273534D01*
X99247222Y-107117009D01*
X99276552Y-107081271D01*
X99359814Y-106979814D01*
X99461271Y-106896552D01*
X99497009Y-106867222D01*
X99653534Y-106783557D01*
X99823373Y-106732037D01*
X99889557Y-106725519D01*
X99955740Y-106719000D01*
X100044260Y-106719000D01*
X100110443Y-106725519D01*
X100110443Y-106725519D01*
G37*
G36*
X115660000Y-108199400D02*
G01*
X114058000Y-108199400D01*
X114058000Y-107497400D01*
X115660000Y-107497400D01*
X115660000Y-108199400D01*
X115660000Y-108199400D01*
G37*
G36*
X106160000Y-108199400D02*
G01*
X104558000Y-108199400D01*
X104558000Y-107497400D01*
X106160000Y-107497400D01*
X106160000Y-108199400D01*
X106160000Y-108199400D01*
G37*
G36*
X133140899Y-106844245D02*
G01*
X133178395Y-106855620D01*
X133212954Y-106874092D01*
X133243247Y-106898953D01*
X133268108Y-106929246D01*
X133286580Y-106963805D01*
X133297955Y-107001301D01*
X133302400Y-107046438D01*
X133302400Y-107685162D01*
X133297955Y-107730299D01*
X133286580Y-107767795D01*
X133268108Y-107802354D01*
X133243247Y-107832647D01*
X133212954Y-107857508D01*
X133178395Y-107875980D01*
X133140899Y-107887355D01*
X133095762Y-107891800D01*
X132357038Y-107891800D01*
X132311901Y-107887355D01*
X132274405Y-107875980D01*
X132239846Y-107857508D01*
X132209553Y-107832647D01*
X132184692Y-107802354D01*
X132166220Y-107767795D01*
X132154845Y-107730299D01*
X132150400Y-107685162D01*
X132150400Y-107046438D01*
X132154845Y-107001301D01*
X132166220Y-106963805D01*
X132184692Y-106929246D01*
X132209553Y-106898953D01*
X132239846Y-106874092D01*
X132274405Y-106855620D01*
X132311901Y-106844245D01*
X132357038Y-106839800D01*
X133095762Y-106839800D01*
X133140899Y-106844245D01*
X133140899Y-106844245D01*
G37*
G36*
X131390899Y-106844245D02*
G01*
X131428395Y-106855620D01*
X131462954Y-106874092D01*
X131493247Y-106898953D01*
X131518108Y-106929246D01*
X131536580Y-106963805D01*
X131547955Y-107001301D01*
X131552400Y-107046438D01*
X131552400Y-107685162D01*
X131547955Y-107730299D01*
X131536580Y-107767795D01*
X131518108Y-107802354D01*
X131493247Y-107832647D01*
X131462954Y-107857508D01*
X131428395Y-107875980D01*
X131390899Y-107887355D01*
X131345762Y-107891800D01*
X130607038Y-107891800D01*
X130561901Y-107887355D01*
X130524405Y-107875980D01*
X130489846Y-107857508D01*
X130459553Y-107832647D01*
X130434692Y-107802354D01*
X130416220Y-107767795D01*
X130404845Y-107730299D01*
X130400400Y-107685162D01*
X130400400Y-107046438D01*
X130404845Y-107001301D01*
X130416220Y-106963805D01*
X130434692Y-106929246D01*
X130459553Y-106898953D01*
X130489846Y-106874092D01*
X130524405Y-106855620D01*
X130561901Y-106844245D01*
X130607038Y-106839800D01*
X131345762Y-106839800D01*
X131390899Y-106844245D01*
X131390899Y-106844245D01*
G37*
G36*
X115660000Y-106929400D02*
G01*
X114058000Y-106929400D01*
X114058000Y-106227400D01*
X115660000Y-106227400D01*
X115660000Y-106929400D01*
X115660000Y-106929400D01*
G37*
G36*
X106160000Y-106929400D02*
G01*
X104558000Y-106929400D01*
X104558000Y-106227400D01*
X106160000Y-106227400D01*
X106160000Y-106929400D01*
X106160000Y-106929400D01*
G37*
G36*
X126284999Y-105713445D02*
G01*
X126322495Y-105724820D01*
X126357054Y-105743292D01*
X126387347Y-105768153D01*
X126412208Y-105798446D01*
X126430680Y-105833005D01*
X126442055Y-105870501D01*
X126446500Y-105915638D01*
X126446500Y-106654362D01*
X126442055Y-106699499D01*
X126430680Y-106736995D01*
X126412208Y-106771554D01*
X126387347Y-106801847D01*
X126357054Y-106826708D01*
X126322495Y-106845180D01*
X126284999Y-106856555D01*
X126239862Y-106861000D01*
X125601138Y-106861000D01*
X125556001Y-106856555D01*
X125518505Y-106845180D01*
X125483946Y-106826708D01*
X125453653Y-106801847D01*
X125428792Y-106771554D01*
X125410320Y-106736995D01*
X125398945Y-106699499D01*
X125394500Y-106654362D01*
X125394500Y-105915638D01*
X125398945Y-105870501D01*
X125410320Y-105833005D01*
X125428792Y-105798446D01*
X125453653Y-105768153D01*
X125483946Y-105743292D01*
X125518505Y-105724820D01*
X125556001Y-105713445D01*
X125601138Y-105709000D01*
X126239862Y-105709000D01*
X126284999Y-105713445D01*
X126284999Y-105713445D01*
G37*
G36*
X97570443Y-104185519D02*
G01*
X97636627Y-104192037D01*
X97806466Y-104243557D01*
X97962991Y-104327222D01*
X97998729Y-104356552D01*
X98100186Y-104439814D01*
X98162993Y-104516346D01*
X98212778Y-104577009D01*
X98212779Y-104577011D01*
X98264433Y-104673647D01*
X98296443Y-104733534D01*
X98347963Y-104903373D01*
X98365359Y-105080000D01*
X98347963Y-105256627D01*
X98296443Y-105426466D01*
X98212778Y-105582991D01*
X98183448Y-105618729D01*
X98100186Y-105720186D01*
X97998729Y-105803448D01*
X97962991Y-105832778D01*
X97806466Y-105916443D01*
X97636627Y-105967963D01*
X97570443Y-105974481D01*
X97504260Y-105981000D01*
X97415740Y-105981000D01*
X97349557Y-105974481D01*
X97283373Y-105967963D01*
X97113534Y-105916443D01*
X96957009Y-105832778D01*
X96921271Y-105803448D01*
X96819814Y-105720186D01*
X96736552Y-105618729D01*
X96707222Y-105582991D01*
X96623557Y-105426466D01*
X96572037Y-105256627D01*
X96554641Y-105080000D01*
X96572037Y-104903373D01*
X96623557Y-104733534D01*
X96655568Y-104673647D01*
X96707221Y-104577011D01*
X96707222Y-104577009D01*
X96757007Y-104516346D01*
X96819814Y-104439814D01*
X96921271Y-104356552D01*
X96957009Y-104327222D01*
X97113534Y-104243557D01*
X97283373Y-104192037D01*
X97349557Y-104185519D01*
X97415740Y-104179000D01*
X97504260Y-104179000D01*
X97570443Y-104185519D01*
X97570443Y-104185519D01*
G37*
G36*
X100110443Y-104185519D02*
G01*
X100176627Y-104192037D01*
X100346466Y-104243557D01*
X100502991Y-104327222D01*
X100538729Y-104356552D01*
X100640186Y-104439814D01*
X100702993Y-104516346D01*
X100752778Y-104577009D01*
X100752779Y-104577011D01*
X100804433Y-104673647D01*
X100836443Y-104733534D01*
X100887963Y-104903373D01*
X100905359Y-105080000D01*
X100887963Y-105256627D01*
X100836443Y-105426466D01*
X100752778Y-105582991D01*
X100723448Y-105618729D01*
X100640186Y-105720186D01*
X100538729Y-105803448D01*
X100502991Y-105832778D01*
X100346466Y-105916443D01*
X100176627Y-105967963D01*
X100110443Y-105974481D01*
X100044260Y-105981000D01*
X99955740Y-105981000D01*
X99889557Y-105974481D01*
X99823373Y-105967963D01*
X99653534Y-105916443D01*
X99497009Y-105832778D01*
X99461271Y-105803448D01*
X99359814Y-105720186D01*
X99276552Y-105618729D01*
X99247222Y-105582991D01*
X99163557Y-105426466D01*
X99112037Y-105256627D01*
X99094641Y-105080000D01*
X99112037Y-104903373D01*
X99163557Y-104733534D01*
X99195568Y-104673647D01*
X99247221Y-104577011D01*
X99247222Y-104577009D01*
X99297007Y-104516346D01*
X99359814Y-104439814D01*
X99461271Y-104356552D01*
X99497009Y-104327222D01*
X99653534Y-104243557D01*
X99823373Y-104192037D01*
X99889557Y-104185519D01*
X99955740Y-104179000D01*
X100044260Y-104179000D01*
X100110443Y-104185519D01*
X100110443Y-104185519D01*
G37*
G36*
X102650443Y-104185519D02*
G01*
X102716627Y-104192037D01*
X102886466Y-104243557D01*
X103042991Y-104327222D01*
X103078729Y-104356552D01*
X103180186Y-104439814D01*
X103242993Y-104516346D01*
X103292778Y-104577009D01*
X103292779Y-104577011D01*
X103344433Y-104673647D01*
X103376443Y-104733534D01*
X103427963Y-104903373D01*
X103445359Y-105080000D01*
X103427963Y-105256627D01*
X103376443Y-105426466D01*
X103292778Y-105582991D01*
X103263448Y-105618729D01*
X103180186Y-105720186D01*
X103078729Y-105803448D01*
X103042991Y-105832778D01*
X102886466Y-105916443D01*
X102716627Y-105967963D01*
X102650443Y-105974481D01*
X102584260Y-105981000D01*
X102495740Y-105981000D01*
X102429557Y-105974481D01*
X102363373Y-105967963D01*
X102193534Y-105916443D01*
X102037009Y-105832778D01*
X102001271Y-105803448D01*
X101899814Y-105720186D01*
X101816552Y-105618729D01*
X101787222Y-105582991D01*
X101703557Y-105426466D01*
X101652037Y-105256627D01*
X101634641Y-105080000D01*
X101652037Y-104903373D01*
X101703557Y-104733534D01*
X101735568Y-104673647D01*
X101787221Y-104577011D01*
X101787222Y-104577009D01*
X101837007Y-104516346D01*
X101899814Y-104439814D01*
X102001271Y-104356552D01*
X102037009Y-104327222D01*
X102193534Y-104243557D01*
X102363373Y-104192037D01*
X102429557Y-104185519D01*
X102495740Y-104179000D01*
X102584260Y-104179000D01*
X102650443Y-104185519D01*
X102650443Y-104185519D01*
G37*
G36*
X106160000Y-105659400D02*
G01*
X104558000Y-105659400D01*
X104558000Y-104957400D01*
X106160000Y-104957400D01*
X106160000Y-105659400D01*
X106160000Y-105659400D01*
G37*
G36*
X115660000Y-105659400D02*
G01*
X114058000Y-105659400D01*
X114058000Y-104957400D01*
X115660000Y-104957400D01*
X115660000Y-105659400D01*
X115660000Y-105659400D01*
G37*
G36*
X126284999Y-103963445D02*
G01*
X126322495Y-103974820D01*
X126357054Y-103993292D01*
X126387347Y-104018153D01*
X126412208Y-104048446D01*
X126430680Y-104083005D01*
X126442055Y-104120501D01*
X126446500Y-104165638D01*
X126446500Y-104904362D01*
X126442055Y-104949499D01*
X126430680Y-104986995D01*
X126412208Y-105021554D01*
X126387347Y-105051847D01*
X126357054Y-105076708D01*
X126322495Y-105095180D01*
X126284999Y-105106555D01*
X126239862Y-105111000D01*
X125601138Y-105111000D01*
X125556001Y-105106555D01*
X125518505Y-105095180D01*
X125483946Y-105076708D01*
X125453653Y-105051847D01*
X125428792Y-105021554D01*
X125410320Y-104986995D01*
X125398945Y-104949499D01*
X125394500Y-104904362D01*
X125394500Y-104165638D01*
X125398945Y-104120501D01*
X125410320Y-104083005D01*
X125428792Y-104048446D01*
X125453653Y-104018153D01*
X125483946Y-103993292D01*
X125518505Y-103974820D01*
X125556001Y-103963445D01*
X125601138Y-103959000D01*
X126239862Y-103959000D01*
X126284999Y-103963445D01*
X126284999Y-103963445D01*
G37*
G36*
X130270699Y-103631145D02*
G01*
X130308195Y-103642520D01*
X130342754Y-103660992D01*
X130373047Y-103685853D01*
X130397908Y-103716146D01*
X130416380Y-103750705D01*
X130427755Y-103788201D01*
X130432200Y-103833338D01*
X130432200Y-104472062D01*
X130427755Y-104517199D01*
X130416380Y-104554695D01*
X130397908Y-104589254D01*
X130373047Y-104619547D01*
X130342754Y-104644408D01*
X130308195Y-104662880D01*
X130270699Y-104674255D01*
X130225562Y-104678700D01*
X129486838Y-104678700D01*
X129441701Y-104674255D01*
X129404205Y-104662880D01*
X129369646Y-104644408D01*
X129339353Y-104619547D01*
X129314492Y-104589254D01*
X129296020Y-104554695D01*
X129284645Y-104517199D01*
X129280200Y-104472062D01*
X129280200Y-103833338D01*
X129284645Y-103788201D01*
X129296020Y-103750705D01*
X129314492Y-103716146D01*
X129339353Y-103685853D01*
X129369646Y-103660992D01*
X129404205Y-103642520D01*
X129441701Y-103631145D01*
X129486838Y-103626700D01*
X130225562Y-103626700D01*
X130270699Y-103631145D01*
X130270699Y-103631145D01*
G37*
G36*
X128520699Y-103631145D02*
G01*
X128558195Y-103642520D01*
X128592754Y-103660992D01*
X128623047Y-103685853D01*
X128647908Y-103716146D01*
X128666380Y-103750705D01*
X128677755Y-103788201D01*
X128682200Y-103833338D01*
X128682200Y-104472062D01*
X128677755Y-104517199D01*
X128666380Y-104554695D01*
X128647908Y-104589254D01*
X128623047Y-104619547D01*
X128592754Y-104644408D01*
X128558195Y-104662880D01*
X128520699Y-104674255D01*
X128475562Y-104678700D01*
X127736838Y-104678700D01*
X127691701Y-104674255D01*
X127654205Y-104662880D01*
X127619646Y-104644408D01*
X127589353Y-104619547D01*
X127564492Y-104589254D01*
X127546020Y-104554695D01*
X127534645Y-104517199D01*
X127530200Y-104472062D01*
X127530200Y-103833338D01*
X127534645Y-103788201D01*
X127546020Y-103750705D01*
X127564492Y-103716146D01*
X127589353Y-103685853D01*
X127619646Y-103660992D01*
X127654205Y-103642520D01*
X127691701Y-103631145D01*
X127736838Y-103626700D01*
X128475562Y-103626700D01*
X128520699Y-103631145D01*
X128520699Y-103631145D01*
G37*
G36*
X115660000Y-104389400D02*
G01*
X114058000Y-104389400D01*
X114058000Y-103687400D01*
X115660000Y-103687400D01*
X115660000Y-104389400D01*
X115660000Y-104389400D01*
G37*
G36*
X106160000Y-104389400D02*
G01*
X104558000Y-104389400D01*
X104558000Y-103687400D01*
X106160000Y-103687400D01*
X106160000Y-104389400D01*
X106160000Y-104389400D01*
G37*
G36*
X97570442Y-101645518D02*
G01*
X97636627Y-101652037D01*
X97806466Y-101703557D01*
X97806468Y-101703558D01*
X97881390Y-101743605D01*
X97962991Y-101787222D01*
X97998729Y-101816552D01*
X98100186Y-101899814D01*
X98183448Y-102001271D01*
X98212778Y-102037009D01*
X98296443Y-102193534D01*
X98347963Y-102363373D01*
X98365359Y-102540000D01*
X98347963Y-102716627D01*
X98331287Y-102771600D01*
X98296442Y-102886468D01*
X98260554Y-102953609D01*
X98212778Y-103042991D01*
X98185808Y-103075854D01*
X98100186Y-103180186D01*
X97998729Y-103263448D01*
X97962991Y-103292778D01*
X97806466Y-103376443D01*
X97636627Y-103427963D01*
X97570442Y-103434482D01*
X97504260Y-103441000D01*
X97415740Y-103441000D01*
X97349558Y-103434482D01*
X97283373Y-103427963D01*
X97113534Y-103376443D01*
X96957009Y-103292778D01*
X96921271Y-103263448D01*
X96819814Y-103180186D01*
X96734192Y-103075854D01*
X96707222Y-103042991D01*
X96659446Y-102953609D01*
X96623558Y-102886468D01*
X96588713Y-102771600D01*
X96572037Y-102716627D01*
X96554641Y-102540000D01*
X96572037Y-102363373D01*
X96623557Y-102193534D01*
X96707222Y-102037009D01*
X96736552Y-102001271D01*
X96819814Y-101899814D01*
X96921271Y-101816552D01*
X96957009Y-101787222D01*
X97038610Y-101743605D01*
X97113532Y-101703558D01*
X97113534Y-101703557D01*
X97283373Y-101652037D01*
X97349557Y-101645519D01*
X97415740Y-101639000D01*
X97504260Y-101639000D01*
X97570442Y-101645518D01*
X97570442Y-101645518D01*
G37*
G36*
X102650442Y-101645518D02*
G01*
X102716627Y-101652037D01*
X102886466Y-101703557D01*
X102886468Y-101703558D01*
X102961390Y-101743605D01*
X103042991Y-101787222D01*
X103078729Y-101816552D01*
X103180186Y-101899814D01*
X103263448Y-102001271D01*
X103292778Y-102037009D01*
X103376443Y-102193534D01*
X103427963Y-102363373D01*
X103445359Y-102540000D01*
X103427963Y-102716627D01*
X103411287Y-102771600D01*
X103376442Y-102886468D01*
X103340554Y-102953609D01*
X103292778Y-103042991D01*
X103265808Y-103075854D01*
X103180186Y-103180186D01*
X103078729Y-103263448D01*
X103042991Y-103292778D01*
X102886466Y-103376443D01*
X102716627Y-103427963D01*
X102650442Y-103434482D01*
X102584260Y-103441000D01*
X102495740Y-103441000D01*
X102429558Y-103434482D01*
X102363373Y-103427963D01*
X102193534Y-103376443D01*
X102037009Y-103292778D01*
X102001271Y-103263448D01*
X101899814Y-103180186D01*
X101814192Y-103075854D01*
X101787222Y-103042991D01*
X101739446Y-102953609D01*
X101703558Y-102886468D01*
X101668713Y-102771600D01*
X101652037Y-102716627D01*
X101634641Y-102540000D01*
X101652037Y-102363373D01*
X101703557Y-102193534D01*
X101787222Y-102037009D01*
X101816552Y-102001271D01*
X101899814Y-101899814D01*
X102001271Y-101816552D01*
X102037009Y-101787222D01*
X102118610Y-101743605D01*
X102193532Y-101703558D01*
X102193534Y-101703557D01*
X102363373Y-101652037D01*
X102429557Y-101645519D01*
X102495740Y-101639000D01*
X102584260Y-101639000D01*
X102650442Y-101645518D01*
X102650442Y-101645518D01*
G37*
G36*
X100110442Y-101645518D02*
G01*
X100176627Y-101652037D01*
X100346466Y-101703557D01*
X100346468Y-101703558D01*
X100421390Y-101743605D01*
X100502991Y-101787222D01*
X100538729Y-101816552D01*
X100640186Y-101899814D01*
X100723448Y-102001271D01*
X100752778Y-102037009D01*
X100836443Y-102193534D01*
X100887963Y-102363373D01*
X100905359Y-102540000D01*
X100887963Y-102716627D01*
X100871287Y-102771600D01*
X100836442Y-102886468D01*
X100800554Y-102953609D01*
X100752778Y-103042991D01*
X100725808Y-103075854D01*
X100640186Y-103180186D01*
X100538729Y-103263448D01*
X100502991Y-103292778D01*
X100346466Y-103376443D01*
X100176627Y-103427963D01*
X100110442Y-103434482D01*
X100044260Y-103441000D01*
X99955740Y-103441000D01*
X99889558Y-103434482D01*
X99823373Y-103427963D01*
X99653534Y-103376443D01*
X99497009Y-103292778D01*
X99461271Y-103263448D01*
X99359814Y-103180186D01*
X99274192Y-103075854D01*
X99247222Y-103042991D01*
X99199446Y-102953609D01*
X99163558Y-102886468D01*
X99128713Y-102771600D01*
X99112037Y-102716627D01*
X99094641Y-102540000D01*
X99112037Y-102363373D01*
X99163557Y-102193534D01*
X99247222Y-102037009D01*
X99276552Y-102001271D01*
X99359814Y-101899814D01*
X99461271Y-101816552D01*
X99497009Y-101787222D01*
X99578610Y-101743605D01*
X99653532Y-101703558D01*
X99653534Y-101703557D01*
X99823373Y-101652037D01*
X99889557Y-101645519D01*
X99955740Y-101639000D01*
X100044260Y-101639000D01*
X100110442Y-101645518D01*
X100110442Y-101645518D01*
G37*
G36*
X128482099Y-102017745D02*
G01*
X128519595Y-102029120D01*
X128554154Y-102047592D01*
X128584447Y-102072453D01*
X128609308Y-102102746D01*
X128627780Y-102137305D01*
X128639155Y-102174801D01*
X128643600Y-102219938D01*
X128643600Y-102958662D01*
X128639155Y-103003799D01*
X128627780Y-103041295D01*
X128609308Y-103075854D01*
X128584447Y-103106147D01*
X128554154Y-103131008D01*
X128519595Y-103149480D01*
X128482099Y-103160855D01*
X128436962Y-103165300D01*
X127798238Y-103165300D01*
X127753101Y-103160855D01*
X127715605Y-103149480D01*
X127681046Y-103131008D01*
X127650753Y-103106147D01*
X127625892Y-103075854D01*
X127607420Y-103041295D01*
X127596045Y-103003799D01*
X127591600Y-102958662D01*
X127591600Y-102219938D01*
X127596045Y-102174801D01*
X127607420Y-102137305D01*
X127625892Y-102102746D01*
X127650753Y-102072453D01*
X127681046Y-102047592D01*
X127715605Y-102029120D01*
X127753101Y-102017745D01*
X127798238Y-102013300D01*
X128436962Y-102013300D01*
X128482099Y-102017745D01*
X128482099Y-102017745D01*
G37*
G36*
X114994699Y-101624045D02*
G01*
X115032195Y-101635420D01*
X115066754Y-101653892D01*
X115097047Y-101678753D01*
X115121908Y-101709046D01*
X115140380Y-101743605D01*
X115151755Y-101781101D01*
X115156200Y-101826238D01*
X115156200Y-102564962D01*
X115151755Y-102610099D01*
X115140380Y-102647595D01*
X115121908Y-102682154D01*
X115097047Y-102712447D01*
X115066754Y-102737308D01*
X115032195Y-102755780D01*
X114994699Y-102767155D01*
X114949562Y-102771600D01*
X114310838Y-102771600D01*
X114265701Y-102767155D01*
X114228205Y-102755780D01*
X114193646Y-102737308D01*
X114163353Y-102712447D01*
X114138492Y-102682154D01*
X114120020Y-102647595D01*
X114108645Y-102610099D01*
X114104200Y-102564962D01*
X114104200Y-101826238D01*
X114108645Y-101781101D01*
X114120020Y-101743605D01*
X114138492Y-101709046D01*
X114163353Y-101678753D01*
X114193646Y-101653892D01*
X114228205Y-101635420D01*
X114265701Y-101624045D01*
X114310838Y-101619600D01*
X114949562Y-101619600D01*
X114994699Y-101624045D01*
X114994699Y-101624045D01*
G37*
G36*
X128482099Y-100267745D02*
G01*
X128519595Y-100279120D01*
X128554154Y-100297592D01*
X128584447Y-100322453D01*
X128609308Y-100352746D01*
X128627780Y-100387305D01*
X128639155Y-100424801D01*
X128643600Y-100469938D01*
X128643600Y-101208662D01*
X128639155Y-101253799D01*
X128627780Y-101291295D01*
X128609308Y-101325854D01*
X128584447Y-101356147D01*
X128554154Y-101381008D01*
X128519595Y-101399480D01*
X128482099Y-101410855D01*
X128436962Y-101415300D01*
X127798238Y-101415300D01*
X127753101Y-101410855D01*
X127715605Y-101399480D01*
X127681046Y-101381008D01*
X127650753Y-101356147D01*
X127625892Y-101325854D01*
X127607420Y-101291295D01*
X127596045Y-101253799D01*
X127591600Y-101208662D01*
X127591600Y-100469938D01*
X127596045Y-100424801D01*
X127607420Y-100387305D01*
X127625892Y-100352746D01*
X127650753Y-100322453D01*
X127681046Y-100297592D01*
X127715605Y-100279120D01*
X127753101Y-100267745D01*
X127798238Y-100263300D01*
X128436962Y-100263300D01*
X128482099Y-100267745D01*
X128482099Y-100267745D01*
G37*
G36*
X106884400Y-101195000D02*
G01*
X104622400Y-101195000D01*
X104622400Y-99973000D01*
X106884400Y-99973000D01*
X106884400Y-101195000D01*
X106884400Y-101195000D01*
G37*
G36*
X113614400Y-101195000D02*
G01*
X111352400Y-101195000D01*
X111352400Y-99973000D01*
X113614400Y-99973000D01*
X113614400Y-101195000D01*
X113614400Y-101195000D01*
G37*
G36*
X114994699Y-99874045D02*
G01*
X115032195Y-99885420D01*
X115066754Y-99903892D01*
X115097047Y-99928753D01*
X115121908Y-99959046D01*
X115140380Y-99993605D01*
X115151755Y-100031101D01*
X115156200Y-100076238D01*
X115156200Y-100814962D01*
X115151755Y-100860099D01*
X115140380Y-100897595D01*
X115121908Y-100932154D01*
X115097047Y-100962447D01*
X115066754Y-100987308D01*
X115032195Y-101005780D01*
X114994699Y-101017155D01*
X114949562Y-101021600D01*
X114310838Y-101021600D01*
X114265701Y-101017155D01*
X114228205Y-101005780D01*
X114193646Y-100987308D01*
X114163353Y-100962447D01*
X114138492Y-100932154D01*
X114120020Y-100897595D01*
X114108645Y-100860099D01*
X114104200Y-100814962D01*
X114104200Y-100076238D01*
X114108645Y-100031101D01*
X114120020Y-99993605D01*
X114138492Y-99959046D01*
X114163353Y-99928753D01*
X114193646Y-99903892D01*
X114228205Y-99885420D01*
X114265701Y-99874045D01*
X114310838Y-99869600D01*
X114949562Y-99869600D01*
X114994699Y-99874045D01*
X114994699Y-99874045D01*
G37*
G36*
X103441000Y-100901000D02*
G01*
X101639000Y-100901000D01*
X101639000Y-99099000D01*
X103441000Y-99099000D01*
X103441000Y-100901000D01*
X103441000Y-100901000D01*
G37*
G36*
X100901000Y-100901000D02*
G01*
X99099000Y-100901000D01*
X99099000Y-99099000D01*
X100901000Y-99099000D01*
X100901000Y-100901000D01*
X100901000Y-100901000D01*
G37*
G36*
X98361000Y-100901000D02*
G01*
X96559000Y-100901000D01*
X96559000Y-99099000D01*
X98361000Y-99099000D01*
X98361000Y-100901000D01*
X98361000Y-100901000D01*
G37*
G36*
X128520699Y-98754345D02*
G01*
X128558195Y-98765720D01*
X128592754Y-98784192D01*
X128623047Y-98809053D01*
X128647908Y-98839346D01*
X128666380Y-98873905D01*
X128677755Y-98911401D01*
X128682200Y-98956538D01*
X128682200Y-99595262D01*
X128677755Y-99640399D01*
X128666380Y-99677895D01*
X128647908Y-99712454D01*
X128623047Y-99742747D01*
X128592754Y-99767608D01*
X128558195Y-99786080D01*
X128520699Y-99797455D01*
X128475562Y-99801900D01*
X127736838Y-99801900D01*
X127691701Y-99797455D01*
X127654205Y-99786080D01*
X127619646Y-99767608D01*
X127589353Y-99742747D01*
X127564492Y-99712454D01*
X127546020Y-99677895D01*
X127534645Y-99640399D01*
X127530200Y-99595262D01*
X127530200Y-98956538D01*
X127534645Y-98911401D01*
X127546020Y-98873905D01*
X127564492Y-98839346D01*
X127589353Y-98809053D01*
X127619646Y-98784192D01*
X127654205Y-98765720D01*
X127691701Y-98754345D01*
X127736838Y-98749900D01*
X128475562Y-98749900D01*
X128520699Y-98754345D01*
X128520699Y-98754345D01*
G37*
G36*
X130270699Y-98754345D02*
G01*
X130308195Y-98765720D01*
X130342754Y-98784192D01*
X130373047Y-98809053D01*
X130397908Y-98839346D01*
X130416380Y-98873905D01*
X130427755Y-98911401D01*
X130432200Y-98956538D01*
X130432200Y-99595262D01*
X130427755Y-99640399D01*
X130416380Y-99677895D01*
X130397908Y-99712454D01*
X130373047Y-99742747D01*
X130342754Y-99767608D01*
X130308195Y-99786080D01*
X130270699Y-99797455D01*
X130225562Y-99801900D01*
X129486838Y-99801900D01*
X129441701Y-99797455D01*
X129404205Y-99786080D01*
X129369646Y-99767608D01*
X129339353Y-99742747D01*
X129314492Y-99712454D01*
X129296020Y-99677895D01*
X129284645Y-99640399D01*
X129280200Y-99595262D01*
X129280200Y-98956538D01*
X129284645Y-98911401D01*
X129296020Y-98873905D01*
X129314492Y-98839346D01*
X129339353Y-98809053D01*
X129369646Y-98784192D01*
X129404205Y-98765720D01*
X129441701Y-98754345D01*
X129486838Y-98749900D01*
X130225562Y-98749900D01*
X130270699Y-98754345D01*
X130270699Y-98754345D01*
G37*
M02*
