G04 #@! TF.GenerationSoftware,KiCad,Pcbnew,5.1.1-8be2ce7~80~ubuntu18.04.1*
G04 #@! TF.CreationDate,2019-05-08T10:27:23+07:00*
G04 #@! TF.ProjectId,driver-servo-esp32,64726976-6572-42d7-9365-72766f2d6573,rev?*
G04 #@! TF.SameCoordinates,Original*
G04 #@! TF.FileFunction,Soldermask,Bot*
G04 #@! TF.FilePolarity,Negative*
%FSLAX46Y46*%
G04 Gerber Fmt 4.6, Leading zero omitted, Abs format (unit mm)*
G04 Created by KiCad (PCBNEW 5.1.1-8be2ce7~80~ubuntu18.04.1) date 2019-05-08 10:27:23*
%MOMM*%
%LPD*%
G04 APERTURE LIST*
%ADD10C,0.100000*%
G04 APERTURE END LIST*
D10*
G36*
X100911985Y-142567002D02*
G01*
X101061810Y-142596804D01*
X101344074Y-142713721D01*
X101598105Y-142883459D01*
X101814141Y-143099495D01*
X101983879Y-143353526D01*
X102100796Y-143635790D01*
X102160400Y-143935440D01*
X102160400Y-144240960D01*
X102100796Y-144540610D01*
X101983879Y-144822874D01*
X101814141Y-145076905D01*
X101598105Y-145292941D01*
X101344074Y-145462679D01*
X101061810Y-145579596D01*
X100911985Y-145609398D01*
X100762161Y-145639200D01*
X100456639Y-145639200D01*
X100306815Y-145609398D01*
X100156990Y-145579596D01*
X99874726Y-145462679D01*
X99620695Y-145292941D01*
X99404659Y-145076905D01*
X99234921Y-144822874D01*
X99118004Y-144540610D01*
X99058400Y-144240960D01*
X99058400Y-143935440D01*
X99118004Y-143635790D01*
X99234921Y-143353526D01*
X99404659Y-143099495D01*
X99620695Y-142883459D01*
X99874726Y-142713721D01*
X100156990Y-142596804D01*
X100306815Y-142567002D01*
X100456639Y-142537200D01*
X100762161Y-142537200D01*
X100911985Y-142567002D01*
X100911985Y-142567002D01*
G37*
G36*
X111928825Y-136637960D02*
G01*
X111928828Y-136637961D01*
X111928829Y-136637961D01*
X112108093Y-136692340D01*
X112108096Y-136692342D01*
X112108097Y-136692342D01*
X112273303Y-136780646D01*
X112418112Y-136899488D01*
X112536954Y-137044297D01*
X112625258Y-137209503D01*
X112625260Y-137209507D01*
X112679639Y-137388771D01*
X112679640Y-137388775D01*
X112698001Y-137575200D01*
X112679640Y-137761625D01*
X112679639Y-137761628D01*
X112679639Y-137761629D01*
X112625260Y-137940893D01*
X112625258Y-137940896D01*
X112625258Y-137940897D01*
X112536954Y-138106103D01*
X112418112Y-138250912D01*
X112273303Y-138369754D01*
X112108097Y-138458058D01*
X112108093Y-138458060D01*
X111928829Y-138512439D01*
X111928828Y-138512439D01*
X111928825Y-138512440D01*
X111789118Y-138526200D01*
X109495682Y-138526200D01*
X109355975Y-138512440D01*
X109355972Y-138512439D01*
X109355971Y-138512439D01*
X109176707Y-138458060D01*
X109176703Y-138458058D01*
X109011497Y-138369754D01*
X108866688Y-138250912D01*
X108747846Y-138106103D01*
X108659542Y-137940897D01*
X108659542Y-137940896D01*
X108659540Y-137940893D01*
X108605161Y-137761629D01*
X108605161Y-137761628D01*
X108605160Y-137761625D01*
X108586799Y-137575200D01*
X108605160Y-137388775D01*
X108605161Y-137388771D01*
X108659540Y-137209507D01*
X108659542Y-137209503D01*
X108747846Y-137044297D01*
X108866688Y-136899488D01*
X109011497Y-136780646D01*
X109176703Y-136692342D01*
X109176704Y-136692342D01*
X109176707Y-136692340D01*
X109355971Y-136637961D01*
X109355972Y-136637961D01*
X109355975Y-136637960D01*
X109495682Y-136624200D01*
X111789118Y-136624200D01*
X111928825Y-136637960D01*
X111928825Y-136637960D01*
G37*
G36*
X115628824Y-132737960D02*
G01*
X115628827Y-132737961D01*
X115628828Y-132737961D01*
X115808092Y-132792340D01*
X115808095Y-132792342D01*
X115808096Y-132792342D01*
X115973303Y-132880646D01*
X116118112Y-132999488D01*
X116236954Y-133144297D01*
X116325258Y-133309503D01*
X116325260Y-133309507D01*
X116325260Y-133309508D01*
X116379640Y-133488775D01*
X116393400Y-133628482D01*
X116393400Y-135921918D01*
X116379640Y-136061625D01*
X116379639Y-136061628D01*
X116379639Y-136061629D01*
X116325260Y-136240893D01*
X116325258Y-136240896D01*
X116325258Y-136240897D01*
X116236954Y-136406103D01*
X116118112Y-136550912D01*
X115973303Y-136669754D01*
X115808097Y-136758058D01*
X115808093Y-136758060D01*
X115628829Y-136812439D01*
X115628828Y-136812439D01*
X115628825Y-136812440D01*
X115442400Y-136830801D01*
X115255976Y-136812440D01*
X115255973Y-136812439D01*
X115255972Y-136812439D01*
X115076708Y-136758060D01*
X115076704Y-136758058D01*
X114911498Y-136669754D01*
X114766689Y-136550912D01*
X114647847Y-136406103D01*
X114559543Y-136240897D01*
X114559543Y-136240896D01*
X114559541Y-136240893D01*
X114505162Y-136061629D01*
X114505162Y-136061628D01*
X114505161Y-136061625D01*
X114491401Y-135921918D01*
X114491400Y-133628483D01*
X114505160Y-133488776D01*
X114505161Y-133488772D01*
X114559540Y-133309508D01*
X114559543Y-133309503D01*
X114647846Y-133144297D01*
X114766688Y-132999488D01*
X114911497Y-132880646D01*
X115076703Y-132792342D01*
X115076704Y-132792342D01*
X115076707Y-132792340D01*
X115255971Y-132737961D01*
X115255972Y-132737961D01*
X115255975Y-132737960D01*
X115442400Y-132719599D01*
X115628824Y-132737960D01*
X115628824Y-132737960D01*
G37*
G36*
X112893400Y-132726200D02*
G01*
X108391400Y-132726200D01*
X108391400Y-130824200D01*
X112893400Y-130824200D01*
X112893400Y-132726200D01*
X112893400Y-132726200D01*
G37*
G36*
X139970443Y-124105519D02*
G01*
X140036627Y-124112037D01*
X140206466Y-124163557D01*
X140362991Y-124247222D01*
X140398729Y-124276552D01*
X140500186Y-124359814D01*
X140583448Y-124461271D01*
X140612778Y-124497009D01*
X140696443Y-124653534D01*
X140747963Y-124823373D01*
X140765359Y-125000000D01*
X140747963Y-125176627D01*
X140696443Y-125346466D01*
X140612778Y-125502991D01*
X140583448Y-125538729D01*
X140500186Y-125640186D01*
X140398729Y-125723448D01*
X140362991Y-125752778D01*
X140206466Y-125836443D01*
X140036627Y-125887963D01*
X139970443Y-125894481D01*
X139904260Y-125901000D01*
X139815740Y-125901000D01*
X139749557Y-125894481D01*
X139683373Y-125887963D01*
X139513534Y-125836443D01*
X139357009Y-125752778D01*
X139321271Y-125723448D01*
X139219814Y-125640186D01*
X139136552Y-125538729D01*
X139107222Y-125502991D01*
X139023557Y-125346466D01*
X138972037Y-125176627D01*
X138954641Y-125000000D01*
X138972037Y-124823373D01*
X139023557Y-124653534D01*
X139107222Y-124497009D01*
X139136552Y-124461271D01*
X139219814Y-124359814D01*
X139321271Y-124276552D01*
X139357009Y-124247222D01*
X139513534Y-124163557D01*
X139683373Y-124112037D01*
X139749557Y-124105519D01*
X139815740Y-124099000D01*
X139904260Y-124099000D01*
X139970443Y-124105519D01*
X139970443Y-124105519D01*
G37*
G36*
X137430443Y-124105519D02*
G01*
X137496627Y-124112037D01*
X137666466Y-124163557D01*
X137822991Y-124247222D01*
X137858729Y-124276552D01*
X137960186Y-124359814D01*
X138043448Y-124461271D01*
X138072778Y-124497009D01*
X138156443Y-124653534D01*
X138207963Y-124823373D01*
X138225359Y-125000000D01*
X138207963Y-125176627D01*
X138156443Y-125346466D01*
X138072778Y-125502991D01*
X138043448Y-125538729D01*
X137960186Y-125640186D01*
X137858729Y-125723448D01*
X137822991Y-125752778D01*
X137666466Y-125836443D01*
X137496627Y-125887963D01*
X137430443Y-125894481D01*
X137364260Y-125901000D01*
X137275740Y-125901000D01*
X137209557Y-125894481D01*
X137143373Y-125887963D01*
X136973534Y-125836443D01*
X136817009Y-125752778D01*
X136781271Y-125723448D01*
X136679814Y-125640186D01*
X136596552Y-125538729D01*
X136567222Y-125502991D01*
X136483557Y-125346466D01*
X136432037Y-125176627D01*
X136414641Y-125000000D01*
X136432037Y-124823373D01*
X136483557Y-124653534D01*
X136567222Y-124497009D01*
X136596552Y-124461271D01*
X136679814Y-124359814D01*
X136781271Y-124276552D01*
X136817009Y-124247222D01*
X136973534Y-124163557D01*
X137143373Y-124112037D01*
X137209557Y-124105519D01*
X137275740Y-124099000D01*
X137364260Y-124099000D01*
X137430443Y-124105519D01*
X137430443Y-124105519D01*
G37*
G36*
X134890443Y-124105519D02*
G01*
X134956627Y-124112037D01*
X135126466Y-124163557D01*
X135282991Y-124247222D01*
X135318729Y-124276552D01*
X135420186Y-124359814D01*
X135503448Y-124461271D01*
X135532778Y-124497009D01*
X135616443Y-124653534D01*
X135667963Y-124823373D01*
X135685359Y-125000000D01*
X135667963Y-125176627D01*
X135616443Y-125346466D01*
X135532778Y-125502991D01*
X135503448Y-125538729D01*
X135420186Y-125640186D01*
X135318729Y-125723448D01*
X135282991Y-125752778D01*
X135126466Y-125836443D01*
X134956627Y-125887963D01*
X134890443Y-125894481D01*
X134824260Y-125901000D01*
X134735740Y-125901000D01*
X134669557Y-125894481D01*
X134603373Y-125887963D01*
X134433534Y-125836443D01*
X134277009Y-125752778D01*
X134241271Y-125723448D01*
X134139814Y-125640186D01*
X134056552Y-125538729D01*
X134027222Y-125502991D01*
X133943557Y-125346466D01*
X133892037Y-125176627D01*
X133874641Y-125000000D01*
X133892037Y-124823373D01*
X133943557Y-124653534D01*
X134027222Y-124497009D01*
X134056552Y-124461271D01*
X134139814Y-124359814D01*
X134241271Y-124276552D01*
X134277009Y-124247222D01*
X134433534Y-124163557D01*
X134603373Y-124112037D01*
X134669557Y-124105519D01*
X134735740Y-124099000D01*
X134824260Y-124099000D01*
X134890443Y-124105519D01*
X134890443Y-124105519D01*
G37*
G36*
X132350443Y-124105519D02*
G01*
X132416627Y-124112037D01*
X132586466Y-124163557D01*
X132742991Y-124247222D01*
X132778729Y-124276552D01*
X132880186Y-124359814D01*
X132963448Y-124461271D01*
X132992778Y-124497009D01*
X133076443Y-124653534D01*
X133127963Y-124823373D01*
X133145359Y-125000000D01*
X133127963Y-125176627D01*
X133076443Y-125346466D01*
X132992778Y-125502991D01*
X132963448Y-125538729D01*
X132880186Y-125640186D01*
X132778729Y-125723448D01*
X132742991Y-125752778D01*
X132586466Y-125836443D01*
X132416627Y-125887963D01*
X132350443Y-125894481D01*
X132284260Y-125901000D01*
X132195740Y-125901000D01*
X132129557Y-125894481D01*
X132063373Y-125887963D01*
X131893534Y-125836443D01*
X131737009Y-125752778D01*
X131701271Y-125723448D01*
X131599814Y-125640186D01*
X131516552Y-125538729D01*
X131487222Y-125502991D01*
X131403557Y-125346466D01*
X131352037Y-125176627D01*
X131334641Y-125000000D01*
X131352037Y-124823373D01*
X131403557Y-124653534D01*
X131487222Y-124497009D01*
X131516552Y-124461271D01*
X131599814Y-124359814D01*
X131701271Y-124276552D01*
X131737009Y-124247222D01*
X131893534Y-124163557D01*
X132063373Y-124112037D01*
X132129557Y-124105519D01*
X132195740Y-124099000D01*
X132284260Y-124099000D01*
X132350443Y-124105519D01*
X132350443Y-124105519D01*
G37*
G36*
X130601000Y-125901000D02*
G01*
X128799000Y-125901000D01*
X128799000Y-124099000D01*
X130601000Y-124099000D01*
X130601000Y-125901000D01*
X130601000Y-125901000D01*
G37*
G36*
X142510443Y-124105519D02*
G01*
X142576627Y-124112037D01*
X142746466Y-124163557D01*
X142902991Y-124247222D01*
X142938729Y-124276552D01*
X143040186Y-124359814D01*
X143123448Y-124461271D01*
X143152778Y-124497009D01*
X143236443Y-124653534D01*
X143287963Y-124823373D01*
X143305359Y-125000000D01*
X143287963Y-125176627D01*
X143236443Y-125346466D01*
X143152778Y-125502991D01*
X143123448Y-125538729D01*
X143040186Y-125640186D01*
X142938729Y-125723448D01*
X142902991Y-125752778D01*
X142746466Y-125836443D01*
X142576627Y-125887963D01*
X142510443Y-125894481D01*
X142444260Y-125901000D01*
X142355740Y-125901000D01*
X142289557Y-125894481D01*
X142223373Y-125887963D01*
X142053534Y-125836443D01*
X141897009Y-125752778D01*
X141861271Y-125723448D01*
X141759814Y-125640186D01*
X141676552Y-125538729D01*
X141647222Y-125502991D01*
X141563557Y-125346466D01*
X141512037Y-125176627D01*
X141494641Y-125000000D01*
X141512037Y-124823373D01*
X141563557Y-124653534D01*
X141647222Y-124497009D01*
X141676552Y-124461271D01*
X141759814Y-124359814D01*
X141861271Y-124276552D01*
X141897009Y-124247222D01*
X142053534Y-124163557D01*
X142223373Y-124112037D01*
X142289557Y-124105519D01*
X142355740Y-124099000D01*
X142444260Y-124099000D01*
X142510443Y-124105519D01*
X142510443Y-124105519D01*
G37*
G36*
X100911985Y-119967002D02*
G01*
X101061810Y-119996804D01*
X101344074Y-120113721D01*
X101598105Y-120283459D01*
X101814141Y-120499495D01*
X101983879Y-120753526D01*
X102100796Y-121035790D01*
X102160400Y-121335440D01*
X102160400Y-121640960D01*
X102100796Y-121940610D01*
X101983879Y-122222874D01*
X101814141Y-122476905D01*
X101598105Y-122692941D01*
X101344074Y-122862679D01*
X101061810Y-122979596D01*
X100911985Y-123009398D01*
X100762161Y-123039200D01*
X100456639Y-123039200D01*
X100306815Y-123009398D01*
X100156990Y-122979596D01*
X99874726Y-122862679D01*
X99620695Y-122692941D01*
X99404659Y-122476905D01*
X99234921Y-122222874D01*
X99118004Y-121940610D01*
X99058400Y-121640960D01*
X99058400Y-121335440D01*
X99118004Y-121035790D01*
X99234921Y-120753526D01*
X99404659Y-120499495D01*
X99620695Y-120283459D01*
X99874726Y-120113721D01*
X100156990Y-119996804D01*
X100306815Y-119967002D01*
X100456639Y-119937200D01*
X100762161Y-119937200D01*
X100911985Y-119967002D01*
X100911985Y-119967002D01*
G37*
G36*
X97570442Y-116885518D02*
G01*
X97636627Y-116892037D01*
X97806466Y-116943557D01*
X97962991Y-117027222D01*
X97998729Y-117056552D01*
X98100186Y-117139814D01*
X98183448Y-117241271D01*
X98212778Y-117277009D01*
X98296443Y-117433534D01*
X98347963Y-117603373D01*
X98365359Y-117780000D01*
X98347963Y-117956627D01*
X98296443Y-118126466D01*
X98212778Y-118282991D01*
X98183448Y-118318729D01*
X98100186Y-118420186D01*
X97998729Y-118503448D01*
X97962991Y-118532778D01*
X97806466Y-118616443D01*
X97636627Y-118667963D01*
X97570442Y-118674482D01*
X97504260Y-118681000D01*
X97415740Y-118681000D01*
X97349558Y-118674482D01*
X97283373Y-118667963D01*
X97113534Y-118616443D01*
X96957009Y-118532778D01*
X96921271Y-118503448D01*
X96819814Y-118420186D01*
X96736552Y-118318729D01*
X96707222Y-118282991D01*
X96623557Y-118126466D01*
X96572037Y-117956627D01*
X96554641Y-117780000D01*
X96572037Y-117603373D01*
X96623557Y-117433534D01*
X96707222Y-117277009D01*
X96736552Y-117241271D01*
X96819814Y-117139814D01*
X96921271Y-117056552D01*
X96957009Y-117027222D01*
X97113534Y-116943557D01*
X97283373Y-116892037D01*
X97349558Y-116885518D01*
X97415740Y-116879000D01*
X97504260Y-116879000D01*
X97570442Y-116885518D01*
X97570442Y-116885518D01*
G37*
G36*
X100110442Y-116885518D02*
G01*
X100176627Y-116892037D01*
X100346466Y-116943557D01*
X100502991Y-117027222D01*
X100538729Y-117056552D01*
X100640186Y-117139814D01*
X100723448Y-117241271D01*
X100752778Y-117277009D01*
X100836443Y-117433534D01*
X100887963Y-117603373D01*
X100905359Y-117780000D01*
X100887963Y-117956627D01*
X100836443Y-118126466D01*
X100752778Y-118282991D01*
X100723448Y-118318729D01*
X100640186Y-118420186D01*
X100538729Y-118503448D01*
X100502991Y-118532778D01*
X100346466Y-118616443D01*
X100176627Y-118667963D01*
X100110442Y-118674482D01*
X100044260Y-118681000D01*
X99955740Y-118681000D01*
X99889558Y-118674482D01*
X99823373Y-118667963D01*
X99653534Y-118616443D01*
X99497009Y-118532778D01*
X99461271Y-118503448D01*
X99359814Y-118420186D01*
X99276552Y-118318729D01*
X99247222Y-118282991D01*
X99163557Y-118126466D01*
X99112037Y-117956627D01*
X99094641Y-117780000D01*
X99112037Y-117603373D01*
X99163557Y-117433534D01*
X99247222Y-117277009D01*
X99276552Y-117241271D01*
X99359814Y-117139814D01*
X99461271Y-117056552D01*
X99497009Y-117027222D01*
X99653534Y-116943557D01*
X99823373Y-116892037D01*
X99889558Y-116885518D01*
X99955740Y-116879000D01*
X100044260Y-116879000D01*
X100110442Y-116885518D01*
X100110442Y-116885518D01*
G37*
G36*
X102650442Y-116885518D02*
G01*
X102716627Y-116892037D01*
X102886466Y-116943557D01*
X103042991Y-117027222D01*
X103078729Y-117056552D01*
X103180186Y-117139814D01*
X103263448Y-117241271D01*
X103292778Y-117277009D01*
X103376443Y-117433534D01*
X103427963Y-117603373D01*
X103445359Y-117780000D01*
X103427963Y-117956627D01*
X103376443Y-118126466D01*
X103292778Y-118282991D01*
X103263448Y-118318729D01*
X103180186Y-118420186D01*
X103078729Y-118503448D01*
X103042991Y-118532778D01*
X102886466Y-118616443D01*
X102716627Y-118667963D01*
X102650442Y-118674482D01*
X102584260Y-118681000D01*
X102495740Y-118681000D01*
X102429558Y-118674482D01*
X102363373Y-118667963D01*
X102193534Y-118616443D01*
X102037009Y-118532778D01*
X102001271Y-118503448D01*
X101899814Y-118420186D01*
X101816552Y-118318729D01*
X101787222Y-118282991D01*
X101703557Y-118126466D01*
X101652037Y-117956627D01*
X101634641Y-117780000D01*
X101652037Y-117603373D01*
X101703557Y-117433534D01*
X101787222Y-117277009D01*
X101816552Y-117241271D01*
X101899814Y-117139814D01*
X102001271Y-117056552D01*
X102037009Y-117027222D01*
X102193534Y-116943557D01*
X102363373Y-116892037D01*
X102429558Y-116885518D01*
X102495740Y-116879000D01*
X102584260Y-116879000D01*
X102650442Y-116885518D01*
X102650442Y-116885518D01*
G37*
G36*
X100110443Y-114345519D02*
G01*
X100176627Y-114352037D01*
X100346466Y-114403557D01*
X100502991Y-114487222D01*
X100538729Y-114516552D01*
X100640186Y-114599814D01*
X100723448Y-114701271D01*
X100752778Y-114737009D01*
X100836443Y-114893534D01*
X100887963Y-115063373D01*
X100905359Y-115240000D01*
X100887963Y-115416627D01*
X100836443Y-115586466D01*
X100752778Y-115742991D01*
X100723448Y-115778729D01*
X100640186Y-115880186D01*
X100538729Y-115963448D01*
X100502991Y-115992778D01*
X100346466Y-116076443D01*
X100176627Y-116127963D01*
X100110442Y-116134482D01*
X100044260Y-116141000D01*
X99955740Y-116141000D01*
X99889558Y-116134482D01*
X99823373Y-116127963D01*
X99653534Y-116076443D01*
X99497009Y-115992778D01*
X99461271Y-115963448D01*
X99359814Y-115880186D01*
X99276552Y-115778729D01*
X99247222Y-115742991D01*
X99163557Y-115586466D01*
X99112037Y-115416627D01*
X99094641Y-115240000D01*
X99112037Y-115063373D01*
X99163557Y-114893534D01*
X99247222Y-114737009D01*
X99276552Y-114701271D01*
X99359814Y-114599814D01*
X99461271Y-114516552D01*
X99497009Y-114487222D01*
X99653534Y-114403557D01*
X99823373Y-114352037D01*
X99889557Y-114345519D01*
X99955740Y-114339000D01*
X100044260Y-114339000D01*
X100110443Y-114345519D01*
X100110443Y-114345519D01*
G37*
G36*
X97570443Y-114345519D02*
G01*
X97636627Y-114352037D01*
X97806466Y-114403557D01*
X97962991Y-114487222D01*
X97998729Y-114516552D01*
X98100186Y-114599814D01*
X98183448Y-114701271D01*
X98212778Y-114737009D01*
X98296443Y-114893534D01*
X98347963Y-115063373D01*
X98365359Y-115240000D01*
X98347963Y-115416627D01*
X98296443Y-115586466D01*
X98212778Y-115742991D01*
X98183448Y-115778729D01*
X98100186Y-115880186D01*
X97998729Y-115963448D01*
X97962991Y-115992778D01*
X97806466Y-116076443D01*
X97636627Y-116127963D01*
X97570442Y-116134482D01*
X97504260Y-116141000D01*
X97415740Y-116141000D01*
X97349558Y-116134482D01*
X97283373Y-116127963D01*
X97113534Y-116076443D01*
X96957009Y-115992778D01*
X96921271Y-115963448D01*
X96819814Y-115880186D01*
X96736552Y-115778729D01*
X96707222Y-115742991D01*
X96623557Y-115586466D01*
X96572037Y-115416627D01*
X96554641Y-115240000D01*
X96572037Y-115063373D01*
X96623557Y-114893534D01*
X96707222Y-114737009D01*
X96736552Y-114701271D01*
X96819814Y-114599814D01*
X96921271Y-114516552D01*
X96957009Y-114487222D01*
X97113534Y-114403557D01*
X97283373Y-114352037D01*
X97349557Y-114345519D01*
X97415740Y-114339000D01*
X97504260Y-114339000D01*
X97570443Y-114345519D01*
X97570443Y-114345519D01*
G37*
G36*
X102650443Y-114345519D02*
G01*
X102716627Y-114352037D01*
X102886466Y-114403557D01*
X103042991Y-114487222D01*
X103078729Y-114516552D01*
X103180186Y-114599814D01*
X103263448Y-114701271D01*
X103292778Y-114737009D01*
X103376443Y-114893534D01*
X103427963Y-115063373D01*
X103445359Y-115240000D01*
X103427963Y-115416627D01*
X103376443Y-115586466D01*
X103292778Y-115742991D01*
X103263448Y-115778729D01*
X103180186Y-115880186D01*
X103078729Y-115963448D01*
X103042991Y-115992778D01*
X102886466Y-116076443D01*
X102716627Y-116127963D01*
X102650442Y-116134482D01*
X102584260Y-116141000D01*
X102495740Y-116141000D01*
X102429558Y-116134482D01*
X102363373Y-116127963D01*
X102193534Y-116076443D01*
X102037009Y-115992778D01*
X102001271Y-115963448D01*
X101899814Y-115880186D01*
X101816552Y-115778729D01*
X101787222Y-115742991D01*
X101703557Y-115586466D01*
X101652037Y-115416627D01*
X101634641Y-115240000D01*
X101652037Y-115063373D01*
X101703557Y-114893534D01*
X101787222Y-114737009D01*
X101816552Y-114701271D01*
X101899814Y-114599814D01*
X102001271Y-114516552D01*
X102037009Y-114487222D01*
X102193534Y-114403557D01*
X102363373Y-114352037D01*
X102429557Y-114345519D01*
X102495740Y-114339000D01*
X102584260Y-114339000D01*
X102650443Y-114345519D01*
X102650443Y-114345519D01*
G37*
G36*
X102650442Y-111805518D02*
G01*
X102716627Y-111812037D01*
X102886466Y-111863557D01*
X103042991Y-111947222D01*
X103078729Y-111976552D01*
X103180186Y-112059814D01*
X103263448Y-112161271D01*
X103292778Y-112197009D01*
X103376443Y-112353534D01*
X103427963Y-112523373D01*
X103445359Y-112700000D01*
X103427963Y-112876627D01*
X103376443Y-113046466D01*
X103292778Y-113202991D01*
X103263448Y-113238729D01*
X103180186Y-113340186D01*
X103078729Y-113423448D01*
X103042991Y-113452778D01*
X102886466Y-113536443D01*
X102716627Y-113587963D01*
X102650443Y-113594481D01*
X102584260Y-113601000D01*
X102495740Y-113601000D01*
X102429557Y-113594481D01*
X102363373Y-113587963D01*
X102193534Y-113536443D01*
X102037009Y-113452778D01*
X102001271Y-113423448D01*
X101899814Y-113340186D01*
X101816552Y-113238729D01*
X101787222Y-113202991D01*
X101703557Y-113046466D01*
X101652037Y-112876627D01*
X101634641Y-112700000D01*
X101652037Y-112523373D01*
X101703557Y-112353534D01*
X101787222Y-112197009D01*
X101816552Y-112161271D01*
X101899814Y-112059814D01*
X102001271Y-111976552D01*
X102037009Y-111947222D01*
X102193534Y-111863557D01*
X102363373Y-111812037D01*
X102429558Y-111805518D01*
X102495740Y-111799000D01*
X102584260Y-111799000D01*
X102650442Y-111805518D01*
X102650442Y-111805518D01*
G37*
G36*
X100110442Y-111805518D02*
G01*
X100176627Y-111812037D01*
X100346466Y-111863557D01*
X100502991Y-111947222D01*
X100538729Y-111976552D01*
X100640186Y-112059814D01*
X100723448Y-112161271D01*
X100752778Y-112197009D01*
X100836443Y-112353534D01*
X100887963Y-112523373D01*
X100905359Y-112700000D01*
X100887963Y-112876627D01*
X100836443Y-113046466D01*
X100752778Y-113202991D01*
X100723448Y-113238729D01*
X100640186Y-113340186D01*
X100538729Y-113423448D01*
X100502991Y-113452778D01*
X100346466Y-113536443D01*
X100176627Y-113587963D01*
X100110443Y-113594481D01*
X100044260Y-113601000D01*
X99955740Y-113601000D01*
X99889557Y-113594481D01*
X99823373Y-113587963D01*
X99653534Y-113536443D01*
X99497009Y-113452778D01*
X99461271Y-113423448D01*
X99359814Y-113340186D01*
X99276552Y-113238729D01*
X99247222Y-113202991D01*
X99163557Y-113046466D01*
X99112037Y-112876627D01*
X99094641Y-112700000D01*
X99112037Y-112523373D01*
X99163557Y-112353534D01*
X99247222Y-112197009D01*
X99276552Y-112161271D01*
X99359814Y-112059814D01*
X99461271Y-111976552D01*
X99497009Y-111947222D01*
X99653534Y-111863557D01*
X99823373Y-111812037D01*
X99889558Y-111805518D01*
X99955740Y-111799000D01*
X100044260Y-111799000D01*
X100110442Y-111805518D01*
X100110442Y-111805518D01*
G37*
G36*
X97570442Y-111805518D02*
G01*
X97636627Y-111812037D01*
X97806466Y-111863557D01*
X97962991Y-111947222D01*
X97998729Y-111976552D01*
X98100186Y-112059814D01*
X98183448Y-112161271D01*
X98212778Y-112197009D01*
X98296443Y-112353534D01*
X98347963Y-112523373D01*
X98365359Y-112700000D01*
X98347963Y-112876627D01*
X98296443Y-113046466D01*
X98212778Y-113202991D01*
X98183448Y-113238729D01*
X98100186Y-113340186D01*
X97998729Y-113423448D01*
X97962991Y-113452778D01*
X97806466Y-113536443D01*
X97636627Y-113587963D01*
X97570443Y-113594481D01*
X97504260Y-113601000D01*
X97415740Y-113601000D01*
X97349557Y-113594481D01*
X97283373Y-113587963D01*
X97113534Y-113536443D01*
X96957009Y-113452778D01*
X96921271Y-113423448D01*
X96819814Y-113340186D01*
X96736552Y-113238729D01*
X96707222Y-113202991D01*
X96623557Y-113046466D01*
X96572037Y-112876627D01*
X96554641Y-112700000D01*
X96572037Y-112523373D01*
X96623557Y-112353534D01*
X96707222Y-112197009D01*
X96736552Y-112161271D01*
X96819814Y-112059814D01*
X96921271Y-111976552D01*
X96957009Y-111947222D01*
X97113534Y-111863557D01*
X97283373Y-111812037D01*
X97349558Y-111805518D01*
X97415740Y-111799000D01*
X97504260Y-111799000D01*
X97570442Y-111805518D01*
X97570442Y-111805518D01*
G37*
G36*
X97570442Y-109265518D02*
G01*
X97636627Y-109272037D01*
X97806466Y-109323557D01*
X97962991Y-109407222D01*
X97998729Y-109436552D01*
X98100186Y-109519814D01*
X98183448Y-109621271D01*
X98212778Y-109657009D01*
X98296443Y-109813534D01*
X98347963Y-109983373D01*
X98365359Y-110160000D01*
X98347963Y-110336627D01*
X98296443Y-110506466D01*
X98212778Y-110662991D01*
X98183448Y-110698729D01*
X98100186Y-110800186D01*
X97998729Y-110883448D01*
X97962991Y-110912778D01*
X97806466Y-110996443D01*
X97636627Y-111047963D01*
X97570442Y-111054482D01*
X97504260Y-111061000D01*
X97415740Y-111061000D01*
X97349558Y-111054482D01*
X97283373Y-111047963D01*
X97113534Y-110996443D01*
X96957009Y-110912778D01*
X96921271Y-110883448D01*
X96819814Y-110800186D01*
X96736552Y-110698729D01*
X96707222Y-110662991D01*
X96623557Y-110506466D01*
X96572037Y-110336627D01*
X96554641Y-110160000D01*
X96572037Y-109983373D01*
X96623557Y-109813534D01*
X96707222Y-109657009D01*
X96736552Y-109621271D01*
X96819814Y-109519814D01*
X96921271Y-109436552D01*
X96957009Y-109407222D01*
X97113534Y-109323557D01*
X97283373Y-109272037D01*
X97349558Y-109265518D01*
X97415740Y-109259000D01*
X97504260Y-109259000D01*
X97570442Y-109265518D01*
X97570442Y-109265518D01*
G37*
G36*
X100110442Y-109265518D02*
G01*
X100176627Y-109272037D01*
X100346466Y-109323557D01*
X100502991Y-109407222D01*
X100538729Y-109436552D01*
X100640186Y-109519814D01*
X100723448Y-109621271D01*
X100752778Y-109657009D01*
X100836443Y-109813534D01*
X100887963Y-109983373D01*
X100905359Y-110160000D01*
X100887963Y-110336627D01*
X100836443Y-110506466D01*
X100752778Y-110662991D01*
X100723448Y-110698729D01*
X100640186Y-110800186D01*
X100538729Y-110883448D01*
X100502991Y-110912778D01*
X100346466Y-110996443D01*
X100176627Y-111047963D01*
X100110442Y-111054482D01*
X100044260Y-111061000D01*
X99955740Y-111061000D01*
X99889558Y-111054482D01*
X99823373Y-111047963D01*
X99653534Y-110996443D01*
X99497009Y-110912778D01*
X99461271Y-110883448D01*
X99359814Y-110800186D01*
X99276552Y-110698729D01*
X99247222Y-110662991D01*
X99163557Y-110506466D01*
X99112037Y-110336627D01*
X99094641Y-110160000D01*
X99112037Y-109983373D01*
X99163557Y-109813534D01*
X99247222Y-109657009D01*
X99276552Y-109621271D01*
X99359814Y-109519814D01*
X99461271Y-109436552D01*
X99497009Y-109407222D01*
X99653534Y-109323557D01*
X99823373Y-109272037D01*
X99889558Y-109265518D01*
X99955740Y-109259000D01*
X100044260Y-109259000D01*
X100110442Y-109265518D01*
X100110442Y-109265518D01*
G37*
G36*
X102650442Y-109265518D02*
G01*
X102716627Y-109272037D01*
X102886466Y-109323557D01*
X103042991Y-109407222D01*
X103078729Y-109436552D01*
X103180186Y-109519814D01*
X103263448Y-109621271D01*
X103292778Y-109657009D01*
X103376443Y-109813534D01*
X103427963Y-109983373D01*
X103445359Y-110160000D01*
X103427963Y-110336627D01*
X103376443Y-110506466D01*
X103292778Y-110662991D01*
X103263448Y-110698729D01*
X103180186Y-110800186D01*
X103078729Y-110883448D01*
X103042991Y-110912778D01*
X102886466Y-110996443D01*
X102716627Y-111047963D01*
X102650442Y-111054482D01*
X102584260Y-111061000D01*
X102495740Y-111061000D01*
X102429558Y-111054482D01*
X102363373Y-111047963D01*
X102193534Y-110996443D01*
X102037009Y-110912778D01*
X102001271Y-110883448D01*
X101899814Y-110800186D01*
X101816552Y-110698729D01*
X101787222Y-110662991D01*
X101703557Y-110506466D01*
X101652037Y-110336627D01*
X101634641Y-110160000D01*
X101652037Y-109983373D01*
X101703557Y-109813534D01*
X101787222Y-109657009D01*
X101816552Y-109621271D01*
X101899814Y-109519814D01*
X102001271Y-109436552D01*
X102037009Y-109407222D01*
X102193534Y-109323557D01*
X102363373Y-109272037D01*
X102429558Y-109265518D01*
X102495740Y-109259000D01*
X102584260Y-109259000D01*
X102650442Y-109265518D01*
X102650442Y-109265518D01*
G37*
G36*
X97570443Y-106725519D02*
G01*
X97636627Y-106732037D01*
X97806466Y-106783557D01*
X97962991Y-106867222D01*
X97998729Y-106896552D01*
X98100186Y-106979814D01*
X98183448Y-107081271D01*
X98212778Y-107117009D01*
X98296443Y-107273534D01*
X98347963Y-107443373D01*
X98365359Y-107620000D01*
X98347963Y-107796627D01*
X98296443Y-107966466D01*
X98212778Y-108122991D01*
X98183448Y-108158729D01*
X98100186Y-108260186D01*
X97998729Y-108343448D01*
X97962991Y-108372778D01*
X97806466Y-108456443D01*
X97636627Y-108507963D01*
X97570442Y-108514482D01*
X97504260Y-108521000D01*
X97415740Y-108521000D01*
X97349558Y-108514482D01*
X97283373Y-108507963D01*
X97113534Y-108456443D01*
X96957009Y-108372778D01*
X96921271Y-108343448D01*
X96819814Y-108260186D01*
X96736552Y-108158729D01*
X96707222Y-108122991D01*
X96623557Y-107966466D01*
X96572037Y-107796627D01*
X96554641Y-107620000D01*
X96572037Y-107443373D01*
X96623557Y-107273534D01*
X96707222Y-107117009D01*
X96736552Y-107081271D01*
X96819814Y-106979814D01*
X96921271Y-106896552D01*
X96957009Y-106867222D01*
X97113534Y-106783557D01*
X97283373Y-106732037D01*
X97349557Y-106725519D01*
X97415740Y-106719000D01*
X97504260Y-106719000D01*
X97570443Y-106725519D01*
X97570443Y-106725519D01*
G37*
G36*
X102650443Y-106725519D02*
G01*
X102716627Y-106732037D01*
X102886466Y-106783557D01*
X103042991Y-106867222D01*
X103078729Y-106896552D01*
X103180186Y-106979814D01*
X103263448Y-107081271D01*
X103292778Y-107117009D01*
X103376443Y-107273534D01*
X103427963Y-107443373D01*
X103445359Y-107620000D01*
X103427963Y-107796627D01*
X103376443Y-107966466D01*
X103292778Y-108122991D01*
X103263448Y-108158729D01*
X103180186Y-108260186D01*
X103078729Y-108343448D01*
X103042991Y-108372778D01*
X102886466Y-108456443D01*
X102716627Y-108507963D01*
X102650442Y-108514482D01*
X102584260Y-108521000D01*
X102495740Y-108521000D01*
X102429558Y-108514482D01*
X102363373Y-108507963D01*
X102193534Y-108456443D01*
X102037009Y-108372778D01*
X102001271Y-108343448D01*
X101899814Y-108260186D01*
X101816552Y-108158729D01*
X101787222Y-108122991D01*
X101703557Y-107966466D01*
X101652037Y-107796627D01*
X101634641Y-107620000D01*
X101652037Y-107443373D01*
X101703557Y-107273534D01*
X101787222Y-107117009D01*
X101816552Y-107081271D01*
X101899814Y-106979814D01*
X102001271Y-106896552D01*
X102037009Y-106867222D01*
X102193534Y-106783557D01*
X102363373Y-106732037D01*
X102429557Y-106725519D01*
X102495740Y-106719000D01*
X102584260Y-106719000D01*
X102650443Y-106725519D01*
X102650443Y-106725519D01*
G37*
G36*
X100110443Y-106725519D02*
G01*
X100176627Y-106732037D01*
X100346466Y-106783557D01*
X100502991Y-106867222D01*
X100538729Y-106896552D01*
X100640186Y-106979814D01*
X100723448Y-107081271D01*
X100752778Y-107117009D01*
X100836443Y-107273534D01*
X100887963Y-107443373D01*
X100905359Y-107620000D01*
X100887963Y-107796627D01*
X100836443Y-107966466D01*
X100752778Y-108122991D01*
X100723448Y-108158729D01*
X100640186Y-108260186D01*
X100538729Y-108343448D01*
X100502991Y-108372778D01*
X100346466Y-108456443D01*
X100176627Y-108507963D01*
X100110442Y-108514482D01*
X100044260Y-108521000D01*
X99955740Y-108521000D01*
X99889558Y-108514482D01*
X99823373Y-108507963D01*
X99653534Y-108456443D01*
X99497009Y-108372778D01*
X99461271Y-108343448D01*
X99359814Y-108260186D01*
X99276552Y-108158729D01*
X99247222Y-108122991D01*
X99163557Y-107966466D01*
X99112037Y-107796627D01*
X99094641Y-107620000D01*
X99112037Y-107443373D01*
X99163557Y-107273534D01*
X99247222Y-107117009D01*
X99276552Y-107081271D01*
X99359814Y-106979814D01*
X99461271Y-106896552D01*
X99497009Y-106867222D01*
X99653534Y-106783557D01*
X99823373Y-106732037D01*
X99889557Y-106725519D01*
X99955740Y-106719000D01*
X100044260Y-106719000D01*
X100110443Y-106725519D01*
X100110443Y-106725519D01*
G37*
G36*
X102650443Y-104185519D02*
G01*
X102716627Y-104192037D01*
X102886466Y-104243557D01*
X103042991Y-104327222D01*
X103078729Y-104356552D01*
X103180186Y-104439814D01*
X103263448Y-104541271D01*
X103292778Y-104577009D01*
X103376443Y-104733534D01*
X103427963Y-104903373D01*
X103445359Y-105080000D01*
X103427963Y-105256627D01*
X103376443Y-105426466D01*
X103292778Y-105582991D01*
X103263448Y-105618729D01*
X103180186Y-105720186D01*
X103078729Y-105803448D01*
X103042991Y-105832778D01*
X102886466Y-105916443D01*
X102716627Y-105967963D01*
X102650443Y-105974481D01*
X102584260Y-105981000D01*
X102495740Y-105981000D01*
X102429557Y-105974481D01*
X102363373Y-105967963D01*
X102193534Y-105916443D01*
X102037009Y-105832778D01*
X102001271Y-105803448D01*
X101899814Y-105720186D01*
X101816552Y-105618729D01*
X101787222Y-105582991D01*
X101703557Y-105426466D01*
X101652037Y-105256627D01*
X101634641Y-105080000D01*
X101652037Y-104903373D01*
X101703557Y-104733534D01*
X101787222Y-104577009D01*
X101816552Y-104541271D01*
X101899814Y-104439814D01*
X102001271Y-104356552D01*
X102037009Y-104327222D01*
X102193534Y-104243557D01*
X102363373Y-104192037D01*
X102429557Y-104185519D01*
X102495740Y-104179000D01*
X102584260Y-104179000D01*
X102650443Y-104185519D01*
X102650443Y-104185519D01*
G37*
G36*
X97570443Y-104185519D02*
G01*
X97636627Y-104192037D01*
X97806466Y-104243557D01*
X97962991Y-104327222D01*
X97998729Y-104356552D01*
X98100186Y-104439814D01*
X98183448Y-104541271D01*
X98212778Y-104577009D01*
X98296443Y-104733534D01*
X98347963Y-104903373D01*
X98365359Y-105080000D01*
X98347963Y-105256627D01*
X98296443Y-105426466D01*
X98212778Y-105582991D01*
X98183448Y-105618729D01*
X98100186Y-105720186D01*
X97998729Y-105803448D01*
X97962991Y-105832778D01*
X97806466Y-105916443D01*
X97636627Y-105967963D01*
X97570443Y-105974481D01*
X97504260Y-105981000D01*
X97415740Y-105981000D01*
X97349557Y-105974481D01*
X97283373Y-105967963D01*
X97113534Y-105916443D01*
X96957009Y-105832778D01*
X96921271Y-105803448D01*
X96819814Y-105720186D01*
X96736552Y-105618729D01*
X96707222Y-105582991D01*
X96623557Y-105426466D01*
X96572037Y-105256627D01*
X96554641Y-105080000D01*
X96572037Y-104903373D01*
X96623557Y-104733534D01*
X96707222Y-104577009D01*
X96736552Y-104541271D01*
X96819814Y-104439814D01*
X96921271Y-104356552D01*
X96957009Y-104327222D01*
X97113534Y-104243557D01*
X97283373Y-104192037D01*
X97349557Y-104185519D01*
X97415740Y-104179000D01*
X97504260Y-104179000D01*
X97570443Y-104185519D01*
X97570443Y-104185519D01*
G37*
G36*
X100110443Y-104185519D02*
G01*
X100176627Y-104192037D01*
X100346466Y-104243557D01*
X100502991Y-104327222D01*
X100538729Y-104356552D01*
X100640186Y-104439814D01*
X100723448Y-104541271D01*
X100752778Y-104577009D01*
X100836443Y-104733534D01*
X100887963Y-104903373D01*
X100905359Y-105080000D01*
X100887963Y-105256627D01*
X100836443Y-105426466D01*
X100752778Y-105582991D01*
X100723448Y-105618729D01*
X100640186Y-105720186D01*
X100538729Y-105803448D01*
X100502991Y-105832778D01*
X100346466Y-105916443D01*
X100176627Y-105967963D01*
X100110443Y-105974481D01*
X100044260Y-105981000D01*
X99955740Y-105981000D01*
X99889557Y-105974481D01*
X99823373Y-105967963D01*
X99653534Y-105916443D01*
X99497009Y-105832778D01*
X99461271Y-105803448D01*
X99359814Y-105720186D01*
X99276552Y-105618729D01*
X99247222Y-105582991D01*
X99163557Y-105426466D01*
X99112037Y-105256627D01*
X99094641Y-105080000D01*
X99112037Y-104903373D01*
X99163557Y-104733534D01*
X99247222Y-104577009D01*
X99276552Y-104541271D01*
X99359814Y-104439814D01*
X99461271Y-104356552D01*
X99497009Y-104327222D01*
X99653534Y-104243557D01*
X99823373Y-104192037D01*
X99889557Y-104185519D01*
X99955740Y-104179000D01*
X100044260Y-104179000D01*
X100110443Y-104185519D01*
X100110443Y-104185519D01*
G37*
G36*
X100110442Y-101645518D02*
G01*
X100176627Y-101652037D01*
X100346466Y-101703557D01*
X100502991Y-101787222D01*
X100538729Y-101816552D01*
X100640186Y-101899814D01*
X100723448Y-102001271D01*
X100752778Y-102037009D01*
X100836443Y-102193534D01*
X100887963Y-102363373D01*
X100905359Y-102540000D01*
X100887963Y-102716627D01*
X100836443Y-102886466D01*
X100752778Y-103042991D01*
X100723448Y-103078729D01*
X100640186Y-103180186D01*
X100538729Y-103263448D01*
X100502991Y-103292778D01*
X100346466Y-103376443D01*
X100176627Y-103427963D01*
X100110442Y-103434482D01*
X100044260Y-103441000D01*
X99955740Y-103441000D01*
X99889558Y-103434482D01*
X99823373Y-103427963D01*
X99653534Y-103376443D01*
X99497009Y-103292778D01*
X99461271Y-103263448D01*
X99359814Y-103180186D01*
X99276552Y-103078729D01*
X99247222Y-103042991D01*
X99163557Y-102886466D01*
X99112037Y-102716627D01*
X99094641Y-102540000D01*
X99112037Y-102363373D01*
X99163557Y-102193534D01*
X99247222Y-102037009D01*
X99276552Y-102001271D01*
X99359814Y-101899814D01*
X99461271Y-101816552D01*
X99497009Y-101787222D01*
X99653534Y-101703557D01*
X99823373Y-101652037D01*
X99889557Y-101645519D01*
X99955740Y-101639000D01*
X100044260Y-101639000D01*
X100110442Y-101645518D01*
X100110442Y-101645518D01*
G37*
G36*
X97570442Y-101645518D02*
G01*
X97636627Y-101652037D01*
X97806466Y-101703557D01*
X97962991Y-101787222D01*
X97998729Y-101816552D01*
X98100186Y-101899814D01*
X98183448Y-102001271D01*
X98212778Y-102037009D01*
X98296443Y-102193534D01*
X98347963Y-102363373D01*
X98365359Y-102540000D01*
X98347963Y-102716627D01*
X98296443Y-102886466D01*
X98212778Y-103042991D01*
X98183448Y-103078729D01*
X98100186Y-103180186D01*
X97998729Y-103263448D01*
X97962991Y-103292778D01*
X97806466Y-103376443D01*
X97636627Y-103427963D01*
X97570442Y-103434482D01*
X97504260Y-103441000D01*
X97415740Y-103441000D01*
X97349558Y-103434482D01*
X97283373Y-103427963D01*
X97113534Y-103376443D01*
X96957009Y-103292778D01*
X96921271Y-103263448D01*
X96819814Y-103180186D01*
X96736552Y-103078729D01*
X96707222Y-103042991D01*
X96623557Y-102886466D01*
X96572037Y-102716627D01*
X96554641Y-102540000D01*
X96572037Y-102363373D01*
X96623557Y-102193534D01*
X96707222Y-102037009D01*
X96736552Y-102001271D01*
X96819814Y-101899814D01*
X96921271Y-101816552D01*
X96957009Y-101787222D01*
X97113534Y-101703557D01*
X97283373Y-101652037D01*
X97349557Y-101645519D01*
X97415740Y-101639000D01*
X97504260Y-101639000D01*
X97570442Y-101645518D01*
X97570442Y-101645518D01*
G37*
G36*
X102650442Y-101645518D02*
G01*
X102716627Y-101652037D01*
X102886466Y-101703557D01*
X103042991Y-101787222D01*
X103078729Y-101816552D01*
X103180186Y-101899814D01*
X103263448Y-102001271D01*
X103292778Y-102037009D01*
X103376443Y-102193534D01*
X103427963Y-102363373D01*
X103445359Y-102540000D01*
X103427963Y-102716627D01*
X103376443Y-102886466D01*
X103292778Y-103042991D01*
X103263448Y-103078729D01*
X103180186Y-103180186D01*
X103078729Y-103263448D01*
X103042991Y-103292778D01*
X102886466Y-103376443D01*
X102716627Y-103427963D01*
X102650442Y-103434482D01*
X102584260Y-103441000D01*
X102495740Y-103441000D01*
X102429558Y-103434482D01*
X102363373Y-103427963D01*
X102193534Y-103376443D01*
X102037009Y-103292778D01*
X102001271Y-103263448D01*
X101899814Y-103180186D01*
X101816552Y-103078729D01*
X101787222Y-103042991D01*
X101703557Y-102886466D01*
X101652037Y-102716627D01*
X101634641Y-102540000D01*
X101652037Y-102363373D01*
X101703557Y-102193534D01*
X101787222Y-102037009D01*
X101816552Y-102001271D01*
X101899814Y-101899814D01*
X102001271Y-101816552D01*
X102037009Y-101787222D01*
X102193534Y-101703557D01*
X102363373Y-101652037D01*
X102429557Y-101645519D01*
X102495740Y-101639000D01*
X102584260Y-101639000D01*
X102650442Y-101645518D01*
X102650442Y-101645518D01*
G37*
G36*
X103441000Y-100901000D02*
G01*
X101639000Y-100901000D01*
X101639000Y-99099000D01*
X103441000Y-99099000D01*
X103441000Y-100901000D01*
X103441000Y-100901000D01*
G37*
G36*
X98361000Y-100901000D02*
G01*
X96559000Y-100901000D01*
X96559000Y-99099000D01*
X98361000Y-99099000D01*
X98361000Y-100901000D01*
X98361000Y-100901000D01*
G37*
G36*
X100901000Y-100901000D02*
G01*
X99099000Y-100901000D01*
X99099000Y-99099000D01*
X100901000Y-99099000D01*
X100901000Y-100901000D01*
X100901000Y-100901000D01*
G37*
M02*
